<?xml version="1.0" encoding="UTF-8" standalone="no"?>
<!DOCTYPE svg PUBLIC "-//W3C//DTD SVG 1.1//EN"
 "http://www.w3.org/Graphics/SVG/1.1/DTD/svg11.dtd">
<!-- Generated by graphviz version 2.40.1 (20161225.0304)
 -->
<!-- Title: Tree Pages: 1 -->
<svg width="582pt" height="314pt"
 viewBox="0.00 0.00 581.50 314.00" xmlns="http://www.w3.org/2000/svg" xmlns:xlink="http://www.w3.org/1999/xlink">
<g id="graph0" class="graph" transform="scale(1 1) rotate(0) translate(4 310)">
<title>Tree</title>
<polygon fill="#ffffff" stroke="transparent" points="-4,4 -4,-310 577.5,-310 577.5,4 -4,4"/>
<!-- 0 -->
<g id="node1" class="node">
<title>0</title>
<polygon fill="#afd7f4" stroke="#000000" points="367,-306 203,-306 203,-223 367,-223 367,-306"/>
<text text-anchor="middle" x="285" y="-290.8" font-family="Helvetica,sans-Serif" font-size="14.00" fill="#000000">worst radius &lt;= 16.795</text>
<text text-anchor="middle" x="285" y="-275.8" font-family="Helvetica,sans-Serif" font-size="14.00" fill="#000000">gini = 0.468</text>
<text text-anchor="middle" x="285" y="-260.8" font-family="Helvetica,sans-Serif" font-size="14.00" fill="#000000">samples = 569</text>
<text text-anchor="middle" x="285" y="-245.8" font-family="Helvetica,sans-Serif" font-size="14.00" fill="#000000">value = [212, 357]</text>
<text text-anchor="middle" x="285" y="-230.8" font-family="Helvetica,sans-Serif" font-size="14.00" fill="#000000">class = benign</text>
</g>
<!-- 1 -->
<g id="node2" class="node">
<title>1</title>
<polygon fill="#4ca6e7" stroke="#000000" points="289,-187 75,-187 75,-104 289,-104 289,-187"/>
<text text-anchor="middle" x="182" y="-171.8" font-family="Helvetica,sans-Serif" font-size="14.00" fill="#000000">worst concave points &lt;= 0.136</text>
<text text-anchor="middle" x="182" y="-156.8" font-family="Helvetica,sans-Serif" font-size="14.00" fill="#000000">gini = 0.159</text>
<text text-anchor="middle" x="182" y="-141.8" font-family="Helvetica,sans-Serif" font-size="14.00" fill="#000000">samples = 379</text>
<text text-anchor="middle" x="182" y="-126.8" font-family="Helvetica,sans-Serif" font-size="14.00" fill="#000000">value = [33, 346]</text>
<text text-anchor="middle" x="182" y="-111.8" font-family="Helvetica,sans-Serif" font-size="14.00" fill="#000000">class = benign</text>
</g>
<!-- 0&#45;&gt;1 -->
<g id="edge1" class="edge">
<title>0&#45;&gt;1</title>
<path fill="none" stroke="#000000" d="M248.9756,-222.8796C241.1802,-213.8733 232.8633,-204.2644 224.8356,-194.9897"/>
<polygon fill="#000000" stroke="#000000" points="227.3691,-192.5686 218.1782,-187.2981 222.0763,-197.1498 227.3691,-192.5686"/>
<text text-anchor="middle" x="216.381" y="-208.5334" font-family="Helvetica,sans-Serif" font-size="14.00" fill="#000000">True</text>
</g>
<!-- 4 -->
<g id="node5" class="node">
<title>4</title>
<polygon fill="#e78945" stroke="#000000" points="469,-187 307,-187 307,-104 469,-104 469,-187"/>
<text text-anchor="middle" x="388" y="-171.8" font-family="Helvetica,sans-Serif" font-size="14.00" fill="#000000">mean texture &lt;= 16.11</text>
<text text-anchor="middle" x="388" y="-156.8" font-family="Helvetica,sans-Serif" font-size="14.00" fill="#000000">gini = 0.109</text>
<text text-anchor="middle" x="388" y="-141.8" font-family="Helvetica,sans-Serif" font-size="14.00" fill="#000000">samples = 190</text>
<text text-anchor="middle" x="388" y="-126.8" font-family="Helvetica,sans-Serif" font-size="14.00" fill="#000000">value = [179, 11]</text>
<text text-anchor="middle" x="388" y="-111.8" font-family="Helvetica,sans-Serif" font-size="14.00" fill="#000000">class = malignant</text>
</g>
<!-- 0&#45;&gt;4 -->
<g id="edge4" class="edge">
<title>0&#45;&gt;4</title>
<path fill="none" stroke="#000000" d="M321.0244,-222.8796C328.8198,-213.8733 337.1367,-204.2644 345.1644,-194.9897"/>
<polygon fill="#000000" stroke="#000000" points="347.9237,-197.1498 351.8218,-187.2981 342.6309,-192.5686 347.9237,-197.1498"/>
<text text-anchor="middle" x="353.619" y="-208.5334" font-family="Helvetica,sans-Serif" font-size="14.00" fill="#000000">False</text>
</g>
<!-- 2 -->
<g id="node3" class="node">
<title>2</title>
<polygon fill="#3c9ee5" stroke="#000000" points="116,-68 0,-68 0,0 116,0 116,-68"/>
<text text-anchor="middle" x="58" y="-52.8" font-family="Helvetica,sans-Serif" font-size="14.00" fill="#000000">gini = 0.03</text>
<text text-anchor="middle" x="58" y="-37.8" font-family="Helvetica,sans-Serif" font-size="14.00" fill="#000000">samples = 333</text>
<text text-anchor="middle" x="58" y="-22.8" font-family="Helvetica,sans-Serif" font-size="14.00" fill="#000000">value = [5, 328]</text>
<text text-anchor="middle" x="58" y="-7.8" font-family="Helvetica,sans-Serif" font-size="14.00" fill="#000000">class = benign</text>
</g>
<!-- 1&#45;&gt;2 -->
<g id="edge2" class="edge">
<title>1&#45;&gt;2</title>
<path fill="none" stroke="#000000" d="M135.827,-103.9815C125.2993,-94.5151 114.1192,-84.462 103.6151,-75.0168"/>
<polygon fill="#000000" stroke="#000000" points="105.8811,-72.3475 96.1049,-68.2637 101.2006,-77.5526 105.8811,-72.3475"/>
</g>
<!-- 3 -->
<g id="node4" class="node">
<title>3</title>
<polygon fill="#f6d2b8" stroke="#000000" points="263.5,-68 134.5,-68 134.5,0 263.5,0 263.5,-68"/>
<text text-anchor="middle" x="199" y="-52.8" font-family="Helvetica,sans-Serif" font-size="14.00" fill="#000000">gini = 0.476</text>
<text text-anchor="middle" x="199" y="-37.8" font-family="Helvetica,sans-Serif" font-size="14.00" fill="#000000">samples = 46</text>
<text text-anchor="middle" x="199" y="-22.8" font-family="Helvetica,sans-Serif" font-size="14.00" fill="#000000">value = [28, 18]</text>
<text text-anchor="middle" x="199" y="-7.8" font-family="Helvetica,sans-Serif" font-size="14.00" fill="#000000">class = malignant</text>
</g>
<!-- 1&#45;&gt;3 -->
<g id="edge3" class="edge">
<title>1&#45;&gt;3</title>
<path fill="none" stroke="#000000" d="M188.3302,-103.9815C189.6053,-95.618 190.9503,-86.7965 192.2395,-78.3409"/>
<polygon fill="#000000" stroke="#000000" points="195.7286,-78.677 193.7759,-68.2637 188.8086,-77.6219 195.7286,-78.677"/>
</g>
<!-- 5 -->
<g id="node6" class="node">
<title>5</title>
<polygon fill="#e9f4fc" stroke="#000000" points="426,-68 316,-68 316,0 426,0 426,-68"/>
<text text-anchor="middle" x="371" y="-52.8" font-family="Helvetica,sans-Serif" font-size="14.00" fill="#000000">gini = 0.498</text>
<text text-anchor="middle" x="371" y="-37.8" font-family="Helvetica,sans-Serif" font-size="14.00" fill="#000000">samples = 17</text>
<text text-anchor="middle" x="371" y="-22.8" font-family="Helvetica,sans-Serif" font-size="14.00" fill="#000000">value = [8, 9]</text>
<text text-anchor="middle" x="371" y="-7.8" font-family="Helvetica,sans-Serif" font-size="14.00" fill="#000000">class = benign</text>
</g>
<!-- 4&#45;&gt;5 -->
<g id="edge5" class="edge">
<title>4&#45;&gt;5</title>
<path fill="none" stroke="#000000" d="M381.6698,-103.9815C380.3947,-95.618 379.0497,-86.7965 377.7605,-78.3409"/>
<polygon fill="#000000" stroke="#000000" points="381.1914,-77.6219 376.2241,-68.2637 374.2714,-78.677 381.1914,-77.6219"/>
</g>
<!-- 6 -->
<g id="node7" class="node">
<title>6</title>
<polygon fill="#e5823b" stroke="#000000" points="573.5,-68 444.5,-68 444.5,0 573.5,0 573.5,-68"/>
<text text-anchor="middle" x="509" y="-52.8" font-family="Helvetica,sans-Serif" font-size="14.00" fill="#000000">gini = 0.023</text>
<text text-anchor="middle" x="509" y="-37.8" font-family="Helvetica,sans-Serif" font-size="14.00" fill="#000000">samples = 173</text>
<text text-anchor="middle" x="509" y="-22.8" font-family="Helvetica,sans-Serif" font-size="14.00" fill="#000000">value = [171, 2]</text>
<text text-anchor="middle" x="509" y="-7.8" font-family="Helvetica,sans-Serif" font-size="14.00" fill="#000000">class = malignant</text>
</g>
<!-- 4&#45;&gt;6 -->
<g id="edge6" class="edge">
<title>4&#45;&gt;6</title>
<path fill="none" stroke="#000000" d="M433.0559,-103.9815C443.2291,-94.607 454.0267,-84.6572 464.1898,-75.2921"/>
<polygon fill="#000000" stroke="#000000" points="466.8349,-77.6141 471.817,-68.2637 462.0913,-72.4663 466.8349,-77.6141"/>
</g>
</g>
</svg>
