<?xml version="1.0" encoding="utf-8" standalone="no"?>
<!DOCTYPE svg PUBLIC "-//W3C//DTD SVG 1.1//EN"
  "http://www.w3.org/Graphics/SVG/1.1/DTD/svg11.dtd">
<svg height="494.754375pt" version="1.1" viewBox="0 0 725.782813 494.754375" width="725.782813pt" xmlns="http://www.w3.org/2000/svg" xmlns:xlink="http://www.w3.org/1999/xlink">
 <metadata>
  <rdf:RDF xmlns:cc="http://creativecommons.org/ns#" xmlns:dc="http://purl.org/dc/elements/1.1/" xmlns:rdf="http://www.w3.org/1999/02/22-rdf-syntax-ns#">
   <cc:Work>
    <dc:type rdf:resource="http://purl.org/dc/dcmitype/StillImage"/>
    <dc:date>2021-07-15T20:37:53.756057</dc:date>
    <dc:format>image/svg+xml</dc:format>
    <dc:creator>
     <cc:Agent>
      <dc:title>Matplotlib v3.4.2, https://matplotlib.org/</dc:title>
     </cc:Agent>
    </dc:creator>
   </cc:Work>
  </rdf:RDF>
 </metadata>
 <defs>
  <style type="text/css">*{stroke-linecap:butt;stroke-linejoin:round;}</style>
 </defs>
 <g id="figure_1">
  <g id="patch_1">
   <path d="M 0 494.754375 
L 725.782813 494.754375 
L 725.782813 0 
L 0 0 
z
" style="fill:none;"/>
  </g>
  <g id="axes_1">
   <g id="patch_2">
    <path d="M 48.982813 457.198125 
L 718.582813 457.198125 
L 718.582813 22.318125 
L 48.982813 22.318125 
z
" style="fill:#ffffff;"/>
   </g>
   <g id="PolyCollection_1">
    <path clip-path="url(#p40095058db)" d="M 100.683375 384.709479 
L 99.424623 384.709479 
L 99.36729 381.51567 
L 99.309126 378.32186 
L 99.249311 375.12805 
L 99.186699 371.93424 
L 99.119828 368.740431 
L 99.046911 365.546621 
L 98.965809 362.352811 
L 98.873959 359.159002 
L 98.768305 355.965192 
L 98.645227 352.771382 
L 98.500505 349.577572 
L 98.329352 346.383763 
L 98.126545 343.189953 
L 97.886667 339.996143 
L 97.60446 336.802333 
L 97.275292 333.608524 
L 96.895675 330.414714 
L 96.4638 327.220904 
L 95.980002 324.027095 
L 95.447092 320.833285 
L 94.870482 317.639475 
L 94.258048 314.445665 
L 93.61971 311.251856 
L 92.966749 308.058046 
L 92.310918 304.864236 
L 91.663442 301.670426 
L 91.034028 298.476617 
L 90.430014 295.282807 
L 89.855786 292.088997 
L 89.312522 288.895188 
L 88.798326 285.701378 
L 88.308723 282.507568 
L 87.837435 279.313758 
L 87.377341 276.119949 
L 86.92147 272.926139 
L 86.463892 269.732329 
L 86.000383 266.53852 
L 85.528789 263.34471 
L 85.049045 260.1509 
L 84.5629 256.95709 
L 84.073397 253.763281 
L 83.584272 250.569471 
L 83.099373 247.375661 
L 82.62228 244.181851 
L 82.156204 240.988042 
L 81.704235 237.794232 
L 81.269893 234.600422 
L 80.857906 231.406613 
L 80.475014 228.212803 
L 80.130618 225.018993 
L 79.837052 221.825183 
L 79.609328 218.631374 
L 79.464284 215.437564 
L 79.419176 212.243754 
L 79.489871 209.049944 
L 79.688882 205.856135 
L 80.023557 202.662325 
L 80.494703 199.468515 
L 81.095889 196.274706 
L 81.813551 193.080896 
L 82.627904 189.887086 
L 83.514545 186.693276 
L 84.446501 183.499467 
L 85.396475 180.305657 
L 86.338954 177.111847 
L 87.251973 173.918037 
L 88.118313 170.724228 
L 88.926089 167.530418 
L 89.668719 164.336608 
L 90.344372 161.142799 
L 90.95505 157.948989 
L 91.505481 154.755179 
L 92.00199 151.561369 
L 92.451498 148.36756 
L 92.86075 145.17375 
L 93.235809 141.97994 
L 93.58183 138.786131 
L 93.903062 135.592321 
L 94.203013 132.398511 
L 94.484698 129.204701 
L 94.750891 126.010892 
L 95.004327 122.817082 
L 95.247799 119.623272 
L 95.48416 116.429462 
L 95.716212 113.235653 
L 95.946536 110.041843 
L 96.177285 106.848033 
L 96.409986 103.654224 
L 96.645397 100.460414 
L 96.88344 97.266604 
L 97.123225 94.072794 
L 97.363159 90.878985 
L 97.601136 87.685175 
L 97.834753 84.491365 
L 98.061548 81.297555 
L 98.279212 78.103746 
L 98.48575 74.909936 
L 98.679581 71.716126 
L 98.859584 68.522317 
L 101.248414 68.522317 
L 101.248414 68.522317 
L 101.428417 71.716126 
L 101.622248 74.909936 
L 101.828786 78.103746 
L 102.04645 81.297555 
L 102.273245 84.491365 
L 102.506862 87.685175 
L 102.744839 90.878985 
L 102.984773 94.072794 
L 103.224558 97.266604 
L 103.4626 100.460414 
L 103.698011 103.654224 
L 103.930712 106.848033 
L 104.161461 110.041843 
L 104.391786 113.235653 
L 104.623838 116.429462 
L 104.860198 119.623272 
L 105.103671 122.817082 
L 105.357107 126.010892 
L 105.6233 129.204701 
L 105.904985 132.398511 
L 106.204936 135.592321 
L 106.526168 138.786131 
L 106.872189 141.97994 
L 107.247248 145.17375 
L 107.6565 148.36756 
L 108.106008 151.561369 
L 108.602517 154.755179 
L 109.152947 157.948989 
L 109.763625 161.142799 
L 110.439278 164.336608 
L 111.181909 167.530418 
L 111.989685 170.724228 
L 112.856025 173.918037 
L 113.769043 177.111847 
L 114.711523 180.305657 
L 115.661497 183.499467 
L 116.593453 186.693276 
L 117.480093 189.887086 
L 118.294447 193.080896 
L 119.012109 196.274706 
L 119.613295 199.468515 
L 120.084441 202.662325 
L 120.419116 205.856135 
L 120.618127 209.049944 
L 120.688822 212.243754 
L 120.643714 215.437564 
L 120.49867 218.631374 
L 120.270946 221.825183 
L 119.97738 225.018993 
L 119.632984 228.212803 
L 119.250092 231.406613 
L 118.838105 234.600422 
L 118.403763 237.794232 
L 117.951793 240.988042 
L 117.485718 244.181851 
L 117.008625 247.375661 
L 116.523726 250.569471 
L 116.0346 253.763281 
L 115.545098 256.95709 
L 115.058953 260.1509 
L 114.579209 263.34471 
L 114.107615 266.53852 
L 113.644106 269.732329 
L 113.186528 272.926139 
L 112.730657 276.119949 
L 112.270563 279.313758 
L 111.799275 282.507568 
L 111.309672 285.701378 
L 110.795476 288.895188 
L 110.252212 292.088997 
L 109.677983 295.282807 
L 109.07397 298.476617 
L 108.444556 301.670426 
L 107.79708 304.864236 
L 107.141249 308.058046 
L 106.488288 311.251856 
L 105.84995 314.445665 
L 105.237516 317.639475 
L 104.660906 320.833285 
L 104.127996 324.027095 
L 103.644197 327.220904 
L 103.212322 330.414714 
L 102.832706 333.608524 
L 102.503538 336.802333 
L 102.221331 339.996143 
L 101.981452 343.189953 
L 101.778646 346.383763 
L 101.607493 349.577572 
L 101.462771 352.771382 
L 101.339693 355.965192 
L 101.234039 359.159002 
L 101.142189 362.352811 
L 101.061086 365.546621 
L 100.98817 368.740431 
L 100.921299 371.93424 
L 100.858687 375.12805 
L 100.798872 378.32186 
L 100.740708 381.51567 
L 100.683375 384.709479 
z
" style="fill:#1f77b4;fill-opacity:0.3;"/>
   </g>
   <g id="PolyCollection_2">
    <path clip-path="url(#p40095058db)" d="M 152.775653 363.542317 
L 150.506459 363.542317 
L 150.404709 360.547595 
L 150.302928 357.552873 
L 150.200202 354.558151 
L 150.094942 351.56343 
L 149.984884 348.568708 
L 149.867113 345.573986 
L 149.738113 342.579264 
L 149.593849 339.584542 
L 149.429887 336.58982 
L 149.241556 333.595098 
L 149.024169 330.600376 
L 148.773292 327.605654 
L 148.485058 324.610932 
L 148.156507 321.61621 
L 147.785912 318.621488 
L 147.373055 315.626766 
L 146.919409 312.632044 
L 146.428196 309.637322 
L 145.90429 306.6426 
L 145.353974 303.647878 
L 144.784551 300.653156 
L 144.20386 297.658434 
L 143.619743 294.663712 
L 143.039507 291.66899 
L 142.469465 288.674268 
L 141.914565 285.679547 
L 141.378173 282.684825 
L 140.862004 279.690103 
L 140.366194 276.695381 
L 139.889506 273.700659 
L 139.42962 270.705937 
L 138.983473 267.711215 
L 138.54761 264.716493 
L 138.118498 261.721771 
L 137.692794 258.727049 
L 137.267537 255.732327 
L 136.840277 252.737605 
L 136.409149 249.742883 
L 135.972915 246.748161 
L 135.531015 243.753439 
L 135.083635 240.758717 
L 134.631829 237.763995 
L 134.177685 234.769273 
L 133.724539 231.774551 
L 133.277193 228.779829 
L 132.842106 225.785107 
L 132.427497 222.790386 
L 132.04332 219.795664 
L 131.701056 216.800942 
L 131.413308 213.80622 
L 131.193196 210.811498 
L 131.053591 207.816776 
L 131.006233 204.822054 
L 131.060837 201.827332 
L 131.224264 198.83261 
L 131.49987 195.837888 
L 131.887108 192.843166 
L 132.38144 189.848444 
L 132.974574 186.853722 
L 133.655009 183.859 
L 134.408807 180.864278 
L 135.220509 177.869556 
L 136.074073 174.874834 
L 136.953729 171.880112 
L 137.844655 168.88539 
L 138.733427 165.890668 
L 139.608217 162.895946 
L 140.458792 159.901224 
L 141.276345 156.906503 
L 142.053275 153.911781 
L 142.78298 150.917059 
L 143.459737 147.922337 
L 144.078712 144.927615 
L 144.636119 141.932893 
L 145.129466 138.938171 
L 145.557875 135.943449 
L 145.922362 132.948727 
L 146.226033 129.954005 
L 146.474126 126.959283 
L 146.673856 123.964561 
L 146.834069 120.969839 
L 146.96473 117.975117 
L 147.076283 114.980395 
L 147.178979 111.985673 
L 147.282211 108.990951 
L 147.39396 105.996229 
L 147.520384 103.001507 
L 147.665584 100.006785 
L 147.831569 97.012063 
L 148.01838 94.017342 
L 148.224362 91.02262 
L 148.446525 88.027898 
L 148.68095 85.033176 
L 148.923199 82.038454 
L 149.16868 79.043732 
L 149.412951 76.04901 
L 149.651956 73.054288 
L 149.882174 70.059566 
L 150.100704 67.064844 
L 153.181408 67.064844 
L 153.181408 67.064844 
L 153.399938 70.059566 
L 153.630156 73.054288 
L 153.869161 76.04901 
L 154.113432 79.043732 
L 154.358912 82.038454 
L 154.601162 85.033176 
L 154.835587 88.027898 
L 155.05775 91.02262 
L 155.263731 94.017342 
L 155.450542 97.012063 
L 155.616528 100.006785 
L 155.761728 103.001507 
L 155.888152 105.996229 
L 155.999901 108.990951 
L 156.103133 111.985673 
L 156.205829 114.980395 
L 156.317382 117.975117 
L 156.448043 120.969839 
L 156.608256 123.964561 
L 156.807985 126.959283 
L 157.056079 129.954005 
L 157.35975 132.948727 
L 157.724237 135.943449 
L 158.152646 138.938171 
L 158.645993 141.932893 
L 159.203399 144.927615 
L 159.822375 147.922337 
L 160.499131 150.917059 
L 161.228837 153.911781 
L 162.005767 156.906503 
L 162.82332 159.901224 
L 163.673895 162.895946 
L 164.548685 165.890668 
L 165.437457 168.88539 
L 166.328383 171.880112 
L 167.208039 174.874834 
L 168.061603 177.869556 
L 168.873305 180.864278 
L 169.627103 183.859 
L 170.307537 186.853722 
L 170.900672 189.848444 
L 171.395004 192.843166 
L 171.782242 195.837888 
L 172.057848 198.83261 
L 172.221275 201.827332 
L 172.275879 204.822054 
L 172.228521 207.816776 
L 172.088916 210.811498 
L 171.868804 213.80622 
L 171.581056 216.800942 
L 171.238792 219.795664 
L 170.854615 222.790386 
L 170.440006 225.785107 
L 170.004919 228.779829 
L 169.557573 231.774551 
L 169.104427 234.769273 
L 168.650283 237.763995 
L 168.198477 240.758717 
L 167.751097 243.753439 
L 167.309197 246.748161 
L 166.872963 249.742883 
L 166.441835 252.737605 
L 166.014575 255.732327 
L 165.589318 258.727049 
L 165.163614 261.721771 
L 164.734502 264.716493 
L 164.298639 267.711215 
L 163.852492 270.705937 
L 163.392606 273.700659 
L 162.915918 276.695381 
L 162.420108 279.690103 
L 161.903939 282.684825 
L 161.367547 285.679547 
L 160.812647 288.674268 
L 160.242605 291.66899 
L 159.662369 294.663712 
L 159.078252 297.658434 
L 158.497561 300.653156 
L 157.928138 303.647878 
L 157.377822 306.6426 
L 156.853916 309.637322 
L 156.362703 312.632044 
L 155.909057 315.626766 
L 155.496199 318.621488 
L 155.125605 321.61621 
L 154.797054 324.610932 
L 154.50882 327.605654 
L 154.257942 330.600376 
L 154.040556 333.595098 
L 153.852225 336.58982 
L 153.688263 339.584542 
L 153.543999 342.579264 
L 153.414999 345.573986 
L 153.297228 348.568708 
L 153.18717 351.56343 
L 153.08191 354.558151 
L 152.979184 357.552873 
L 152.877402 360.547595 
L 152.775653 363.542317 
z
" style="fill:#1f77b4;fill-opacity:0.3;"/>
   </g>
   <g id="PolyCollection_3">
    <path clip-path="url(#p40095058db)" d="M 204.026927 368.289783 
L 202.429298 368.289783 
L 202.335301 365.304243 
L 202.235435 362.318703 
L 202.129558 359.333162 
L 202.017629 356.347622 
L 201.89971 353.362082 
L 201.775922 350.376542 
L 201.646339 347.391002 
L 201.510829 344.405462 
L 201.36885 341.419922 
L 201.219255 338.434382 
L 201.06011 335.448842 
L 200.88861 332.463302 
L 200.701089 329.477761 
L 200.493177 326.492221 
L 200.260097 323.506681 
L 199.997082 320.521141 
L 199.699866 317.535601 
L 199.365206 314.550061 
L 198.991332 311.564521 
L 198.578279 308.578981 
L 198.128036 305.593441 
L 197.644456 302.607901 
L 197.132956 299.622361 
L 196.599998 296.63682 
L 196.052441 293.65128 
L 195.496842 290.66574 
L 194.938793 287.6802 
L 194.382411 284.69466 
L 193.830037 281.70912 
L 193.282216 278.72358 
L 192.737938 275.73804 
L 192.195137 272.7525 
L 191.651342 269.76696 
L 191.104407 266.781419 
L 190.553177 263.795879 
L 189.998002 260.810339 
L 189.440991 257.824799 
L 188.885968 254.839259 
L 188.338121 251.853719 
L 187.803402 248.868179 
L 187.287767 245.882639 
L 186.796394 242.897099 
L 186.33301 239.911559 
L 185.899445 236.926018 
L 185.495519 233.940478 
L 185.119277 230.954938 
L 184.767561 227.969398 
L 184.436817 224.983858 
L 184.124044 221.998318 
L 183.827695 219.012778 
L 183.548436 216.027238 
L 183.289611 213.041698 
L 183.057365 210.056158 
L 182.860408 207.070617 
L 182.709448 204.085077 
L 182.616372 201.099537 
L 182.59329 198.113997 
L 182.651529 195.128457 
L 182.800699 192.142917 
L 183.047898 189.157377 
L 183.397131 186.171837 
L 183.848944 183.186297 
L 184.400316 180.200757 
L 185.044754 177.215216 
L 185.772612 174.229676 
L 186.57155 171.244136 
L 187.427139 168.258596 
L 188.323534 165.273056 
L 189.244193 162.287516 
L 190.172589 159.301976 
L 191.092873 156.316436 
L 191.990461 153.330896 
L 192.852508 150.345356 
L 193.668261 147.359816 
L 194.42928 144.374275 
L 195.129531 141.388735 
L 195.765365 138.403195 
L 196.335403 135.417655 
L 196.840342 132.432115 
L 197.282706 129.446575 
L 197.666553 126.461035 
L 197.997162 123.475495 
L 198.28071 120.489955 
L 198.523951 117.504415 
L 198.733907 114.518874 
L 198.917585 111.533334 
L 199.081739 108.547794 
L 199.232666 105.562254 
L 199.376061 102.576714 
L 199.516912 99.591174 
L 199.659439 96.605634 
L 199.807056 93.620094 
L 199.962362 90.634554 
L 200.127122 87.649014 
L 200.302268 84.663473 
L 200.487887 81.677933 
L 200.683236 78.692393 
L 200.886771 75.706853 
L 201.096217 72.721313 
L 205.360009 72.721313 
L 205.360009 72.721313 
L 205.569455 75.706853 
L 205.772989 78.692393 
L 205.968339 81.677933 
L 206.153958 84.663473 
L 206.329104 87.649014 
L 206.493864 90.634554 
L 206.64917 93.620094 
L 206.796787 96.605634 
L 206.939313 99.591174 
L 207.080165 102.576714 
L 207.22356 105.562254 
L 207.374487 108.547794 
L 207.538641 111.533334 
L 207.722319 114.518874 
L 207.932274 117.504415 
L 208.175516 120.489955 
L 208.459064 123.475495 
L 208.789673 126.461035 
L 209.17352 129.446575 
L 209.615884 132.432115 
L 210.120823 135.417655 
L 210.690861 138.403195 
L 211.326695 141.388735 
L 212.026945 144.374275 
L 212.787964 147.359816 
L 213.603718 150.345356 
L 214.465765 153.330896 
L 215.363353 156.316436 
L 216.283637 159.301976 
L 217.212033 162.287516 
L 218.132692 165.273056 
L 219.029087 168.258596 
L 219.884676 171.244136 
L 220.683614 174.229676 
L 221.411471 177.215216 
L 222.05591 180.200757 
L 222.607281 183.186297 
L 223.059095 186.171837 
L 223.408328 189.157377 
L 223.655527 192.142917 
L 223.804696 195.128457 
L 223.862936 198.113997 
L 223.839854 201.099537 
L 223.746778 204.085077 
L 223.595818 207.070617 
L 223.398861 210.056158 
L 223.166615 213.041698 
L 222.90779 216.027238 
L 222.628531 219.012778 
L 222.332182 221.998318 
L 222.019408 224.983858 
L 221.688665 227.969398 
L 221.336949 230.954938 
L 220.960707 233.940478 
L 220.556781 236.926018 
L 220.123216 239.911559 
L 219.659832 242.897099 
L 219.168459 245.882639 
L 218.652824 248.868179 
L 218.118104 251.853719 
L 217.570258 254.839259 
L 217.015235 257.824799 
L 216.458224 260.810339 
L 215.903049 263.795879 
L 215.351819 266.781419 
L 214.804884 269.76696 
L 214.261089 272.7525 
L 213.718288 275.73804 
L 213.17401 278.72358 
L 212.626188 281.70912 
L 212.073815 284.69466 
L 211.517432 287.6802 
L 210.959384 290.66574 
L 210.403785 293.65128 
L 209.856228 296.63682 
L 209.323269 299.622361 
L 208.811769 302.607901 
L 208.32819 305.593441 
L 207.877947 308.578981 
L 207.464894 311.564521 
L 207.09102 314.550061 
L 206.75636 317.535601 
L 206.459144 320.521141 
L 206.196129 323.506681 
L 205.963049 326.492221 
L 205.755137 329.477761 
L 205.567616 332.463302 
L 205.396116 335.448842 
L 205.236971 338.434382 
L 205.087376 341.419922 
L 204.945397 344.405462 
L 204.809887 347.391002 
L 204.680304 350.376542 
L 204.556516 353.362082 
L 204.438597 356.347622 
L 204.326668 359.333162 
L 204.220791 362.318703 
L 204.120925 365.304243 
L 204.026927 368.289783 
z
" style="fill:#1f77b4;fill-opacity:0.3;"/>
   </g>
   <g id="PolyCollection_4">
    <path clip-path="url(#p40095058db)" d="M 255.492115 370.20748 
L 254.138225 370.20748 
L 254.070338 367.220583 
L 253.999521 364.233685 
L 253.924931 361.246788 
L 253.845617 358.259891 
L 253.760627 355.272993 
L 253.669131 352.286096 
L 253.5705 349.299198 
L 253.464346 346.312301 
L 253.350498 343.325404 
L 253.228906 340.338506 
L 253.099485 337.351609 
L 252.961918 334.364711 
L 252.815452 331.377814 
L 252.658723 328.390916 
L 252.489655 325.404019 
L 252.30547 322.417122 
L 252.102823 319.430224 
L 251.878077 316.443327 
L 251.627685 313.456429 
L 251.348632 310.469532 
L 251.038886 307.482635 
L 250.697771 304.495737 
L 250.326193 301.50884 
L 249.926667 298.521942 
L 249.503114 295.535045 
L 249.060434 292.548147 
L 248.603893 289.56125 
L 248.138412 286.574353 
L 247.667851 283.587455 
L 247.194404 280.600558 
L 246.718195 277.61366 
L 246.237177 274.626763 
L 245.747343 271.639866 
L 245.243259 268.652968 
L 244.718861 265.666071 
L 244.168399 262.679173 
L 243.587416 259.692276 
L 242.973615 256.705378 
L 242.32749 253.718481 
L 241.652619 250.731584 
L 240.955595 247.744686 
L 240.245584 244.757789 
L 239.5336 241.770891 
L 238.831596 238.783994 
L 238.151522 235.797097 
L 237.50448 232.810199 
L 236.900089 229.823302 
L 236.34613 226.836404 
L 235.848497 223.849507 
L 235.411385 220.862609 
L 235.037671 217.875712 
L 234.729361 214.888815 
L 234.488013 211.901917 
L 234.315058 208.91502 
L 234.21198 205.928122 
L 234.180347 202.941225 
L 234.221721 199.954328 
L 234.337498 196.96743 
L 234.528721 193.980533 
L 234.795897 190.993635 
L 235.138844 188.006738 
L 235.556545 185.019841 
L 236.047011 182.032943 
L 236.607127 179.046046 
L 237.232488 176.059148 
L 237.917243 173.072251 
L 238.653988 170.085353 
L 239.433756 167.098456 
L 240.246152 164.111559 
L 241.079662 161.124661 
L 241.922125 158.137764 
L 242.761331 155.150866 
L 243.585674 152.163969 
L 244.384771 149.177072 
L 245.149956 146.190174 
L 245.874585 143.203277 
L 246.55412 140.216379 
L 247.18599 137.229482 
L 247.769283 134.242584 
L 248.304326 131.255687 
L 248.792254 128.26879 
L 249.234629 125.281892 
L 249.633175 122.294995 
L 249.989664 119.308097 
L 250.305942 116.3212 
L 250.584083 113.334303 
L 250.826594 110.347405 
L 251.03664 107.360508 
L 251.218207 104.37361 
L 251.376156 101.386713 
L 251.516146 98.399815 
L 251.644403 95.412918 
L 251.767369 92.426021 
L 251.891247 89.439123 
L 252.021523 86.452226 
L 252.162512 83.465328 
L 252.316997 80.478431 
L 252.486015 77.491534 
L 252.668817 74.504636 
L 256.961523 74.504636 
L 256.961523 74.504636 
L 257.144325 77.491534 
L 257.313343 80.478431 
L 257.467828 83.465328 
L 257.608817 86.452226 
L 257.739093 89.439123 
L 257.862971 92.426021 
L 257.985937 95.412918 
L 258.114194 98.399815 
L 258.254184 101.386713 
L 258.412133 104.37361 
L 258.5937 107.360508 
L 258.803746 110.347405 
L 259.046257 113.334303 
L 259.324398 116.3212 
L 259.640676 119.308097 
L 259.997165 122.294995 
L 260.395711 125.281892 
L 260.838086 128.26879 
L 261.326014 131.255687 
L 261.861057 134.242584 
L 262.44435 137.229482 
L 263.07622 140.216379 
L 263.755755 143.203277 
L 264.480384 146.190174 
L 265.245569 149.177072 
L 266.044666 152.163969 
L 266.869009 155.150866 
L 267.708215 158.137764 
L 268.550678 161.124661 
L 269.384188 164.111559 
L 270.196584 167.098456 
L 270.976352 170.085353 
L 271.713097 173.072251 
L 272.397852 176.059148 
L 273.023213 179.046046 
L 273.583329 182.032943 
L 274.073795 185.019841 
L 274.491496 188.006738 
L 274.834443 190.993635 
L 275.101619 193.980533 
L 275.292841 196.96743 
L 275.408619 199.954328 
L 275.449993 202.941225 
L 275.41836 205.928122 
L 275.315282 208.91502 
L 275.142327 211.901917 
L 274.900979 214.888815 
L 274.592669 217.875712 
L 274.218955 220.862609 
L 273.781843 223.849507 
L 273.28421 226.836404 
L 272.730251 229.823302 
L 272.12586 232.810199 
L 271.478818 235.797097 
L 270.798744 238.783994 
L 270.09674 241.770891 
L 269.384756 244.757789 
L 268.674745 247.744686 
L 267.977721 250.731584 
L 267.30285 253.718481 
L 266.656725 256.705378 
L 266.042924 259.692276 
L 265.461941 262.679173 
L 264.911479 265.666071 
L 264.387081 268.652968 
L 263.882997 271.639866 
L 263.393163 274.626763 
L 262.912145 277.61366 
L 262.435936 280.600558 
L 261.962489 283.587455 
L 261.491928 286.574353 
L 261.026447 289.56125 
L 260.569906 292.548147 
L 260.127226 295.535045 
L 259.703673 298.521942 
L 259.304147 301.50884 
L 258.932569 304.495737 
L 258.591453 307.482635 
L 258.281708 310.469532 
L 258.002655 313.456429 
L 257.752263 316.443327 
L 257.527517 319.430224 
L 257.32487 322.417122 
L 257.140685 325.404019 
L 256.971617 328.390916 
L 256.814888 331.377814 
L 256.668422 334.364711 
L 256.530855 337.351609 
L 256.401434 340.338506 
L 256.279842 343.325404 
L 256.165994 346.312301 
L 256.05984 349.299198 
L 255.961209 352.286096 
L 255.869713 355.272993 
L 255.784723 358.259891 
L 255.705409 361.246788 
L 255.630819 364.233685 
L 255.560002 367.220583 
L 255.492115 370.20748 
z
" style="fill:#1f77b4;fill-opacity:0.3;"/>
   </g>
   <g id="PolyCollection_5">
    <path clip-path="url(#p40095058db)" d="M 307.044634 371.769481 
L 305.75982 371.769481 
L 305.68468 368.722811 
L 305.603478 365.676142 
L 305.515421 362.629473 
L 305.419917 359.582804 
L 305.316724 356.536134 
L 305.206056 353.489465 
L 305.088626 350.442796 
L 304.965616 347.396127 
L 304.838586 344.349457 
L 304.709314 341.302788 
L 304.579615 338.256119 
L 304.451134 335.20945 
L 304.325151 332.16278 
L 304.202412 329.116111 
L 304.082978 326.069442 
L 303.966116 323.022773 
L 303.850218 319.976103 
L 303.732757 316.929434 
L 303.610299 313.882765 
L 303.478567 310.836096 
L 303.332587 307.789426 
L 303.166928 304.742757 
L 302.976016 301.696088 
L 302.754537 298.649418 
L 302.497862 295.602749 
L 302.202458 292.55608 
L 301.866212 289.509411 
L 301.488612 286.462741 
L 301.070727 283.416072 
L 300.614969 280.369403 
L 300.124656 277.322734 
L 299.603434 274.276064 
L 299.054637 271.229395 
L 298.480722 268.182726 
L 297.882867 265.136057 
L 297.26084 262.089387 
L 296.613177 259.042718 
L 295.937682 255.996049 
L 295.232175 252.94938 
L 294.495388 249.90271 
L 293.727878 246.856041 
L 292.932812 243.809372 
L 292.116501 240.762703 
L 291.288607 237.716033 
L 290.46198 234.669364 
L 289.652139 231.622695 
L 288.876457 228.576025 
L 288.153142 225.529356 
L 287.50011 222.482687 
L 286.933872 219.436018 
L 286.468531 216.389348 
L 286.114959 213.342679 
L 285.880243 210.29601 
L 285.767404 207.249341 
L 285.775406 204.202671 
L 285.89943 201.156002 
L 286.131362 198.109333 
L 286.46043 195.062664 
L 286.873937 192.015994 
L 287.358012 188.969325 
L 287.898344 185.922656 
L 288.480865 182.875987 
L 289.092372 179.829317 
L 289.721064 176.782648 
L 290.356994 173.735979 
L 290.992424 170.689309 
L 291.622031 167.64264 
L 292.242963 164.595971 
L 292.854692 161.549302 
L 293.458669 158.502632 
L 294.057791 155.455963 
L 294.65572 152.409294 
L 295.256124 149.362625 
L 295.861933 146.315955 
L 296.474687 143.269286 
L 297.094071 140.222617 
L 297.717679 137.175948 
L 298.341037 134.129278 
L 298.957877 131.082609 
L 299.560621 128.03594 
L 300.141011 124.989271 
L 300.690819 121.942601 
L 301.202551 118.895932 
L 301.670086 115.849263 
L 302.08918 112.802594 
L 302.457807 109.755924 
L 302.776305 106.709255 
L 303.04733 103.662586 
L 303.27562 100.615916 
L 303.467598 97.569247 
L 303.630855 94.522578 
L 303.773545 91.475909 
L 303.903757 88.429239 
L 304.028914 85.38257 
L 304.155253 82.335901 
L 304.287426 79.289232 
L 304.428278 76.242562 
L 304.578784 73.195893 
L 304.738179 70.149224 
L 308.066275 70.149224 
L 308.066275 70.149224 
L 308.22567 73.195893 
L 308.376176 76.242562 
L 308.517028 79.289232 
L 308.649201 82.335901 
L 308.77554 85.38257 
L 308.900697 88.429239 
L 309.030909 91.475909 
L 309.173599 94.522578 
L 309.336856 97.569247 
L 309.528834 100.615916 
L 309.757124 103.662586 
L 310.028149 106.709255 
L 310.346647 109.755924 
L 310.715274 112.802594 
L 311.134368 115.849263 
L 311.601903 118.895932 
L 312.113635 121.942601 
L 312.663443 124.989271 
L 313.243833 128.03594 
L 313.846576 131.082609 
L 314.463417 134.129278 
L 315.086775 137.175948 
L 315.710383 140.222617 
L 316.329767 143.269286 
L 316.942521 146.315955 
L 317.54833 149.362625 
L 318.148734 152.409294 
L 318.746663 155.455963 
L 319.345785 158.502632 
L 319.949762 161.549302 
L 320.561491 164.595971 
L 321.182422 167.64264 
L 321.81203 170.689309 
L 322.44746 173.735979 
L 323.08339 176.782648 
L 323.712082 179.829317 
L 324.323589 182.875987 
L 324.90611 185.922656 
L 325.446442 188.969325 
L 325.930517 192.015994 
L 326.344024 195.062664 
L 326.673092 198.109333 
L 326.905024 201.156002 
L 327.029048 204.202671 
L 327.03705 207.249341 
L 326.924211 210.29601 
L 326.689495 213.342679 
L 326.335923 216.389348 
L 325.870581 219.436018 
L 325.304344 222.482687 
L 324.651312 225.529356 
L 323.927997 228.576025 
L 323.152315 231.622695 
L 322.342474 234.669364 
L 321.515847 237.716033 
L 320.687953 240.762703 
L 319.871642 243.809372 
L 319.076576 246.856041 
L 318.309066 249.90271 
L 317.572279 252.94938 
L 316.866772 255.996049 
L 316.191277 259.042718 
L 315.543614 262.089387 
L 314.921587 265.136057 
L 314.323732 268.182726 
L 313.749817 271.229395 
L 313.20102 274.276064 
L 312.679798 277.322734 
L 312.189485 280.369403 
L 311.733727 283.416072 
L 311.315842 286.462741 
L 310.938242 289.509411 
L 310.601996 292.55608 
L 310.306591 295.602749 
L 310.049917 298.649418 
L 309.828438 301.696088 
L 309.637526 304.742757 
L 309.471867 307.789426 
L 309.325887 310.836096 
L 309.194155 313.882765 
L 309.071697 316.929434 
L 308.954236 319.976103 
L 308.838338 323.022773 
L 308.721476 326.069442 
L 308.602042 329.116111 
L 308.479303 332.16278 
L 308.35332 335.20945 
L 308.224839 338.256119 
L 308.09514 341.302788 
L 307.965868 344.349457 
L 307.838838 347.396127 
L 307.715828 350.442796 
L 307.598398 353.489465 
L 307.48773 356.536134 
L 307.384537 359.582804 
L 307.289033 362.629473 
L 307.200976 365.676142 
L 307.119774 368.722811 
L 307.044634 371.769481 
z
" style="fill:#1f77b4;fill-opacity:0.3;"/>
   </g>
   <g id="PolyCollection_6">
    <path clip-path="url(#p40095058db)" d="M 358.3566 428.156259 
L 357.621968 428.156259 
L 357.622595 424.43285 
L 357.631687 420.70944 
L 357.646968 416.986031 
L 357.665382 413.262622 
L 357.683521 409.539213 
L 357.69813 405.815804 
L 357.706577 402.092394 
L 357.70723 398.368985 
L 357.699651 394.645576 
L 357.684583 390.922167 
L 357.663713 387.198758 
L 357.639247 383.475349 
L 357.613354 379.751939 
L 357.58756 376.02853 
L 357.562214 372.305121 
L 357.536105 368.581712 
L 357.506331 364.858303 
L 357.46846 361.134894 
L 357.41699 357.411484 
L 357.346047 353.688075 
L 357.250248 349.964666 
L 357.125572 346.241257 
L 356.970139 342.517848 
L 356.78473 338.794439 
L 356.572961 335.071029 
L 356.341052 331.34762 
L 356.097153 327.624211 
L 355.85029 323.900802 
L 355.60903 320.177393 
L 355.380002 316.453984 
L 355.16652 312.730574 
L 354.967495 309.007165 
L 354.776907 305.283756 
L 354.583982 301.560347 
L 354.374161 297.836938 
L 354.130788 294.113529 
L 353.837288 290.390119 
L 353.479461 286.66671 
L 353.047443 282.943301 
L 352.536924 279.219892 
L 351.949336 275.496483 
L 351.290955 271.773073 
L 350.571142 268.049664 
L 349.800174 264.326255 
L 348.987233 260.602846 
L 348.139115 256.879437 
L 347.260021 253.156028 
L 346.35249 249.432618 
L 345.419202 245.709209 
L 344.465136 241.9858 
L 343.499427 238.262391 
L 342.536356 234.538982 
L 341.595158 230.815573 
L 340.698649 227.092163 
L 339.871006 223.368754 
L 339.135268 219.645345 
L 338.511132 215.921936 
L 338.013537 212.198527 
L 337.652216 208.475118 
L 337.432132 204.751708 
L 337.354461 201.028299 
L 337.417663 197.30489 
L 337.618236 193.581481 
L 337.950915 189.858072 
L 338.408325 186.134663 
L 338.980304 182.411253 
L 339.653261 178.687844 
L 340.409947 174.964435 
L 341.229906 171.241026 
L 342.090667 167.517617 
L 342.969564 163.794207 
L 343.845829 160.070798 
L 344.702573 156.347389 
L 345.52824 152.62398 
L 346.317243 148.900571 
L 347.069653 145.177162 
L 347.790016 141.453752 
L 348.485521 137.730343 
L 349.163884 134.006934 
L 349.831325 130.283525 
L 350.491008 126.560116 
L 351.142192 122.836707 
L 351.78022 119.113297 
L 352.397295 115.389888 
L 352.98384 111.666479 
L 353.530175 107.94307 
L 354.028148 104.219661 
L 354.472435 100.496252 
L 354.861293 96.772842 
L 355.196668 93.049433 
L 355.483721 89.326024 
L 355.729909 85.602615 
L 355.943839 81.879206 
L 356.134115 78.155797 
L 356.308362 74.432387 
L 356.472553 70.708978 
L 356.630676 66.985569 
L 356.784722 63.26216 
L 356.934941 59.538751 
L 359.043627 59.538751 
L 359.043627 59.538751 
L 359.193846 63.26216 
L 359.347892 66.985569 
L 359.506015 70.708978 
L 359.670206 74.432387 
L 359.844453 78.155797 
L 360.034729 81.879206 
L 360.248659 85.602615 
L 360.494847 89.326024 
L 360.7819 93.049433 
L 361.117275 96.772842 
L 361.506133 100.496252 
L 361.95042 104.219661 
L 362.448393 107.94307 
L 362.994728 111.666479 
L 363.581273 115.389888 
L 364.198348 119.113297 
L 364.836376 122.836707 
L 365.48756 126.560116 
L 366.147243 130.283525 
L 366.814684 134.006934 
L 367.493047 137.730343 
L 368.188552 141.453752 
L 368.908915 145.177162 
L 369.661325 148.900571 
L 370.450328 152.62398 
L 371.275995 156.347389 
L 372.132739 160.070798 
L 373.009004 163.794207 
L 373.887901 167.517617 
L 374.748662 171.241026 
L 375.568621 174.964435 
L 376.325307 178.687844 
L 376.998264 182.411253 
L 377.570243 186.134663 
L 378.027653 189.858072 
L 378.360332 193.581481 
L 378.560905 197.30489 
L 378.624107 201.028299 
L 378.546436 204.751708 
L 378.326352 208.475118 
L 377.965031 212.198527 
L 377.467436 215.921936 
L 376.8433 219.645345 
L 376.107562 223.368754 
L 375.279919 227.092163 
L 374.38341 230.815573 
L 373.442212 234.538982 
L 372.479141 238.262391 
L 371.513432 241.9858 
L 370.559366 245.709209 
L 369.626078 249.432618 
L 368.718547 253.156028 
L 367.839453 256.879437 
L 366.991335 260.602846 
L 366.178394 264.326255 
L 365.407426 268.049664 
L 364.687613 271.773073 
L 364.029232 275.496483 
L 363.441644 279.219892 
L 362.931125 282.943301 
L 362.499107 286.66671 
L 362.14128 290.390119 
L 361.84778 294.113529 
L 361.604407 297.836938 
L 361.394586 301.560347 
L 361.201661 305.283756 
L 361.011073 309.007165 
L 360.812048 312.730574 
L 360.598566 316.453984 
L 360.369538 320.177393 
L 360.128278 323.900802 
L 359.881415 327.624211 
L 359.637516 331.34762 
L 359.405607 335.071029 
L 359.193838 338.794439 
L 359.008429 342.517848 
L 358.852996 346.241257 
L 358.72832 349.964666 
L 358.632521 353.688075 
L 358.561578 357.411484 
L 358.510108 361.134894 
L 358.472237 364.858303 
L 358.442463 368.581712 
L 358.416354 372.305121 
L 358.391008 376.02853 
L 358.365214 379.751939 
L 358.339321 383.475349 
L 358.314855 387.198758 
L 358.293985 390.922167 
L 358.278917 394.645576 
L 358.271338 398.368985 
L 358.271991 402.092394 
L 358.280438 405.815804 
L 358.295047 409.539213 
L 358.313186 413.262622 
L 358.3316 416.986031 
L 358.346881 420.70944 
L 358.355973 424.43285 
L 358.3566 428.156259 
z
" style="fill:#1f77b4;fill-opacity:0.3;"/>
   </g>
   <g id="PolyCollection_7">
    <path clip-path="url(#p40095058db)" d="M 409.968826 377.818102 
L 409.183856 377.818102 
L 409.184023 374.493508 
L 409.191537 371.168913 
L 409.203956 367.844318 
L 409.217816 364.519724 
L 409.228802 361.195129 
L 409.231981 357.870535 
L 409.222044 354.54594 
L 409.193548 351.221346 
L 409.141154 347.896751 
L 409.059853 344.572157 
L 408.945224 341.247562 
L 408.793721 337.922967 
L 408.603024 334.598373 
L 408.372413 331.273778 
L 408.103143 327.949184 
L 407.798732 324.624589 
L 407.465064 321.299995 
L 407.110218 317.9754 
L 406.743936 314.650806 
L 406.376725 311.326211 
L 406.018641 308.001617 
L 405.677902 304.677022 
L 405.359531 301.352427 
L 405.064271 298.027833 
L 404.788005 294.703238 
L 404.521824 291.378644 
L 404.252811 288.054049 
L 403.965433 284.729455 
L 403.643354 281.40486 
L 403.271376 278.080266 
L 402.8372 274.755671 
L 402.332746 271.431077 
L 401.754859 268.106482 
L 401.105373 264.781887 
L 400.390608 261.457293 
L 399.62047 258.132698 
L 398.807373 254.808104 
L 397.965179 251.483509 
L 397.108266 248.158915 
L 396.250804 244.83432 
L 395.40619 241.509726 
L 394.586609 238.185131 
L 393.802656 234.860536 
L 393.063015 231.535942 
L 392.374251 228.211347 
L 391.74079 224.886753 
L 391.165195 221.562158 
L 390.648775 218.237564 
L 390.192494 214.912969 
L 389.798031 211.588375 
L 389.46877 208.26378 
L 389.210465 204.939186 
L 389.031337 201.614591 
L 388.941518 198.289996 
L 388.951835 194.965402 
L 389.072122 191.640807 
L 389.309358 188.316213 
L 389.665975 184.991618 
L 390.138664 181.667024 
L 390.71792 178.342429 
L 391.38844 175.017835 
L 392.130306 171.69324 
L 392.920783 168.368645 
L 393.736446 165.044051 
L 394.555316 161.719456 
L 395.358708 158.394862 
L 396.132559 155.070267 
L 396.868108 151.745673 
L 397.561895 148.421078 
L 398.21515 145.096484 
L 398.832725 141.771889 
L 399.421741 138.447295 
L 399.990169 135.1227 
L 400.545502 131.798105 
L 401.093699 128.473511 
L 401.638479 125.148916 
L 402.181023 121.824322 
L 402.72007 118.499727 
L 403.252337 115.175133 
L 403.773179 111.850538 
L 404.277344 108.525944 
L 404.759706 105.201349 
L 405.215872 101.876754 
L 405.642583 98.55216 
L 406.037886 95.227565 
L 406.401092 91.902971 
L 406.732579 88.578376 
L 407.033498 85.253782 
L 407.305483 81.929187 
L 407.550395 78.604593 
L 407.770165 75.279998 
L 407.966725 71.955404 
L 408.14202 68.630809 
L 408.298053 65.306214 
L 408.436932 61.98162 
L 408.56087 58.657025 
L 408.672131 55.332431 
L 408.772918 52.007836 
L 408.865223 48.683242 
L 410.287459 48.683242 
L 410.287459 48.683242 
L 410.379764 52.007836 
L 410.480551 55.332431 
L 410.591812 58.657025 
L 410.71575 61.98162 
L 410.854629 65.306214 
L 411.010662 68.630809 
L 411.185957 71.955404 
L 411.382517 75.279998 
L 411.602287 78.604593 
L 411.847199 81.929187 
L 412.119184 85.253782 
L 412.420104 88.578376 
L 412.75159 91.902971 
L 413.114796 95.227565 
L 413.510099 98.55216 
L 413.93681 101.876754 
L 414.392976 105.201349 
L 414.875338 108.525944 
L 415.379503 111.850538 
L 415.900345 115.175133 
L 416.432612 118.499727 
L 416.971659 121.824322 
L 417.514203 125.148916 
L 418.058983 128.473511 
L 418.60718 131.798105 
L 419.162513 135.1227 
L 419.730941 138.447295 
L 420.319958 141.771889 
L 420.937532 145.096484 
L 421.590787 148.421078 
L 422.284574 151.745673 
L 423.020123 155.070267 
L 423.793974 158.394862 
L 424.597366 161.719456 
L 425.416236 165.044051 
L 426.231899 168.368645 
L 427.022376 171.69324 
L 427.764242 175.017835 
L 428.434762 178.342429 
L 429.014018 181.667024 
L 429.486707 184.991618 
L 429.843324 188.316213 
L 430.08056 191.640807 
L 430.200847 194.965402 
L 430.211164 198.289996 
L 430.121345 201.614591 
L 429.942217 204.939186 
L 429.683912 208.26378 
L 429.354651 211.588375 
L 428.960188 214.912969 
L 428.503907 218.237564 
L 427.987487 221.562158 
L 427.411892 224.886753 
L 426.778431 228.211347 
L 426.089667 231.535942 
L 425.350026 234.860536 
L 424.566073 238.185131 
L 423.746492 241.509726 
L 422.901878 244.83432 
L 422.044416 248.158915 
L 421.187503 251.483509 
L 420.345309 254.808104 
L 419.532212 258.132698 
L 418.762074 261.457293 
L 418.047309 264.781887 
L 417.397823 268.106482 
L 416.819936 271.431077 
L 416.315482 274.755671 
L 415.881306 278.080266 
L 415.509328 281.40486 
L 415.187249 284.729455 
L 414.899871 288.054049 
L 414.630858 291.378644 
L 414.364677 294.703238 
L 414.088411 298.027833 
L 413.793151 301.352427 
L 413.47478 304.677022 
L 413.134041 308.001617 
L 412.775957 311.326211 
L 412.408746 314.650806 
L 412.042464 317.9754 
L 411.687618 321.299995 
L 411.35395 324.624589 
L 411.049539 327.949184 
L 410.780269 331.273778 
L 410.549658 334.598373 
L 410.358961 337.922967 
L 410.207458 341.247562 
L 410.092829 344.572157 
L 410.011528 347.896751 
L 409.959134 351.221346 
L 409.930638 354.54594 
L 409.920701 357.870535 
L 409.92388 361.195129 
L 409.934866 364.519724 
L 409.948726 367.844318 
L 409.961145 371.168913 
L 409.968659 374.493508 
L 409.968826 377.818102 
z
" style="fill:#1f77b4;fill-opacity:0.3;"/>
   </g>
   <g id="PolyCollection_8">
    <path clip-path="url(#p40095058db)" d="M 461.546349 388.07492 
L 460.780447 388.07492 
L 460.785483 384.600385 
L 460.800984 381.125849 
L 460.825169 377.651314 
L 460.855367 374.176778 
L 460.888266 370.702243 
L 460.920199 367.227707 
L 460.947395 363.753172 
L 460.966152 360.278636 
L 460.972919 356.804101 
L 460.964272 353.329565 
L 460.936826 349.85503 
L 460.887118 346.380494 
L 460.811517 342.905959 
L 460.706218 339.431423 
L 460.567372 335.956888 
L 460.391392 332.482352 
L 460.175434 329.007817 
L 459.918025 325.533281 
L 459.619737 322.058746 
L 459.283774 318.58421 
L 458.916276 315.109675 
L 458.526165 311.635139 
L 458.124398 308.160604 
L 457.722603 304.686068 
L 457.331221 301.211533 
L 456.957433 297.736997 
L 456.603265 294.262462 
L 456.264306 290.787926 
L 455.929399 287.313391 
L 455.581514 283.838855 
L 455.199767 280.36432 
L 454.762297 276.889784 
L 454.249542 273.415249 
L 453.647333 269.940713 
L 452.94927 266.466178 
L 452.157974 262.991642 
L 451.285033 259.517107 
L 450.349692 256.042571 
L 449.376572 252.568036 
L 448.392802 249.0935 
L 447.425058 245.618965 
L 446.496922 242.144429 
L 445.626911 238.669894 
L 444.827382 235.195358 
L 444.104363 231.720823 
L 443.458264 228.246287 
L 442.885283 224.771752 
L 442.379273 221.297216 
L 441.933796 217.822681 
L 441.544076 214.348145 
L 441.208593 210.87361 
L 440.930098 207.399074 
L 440.715894 203.924539 
L 440.577337 200.450003 
L 440.528575 196.975468 
L 440.584676 193.500932 
L 440.759384 190.026397 
L 441.062814 186.551861 
L 441.499442 183.077326 
L 442.066699 179.60279 
L 442.754437 176.128255 
L 443.545351 172.653719 
L 444.41633 169.179184 
L 445.340532 165.704648 
L 446.289864 162.230113 
L 447.237516 158.755577 
L 448.160195 155.281042 
L 449.039792 151.806506 
L 449.864313 148.331971 
L 450.628026 144.857435 
L 451.33088 141.3829 
L 451.977345 137.908364 
L 452.574861 134.433829 
L 453.132159 130.959293 
L 453.657681 127.484758 
L 454.15833 124.010222 
L 454.638707 120.535687 
L 455.100915 117.061151 
L 455.544889 113.586616 
L 455.969132 110.11208 
L 456.371638 106.637545 
L 456.750783 103.163009 
L 457.105964 99.688474 
L 457.437874 96.213938 
L 457.748367 92.739403 
L 458.040001 89.264867 
L 458.315418 85.790332 
L 458.576729 82.315796 
L 458.825091 78.841261 
L 459.060556 75.366725 
L 459.28223 71.89219 
L 459.488668 68.417654 
L 459.678388 64.943119 
L 459.850368 61.468583 
L 460.004406 57.994048 
L 460.141255 54.519512 
L 460.262535 51.044977 
L 460.370463 47.570441 
L 460.467463 44.095906 
L 461.859333 44.095906 
L 461.859333 44.095906 
L 461.956333 47.570441 
L 462.064261 51.044977 
L 462.185541 54.519512 
L 462.32239 57.994048 
L 462.476428 61.468583 
L 462.648408 64.943119 
L 462.838128 68.417654 
L 463.044566 71.89219 
L 463.26624 75.366725 
L 463.501705 78.841261 
L 463.750067 82.315796 
L 464.011378 85.790332 
L 464.286795 89.264867 
L 464.578429 92.739403 
L 464.888922 96.213938 
L 465.220832 99.688474 
L 465.576014 103.163009 
L 465.955158 106.637545 
L 466.357664 110.11208 
L 466.781907 113.586616 
L 467.225881 117.061151 
L 467.688089 120.535687 
L 468.168466 124.010222 
L 468.669115 127.484758 
L 469.194637 130.959293 
L 469.751935 134.433829 
L 470.349452 137.908364 
L 470.995916 141.3829 
L 471.698771 144.857435 
L 472.462483 148.331971 
L 473.287004 151.806506 
L 474.166601 155.281042 
L 475.08928 158.755577 
L 476.036932 162.230113 
L 476.986264 165.704648 
L 477.910466 169.179184 
L 478.781445 172.653719 
L 479.572359 176.128255 
L 480.260097 179.60279 
L 480.827354 183.077326 
L 481.263982 186.551861 
L 481.567412 190.026397 
L 481.74212 193.500932 
L 481.798221 196.975468 
L 481.749459 200.450003 
L 481.610902 203.924539 
L 481.396698 207.399074 
L 481.118203 210.87361 
L 480.78272 214.348145 
L 480.393 217.822681 
L 479.947523 221.297216 
L 479.441513 224.771752 
L 478.868532 228.246287 
L 478.222433 231.720823 
L 477.499414 235.195358 
L 476.699885 238.669894 
L 475.829874 242.144429 
L 474.901738 245.618965 
L 473.933994 249.0935 
L 472.950224 252.568036 
L 471.977104 256.042571 
L 471.041763 259.517107 
L 470.168822 262.991642 
L 469.377526 266.466178 
L 468.679463 269.940713 
L 468.077254 273.415249 
L 467.564499 276.889784 
L 467.127029 280.36432 
L 466.745282 283.838855 
L 466.397397 287.313391 
L 466.06249 290.787926 
L 465.723531 294.262462 
L 465.369363 297.736997 
L 464.995575 301.211533 
L 464.604193 304.686068 
L 464.202398 308.160604 
L 463.800631 311.635139 
L 463.41052 315.109675 
L 463.043022 318.58421 
L 462.707059 322.058746 
L 462.408771 325.533281 
L 462.151362 329.007817 
L 461.935404 332.482352 
L 461.759424 335.956888 
L 461.620578 339.431423 
L 461.515279 342.905959 
L 461.439678 346.380494 
L 461.38997 349.85503 
L 461.362524 353.329565 
L 461.353877 356.804101 
L 461.360644 360.278636 
L 461.379401 363.753172 
L 461.406597 367.227707 
L 461.43853 370.702243 
L 461.471429 374.176778 
L 461.501627 377.651314 
L 461.525813 381.125849 
L 461.541313 384.600385 
L 461.546349 388.07492 
z
" style="fill:#1f77b4;fill-opacity:0.3;"/>
   </g>
   <g id="PolyCollection_9">
    <path clip-path="url(#p40095058db)" d="M 513.185625 437.430852 
L 512.315285 437.430852 
L 512.294017 433.437464 
L 512.279102 429.444075 
L 512.269675 425.450687 
L 512.264781 421.457299 
L 512.263733 417.46391 
L 512.266354 413.470522 
L 512.273027 409.477133 
L 512.284541 405.483745 
L 512.301766 401.490356 
L 512.325245 397.496968 
L 512.354829 393.50358 
L 512.389427 389.510191 
L 512.426924 385.516803 
L 512.464269 381.523414 
L 512.497676 377.530026 
L 512.52288 373.536637 
L 512.535391 369.543249 
L 512.530699 365.549861 
L 512.504454 361.556472 
L 512.452625 357.563084 
L 512.371672 353.569695 
L 512.258744 349.576307 
L 512.111887 345.582918 
L 511.930214 341.58953 
L 511.713996 337.596142 
L 511.464618 333.602753 
L 511.184409 329.609365 
L 510.876344 325.615976 
L 510.543699 321.622588 
L 510.189693 317.629199 
L 509.81717 313.635811 
L 509.428303 309.642423 
L 509.024291 305.649034 
L 508.605007 301.655646 
L 508.168581 297.662257 
L 507.711004 293.668869 
L 507.225886 289.67548 
L 506.704581 285.682092 
L 506.136858 281.688704 
L 505.512208 277.695315 
L 504.821699 273.701927 
L 504.060101 269.708538 
L 503.227847 265.71515 
L 502.332334 261.721761 
L 501.388131 257.728373 
L 500.415888 253.734985 
L 499.440011 249.741596 
L 498.485499 245.748208 
L 497.574578 241.754819 
L 496.723897 237.761431 
L 495.942951 233.768042 
L 495.234169 229.774654 
L 494.59469 225.781265 
L 494.01945 221.787877 
L 493.50483 217.794489 
L 493.051968 213.8011 
L 492.66887 209.807712 
L 492.370763 205.814323 
L 492.178541 201.820935 
L 492.115632 197.827546 
L 492.203953 193.834158 
L 492.459817 189.84077 
L 492.890621 185.847381 
L 493.49291 181.853993 
L 494.252103 177.860604 
L 495.143816 173.867216 
L 496.136454 169.873827 
L 497.194574 165.880439 
L 498.282475 161.887051 
L 499.367502 157.893662 
L 500.422669 153.900274 
L 501.428297 149.906885 
L 502.372551 145.913497 
L 503.25088 141.920108 
L 504.064548 137.92672 
L 504.818562 133.933332 
L 505.519412 129.939943 
L 506.173046 125.946555 
L 506.783437 121.953166 
L 507.351968 117.959778 
L 507.877654 113.966389 
L 508.358046 109.973001 
L 508.790524 105.979613 
L 509.173606 101.986224 
L 509.507961 97.992836 
L 509.796891 93.999447 
L 510.046186 90.006059 
L 510.263428 86.01267 
L 510.456936 82.019282 
L 510.634602 78.025894 
L 510.802893 74.032505 
L 510.966217 70.039117 
L 511.126754 66.045728 
L 511.284729 62.05234 
L 511.438991 58.058951 
L 511.587722 54.065563 
L 511.72908 50.072175 
L 511.861625 46.078786 
L 511.984506 42.085398 
L 513.516404 42.085398 
L 513.516404 42.085398 
L 513.639285 46.078786 
L 513.77183 50.072175 
L 513.913188 54.065563 
L 514.06192 58.058951 
L 514.216181 62.05234 
L 514.374156 66.045728 
L 514.534693 70.039117 
L 514.698017 74.032505 
L 514.866308 78.025894 
L 515.043974 82.019282 
L 515.237482 86.01267 
L 515.454724 90.006059 
L 515.704019 93.999447 
L 515.992949 97.992836 
L 516.327304 101.986224 
L 516.710386 105.979613 
L 517.142864 109.973001 
L 517.623257 113.966389 
L 518.148942 117.959778 
L 518.717473 121.953166 
L 519.327864 125.946555 
L 519.981498 129.939943 
L 520.682348 133.933332 
L 521.436362 137.92672 
L 522.25003 141.920108 
L 523.128359 145.913497 
L 524.072613 149.906885 
L 525.078241 153.900274 
L 526.133408 157.893662 
L 527.218435 161.887051 
L 528.306336 165.880439 
L 529.364456 169.873827 
L 530.357094 173.867216 
L 531.248808 177.860604 
L 532.008001 181.853993 
L 532.610289 185.847381 
L 533.041093 189.84077 
L 533.296957 193.834158 
L 533.385278 197.827546 
L 533.322369 201.820935 
L 533.130147 205.814323 
L 532.83204 209.807712 
L 532.448942 213.8011 
L 531.99608 217.794489 
L 531.48146 221.787877 
L 530.90622 225.781265 
L 530.266741 229.774654 
L 529.557959 233.768042 
L 528.777013 237.761431 
L 527.926332 241.754819 
L 527.015411 245.748208 
L 526.060899 249.741596 
L 525.085022 253.734985 
L 524.112779 257.728373 
L 523.168576 261.721761 
L 522.273063 265.71515 
L 521.440809 269.708538 
L 520.679211 273.701927 
L 519.988702 277.695315 
L 519.364052 281.688704 
L 518.796329 285.682092 
L 518.275024 289.67548 
L 517.789907 293.668869 
L 517.332329 297.662257 
L 516.895903 301.655646 
L 516.476619 305.649034 
L 516.072608 309.642423 
L 515.68374 313.635811 
L 515.311217 317.629199 
L 514.957211 321.622588 
L 514.624566 325.615976 
L 514.316501 329.609365 
L 514.036292 333.602753 
L 513.786914 337.596142 
L 513.570696 341.58953 
L 513.389023 345.582918 
L 513.242166 349.576307 
L 513.129238 353.569695 
L 513.048285 357.563084 
L 512.996456 361.556472 
L 512.970211 365.549861 
L 512.965519 369.543249 
L 512.97803 373.536637 
L 513.003235 377.530026 
L 513.036641 381.523414 
L 513.073986 385.516803 
L 513.111483 389.510191 
L 513.146081 393.50358 
L 513.175665 397.496968 
L 513.199144 401.490356 
L 513.216369 405.483745 
L 513.227883 409.477133 
L 513.234556 413.470522 
L 513.237177 417.46391 
L 513.236129 421.457299 
L 513.231235 425.450687 
L 513.221808 429.444075 
L 513.206893 433.437464 
L 513.185625 437.430852 
z
" style="fill:#1f77b4;fill-opacity:0.3;"/>
   </g>
   <g id="PolyCollection_10">
    <path clip-path="url(#p40095058db)" d="M 564.680227 416.453414 
L 563.994797 416.453414 
L 563.998532 412.695125 
L 564.01158 408.936836 
L 564.031965 405.178546 
L 564.056834 401.420257 
L 564.082767 397.661968 
L 564.106152 393.903679 
L 564.123533 390.145389 
L 564.131902 386.3871 
L 564.128884 382.628811 
L 564.112795 378.870521 
L 564.082589 375.112232 
L 564.037694 371.353943 
L 563.977793 367.595654 
L 563.902562 363.837364 
L 563.811449 360.079075 
L 563.703521 356.320786 
L 563.577438 352.562497 
L 563.431546 348.804207 
L 563.264095 345.045918 
L 563.073504 341.287629 
L 562.85859 337.52934 
L 562.618701 333.77105 
L 562.353678 330.012761 
L 562.063661 326.254472 
L 561.748801 322.496182 
L 561.408984 318.737893 
L 561.043701 314.979604 
L 560.652131 311.221315 
L 560.23348 307.463025 
L 559.787505 303.704736 
L 559.315074 299.946447 
L 558.818597 296.188158 
L 558.302151 292.429868 
L 557.771204 288.671579 
L 557.231918 284.91329 
L 556.690144 281.155 
L 556.15027 277.396711 
L 555.614167 273.638422 
L 555.080457 269.880133 
L 554.544293 266.121843 
L 553.997743 262.363554 
L 553.43078 258.605265 
L 552.832758 254.846976 
L 552.194159 251.088686 
L 551.508346 247.330397 
L 550.77305 243.572108 
L 549.991373 239.813819 
L 549.172202 236.055529 
L 548.330054 232.29724 
L 547.484463 228.538951 
L 546.659099 224.780661 
L 545.880746 221.022372 
L 545.178236 217.264083 
L 544.581276 213.505794 
L 544.119068 209.747504 
L 543.818613 205.989215 
L 543.702689 202.230926 
L 543.787656 198.472637 
L 544.081407 194.714347 
L 544.581895 190.956058 
L 545.27663 187.197769 
L 546.143396 183.439479 
L 547.152159 179.68119 
L 548.26788 175.922901 
L 549.453718 172.164612 
L 550.67405 168.406322 
L 551.896802 164.648033 
L 553.094821 160.889744 
L 554.246277 157.131455 
L 555.33429 153.373165 
L 556.346167 149.614876 
L 557.272597 145.856587 
L 558.107075 142.098298 
L 558.845669 138.340008 
L 559.48708 134.581719 
L 560.032835 130.82343 
L 560.48741 127.06514 
L 560.858111 123.306851 
L 561.154641 119.548562 
L 561.388358 115.790273 
L 561.571332 112.031983 
L 561.715385 108.273694 
L 561.831266 104.515405 
L 561.928094 100.757116 
L 562.013156 96.998826 
L 562.091998 93.240537 
L 562.168748 89.482248 
L 562.246505 85.723959 
L 562.327693 81.965669 
L 562.414264 78.20738 
L 562.507736 74.449091 
L 562.609105 70.690801 
L 562.718702 66.932512 
L 562.836085 63.174223 
L 562.960027 59.415934 
L 563.088623 55.657644 
L 563.219487 51.899355 
L 563.350007 48.141066 
L 563.477579 44.382777 
L 565.197445 44.382777 
L 565.197445 44.382777 
L 565.325018 48.141066 
L 565.455537 51.899355 
L 565.586401 55.657644 
L 565.714997 59.415934 
L 565.838939 63.174223 
L 565.956322 66.932512 
L 566.065919 70.690801 
L 566.167288 74.449091 
L 566.26076 78.20738 
L 566.347331 81.965669 
L 566.428519 85.723959 
L 566.506277 89.482248 
L 566.583026 93.240537 
L 566.661868 96.998826 
L 566.74693 100.757116 
L 566.843758 104.515405 
L 566.959639 108.273694 
L 567.103692 112.031983 
L 567.286667 115.790273 
L 567.520383 119.548562 
L 567.816913 123.306851 
L 568.187614 127.06514 
L 568.642189 130.82343 
L 569.187944 134.581719 
L 569.829355 138.340008 
L 570.567949 142.098298 
L 571.402427 145.856587 
L 572.328857 149.614876 
L 573.340735 153.373165 
L 574.428747 157.131455 
L 575.580203 160.889744 
L 576.778222 164.648033 
L 578.000974 168.406322 
L 579.221306 172.164612 
L 580.407144 175.922901 
L 581.522865 179.68119 
L 582.531628 183.439479 
L 583.398394 187.197769 
L 584.093129 190.956058 
L 584.593617 194.714347 
L 584.887368 198.472637 
L 584.972335 202.230926 
L 584.856411 205.989215 
L 584.555956 209.747504 
L 584.093748 213.505794 
L 583.496788 217.264083 
L 582.794278 221.022372 
L 582.015925 224.780661 
L 581.190561 228.538951 
L 580.344971 232.29724 
L 579.502822 236.055529 
L 578.683651 239.813819 
L 577.901974 243.572108 
L 577.166678 247.330397 
L 576.480865 251.088686 
L 575.842266 254.846976 
L 575.244244 258.605265 
L 574.677281 262.363554 
L 574.130731 266.121843 
L 573.594567 269.880133 
L 573.060857 273.638422 
L 572.524754 277.396711 
L 571.98488 281.155 
L 571.443106 284.91329 
L 570.90382 288.671579 
L 570.372873 292.429868 
L 569.856427 296.188158 
L 569.35995 299.946447 
L 568.88752 303.704736 
L 568.441544 307.463025 
L 568.022894 311.221315 
L 567.631323 314.979604 
L 567.26604 318.737893 
L 566.926223 322.496182 
L 566.611363 326.254472 
L 566.321346 330.012761 
L 566.056323 333.77105 
L 565.816434 337.52934 
L 565.60152 341.287629 
L 565.410929 345.045918 
L 565.243479 348.804207 
L 565.097587 352.562497 
L 564.971503 356.320786 
L 564.863575 360.079075 
L 564.772462 363.837364 
L 564.697231 367.595654 
L 564.63733 371.353943 
L 564.592435 375.112232 
L 564.562229 378.870521 
L 564.54614 382.628811 
L 564.543122 386.3871 
L 564.551491 390.145389 
L 564.568872 393.903679 
L 564.592257 397.661968 
L 564.61819 401.420257 
L 564.643059 405.178546 
L 564.663444 408.936836 
L 564.676492 412.695125 
L 564.680227 416.453414 
z
" style="fill:#1f77b4;fill-opacity:0.3;"/>
   </g>
   <g id="PolyCollection_11">
    <path clip-path="url(#p40095058db)" d="M 616.267425 431.468669 
L 615.581713 431.468669 
L 615.587002 427.596687 
L 615.602426 423.724705 
L 615.626524 419.852723 
L 615.657093 415.980741 
L 615.691459 412.10876 
L 615.72677 408.236778 
L 615.760241 404.364796 
L 615.789304 400.492814 
L 615.811634 396.620832 
L 615.825057 392.74885 
L 615.827373 388.876868 
L 615.81613 385.004887 
L 615.788434 381.132905 
L 615.740828 377.260923 
L 615.669301 373.388941 
L 615.569454 369.516959 
L 615.436811 365.644977 
L 615.26725 361.772996 
L 615.057476 357.901014 
L 614.805473 354.029032 
L 614.510819 350.15705 
L 614.174816 346.285068 
L 613.80039 342.413086 
L 613.391789 338.541104 
L 612.954166 334.669123 
L 612.493126 330.797141 
L 612.014396 326.925159 
L 611.523648 323.053177 
L 611.026528 319.181195 
L 610.52879 315.309213 
L 610.03641 311.437231 
L 609.555522 307.56525 
L 609.092032 303.693268 
L 608.65086 299.821286 
L 608.234897 295.949304 
L 607.843856 292.077322 
L 607.473324 288.20534 
L 607.114297 284.333358 
L 606.753462 280.461377 
L 606.374316 276.589395 
L 605.959032 272.717413 
L 605.490822 268.845431 
L 604.956371 264.973449 
L 604.347918 261.101467 
L 603.664566 257.229486 
L 602.912612 253.357504 
L 602.104856 249.485522 
L 601.259093 245.61354 
L 600.396161 241.741558 
L 599.538 237.869576 
L 598.706165 233.997594 
L 597.921072 230.125613 
L 597.202062 226.253631 
L 596.568095 222.381649 
L 596.038692 218.509667 
L 595.634595 214.637685 
L 595.377669 210.765703 
L 595.289746 206.893721 
L 595.390388 203.02174 
L 595.693906 199.149758 
L 596.206265 195.277776 
L 596.922587 191.405794 
L 597.82597 187.533812 
L 598.888007 183.66183 
L 600.071053 179.789849 
L 601.331858 175.917867 
L 602.625903 172.045885 
L 603.91161 168.173903 
L 605.153728 164.301921 
L 606.32539 160.429939 
L 607.408697 156.557957 
L 608.394011 152.685976 
L 609.278332 148.813994 
L 610.063282 144.942012 
L 610.753155 141.07003 
L 611.353359 137.198048 
L 611.869425 133.326066 
L 612.306577 129.454084 
L 612.669762 125.582103 
L 612.963957 121.710121 
L 613.194592 117.838139 
L 613.367939 113.966157 
L 613.491375 110.094175 
L 613.573443 106.222193 
L 613.623714 102.350212 
L 613.652441 98.47823 
L 613.670047 94.606248 
L 613.686503 90.734266 
L 613.710678 86.862284 
L 613.749735 82.990302 
L 613.808683 79.11832 
L 613.890125 75.246339 
L 613.994264 71.374357 
L 614.119154 67.502375 
L 614.261139 63.630393 
L 614.415433 59.758411 
L 614.576717 55.886429 
L 614.739692 52.014447 
L 614.899514 48.142466 
L 616.949624 48.142466 
L 616.949624 48.142466 
L 617.109446 52.014447 
L 617.272421 55.886429 
L 617.433705 59.758411 
L 617.587999 63.630393 
L 617.729984 67.502375 
L 617.854874 71.374357 
L 617.959014 75.246339 
L 618.040455 79.11832 
L 618.099403 82.990302 
L 618.13846 86.862284 
L 618.162635 90.734266 
L 618.179091 94.606248 
L 618.196697 98.47823 
L 618.225424 102.350212 
L 618.275695 106.222193 
L 618.357763 110.094175 
L 618.481199 113.966157 
L 618.654547 117.838139 
L 618.885181 121.710121 
L 619.179376 125.582103 
L 619.542561 129.454084 
L 619.979713 133.326066 
L 620.495779 137.198048 
L 621.095983 141.07003 
L 621.785856 144.942012 
L 622.570806 148.813994 
L 623.455127 152.685976 
L 624.440441 156.557957 
L 625.523748 160.429939 
L 626.69541 164.301921 
L 627.937528 168.173903 
L 629.223235 172.045885 
L 630.51728 175.917867 
L 631.778085 179.789849 
L 632.961131 183.66183 
L 634.023168 187.533812 
L 634.926551 191.405794 
L 635.642873 195.277776 
L 636.155232 199.149758 
L 636.45875 203.02174 
L 636.559392 206.893721 
L 636.471469 210.765703 
L 636.214543 214.637685 
L 635.810446 218.509667 
L 635.281043 222.381649 
L 634.647076 226.253631 
L 633.928066 230.125613 
L 633.142973 233.997594 
L 632.311138 237.869576 
L 631.452977 241.741558 
L 630.590045 245.61354 
L 629.744282 249.485522 
L 628.936526 253.357504 
L 628.184572 257.229486 
L 627.50122 261.101467 
L 626.892767 264.973449 
L 626.358316 268.845431 
L 625.890106 272.717413 
L 625.474822 276.589395 
L 625.095676 280.461377 
L 624.734841 284.333358 
L 624.375814 288.20534 
L 624.005282 292.077322 
L 623.614241 295.949304 
L 623.198278 299.821286 
L 622.757106 303.693268 
L 622.293616 307.56525 
L 621.812728 311.437231 
L 621.320348 315.309213 
L 620.82261 319.181195 
L 620.32549 323.053177 
L 619.834742 326.925159 
L 619.356012 330.797141 
L 618.894972 334.669123 
L 618.457349 338.541104 
L 618.048749 342.413086 
L 617.674322 346.285068 
L 617.338319 350.15705 
L 617.043665 354.029032 
L 616.791662 357.901014 
L 616.581889 361.772996 
L 616.412327 365.644977 
L 616.279684 369.516959 
L 616.179837 373.388941 
L 616.108311 377.260923 
L 616.060704 381.132905 
L 616.033008 385.004887 
L 616.021765 388.876868 
L 616.024081 392.74885 
L 616.037504 396.620832 
L 616.059834 400.492814 
L 616.088897 404.364796 
L 616.122368 408.236778 
L 616.157679 412.10876 
L 616.192045 415.980741 
L 616.222614 419.852723 
L 616.246712 423.724705 
L 616.262136 427.596687 
L 616.267425 431.468669 
z
" style="fill:#1f77b4;fill-opacity:0.3;"/>
   </g>
   <g id="PolyCollection_12">
    <path clip-path="url(#p40095058db)" d="M 667.848136 435.947385 
L 667.175116 435.947385 
L 667.180446 432.090017 
L 667.195978 428.232649 
L 667.220213 424.375281 
L 667.250899 420.517913 
L 667.285331 416.660545 
L 667.320666 412.803177 
L 667.354204 408.945809 
L 667.383564 405.088441 
L 667.406742 401.231073 
L 667.422043 397.373705 
L 667.427924 393.516338 
L 667.422768 389.65897 
L 667.40466 385.801602 
L 667.371181 381.944234 
L 667.319272 378.086866 
L 667.245192 374.229498 
L 667.144605 370.37213 
L 667.012798 366.514762 
L 666.845066 362.657394 
L 666.637233 358.800026 
L 666.386295 354.942658 
L 666.09109 351.08529 
L 665.752884 347.227922 
L 665.375731 343.370554 
L 664.966475 339.513186 
L 664.534291 335.655818 
L 664.089781 331.79845 
L 663.64372 327.941082 
L 663.205681 324.083714 
L 662.78279 320.226346 
L 662.378868 316.368978 
L 661.994132 312.51161 
L 661.625456 308.654242 
L 661.2671 304.796874 
L 660.911645 300.939506 
L 660.550914 297.082138 
L 660.176668 293.22477 
L 659.780997 289.367402 
L 659.35648 285.510034 
L 658.896239 281.652666 
L 658.394069 277.795298 
L 657.84476 273.93793 
L 657.24462 270.080562 
L 656.592104 266.223194 
L 655.888382 262.365826 
L 655.137657 258.508458 
L 654.34714 254.65109 
L 653.526666 250.793722 
L 652.688082 246.936354 
L 651.844612 243.078986 
L 651.010424 239.221618 
L 650.200575 235.36425 
L 649.431388 231.506882 
L 648.721122 227.649514 
L 648.090687 223.792146 
L 647.56401 219.934778 
L 647.16769 216.07741 
L 646.929658 212.220042 
L 646.876803 208.362674 
L 647.031764 204.505306 
L 647.409384 200.647938 
L 648.013487 196.79057 
L 648.834669 192.933202 
L 649.849682 189.075834 
L 651.022691 185.218466 
L 652.308331 181.361098 
L 653.656108 177.50373 
L 655.01545 173.646362 
L 656.340559 169.788994 
L 657.594308 165.931626 
L 658.750621 162.074258 
L 659.795094 158.21689 
L 660.723955 154.359522 
L 661.541739 150.502154 
L 662.258234 146.644786 
L 662.885318 142.787418 
L 663.434237 138.93005 
L 663.913735 135.072682 
L 664.329207 131.215314 
L 664.682891 127.357946 
L 664.974868 123.500578 
L 665.204575 119.643211 
L 665.372435 115.785843 
L 665.481246 111.928475 
L 665.537054 108.071107 
L 665.549341 104.213739 
L 665.530521 100.356371 
L 665.494848 96.499003 
L 665.456973 92.641635 
L 665.430404 88.784267 
L 665.426155 84.926899 
L 665.451781 81.069531 
L 665.510936 77.212163 
L 665.60346 73.354795 
L 665.725924 69.497427 
L 665.872485 65.640059 
L 666.035875 61.782691 
L 666.208367 57.925323 
L 666.382577 54.067955 
L 668.640675 54.067955 
L 668.640675 54.067955 
L 668.814885 57.925323 
L 668.987377 61.782691 
L 669.150767 65.640059 
L 669.297328 69.497427 
L 669.419792 73.354795 
L 669.512316 77.212163 
L 669.571471 81.069531 
L 669.597097 84.926899 
L 669.592848 88.784267 
L 669.566279 92.641635 
L 669.528404 96.499003 
L 669.492731 100.356371 
L 669.473911 104.213739 
L 669.486199 108.071107 
L 669.542006 111.928475 
L 669.650817 115.785843 
L 669.818677 119.643211 
L 670.048384 123.500578 
L 670.340361 127.357946 
L 670.694045 131.215314 
L 671.109517 135.072682 
L 671.589015 138.93005 
L 672.137934 142.787418 
L 672.765018 146.644786 
L 673.481513 150.502154 
L 674.299297 154.359522 
L 675.228158 158.21689 
L 676.272631 162.074258 
L 677.428944 165.931626 
L 678.682693 169.788994 
L 680.007802 173.646362 
L 681.367144 177.50373 
L 682.714921 181.361098 
L 684.000561 185.218466 
L 685.173571 189.075834 
L 686.188583 192.933202 
L 687.009765 196.79057 
L 687.613868 200.647938 
L 687.991488 204.505306 
L 688.146449 208.362674 
L 688.093594 212.220042 
L 687.855562 216.07741 
L 687.459242 219.934778 
L 686.932565 223.792146 
L 686.30213 227.649514 
L 685.591864 231.506882 
L 684.822677 235.36425 
L 684.012829 239.221618 
L 683.17864 243.078986 
L 682.33517 246.936354 
L 681.496586 250.793722 
L 680.676112 254.65109 
L 679.885595 258.508458 
L 679.13487 262.365826 
L 678.431148 266.223194 
L 677.778632 270.080562 
L 677.178492 273.93793 
L 676.629183 277.795298 
L 676.127013 281.652666 
L 675.666772 285.510034 
L 675.242255 289.367402 
L 674.846584 293.22477 
L 674.472338 297.082138 
L 674.111607 300.939506 
L 673.756152 304.796874 
L 673.397796 308.654242 
L 673.02912 312.51161 
L 672.644384 316.368978 
L 672.240462 320.226346 
L 671.817571 324.083714 
L 671.379532 327.941082 
L 670.933471 331.79845 
L 670.488961 335.655818 
L 670.056778 339.513186 
L 669.647522 343.370554 
L 669.270369 347.227922 
L 668.932162 351.08529 
L 668.636957 354.942658 
L 668.386019 358.800026 
L 668.178187 362.657394 
L 668.010454 366.514762 
L 667.878647 370.37213 
L 667.77806 374.229498 
L 667.703981 378.086866 
L 667.652071 381.944234 
L 667.618592 385.801602 
L 667.600484 389.65897 
L 667.595329 393.516338 
L 667.601209 397.373705 
L 667.61651 401.231073 
L 667.639688 405.088441 
L 667.669048 408.945809 
L 667.702587 412.803177 
L 667.737922 416.660545 
L 667.772353 420.517913 
L 667.803039 424.375281 
L 667.827274 428.232649 
L 667.842806 432.090017 
L 667.848136 435.947385 
z
" style="fill:#1f77b4;fill-opacity:0.3;"/>
   </g>
   <g id="matplotlib.axis_1">
    <g id="xtick_1">
     <g id="line2d_1">
      <path clip-path="url(#p40095058db)" d="M 100.053999 457.198125 
L 100.053999 22.318125 
" style="fill:none;stroke:#b0b0b0;stroke-linecap:square;stroke-width:0.8;"/>
     </g>
     <g id="line2d_2">
      <defs>
       <path d="M 0 0 
L 0 3.5 
" id="madbc789ebb" style="stroke:#000000;stroke-width:0.8;"/>
      </defs>
      <g>
       <use style="stroke:#000000;stroke-width:0.8;" x="100.053999" xlink:href="#madbc789ebb" y="457.198125"/>
      </g>
     </g>
     <g id="text_1">
      <!-- 1952 -->
      <g transform="translate(87.328999 471.796562)scale(0.1 -0.1)">
       <defs>
        <path d="M 794 531 
L 1825 531 
L 1825 4091 
L 703 3866 
L 703 4441 
L 1819 4666 
L 2450 4666 
L 2450 531 
L 3481 531 
L 3481 0 
L 794 0 
L 794 531 
z
" id="DejaVuSans-31" transform="scale(0.015625)"/>
        <path d="M 703 97 
L 703 672 
Q 941 559 1184 500 
Q 1428 441 1663 441 
Q 2288 441 2617 861 
Q 2947 1281 2994 2138 
Q 2813 1869 2534 1725 
Q 2256 1581 1919 1581 
Q 1219 1581 811 2004 
Q 403 2428 403 3163 
Q 403 3881 828 4315 
Q 1253 4750 1959 4750 
Q 2769 4750 3195 4129 
Q 3622 3509 3622 2328 
Q 3622 1225 3098 567 
Q 2575 -91 1691 -91 
Q 1453 -91 1209 -44 
Q 966 3 703 97 
z
M 1959 2075 
Q 2384 2075 2632 2365 
Q 2881 2656 2881 3163 
Q 2881 3666 2632 3958 
Q 2384 4250 1959 4250 
Q 1534 4250 1286 3958 
Q 1038 3666 1038 3163 
Q 1038 2656 1286 2365 
Q 1534 2075 1959 2075 
z
" id="DejaVuSans-39" transform="scale(0.015625)"/>
        <path d="M 691 4666 
L 3169 4666 
L 3169 4134 
L 1269 4134 
L 1269 2991 
Q 1406 3038 1543 3061 
Q 1681 3084 1819 3084 
Q 2600 3084 3056 2656 
Q 3513 2228 3513 1497 
Q 3513 744 3044 326 
Q 2575 -91 1722 -91 
Q 1428 -91 1123 -41 
Q 819 9 494 109 
L 494 744 
Q 775 591 1075 516 
Q 1375 441 1709 441 
Q 2250 441 2565 725 
Q 2881 1009 2881 1497 
Q 2881 1984 2565 2268 
Q 2250 2553 1709 2553 
Q 1456 2553 1204 2497 
Q 953 2441 691 2322 
L 691 4666 
z
" id="DejaVuSans-35" transform="scale(0.015625)"/>
        <path d="M 1228 531 
L 3431 531 
L 3431 0 
L 469 0 
L 469 531 
Q 828 903 1448 1529 
Q 2069 2156 2228 2338 
Q 2531 2678 2651 2914 
Q 2772 3150 2772 3378 
Q 2772 3750 2511 3984 
Q 2250 4219 1831 4219 
Q 1534 4219 1204 4116 
Q 875 4013 500 3803 
L 500 4441 
Q 881 4594 1212 4672 
Q 1544 4750 1819 4750 
Q 2544 4750 2975 4387 
Q 3406 4025 3406 3419 
Q 3406 3131 3298 2873 
Q 3191 2616 2906 2266 
Q 2828 2175 2409 1742 
Q 1991 1309 1228 531 
z
" id="DejaVuSans-32" transform="scale(0.015625)"/>
       </defs>
       <use xlink:href="#DejaVuSans-31"/>
       <use x="63.623047" xlink:href="#DejaVuSans-39"/>
       <use x="127.246094" xlink:href="#DejaVuSans-35"/>
       <use x="190.869141" xlink:href="#DejaVuSans-32"/>
      </g>
     </g>
    </g>
    <g id="xtick_2">
     <g id="line2d_3">
      <path clip-path="url(#p40095058db)" d="M 151.641056 457.198125 
L 151.641056 22.318125 
" style="fill:none;stroke:#b0b0b0;stroke-linecap:square;stroke-width:0.8;"/>
     </g>
     <g id="line2d_4">
      <g>
       <use style="stroke:#000000;stroke-width:0.8;" x="151.641056" xlink:href="#madbc789ebb" y="457.198125"/>
      </g>
     </g>
     <g id="text_2">
      <!-- 1957 -->
      <g transform="translate(138.916056 471.796562)scale(0.1 -0.1)">
       <defs>
        <path d="M 525 4666 
L 3525 4666 
L 3525 4397 
L 1831 0 
L 1172 0 
L 2766 4134 
L 525 4134 
L 525 4666 
z
" id="DejaVuSans-37" transform="scale(0.015625)"/>
       </defs>
       <use xlink:href="#DejaVuSans-31"/>
       <use x="63.623047" xlink:href="#DejaVuSans-39"/>
       <use x="127.246094" xlink:href="#DejaVuSans-35"/>
       <use x="190.869141" xlink:href="#DejaVuSans-37"/>
      </g>
     </g>
    </g>
    <g id="xtick_3">
     <g id="line2d_5">
      <path clip-path="url(#p40095058db)" d="M 203.228113 457.198125 
L 203.228113 22.318125 
" style="fill:none;stroke:#b0b0b0;stroke-linecap:square;stroke-width:0.8;"/>
     </g>
     <g id="line2d_6">
      <g>
       <use style="stroke:#000000;stroke-width:0.8;" x="203.228113" xlink:href="#madbc789ebb" y="457.198125"/>
      </g>
     </g>
     <g id="text_3">
      <!-- 1962 -->
      <g transform="translate(190.503113 471.796562)scale(0.1 -0.1)">
       <defs>
        <path d="M 2113 2584 
Q 1688 2584 1439 2293 
Q 1191 2003 1191 1497 
Q 1191 994 1439 701 
Q 1688 409 2113 409 
Q 2538 409 2786 701 
Q 3034 994 3034 1497 
Q 3034 2003 2786 2293 
Q 2538 2584 2113 2584 
z
M 3366 4563 
L 3366 3988 
Q 3128 4100 2886 4159 
Q 2644 4219 2406 4219 
Q 1781 4219 1451 3797 
Q 1122 3375 1075 2522 
Q 1259 2794 1537 2939 
Q 1816 3084 2150 3084 
Q 2853 3084 3261 2657 
Q 3669 2231 3669 1497 
Q 3669 778 3244 343 
Q 2819 -91 2113 -91 
Q 1303 -91 875 529 
Q 447 1150 447 2328 
Q 447 3434 972 4092 
Q 1497 4750 2381 4750 
Q 2619 4750 2861 4703 
Q 3103 4656 3366 4563 
z
" id="DejaVuSans-36" transform="scale(0.015625)"/>
       </defs>
       <use xlink:href="#DejaVuSans-31"/>
       <use x="63.623047" xlink:href="#DejaVuSans-39"/>
       <use x="127.246094" xlink:href="#DejaVuSans-36"/>
       <use x="190.869141" xlink:href="#DejaVuSans-32"/>
      </g>
     </g>
    </g>
    <g id="xtick_4">
     <g id="line2d_7">
      <path clip-path="url(#p40095058db)" d="M 254.81517 457.198125 
L 254.81517 22.318125 
" style="fill:none;stroke:#b0b0b0;stroke-linecap:square;stroke-width:0.8;"/>
     </g>
     <g id="line2d_8">
      <g>
       <use style="stroke:#000000;stroke-width:0.8;" x="254.81517" xlink:href="#madbc789ebb" y="457.198125"/>
      </g>
     </g>
     <g id="text_4">
      <!-- 1967 -->
      <g transform="translate(242.09017 471.796562)scale(0.1 -0.1)">
       <use xlink:href="#DejaVuSans-31"/>
       <use x="63.623047" xlink:href="#DejaVuSans-39"/>
       <use x="127.246094" xlink:href="#DejaVuSans-36"/>
       <use x="190.869141" xlink:href="#DejaVuSans-37"/>
      </g>
     </g>
    </g>
    <g id="xtick_5">
     <g id="line2d_9">
      <path clip-path="url(#p40095058db)" d="M 306.402227 457.198125 
L 306.402227 22.318125 
" style="fill:none;stroke:#b0b0b0;stroke-linecap:square;stroke-width:0.8;"/>
     </g>
     <g id="line2d_10">
      <g>
       <use style="stroke:#000000;stroke-width:0.8;" x="306.402227" xlink:href="#madbc789ebb" y="457.198125"/>
      </g>
     </g>
     <g id="text_5">
      <!-- 1972 -->
      <g transform="translate(293.677227 471.796562)scale(0.1 -0.1)">
       <use xlink:href="#DejaVuSans-31"/>
       <use x="63.623047" xlink:href="#DejaVuSans-39"/>
       <use x="127.246094" xlink:href="#DejaVuSans-37"/>
       <use x="190.869141" xlink:href="#DejaVuSans-32"/>
      </g>
     </g>
    </g>
    <g id="xtick_6">
     <g id="line2d_11">
      <path clip-path="url(#p40095058db)" d="M 357.989284 457.198125 
L 357.989284 22.318125 
" style="fill:none;stroke:#b0b0b0;stroke-linecap:square;stroke-width:0.8;"/>
     </g>
     <g id="line2d_12">
      <g>
       <use style="stroke:#000000;stroke-width:0.8;" x="357.989284" xlink:href="#madbc789ebb" y="457.198125"/>
      </g>
     </g>
     <g id="text_6">
      <!-- 1977 -->
      <g transform="translate(345.264284 471.796562)scale(0.1 -0.1)">
       <use xlink:href="#DejaVuSans-31"/>
       <use x="63.623047" xlink:href="#DejaVuSans-39"/>
       <use x="127.246094" xlink:href="#DejaVuSans-37"/>
       <use x="190.869141" xlink:href="#DejaVuSans-37"/>
      </g>
     </g>
    </g>
    <g id="xtick_7">
     <g id="line2d_13">
      <path clip-path="url(#p40095058db)" d="M 409.576341 457.198125 
L 409.576341 22.318125 
" style="fill:none;stroke:#b0b0b0;stroke-linecap:square;stroke-width:0.8;"/>
     </g>
     <g id="line2d_14">
      <g>
       <use style="stroke:#000000;stroke-width:0.8;" x="409.576341" xlink:href="#madbc789ebb" y="457.198125"/>
      </g>
     </g>
     <g id="text_7">
      <!-- 1982 -->
      <g transform="translate(396.851341 471.796562)scale(0.1 -0.1)">
       <defs>
        <path d="M 2034 2216 
Q 1584 2216 1326 1975 
Q 1069 1734 1069 1313 
Q 1069 891 1326 650 
Q 1584 409 2034 409 
Q 2484 409 2743 651 
Q 3003 894 3003 1313 
Q 3003 1734 2745 1975 
Q 2488 2216 2034 2216 
z
M 1403 2484 
Q 997 2584 770 2862 
Q 544 3141 544 3541 
Q 544 4100 942 4425 
Q 1341 4750 2034 4750 
Q 2731 4750 3128 4425 
Q 3525 4100 3525 3541 
Q 3525 3141 3298 2862 
Q 3072 2584 2669 2484 
Q 3125 2378 3379 2068 
Q 3634 1759 3634 1313 
Q 3634 634 3220 271 
Q 2806 -91 2034 -91 
Q 1263 -91 848 271 
Q 434 634 434 1313 
Q 434 1759 690 2068 
Q 947 2378 1403 2484 
z
M 1172 3481 
Q 1172 3119 1398 2916 
Q 1625 2713 2034 2713 
Q 2441 2713 2670 2916 
Q 2900 3119 2900 3481 
Q 2900 3844 2670 4047 
Q 2441 4250 2034 4250 
Q 1625 4250 1398 4047 
Q 1172 3844 1172 3481 
z
" id="DejaVuSans-38" transform="scale(0.015625)"/>
       </defs>
       <use xlink:href="#DejaVuSans-31"/>
       <use x="63.623047" xlink:href="#DejaVuSans-39"/>
       <use x="127.246094" xlink:href="#DejaVuSans-38"/>
       <use x="190.869141" xlink:href="#DejaVuSans-32"/>
      </g>
     </g>
    </g>
    <g id="xtick_8">
     <g id="line2d_15">
      <path clip-path="url(#p40095058db)" d="M 461.163398 457.198125 
L 461.163398 22.318125 
" style="fill:none;stroke:#b0b0b0;stroke-linecap:square;stroke-width:0.8;"/>
     </g>
     <g id="line2d_16">
      <g>
       <use style="stroke:#000000;stroke-width:0.8;" x="461.163398" xlink:href="#madbc789ebb" y="457.198125"/>
      </g>
     </g>
     <g id="text_8">
      <!-- 1987 -->
      <g transform="translate(448.438398 471.796562)scale(0.1 -0.1)">
       <use xlink:href="#DejaVuSans-31"/>
       <use x="63.623047" xlink:href="#DejaVuSans-39"/>
       <use x="127.246094" xlink:href="#DejaVuSans-38"/>
       <use x="190.869141" xlink:href="#DejaVuSans-37"/>
      </g>
     </g>
    </g>
    <g id="xtick_9">
     <g id="line2d_17">
      <path clip-path="url(#p40095058db)" d="M 512.750455 457.198125 
L 512.750455 22.318125 
" style="fill:none;stroke:#b0b0b0;stroke-linecap:square;stroke-width:0.8;"/>
     </g>
     <g id="line2d_18">
      <g>
       <use style="stroke:#000000;stroke-width:0.8;" x="512.750455" xlink:href="#madbc789ebb" y="457.198125"/>
      </g>
     </g>
     <g id="text_9">
      <!-- 1992 -->
      <g transform="translate(500.025455 471.796562)scale(0.1 -0.1)">
       <use xlink:href="#DejaVuSans-31"/>
       <use x="63.623047" xlink:href="#DejaVuSans-39"/>
       <use x="127.246094" xlink:href="#DejaVuSans-39"/>
       <use x="190.869141" xlink:href="#DejaVuSans-32"/>
      </g>
     </g>
    </g>
    <g id="xtick_10">
     <g id="line2d_19">
      <path clip-path="url(#p40095058db)" d="M 564.337512 457.198125 
L 564.337512 22.318125 
" style="fill:none;stroke:#b0b0b0;stroke-linecap:square;stroke-width:0.8;"/>
     </g>
     <g id="line2d_20">
      <g>
       <use style="stroke:#000000;stroke-width:0.8;" x="564.337512" xlink:href="#madbc789ebb" y="457.198125"/>
      </g>
     </g>
     <g id="text_10">
      <!-- 1997 -->
      <g transform="translate(551.612512 471.796562)scale(0.1 -0.1)">
       <use xlink:href="#DejaVuSans-31"/>
       <use x="63.623047" xlink:href="#DejaVuSans-39"/>
       <use x="127.246094" xlink:href="#DejaVuSans-39"/>
       <use x="190.869141" xlink:href="#DejaVuSans-37"/>
      </g>
     </g>
    </g>
    <g id="xtick_11">
     <g id="line2d_21">
      <path clip-path="url(#p40095058db)" d="M 615.924569 457.198125 
L 615.924569 22.318125 
" style="fill:none;stroke:#b0b0b0;stroke-linecap:square;stroke-width:0.8;"/>
     </g>
     <g id="line2d_22">
      <g>
       <use style="stroke:#000000;stroke-width:0.8;" x="615.924569" xlink:href="#madbc789ebb" y="457.198125"/>
      </g>
     </g>
     <g id="text_11">
      <!-- 2002 -->
      <g transform="translate(603.199569 471.796562)scale(0.1 -0.1)">
       <defs>
        <path d="M 2034 4250 
Q 1547 4250 1301 3770 
Q 1056 3291 1056 2328 
Q 1056 1369 1301 889 
Q 1547 409 2034 409 
Q 2525 409 2770 889 
Q 3016 1369 3016 2328 
Q 3016 3291 2770 3770 
Q 2525 4250 2034 4250 
z
M 2034 4750 
Q 2819 4750 3233 4129 
Q 3647 3509 3647 2328 
Q 3647 1150 3233 529 
Q 2819 -91 2034 -91 
Q 1250 -91 836 529 
Q 422 1150 422 2328 
Q 422 3509 836 4129 
Q 1250 4750 2034 4750 
z
" id="DejaVuSans-30" transform="scale(0.015625)"/>
       </defs>
       <use xlink:href="#DejaVuSans-32"/>
       <use x="63.623047" xlink:href="#DejaVuSans-30"/>
       <use x="127.246094" xlink:href="#DejaVuSans-30"/>
       <use x="190.869141" xlink:href="#DejaVuSans-32"/>
      </g>
     </g>
    </g>
    <g id="xtick_12">
     <g id="line2d_23">
      <path clip-path="url(#p40095058db)" d="M 667.511626 457.198125 
L 667.511626 22.318125 
" style="fill:none;stroke:#b0b0b0;stroke-linecap:square;stroke-width:0.8;"/>
     </g>
     <g id="line2d_24">
      <g>
       <use style="stroke:#000000;stroke-width:0.8;" x="667.511626" xlink:href="#madbc789ebb" y="457.198125"/>
      </g>
     </g>
     <g id="text_12">
      <!-- 2007 -->
      <g transform="translate(654.786626 471.796562)scale(0.1 -0.1)">
       <use xlink:href="#DejaVuSans-32"/>
       <use x="63.623047" xlink:href="#DejaVuSans-30"/>
       <use x="127.246094" xlink:href="#DejaVuSans-30"/>
       <use x="190.869141" xlink:href="#DejaVuSans-37"/>
      </g>
     </g>
    </g>
    <g id="text_13">
     <!-- Year -->
     <g transform="translate(373.195313 485.474687)scale(0.1 -0.1)">
      <defs>
       <path d="M -13 4666 
L 666 4666 
L 1959 2747 
L 3244 4666 
L 3922 4666 
L 2272 2222 
L 2272 0 
L 1638 0 
L 1638 2222 
L -13 4666 
z
" id="DejaVuSans-59" transform="scale(0.015625)"/>
       <path d="M 3597 1894 
L 3597 1613 
L 953 1613 
Q 991 1019 1311 708 
Q 1631 397 2203 397 
Q 2534 397 2845 478 
Q 3156 559 3463 722 
L 3463 178 
Q 3153 47 2828 -22 
Q 2503 -91 2169 -91 
Q 1331 -91 842 396 
Q 353 884 353 1716 
Q 353 2575 817 3079 
Q 1281 3584 2069 3584 
Q 2775 3584 3186 3129 
Q 3597 2675 3597 1894 
z
M 3022 2063 
Q 3016 2534 2758 2815 
Q 2500 3097 2075 3097 
Q 1594 3097 1305 2825 
Q 1016 2553 972 2059 
L 3022 2063 
z
" id="DejaVuSans-65" transform="scale(0.015625)"/>
       <path d="M 2194 1759 
Q 1497 1759 1228 1600 
Q 959 1441 959 1056 
Q 959 750 1161 570 
Q 1363 391 1709 391 
Q 2188 391 2477 730 
Q 2766 1069 2766 1631 
L 2766 1759 
L 2194 1759 
z
M 3341 1997 
L 3341 0 
L 2766 0 
L 2766 531 
Q 2569 213 2275 61 
Q 1981 -91 1556 -91 
Q 1019 -91 701 211 
Q 384 513 384 1019 
Q 384 1609 779 1909 
Q 1175 2209 1959 2209 
L 2766 2209 
L 2766 2266 
Q 2766 2663 2505 2880 
Q 2244 3097 1772 3097 
Q 1472 3097 1187 3025 
Q 903 2953 641 2809 
L 641 3341 
Q 956 3463 1253 3523 
Q 1550 3584 1831 3584 
Q 2591 3584 2966 3190 
Q 3341 2797 3341 1997 
z
" id="DejaVuSans-61" transform="scale(0.015625)"/>
       <path d="M 2631 2963 
Q 2534 3019 2420 3045 
Q 2306 3072 2169 3072 
Q 1681 3072 1420 2755 
Q 1159 2438 1159 1844 
L 1159 0 
L 581 0 
L 581 3500 
L 1159 3500 
L 1159 2956 
Q 1341 3275 1631 3429 
Q 1922 3584 2338 3584 
Q 2397 3584 2469 3576 
Q 2541 3569 2628 3553 
L 2631 2963 
z
" id="DejaVuSans-72" transform="scale(0.015625)"/>
      </defs>
      <use xlink:href="#DejaVuSans-59"/>
      <use x="47.833984" xlink:href="#DejaVuSans-65"/>
      <use x="109.357422" xlink:href="#DejaVuSans-61"/>
      <use x="170.636719" xlink:href="#DejaVuSans-72"/>
     </g>
    </g>
   </g>
   <g id="matplotlib.axis_2">
    <g id="ytick_1">
     <g id="line2d_25">
      <path clip-path="url(#p40095058db)" d="M 48.982813 446.240711 
L 718.582813 446.240711 
" style="fill:none;stroke:#b0b0b0;stroke-linecap:square;stroke-width:0.8;"/>
     </g>
     <g id="line2d_26">
      <defs>
       <path d="M 0 0 
L -3.5 0 
" id="m7db2d5cba5" style="stroke:#000000;stroke-width:0.8;"/>
      </defs>
      <g>
       <use style="stroke:#000000;stroke-width:0.8;" x="48.982813" xlink:href="#m7db2d5cba5" y="446.240711"/>
      </g>
     </g>
     <g id="text_14">
      <!-- 30 -->
      <g transform="translate(20.878125 450.03993)scale(0.1 -0.1)">
       <defs>
        <path d="M 678 2272 
L 4684 2272 
L 4684 1741 
L 678 1741 
L 678 2272 
z
" id="DejaVuSans-2212" transform="scale(0.015625)"/>
        <path d="M 2597 2516 
Q 3050 2419 3304 2112 
Q 3559 1806 3559 1356 
Q 3559 666 3084 287 
Q 2609 -91 1734 -91 
Q 1441 -91 1130 -33 
Q 819 25 488 141 
L 488 750 
Q 750 597 1062 519 
Q 1375 441 1716 441 
Q 2309 441 2620 675 
Q 2931 909 2931 1356 
Q 2931 1769 2642 2001 
Q 2353 2234 1838 2234 
L 1294 2234 
L 1294 2753 
L 1863 2753 
Q 2328 2753 2575 2939 
Q 2822 3125 2822 3475 
Q 2822 3834 2567 4026 
Q 2313 4219 1838 4219 
Q 1578 4219 1281 4162 
Q 984 4106 628 3988 
L 628 4550 
Q 988 4650 1302 4700 
Q 1616 4750 1894 4750 
Q 2613 4750 3031 4423 
Q 3450 4097 3450 3541 
Q 3450 3153 3228 2886 
Q 3006 2619 2597 2516 
z
" id="DejaVuSans-33" transform="scale(0.015625)"/>
       </defs>
       <use xlink:href="#DejaVuSans-2212"/>
       <use x="83.789062" xlink:href="#DejaVuSans-33"/>
       <use x="147.412109" xlink:href="#DejaVuSans-30"/>
      </g>
     </g>
    </g>
    <g id="ytick_2">
     <g id="line2d_27">
      <path clip-path="url(#p40095058db)" d="M 48.982813 367.196914 
L 718.582813 367.196914 
" style="fill:none;stroke:#b0b0b0;stroke-linecap:square;stroke-width:0.8;"/>
     </g>
     <g id="line2d_28">
      <g>
       <use style="stroke:#000000;stroke-width:0.8;" x="48.982813" xlink:href="#m7db2d5cba5" y="367.196914"/>
      </g>
     </g>
     <g id="text_15">
      <!-- 20 -->
      <g transform="translate(20.878125 370.996133)scale(0.1 -0.1)">
       <use xlink:href="#DejaVuSans-2212"/>
       <use x="83.789062" xlink:href="#DejaVuSans-32"/>
       <use x="147.412109" xlink:href="#DejaVuSans-30"/>
      </g>
     </g>
    </g>
    <g id="ytick_3">
     <g id="line2d_29">
      <path clip-path="url(#p40095058db)" d="M 48.982813 288.153117 
L 718.582813 288.153117 
" style="fill:none;stroke:#b0b0b0;stroke-linecap:square;stroke-width:0.8;"/>
     </g>
     <g id="line2d_30">
      <g>
       <use style="stroke:#000000;stroke-width:0.8;" x="48.982813" xlink:href="#m7db2d5cba5" y="288.153117"/>
      </g>
     </g>
     <g id="text_16">
      <!-- 10 -->
      <g transform="translate(20.878125 291.952336)scale(0.1 -0.1)">
       <use xlink:href="#DejaVuSans-2212"/>
       <use x="83.789062" xlink:href="#DejaVuSans-31"/>
       <use x="147.412109" xlink:href="#DejaVuSans-30"/>
      </g>
     </g>
    </g>
    <g id="ytick_4">
     <g id="line2d_31">
      <path clip-path="url(#p40095058db)" d="M 48.982813 209.10932 
L 718.582813 209.10932 
" style="fill:none;stroke:#b0b0b0;stroke-linecap:square;stroke-width:0.8;"/>
     </g>
     <g id="line2d_32">
      <g>
       <use style="stroke:#000000;stroke-width:0.8;" x="48.982813" xlink:href="#m7db2d5cba5" y="209.10932"/>
      </g>
     </g>
     <g id="text_17">
      <!-- 0 -->
      <g transform="translate(35.620312 212.908539)scale(0.1 -0.1)">
       <use xlink:href="#DejaVuSans-30"/>
      </g>
     </g>
    </g>
    <g id="ytick_5">
     <g id="line2d_33">
      <path clip-path="url(#p40095058db)" d="M 48.982813 130.065523 
L 718.582813 130.065523 
" style="fill:none;stroke:#b0b0b0;stroke-linecap:square;stroke-width:0.8;"/>
     </g>
     <g id="line2d_34">
      <g>
       <use style="stroke:#000000;stroke-width:0.8;" x="48.982813" xlink:href="#m7db2d5cba5" y="130.065523"/>
      </g>
     </g>
     <g id="text_18">
      <!-- 10 -->
      <g transform="translate(29.257812 133.864742)scale(0.1 -0.1)">
       <use xlink:href="#DejaVuSans-31"/>
       <use x="63.623047" xlink:href="#DejaVuSans-30"/>
      </g>
     </g>
    </g>
    <g id="ytick_6">
     <g id="line2d_35">
      <path clip-path="url(#p40095058db)" d="M 48.982813 51.021726 
L 718.582813 51.021726 
" style="fill:none;stroke:#b0b0b0;stroke-linecap:square;stroke-width:0.8;"/>
     </g>
     <g id="line2d_36">
      <g>
       <use style="stroke:#000000;stroke-width:0.8;" x="48.982813" xlink:href="#m7db2d5cba5" y="51.021726"/>
      </g>
     </g>
     <g id="text_19">
      <!-- 20 -->
      <g transform="translate(29.257812 54.820945)scale(0.1 -0.1)">
       <use xlink:href="#DejaVuSans-32"/>
       <use x="63.623047" xlink:href="#DejaVuSans-30"/>
      </g>
     </g>
    </g>
    <g id="text_20">
     <!-- Residuals -->
     <g transform="translate(14.798437 263.478437)rotate(-90)scale(0.1 -0.1)">
      <defs>
       <path d="M 2841 2188 
Q 3044 2119 3236 1894 
Q 3428 1669 3622 1275 
L 4263 0 
L 3584 0 
L 2988 1197 
Q 2756 1666 2539 1819 
Q 2322 1972 1947 1972 
L 1259 1972 
L 1259 0 
L 628 0 
L 628 4666 
L 2053 4666 
Q 2853 4666 3247 4331 
Q 3641 3997 3641 3322 
Q 3641 2881 3436 2590 
Q 3231 2300 2841 2188 
z
M 1259 4147 
L 1259 2491 
L 2053 2491 
Q 2509 2491 2742 2702 
Q 2975 2913 2975 3322 
Q 2975 3731 2742 3939 
Q 2509 4147 2053 4147 
L 1259 4147 
z
" id="DejaVuSans-52" transform="scale(0.015625)"/>
       <path d="M 2834 3397 
L 2834 2853 
Q 2591 2978 2328 3040 
Q 2066 3103 1784 3103 
Q 1356 3103 1142 2972 
Q 928 2841 928 2578 
Q 928 2378 1081 2264 
Q 1234 2150 1697 2047 
L 1894 2003 
Q 2506 1872 2764 1633 
Q 3022 1394 3022 966 
Q 3022 478 2636 193 
Q 2250 -91 1575 -91 
Q 1294 -91 989 -36 
Q 684 19 347 128 
L 347 722 
Q 666 556 975 473 
Q 1284 391 1588 391 
Q 1994 391 2212 530 
Q 2431 669 2431 922 
Q 2431 1156 2273 1281 
Q 2116 1406 1581 1522 
L 1381 1569 
Q 847 1681 609 1914 
Q 372 2147 372 2553 
Q 372 3047 722 3315 
Q 1072 3584 1716 3584 
Q 2034 3584 2315 3537 
Q 2597 3491 2834 3397 
z
" id="DejaVuSans-73" transform="scale(0.015625)"/>
       <path d="M 603 3500 
L 1178 3500 
L 1178 0 
L 603 0 
L 603 3500 
z
M 603 4863 
L 1178 4863 
L 1178 4134 
L 603 4134 
L 603 4863 
z
" id="DejaVuSans-69" transform="scale(0.015625)"/>
       <path d="M 2906 2969 
L 2906 4863 
L 3481 4863 
L 3481 0 
L 2906 0 
L 2906 525 
Q 2725 213 2448 61 
Q 2172 -91 1784 -91 
Q 1150 -91 751 415 
Q 353 922 353 1747 
Q 353 2572 751 3078 
Q 1150 3584 1784 3584 
Q 2172 3584 2448 3432 
Q 2725 3281 2906 2969 
z
M 947 1747 
Q 947 1113 1208 752 
Q 1469 391 1925 391 
Q 2381 391 2643 752 
Q 2906 1113 2906 1747 
Q 2906 2381 2643 2742 
Q 2381 3103 1925 3103 
Q 1469 3103 1208 2742 
Q 947 2381 947 1747 
z
" id="DejaVuSans-64" transform="scale(0.015625)"/>
       <path d="M 544 1381 
L 544 3500 
L 1119 3500 
L 1119 1403 
Q 1119 906 1312 657 
Q 1506 409 1894 409 
Q 2359 409 2629 706 
Q 2900 1003 2900 1516 
L 2900 3500 
L 3475 3500 
L 3475 0 
L 2900 0 
L 2900 538 
Q 2691 219 2414 64 
Q 2138 -91 1772 -91 
Q 1169 -91 856 284 
Q 544 659 544 1381 
z
M 1991 3584 
L 1991 3584 
z
" id="DejaVuSans-75" transform="scale(0.015625)"/>
       <path d="M 603 4863 
L 1178 4863 
L 1178 0 
L 603 0 
L 603 4863 
z
" id="DejaVuSans-6c" transform="scale(0.015625)"/>
      </defs>
      <use xlink:href="#DejaVuSans-52"/>
      <use x="64.982422" xlink:href="#DejaVuSans-65"/>
      <use x="126.505859" xlink:href="#DejaVuSans-73"/>
      <use x="178.605469" xlink:href="#DejaVuSans-69"/>
      <use x="206.388672" xlink:href="#DejaVuSans-64"/>
      <use x="269.865234" xlink:href="#DejaVuSans-75"/>
      <use x="333.244141" xlink:href="#DejaVuSans-61"/>
      <use x="394.523438" xlink:href="#DejaVuSans-6c"/>
      <use x="422.306641" xlink:href="#DejaVuSans-73"/>
     </g>
    </g>
   </g>
   <g id="LineCollection_1">
    <path clip-path="url(#p40095058db)" d="M 89.736588 220.605959 
L 110.37141 220.605959 
" style="fill:none;stroke:#1f77b4;stroke-width:1.5;"/>
    <path clip-path="url(#p40095058db)" d="M 141.323645 214.122295 
L 161.958467 214.122295 
" style="fill:none;stroke:#1f77b4;stroke-width:1.5;"/>
    <path clip-path="url(#p40095058db)" d="M 192.910702 210.388829 
L 213.545524 210.388829 
" style="fill:none;stroke:#1f77b4;stroke-width:1.5;"/>
    <path clip-path="url(#p40095058db)" d="M 244.497759 206.914685 
L 265.132581 206.914685 
" style="fill:none;stroke:#1f77b4;stroke-width:1.5;"/>
    <path clip-path="url(#p40095058db)" d="M 296.084816 204.230533 
L 316.719638 204.230533 
" style="fill:none;stroke:#1f77b4;stroke-width:1.5;"/>
    <path clip-path="url(#p40095058db)" d="M 347.671873 201.912559 
L 368.306695 201.912559 
" style="fill:none;stroke:#1f77b4;stroke-width:1.5;"/>
    <path clip-path="url(#p40095058db)" d="M 399.25893 199.276286 
L 419.893752 199.276286 
" style="fill:none;stroke:#1f77b4;stroke-width:1.5;"/>
    <path clip-path="url(#p40095058db)" d="M 450.845987 198.881886 
L 471.480809 198.881886 
" style="fill:none;stroke:#1f77b4;stroke-width:1.5;"/>
    <path clip-path="url(#p40095058db)" d="M 502.433044 204.271043 
L 523.067866 204.271043 
" style="fill:none;stroke:#1f77b4;stroke-width:1.5;"/>
    <path clip-path="url(#p40095058db)" d="M 554.020101 210.398369 
L 574.654923 210.398369 
" style="fill:none;stroke:#1f77b4;stroke-width:1.5;"/>
    <path clip-path="url(#p40095058db)" d="M 605.607158 217.90178 
L 626.24198 217.90178 
" style="fill:none;stroke:#1f77b4;stroke-width:1.5;"/>
    <path clip-path="url(#p40095058db)" d="M 657.194215 220.40762 
L 677.829037 220.40762 
" style="fill:none;stroke:#1f77b4;stroke-width:1.5;"/>
   </g>
   <g id="LineCollection_2">
    <path clip-path="url(#p40095058db)" d="M 89.736588 68.522317 
L 110.37141 68.522317 
" style="fill:none;stroke:#1f77b4;stroke-width:1.5;"/>
    <path clip-path="url(#p40095058db)" d="M 141.323645 67.064844 
L 161.958467 67.064844 
" style="fill:none;stroke:#1f77b4;stroke-width:1.5;"/>
    <path clip-path="url(#p40095058db)" d="M 192.910702 72.721313 
L 213.545524 72.721313 
" style="fill:none;stroke:#1f77b4;stroke-width:1.5;"/>
    <path clip-path="url(#p40095058db)" d="M 244.497759 74.504636 
L 265.132581 74.504636 
" style="fill:none;stroke:#1f77b4;stroke-width:1.5;"/>
    <path clip-path="url(#p40095058db)" d="M 296.084816 70.149224 
L 316.719638 70.149224 
" style="fill:none;stroke:#1f77b4;stroke-width:1.5;"/>
    <path clip-path="url(#p40095058db)" d="M 347.671873 59.538751 
L 368.306695 59.538751 
" style="fill:none;stroke:#1f77b4;stroke-width:1.5;"/>
    <path clip-path="url(#p40095058db)" d="M 399.25893 48.683242 
L 419.893752 48.683242 
" style="fill:none;stroke:#1f77b4;stroke-width:1.5;"/>
    <path clip-path="url(#p40095058db)" d="M 450.845987 44.095906 
L 471.480809 44.095906 
" style="fill:none;stroke:#1f77b4;stroke-width:1.5;"/>
    <path clip-path="url(#p40095058db)" d="M 502.433044 42.085398 
L 523.067866 42.085398 
" style="fill:none;stroke:#1f77b4;stroke-width:1.5;"/>
    <path clip-path="url(#p40095058db)" d="M 554.020101 44.382777 
L 574.654923 44.382777 
" style="fill:none;stroke:#1f77b4;stroke-width:1.5;"/>
    <path clip-path="url(#p40095058db)" d="M 605.607158 48.142466 
L 626.24198 48.142466 
" style="fill:none;stroke:#1f77b4;stroke-width:1.5;"/>
    <path clip-path="url(#p40095058db)" d="M 657.194215 54.067955 
L 677.829037 54.067955 
" style="fill:none;stroke:#1f77b4;stroke-width:1.5;"/>
   </g>
   <g id="LineCollection_3">
    <path clip-path="url(#p40095058db)" d="M 89.736588 384.709479 
L 110.37141 384.709479 
" style="fill:none;stroke:#1f77b4;stroke-width:1.5;"/>
    <path clip-path="url(#p40095058db)" d="M 141.323645 363.542317 
L 161.958467 363.542317 
" style="fill:none;stroke:#1f77b4;stroke-width:1.5;"/>
    <path clip-path="url(#p40095058db)" d="M 192.910702 368.289783 
L 213.545524 368.289783 
" style="fill:none;stroke:#1f77b4;stroke-width:1.5;"/>
    <path clip-path="url(#p40095058db)" d="M 244.497759 370.20748 
L 265.132581 370.20748 
" style="fill:none;stroke:#1f77b4;stroke-width:1.5;"/>
    <path clip-path="url(#p40095058db)" d="M 296.084816 371.769481 
L 316.719638 371.769481 
" style="fill:none;stroke:#1f77b4;stroke-width:1.5;"/>
    <path clip-path="url(#p40095058db)" d="M 347.671873 428.156259 
L 368.306695 428.156259 
" style="fill:none;stroke:#1f77b4;stroke-width:1.5;"/>
    <path clip-path="url(#p40095058db)" d="M 399.25893 377.818102 
L 419.893752 377.818102 
" style="fill:none;stroke:#1f77b4;stroke-width:1.5;"/>
    <path clip-path="url(#p40095058db)" d="M 450.845987 388.07492 
L 471.480809 388.07492 
" style="fill:none;stroke:#1f77b4;stroke-width:1.5;"/>
    <path clip-path="url(#p40095058db)" d="M 502.433044 437.430852 
L 523.067866 437.430852 
" style="fill:none;stroke:#1f77b4;stroke-width:1.5;"/>
    <path clip-path="url(#p40095058db)" d="M 554.020101 416.453414 
L 574.654923 416.453414 
" style="fill:none;stroke:#1f77b4;stroke-width:1.5;"/>
    <path clip-path="url(#p40095058db)" d="M 605.607158 431.468669 
L 626.24198 431.468669 
" style="fill:none;stroke:#1f77b4;stroke-width:1.5;"/>
    <path clip-path="url(#p40095058db)" d="M 657.194215 435.947385 
L 677.829037 435.947385 
" style="fill:none;stroke:#1f77b4;stroke-width:1.5;"/>
   </g>
   <g id="LineCollection_4">
    <path clip-path="url(#p40095058db)" d="M 100.053999 384.709479 
L 100.053999 68.522317 
" style="fill:none;stroke:#1f77b4;stroke-width:1.5;"/>
    <path clip-path="url(#p40095058db)" d="M 151.641056 363.542317 
L 151.641056 67.064844 
" style="fill:none;stroke:#1f77b4;stroke-width:1.5;"/>
    <path clip-path="url(#p40095058db)" d="M 203.228113 368.289783 
L 203.228113 72.721313 
" style="fill:none;stroke:#1f77b4;stroke-width:1.5;"/>
    <path clip-path="url(#p40095058db)" d="M 254.81517 370.20748 
L 254.81517 74.504636 
" style="fill:none;stroke:#1f77b4;stroke-width:1.5;"/>
    <path clip-path="url(#p40095058db)" d="M 306.402227 371.769481 
L 306.402227 70.149224 
" style="fill:none;stroke:#1f77b4;stroke-width:1.5;"/>
    <path clip-path="url(#p40095058db)" d="M 357.989284 428.156259 
L 357.989284 59.538751 
" style="fill:none;stroke:#1f77b4;stroke-width:1.5;"/>
    <path clip-path="url(#p40095058db)" d="M 409.576341 377.818102 
L 409.576341 48.683242 
" style="fill:none;stroke:#1f77b4;stroke-width:1.5;"/>
    <path clip-path="url(#p40095058db)" d="M 461.163398 388.07492 
L 461.163398 44.095906 
" style="fill:none;stroke:#1f77b4;stroke-width:1.5;"/>
    <path clip-path="url(#p40095058db)" d="M 512.750455 437.430852 
L 512.750455 42.085398 
" style="fill:none;stroke:#1f77b4;stroke-width:1.5;"/>
    <path clip-path="url(#p40095058db)" d="M 564.337512 416.453414 
L 564.337512 44.382777 
" style="fill:none;stroke:#1f77b4;stroke-width:1.5;"/>
    <path clip-path="url(#p40095058db)" d="M 615.924569 431.468669 
L 615.924569 48.142466 
" style="fill:none;stroke:#1f77b4;stroke-width:1.5;"/>
    <path clip-path="url(#p40095058db)" d="M 667.511626 435.947385 
L 667.511626 54.067955 
" style="fill:none;stroke:#1f77b4;stroke-width:1.5;"/>
   </g>
   <g id="patch_3">
    <path d="M 48.982813 457.198125 
L 48.982813 22.318125 
" style="fill:none;stroke:#000000;stroke-linecap:square;stroke-linejoin:miter;stroke-width:0.8;"/>
   </g>
   <g id="patch_4">
    <path d="M 718.582813 457.198125 
L 718.582813 22.318125 
" style="fill:none;stroke:#000000;stroke-linecap:square;stroke-linejoin:miter;stroke-width:0.8;"/>
   </g>
   <g id="patch_5">
    <path d="M 48.982812 457.198125 
L 718.582813 457.198125 
" style="fill:none;stroke:#000000;stroke-linecap:square;stroke-linejoin:miter;stroke-width:0.8;"/>
   </g>
   <g id="patch_6">
    <path d="M 48.982812 22.318125 
L 718.582813 22.318125 
" style="fill:none;stroke:#000000;stroke-linecap:square;stroke-linejoin:miter;stroke-width:0.8;"/>
   </g>
   <g id="text_21">
    <!-- Violin Plot of residuals -->
    <g transform="translate(317.63 16.318125)scale(0.12 -0.12)">
     <defs>
      <path d="M 1831 0 
L 50 4666 
L 709 4666 
L 2188 738 
L 3669 4666 
L 4325 4666 
L 2547 0 
L 1831 0 
z
" id="DejaVuSans-56" transform="scale(0.015625)"/>
      <path d="M 1959 3097 
Q 1497 3097 1228 2736 
Q 959 2375 959 1747 
Q 959 1119 1226 758 
Q 1494 397 1959 397 
Q 2419 397 2687 759 
Q 2956 1122 2956 1747 
Q 2956 2369 2687 2733 
Q 2419 3097 1959 3097 
z
M 1959 3584 
Q 2709 3584 3137 3096 
Q 3566 2609 3566 1747 
Q 3566 888 3137 398 
Q 2709 -91 1959 -91 
Q 1206 -91 779 398 
Q 353 888 353 1747 
Q 353 2609 779 3096 
Q 1206 3584 1959 3584 
z
" id="DejaVuSans-6f" transform="scale(0.015625)"/>
      <path d="M 3513 2113 
L 3513 0 
L 2938 0 
L 2938 2094 
Q 2938 2591 2744 2837 
Q 2550 3084 2163 3084 
Q 1697 3084 1428 2787 
Q 1159 2491 1159 1978 
L 1159 0 
L 581 0 
L 581 3500 
L 1159 3500 
L 1159 2956 
Q 1366 3272 1645 3428 
Q 1925 3584 2291 3584 
Q 2894 3584 3203 3211 
Q 3513 2838 3513 2113 
z
" id="DejaVuSans-6e" transform="scale(0.015625)"/>
      <path id="DejaVuSans-20" transform="scale(0.015625)"/>
      <path d="M 1259 4147 
L 1259 2394 
L 2053 2394 
Q 2494 2394 2734 2622 
Q 2975 2850 2975 3272 
Q 2975 3691 2734 3919 
Q 2494 4147 2053 4147 
L 1259 4147 
z
M 628 4666 
L 2053 4666 
Q 2838 4666 3239 4311 
Q 3641 3956 3641 3272 
Q 3641 2581 3239 2228 
Q 2838 1875 2053 1875 
L 1259 1875 
L 1259 0 
L 628 0 
L 628 4666 
z
" id="DejaVuSans-50" transform="scale(0.015625)"/>
      <path d="M 1172 4494 
L 1172 3500 
L 2356 3500 
L 2356 3053 
L 1172 3053 
L 1172 1153 
Q 1172 725 1289 603 
Q 1406 481 1766 481 
L 2356 481 
L 2356 0 
L 1766 0 
Q 1100 0 847 248 
Q 594 497 594 1153 
L 594 3053 
L 172 3053 
L 172 3500 
L 594 3500 
L 594 4494 
L 1172 4494 
z
" id="DejaVuSans-74" transform="scale(0.015625)"/>
      <path d="M 2375 4863 
L 2375 4384 
L 1825 4384 
Q 1516 4384 1395 4259 
Q 1275 4134 1275 3809 
L 1275 3500 
L 2222 3500 
L 2222 3053 
L 1275 3053 
L 1275 0 
L 697 0 
L 697 3053 
L 147 3053 
L 147 3500 
L 697 3500 
L 697 3744 
Q 697 4328 969 4595 
Q 1241 4863 1831 4863 
L 2375 4863 
z
" id="DejaVuSans-66" transform="scale(0.015625)"/>
     </defs>
     <use xlink:href="#DejaVuSans-56"/>
     <use x="66.158203" xlink:href="#DejaVuSans-69"/>
     <use x="93.941406" xlink:href="#DejaVuSans-6f"/>
     <use x="155.123047" xlink:href="#DejaVuSans-6c"/>
     <use x="182.90625" xlink:href="#DejaVuSans-69"/>
     <use x="210.689453" xlink:href="#DejaVuSans-6e"/>
     <use x="274.068359" xlink:href="#DejaVuSans-20"/>
     <use x="305.855469" xlink:href="#DejaVuSans-50"/>
     <use x="366.158203" xlink:href="#DejaVuSans-6c"/>
     <use x="393.941406" xlink:href="#DejaVuSans-6f"/>
     <use x="455.123047" xlink:href="#DejaVuSans-74"/>
     <use x="494.332031" xlink:href="#DejaVuSans-20"/>
     <use x="526.119141" xlink:href="#DejaVuSans-6f"/>
     <use x="587.300781" xlink:href="#DejaVuSans-66"/>
     <use x="622.505859" xlink:href="#DejaVuSans-20"/>
     <use x="654.292969" xlink:href="#DejaVuSans-72"/>
     <use x="693.15625" xlink:href="#DejaVuSans-65"/>
     <use x="754.679688" xlink:href="#DejaVuSans-73"/>
     <use x="806.779297" xlink:href="#DejaVuSans-69"/>
     <use x="834.5625" xlink:href="#DejaVuSans-64"/>
     <use x="898.039062" xlink:href="#DejaVuSans-75"/>
     <use x="961.417969" xlink:href="#DejaVuSans-61"/>
     <use x="1022.697266" xlink:href="#DejaVuSans-6c"/>
     <use x="1050.480469" xlink:href="#DejaVuSans-73"/>
    </g>
   </g>
  </g>
 </g>
 <defs>
  <clipPath id="p40095058db">
   <rect height="434.88" width="669.6" x="48.982813" y="22.318125"/>
  </clipPath>
 </defs>
</svg>
