<?xml version="1.0" encoding="utf-8" standalone="no"?>
<!DOCTYPE svg PUBLIC "-//W3C//DTD SVG 1.1//EN"
  "http://www.w3.org/Graphics/SVG/1.1/DTD/svg11.dtd">
<svg height="494.754375pt" version="1.1" viewBox="0 0 717.403125 494.754375" width="717.403125pt" xmlns="http://www.w3.org/2000/svg" xmlns:xlink="http://www.w3.org/1999/xlink">
 <metadata>
  <rdf:RDF xmlns:cc="http://creativecommons.org/ns#" xmlns:dc="http://purl.org/dc/elements/1.1/" xmlns:rdf="http://www.w3.org/1999/02/22-rdf-syntax-ns#">
   <cc:Work>
    <dc:type rdf:resource="http://purl.org/dc/dcmitype/StillImage"/>
    <dc:date>2021-07-15T20:37:49.084239</dc:date>
    <dc:format>image/svg+xml</dc:format>
    <dc:creator>
     <cc:Agent>
      <dc:title>Matplotlib v3.4.2, https://matplotlib.org/</dc:title>
     </cc:Agent>
    </dc:creator>
   </cc:Work>
  </rdf:RDF>
 </metadata>
 <defs>
  <style type="text/css">*{stroke-linecap:butt;stroke-linejoin:round;}</style>
 </defs>
 <g id="figure_1">
  <g id="patch_1">
   <path d="M 0 494.754375 
L 717.403125 494.754375 
L 717.403125 0 
L 0 0 
z
" style="fill:none;"/>
  </g>
  <g id="axes_1">
   <g id="patch_2">
    <path d="M 40.603125 457.198125 
L 710.203125 457.198125 
L 710.203125 22.318125 
L 40.603125 22.318125 
z
" style="fill:#ffffff;"/>
   </g>
   <g id="PolyCollection_1">
    <path clip-path="url(#pbd3d0e1455)" d="M 97.083304 402.575808 
L 86.265318 402.575808 
L 85.693577 399.606755 
L 85.091156 396.637703 
L 84.459546 393.668651 
L 83.800593 390.699599 
L 83.116514 387.730547 
L 82.409926 384.761494 
L 81.683871 381.792442 
L 80.94184 378.82339 
L 80.18779 375.854338 
L 79.426162 372.885285 
L 78.66187 369.916233 
L 77.900298 366.947181 
L 77.14726 363.978129 
L 76.408957 361.009077 
L 75.6919 358.040024 
L 75.002828 355.070972 
L 74.348598 352.10192 
L 73.736058 349.132868 
L 73.171912 346.163815 
L 72.662573 343.194763 
L 72.214003 340.225711 
L 71.831569 337.256659 
L 71.519886 334.287607 
L 71.282683 331.318554 
L 71.122675 328.349502 
L 71.041471 325.38045 
L 71.039489 322.411398 
L 71.115915 319.442346 
L 71.268693 316.473293 
L 71.494544 313.504241 
L 71.78903 310.535189 
L 72.146645 307.566137 
L 72.560941 304.597084 
L 73.024683 301.628032 
L 73.530024 298.65898 
L 74.0687 295.689928 
L 74.632221 292.720876 
L 75.212079 289.751823 
L 75.799927 286.782771 
L 76.387762 283.813719 
L 76.968073 280.844667 
L 77.533966 277.875614 
L 78.079264 274.906562 
L 78.598572 271.93751 
L 79.087318 268.968458 
L 79.541759 265.999406 
L 79.958976 263.030353 
L 80.33684 260.061301 
L 80.673967 257.092249 
L 80.969669 254.123197 
L 81.223891 251.154145 
L 81.437151 248.185092 
L 81.610481 245.21604 
L 81.745367 242.246988 
L 81.84369 239.277936 
L 81.907669 236.308883 
L 81.939811 233.339831 
L 81.942849 230.370779 
L 81.919689 227.401727 
L 81.873352 224.432675 
L 81.806916 221.463622 
L 81.723463 218.49457 
L 81.626021 215.525518 
L 81.517519 212.556466 
L 81.400747 209.587414 
L 81.278327 206.618361 
L 81.152695 203.649309 
L 81.026102 200.680257 
L 80.900626 197.711205 
L 80.778199 194.742152 
L 80.660647 191.7731 
L 80.549739 188.804048 
L 80.447236 185.834996 
L 80.354946 182.865944 
L 80.274765 179.896891 
L 80.208715 176.927839 
L 80.158956 173.958787 
L 80.127788 170.989735 
L 80.117621 168.020682 
L 80.130937 165.05163 
L 80.170213 162.082578 
L 80.237847 159.113526 
L 80.336053 156.144474 
L 80.466762 153.175421 
L 80.631521 150.206369 
L 80.83139 147.237317 
L 81.066863 144.268265 
L 81.337803 141.299213 
L 81.6434 138.33016 
L 81.982151 135.361108 
L 82.351877 132.392056 
L 82.749758 129.423004 
L 83.172395 126.453951 
L 83.615893 123.484899 
L 84.075966 120.515847 
L 84.548045 117.546795 
L 85.027404 114.577743 
L 85.509278 111.60869 
L 85.988983 108.639638 
L 97.359639 108.639638 
L 97.359639 108.639638 
L 97.839345 111.60869 
L 98.321219 114.577743 
L 98.800578 117.546795 
L 99.272657 120.515847 
L 99.73273 123.484899 
L 100.176228 126.453951 
L 100.598865 129.423004 
L 100.996746 132.392056 
L 101.366472 135.361108 
L 101.705223 138.33016 
L 102.010819 141.299213 
L 102.28176 144.268265 
L 102.517233 147.237317 
L 102.717102 150.206369 
L 102.881861 153.175421 
L 103.01257 156.144474 
L 103.110776 159.113526 
L 103.17841 162.082578 
L 103.217686 165.05163 
L 103.231001 168.020682 
L 103.220835 170.989735 
L 103.189666 173.958787 
L 103.139908 176.927839 
L 103.073858 179.896891 
L 102.993677 182.865944 
L 102.901387 185.834996 
L 102.798884 188.804048 
L 102.687976 191.7731 
L 102.570424 194.742152 
L 102.447997 197.711205 
L 102.322521 200.680257 
L 102.195928 203.649309 
L 102.070296 206.618361 
L 101.947876 209.587414 
L 101.831104 212.556466 
L 101.722602 215.525518 
L 101.62516 218.49457 
L 101.541707 221.463622 
L 101.475271 224.432675 
L 101.428934 227.401727 
L 101.405773 230.370779 
L 101.408811 233.339831 
L 101.440954 236.308883 
L 101.504933 239.277936 
L 101.603256 242.246988 
L 101.738142 245.21604 
L 101.911472 248.185092 
L 102.124732 251.154145 
L 102.378954 254.123197 
L 102.674656 257.092249 
L 103.011783 260.061301 
L 103.389647 263.030353 
L 103.806864 265.999406 
L 104.261305 268.968458 
L 104.750051 271.93751 
L 105.269359 274.906562 
L 105.814657 277.875614 
L 106.38055 280.844667 
L 106.960861 283.813719 
L 107.548696 286.782771 
L 108.136544 289.751823 
L 108.716402 292.720876 
L 109.279923 295.689928 
L 109.818599 298.65898 
L 110.32394 301.628032 
L 110.787682 304.597084 
L 111.201978 307.566137 
L 111.559592 310.535189 
L 111.854079 313.504241 
L 112.07993 316.473293 
L 112.232708 319.442346 
L 112.309134 322.411398 
L 112.307152 325.38045 
L 112.225947 328.349502 
L 112.06594 331.318554 
L 111.828736 334.287607 
L 111.517054 337.256659 
L 111.13462 340.225711 
L 110.68605 343.194763 
L 110.17671 346.163815 
L 109.612565 349.132868 
L 109.000025 352.10192 
L 108.345795 355.070972 
L 107.656723 358.040024 
L 106.939666 361.009077 
L 106.201362 363.978129 
L 105.448325 366.947181 
L 104.686753 369.916233 
L 103.922461 372.885285 
L 103.160833 375.854338 
L 102.406783 378.82339 
L 101.664752 381.792442 
L 100.938697 384.761494 
L 100.232108 387.730547 
L 99.548029 390.699599 
L 98.889076 393.668651 
L 98.257467 396.637703 
L 97.655046 399.606755 
L 97.083304 402.575808 
z
" style="fill:#1f77b4;fill-opacity:0.3;"/>
   </g>
   <g id="PolyCollection_2">
    <path clip-path="url(#pbd3d0e1455)" d="M 148.502912 392.317624 
L 138.019825 392.317624 
L 137.475607 389.398045 
L 136.903106 386.478467 
L 136.303715 383.558889 
L 135.679099 380.639311 
L 135.031212 377.719733 
L 134.362305 374.800155 
L 133.674949 371.880576 
L 132.972052 368.960998 
L 132.256876 366.04142 
L 131.533051 363.121842 
L 130.804583 360.202264 
L 130.075852 357.282686 
L 129.351595 354.363107 
L 128.636881 351.443529 
L 127.937062 348.523951 
L 127.257716 345.604373 
L 126.604566 342.684795 
L 125.983395 339.765217 
L 125.399942 336.845638 
L 124.859789 333.92606 
L 124.368249 331.006482 
L 123.930246 328.086904 
L 123.550204 325.167326 
L 123.231937 322.247748 
L 122.978552 319.328169 
L 122.792369 316.408591 
L 122.674849 313.489013 
L 122.626546 310.569435 
L 122.647079 307.649857 
L 122.735126 304.730279 
L 122.88843 301.8107 
L 123.103844 298.891122 
L 123.377381 295.971544 
L 123.704294 293.051966 
L 124.079165 290.132388 
L 124.496025 287.21281 
L 124.948465 284.293231 
L 125.429775 281.373653 
L 125.933079 278.454075 
L 126.451465 275.534497 
L 126.978122 272.614919 
L 127.506459 269.695341 
L 128.030216 266.775762 
L 128.543553 263.856184 
L 129.041132 260.936606 
L 129.518161 258.017028 
L 129.970439 255.09745 
L 130.394364 252.177872 
L 130.786935 249.258293 
L 131.14573 246.338715 
L 131.468884 243.419137 
L 131.755047 240.499559 
L 132.003341 237.579981 
L 132.213321 234.660403 
L 132.38493 231.740824 
L 132.518455 228.821246 
L 132.614496 225.901668 
L 132.67393 222.98209 
L 132.69789 220.062512 
L 132.687736 217.142934 
L 132.645043 214.223355 
L 132.571585 211.303777 
L 132.469322 208.384199 
L 132.340397 205.464621 
L 132.187127 202.545043 
L 132.012 199.625465 
L 131.817683 196.705886 
L 131.607019 193.786308 
L 131.383042 190.86673 
L 131.148983 187.947152 
L 130.908287 185.027574 
L 130.66462 182.107996 
L 130.421883 179.188417 
L 130.184212 176.268839 
L 129.955977 173.349261 
L 129.741754 170.429683 
L 129.5463 167.510105 
L 129.374491 164.590527 
L 129.231255 161.670949 
L 129.121473 158.75137 
L 129.049869 155.831792 
L 129.020885 152.912214 
L 129.038541 149.992636 
L 129.106295 147.073058 
L 129.226906 144.15348 
L 129.402305 141.233901 
L 129.633493 138.314323 
L 129.920455 135.394745 
L 130.262112 132.475167 
L 130.656307 129.555589 
L 131.099833 126.636011 
L 131.588493 123.716432 
L 132.117202 120.796854 
L 132.680119 117.877276 
L 133.270803 114.957698 
L 133.882394 112.03812 
L 134.507798 109.118542 
L 135.13988 106.198963 
L 135.771647 103.279385 
L 150.75109 103.279385 
L 150.75109 103.279385 
L 151.382857 106.198963 
L 152.014939 109.118542 
L 152.640343 112.03812 
L 153.251934 114.957698 
L 153.842618 117.877276 
L 154.405535 120.796854 
L 154.934244 123.716432 
L 155.422904 126.636011 
L 155.86643 129.555589 
L 156.260625 132.475167 
L 156.602282 135.394745 
L 156.889243 138.314323 
L 157.120432 141.233901 
L 157.295831 144.15348 
L 157.416442 147.073058 
L 157.484195 149.992636 
L 157.501852 152.912214 
L 157.472868 155.831792 
L 157.401264 158.75137 
L 157.291482 161.670949 
L 157.148246 164.590527 
L 156.976437 167.510105 
L 156.780983 170.429683 
L 156.56676 173.349261 
L 156.338524 176.268839 
L 156.100854 179.188417 
L 155.858117 182.107996 
L 155.61445 185.027574 
L 155.373754 187.947152 
L 155.139695 190.86673 
L 154.915718 193.786308 
L 154.705054 196.705886 
L 154.510737 199.625465 
L 154.33561 202.545043 
L 154.18234 205.464621 
L 154.053415 208.384199 
L 153.951152 211.303777 
L 153.877694 214.223355 
L 153.835001 217.142934 
L 153.824847 220.062512 
L 153.848807 222.98209 
L 153.908241 225.901668 
L 154.004282 228.821246 
L 154.137807 231.740824 
L 154.309416 234.660403 
L 154.519396 237.579981 
L 154.76769 240.499559 
L 155.053853 243.419137 
L 155.377007 246.338715 
L 155.735802 249.258293 
L 156.128373 252.177872 
L 156.552298 255.09745 
L 157.004576 258.017028 
L 157.481605 260.936606 
L 157.979184 263.856184 
L 158.492521 266.775762 
L 159.016278 269.695341 
L 159.544615 272.614919 
L 160.071272 275.534497 
L 160.589658 278.454075 
L 161.092962 281.373653 
L 161.574272 284.293231 
L 162.026712 287.21281 
L 162.443572 290.132388 
L 162.818443 293.051966 
L 163.145355 295.971544 
L 163.418893 298.891122 
L 163.634307 301.8107 
L 163.787611 304.730279 
L 163.875658 307.649857 
L 163.896191 310.569435 
L 163.847888 313.489013 
L 163.730368 316.408591 
L 163.544185 319.328169 
L 163.2908 322.247748 
L 162.972533 325.167326 
L 162.592491 328.086904 
L 162.154488 331.006482 
L 161.662948 333.92606 
L 161.122795 336.845638 
L 160.539342 339.765217 
L 159.918171 342.684795 
L 159.265021 345.604373 
L 158.585674 348.523951 
L 157.885856 351.443529 
L 157.171142 354.363107 
L 156.446885 357.282686 
L 155.718154 360.202264 
L 154.989686 363.121842 
L 154.265861 366.04142 
L 153.550684 368.960998 
L 152.847787 371.880576 
L 152.160432 374.800155 
L 151.491525 377.719733 
L 150.843638 380.639311 
L 150.219022 383.558889 
L 149.619631 386.478467 
L 149.04713 389.398045 
L 148.502912 392.317624 
z
" style="fill:#1f77b4;fill-opacity:0.3;"/>
   </g>
   <g id="PolyCollection_3">
    <path clip-path="url(#pbd3d0e1455)" d="M 200.015668 381.161597 
L 189.681183 381.161597 
L 189.174174 378.340493 
L 188.642853 375.51939 
L 188.088371 372.698286 
L 187.51206 369.877182 
L 186.915439 367.056078 
L 186.300226 364.234974 
L 185.668355 361.41387 
L 185.021992 358.592767 
L 184.363556 355.771663 
L 183.695731 352.950559 
L 183.02148 350.129455 
L 182.344048 347.308351 
L 181.666961 344.487247 
L 180.994014 341.666144 
L 180.329242 338.84504 
L 179.676891 336.023936 
L 179.041365 333.202832 
L 178.427178 330.381728 
L 177.838888 327.560625 
L 177.281028 324.739521 
L 176.758032 321.918417 
L 176.274165 319.097313 
L 175.833452 316.276209 
L 175.439602 313.455105 
L 175.09595 310.634002 
L 174.805392 307.812898 
L 174.570335 304.991794 
L 174.392648 302.17069 
L 174.27362 299.349586 
L 174.213926 296.528483 
L 174.213603 293.707379 
L 174.272024 290.886275 
L 174.387891 288.065171 
L 174.559234 285.244067 
L 174.783413 282.422963 
L 175.057148 279.60186 
L 175.376544 276.780756 
L 175.737151 273.959652 
L 176.134018 271.138548 
L 176.561781 268.317444 
L 177.014747 265.49634 
L 177.487007 262.675237 
L 177.972538 259.854133 
L 178.465324 257.033029 
L 178.959469 254.211925 
L 179.449305 251.390821 
L 179.929486 248.569718 
L 180.395076 245.748614 
L 180.841604 242.92751 
L 181.265116 240.106406 
L 181.662187 237.285302 
L 182.029923 234.464198 
L 182.365941 231.643095 
L 182.668332 228.821991 
L 182.935608 226.000887 
L 183.16665 223.179783 
L 183.360649 220.358679 
L 183.517049 217.537576 
L 183.635498 214.716472 
L 183.715817 211.895368 
L 183.75797 209.074264 
L 183.762061 206.25316 
L 183.72834 203.432056 
L 183.657228 200.610953 
L 183.54935 197.789849 
L 183.405585 194.968745 
L 183.227115 192.147641 
L 183.015491 189.326537 
L 182.772686 186.505433 
L 182.501154 183.68433 
L 182.20388 180.863226 
L 181.884421 178.042122 
L 181.546935 175.221018 
L 181.196194 172.399914 
L 180.837579 169.578811 
L 180.477053 166.757707 
L 180.121115 163.936603 
L 179.776722 161.115499 
L 179.451198 158.294395 
L 179.152101 155.473291 
L 178.887079 152.652188 
L 178.663698 149.831084 
L 178.489255 147.00998 
L 178.370573 144.188876 
L 178.313795 141.367772 
L 178.324186 138.546668 
L 178.405934 135.725565 
L 178.561986 132.904461 
L 178.793906 130.083357 
L 179.101777 127.262253 
L 179.484148 124.441149 
L 179.938033 121.620046 
L 180.458961 118.798942 
L 181.04108 115.977838 
L 181.677313 113.156734 
L 182.359554 110.33563 
L 183.078904 107.514526 
L 183.825922 104.693423 
L 184.590905 101.872319 
L 205.105946 101.872319 
L 205.105946 101.872319 
L 205.870929 104.693423 
L 206.617947 107.514526 
L 207.337296 110.33563 
L 208.019538 113.156734 
L 208.655771 115.977838 
L 209.23789 118.798942 
L 209.758818 121.620046 
L 210.212703 124.441149 
L 210.595074 127.262253 
L 210.902945 130.083357 
L 211.134865 132.904461 
L 211.290916 135.725565 
L 211.372665 138.546668 
L 211.383055 141.367772 
L 211.326278 144.188876 
L 211.207596 147.00998 
L 211.033152 149.831084 
L 210.809772 152.652188 
L 210.54475 155.473291 
L 210.245653 158.294395 
L 209.920128 161.115499 
L 209.575736 163.936603 
L 209.219798 166.757707 
L 208.859272 169.578811 
L 208.500656 172.399914 
L 208.149916 175.221018 
L 207.81243 178.042122 
L 207.492971 180.863226 
L 207.195697 183.68433 
L 206.924165 186.505433 
L 206.68136 189.326537 
L 206.469736 192.147641 
L 206.291266 194.968745 
L 206.147501 197.789849 
L 206.039623 200.610953 
L 205.968511 203.432056 
L 205.93479 206.25316 
L 205.938881 209.074264 
L 205.981034 211.895368 
L 206.061353 214.716472 
L 206.179802 217.537576 
L 206.336202 220.358679 
L 206.530201 223.179783 
L 206.761243 226.000887 
L 207.028519 228.821991 
L 207.33091 231.643095 
L 207.666928 234.464198 
L 208.034664 237.285302 
L 208.431735 240.106406 
L 208.855247 242.92751 
L 209.301775 245.748614 
L 209.767364 248.569718 
L 210.247546 251.390821 
L 210.737381 254.211925 
L 211.231527 257.033029 
L 211.724313 259.854133 
L 212.209844 262.675237 
L 212.682103 265.49634 
L 213.13507 268.317444 
L 213.562832 271.138548 
L 213.9597 273.959652 
L 214.320307 276.780756 
L 214.639703 279.60186 
L 214.913438 282.422963 
L 215.137617 285.244067 
L 215.30896 288.065171 
L 215.424827 290.886275 
L 215.483248 293.707379 
L 215.482925 296.528483 
L 215.423231 299.349586 
L 215.304203 302.17069 
L 215.126516 304.991794 
L 214.891459 307.812898 
L 214.600901 310.634002 
L 214.257249 313.455105 
L 213.863399 316.276209 
L 213.422686 319.097313 
L 212.938819 321.918417 
L 212.415823 324.739521 
L 211.857962 327.560625 
L 211.269673 330.381728 
L 210.655486 333.202832 
L 210.01996 336.023936 
L 209.367608 338.84504 
L 208.702837 341.666144 
L 208.02989 344.487247 
L 207.352803 347.308351 
L 206.675371 350.129455 
L 206.001119 352.950559 
L 205.333294 355.771663 
L 204.674859 358.592767 
L 204.028496 361.41387 
L 203.396625 364.234974 
L 202.781412 367.056078 
L 202.18479 369.877182 
L 201.60848 372.698286 
L 201.053998 375.51939 
L 200.522677 378.340493 
L 200.015668 381.161597 
z
" style="fill:#1f77b4;fill-opacity:0.3;"/>
   </g>
   <g id="PolyCollection_4">
    <path clip-path="url(#pbd3d0e1455)" d="M 252.037832 367.606858 
L 240.833133 367.606858 
L 240.335825 364.890184 
L 239.820956 362.17351 
L 239.289984 359.456837 
L 238.744421 356.740163 
L 238.185829 354.023489 
L 237.615816 351.306816 
L 237.036047 348.590142 
L 236.448252 345.873468 
L 235.854242 343.156795 
L 235.255926 340.440121 
L 234.655326 337.723448 
L 234.054588 335.006774 
L 233.45599 332.2901 
L 232.861942 329.573427 
L 232.274976 326.856753 
L 231.697736 324.140079 
L 231.132946 321.423406 
L 230.583385 318.706732 
L 230.051848 315.990058 
L 229.541107 313.273385 
L 229.05387 310.556711 
L 228.592745 307.840037 
L 228.160201 305.123364 
L 227.758541 302.40669 
L 227.38988 299.690017 
L 227.056125 296.973343 
L 226.758972 294.256669 
L 226.499898 291.539996 
L 226.280164 288.823322 
L 226.100815 286.106648 
L 225.962686 283.389975 
L 225.866393 280.673301 
L 225.812331 277.956627 
L 225.80066 275.239954 
L 225.831279 272.52328 
L 225.903805 269.806606 
L 226.017536 267.089933 
L 226.171415 264.373259 
L 226.363998 261.656586 
L 226.59342 258.939912 
L 226.857373 256.223238 
L 227.153094 253.506565 
L 227.477373 250.789891 
L 227.826566 248.073217 
L 228.196639 245.356544 
L 228.583221 242.63987 
L 228.981673 239.923196 
L 229.387171 237.206523 
L 229.794793 234.489849 
L 230.199616 231.773175 
L 230.596797 229.056502 
L 230.981664 226.339828 
L 231.349781 223.623155 
L 231.697002 220.906481 
L 232.019516 218.189807 
L 232.313867 215.473134 
L 232.576959 212.75646 
L 232.806055 210.039786 
L 232.998763 207.323113 
L 233.153014 204.606439 
L 233.267048 201.889765 
L 233.339403 199.173092 
L 233.368908 196.456418 
L 233.354697 193.739745 
L 233.296229 191.023071 
L 233.19333 188.306397 
L 233.046247 185.589724 
L 232.85571 182.87305 
L 232.623008 180.156376 
L 232.350062 177.439703 
L 232.039507 174.723029 
L 231.694756 172.006355 
L 231.320054 169.289682 
L 230.920522 166.573008 
L 230.502159 163.856334 
L 230.071835 161.139661 
L 229.63724 158.422987 
L 229.206797 155.706314 
L 228.789549 152.98964 
L 228.395 150.272966 
L 228.032927 147.556293 
L 227.713163 144.839619 
L 227.445349 142.122945 
L 227.23868 139.406272 
L 227.101633 136.689598 
L 227.041701 133.972924 
L 227.065138 131.256251 
L 227.176736 128.539577 
L 227.379627 125.822903 
L 227.675139 123.10623 
L 228.062708 120.389556 
L 228.539841 117.672883 
L 229.10216 114.956209 
L 229.743497 112.239535 
L 230.456058 109.522862 
L 231.230647 106.806188 
L 232.056933 104.089514 
L 232.923751 101.372841 
L 233.819432 98.656167 
L 259.051533 98.656167 
L 259.051533 98.656167 
L 259.947214 101.372841 
L 260.814032 104.089514 
L 261.640318 106.806188 
L 262.414907 109.522862 
L 263.127468 112.239535 
L 263.768805 114.956209 
L 264.331123 117.672883 
L 264.808257 120.389556 
L 265.195826 123.10623 
L 265.491338 125.822903 
L 265.694229 128.539577 
L 265.805827 131.256251 
L 265.829264 133.972924 
L 265.769332 136.689598 
L 265.632285 139.406272 
L 265.425616 142.122945 
L 265.157802 144.839619 
L 264.838038 147.556293 
L 264.475965 150.272966 
L 264.081416 152.98964 
L 263.664168 155.706314 
L 263.233725 158.422987 
L 262.79913 161.139661 
L 262.368806 163.856334 
L 261.950443 166.573008 
L 261.550911 169.289682 
L 261.176209 172.006355 
L 260.831458 174.723029 
L 260.520903 177.439703 
L 260.247957 180.156376 
L 260.015254 182.87305 
L 259.824717 185.589724 
L 259.677635 188.306397 
L 259.574736 191.023071 
L 259.516268 193.739745 
L 259.502056 196.456418 
L 259.531562 199.173092 
L 259.603917 201.889765 
L 259.717951 204.606439 
L 259.872202 207.323113 
L 260.06491 210.039786 
L 260.294006 212.75646 
L 260.557098 215.473134 
L 260.851449 218.189807 
L 261.173963 220.906481 
L 261.521184 223.623155 
L 261.8893 226.339828 
L 262.274168 229.056502 
L 262.671349 231.773175 
L 263.076172 234.489849 
L 263.483794 237.206523 
L 263.889292 239.923196 
L 264.287744 242.63987 
L 264.674326 245.356544 
L 265.044399 248.073217 
L 265.393592 250.789891 
L 265.717871 253.506565 
L 266.013592 256.223238 
L 266.277545 258.939912 
L 266.506967 261.656586 
L 266.69955 264.373259 
L 266.853429 267.089933 
L 266.96716 269.806606 
L 267.039686 272.52328 
L 267.070305 275.239954 
L 267.058633 277.956627 
L 267.004572 280.673301 
L 266.908279 283.389975 
L 266.770149 286.106648 
L 266.590801 288.823322 
L 266.371067 291.539996 
L 266.111993 294.256669 
L 265.81484 296.973343 
L 265.481085 299.690017 
L 265.112424 302.40669 
L 264.710764 305.123364 
L 264.27822 307.840037 
L 263.817095 310.556711 
L 263.329858 313.273385 
L 262.819117 315.990058 
L 262.287579 318.706732 
L 261.738019 321.423406 
L 261.173229 324.140079 
L 260.595989 326.856753 
L 260.009023 329.573427 
L 259.414975 332.2901 
L 258.816377 335.006774 
L 258.215639 337.723448 
L 257.615039 340.440121 
L 257.016723 343.156795 
L 256.422713 345.873468 
L 255.834918 348.590142 
L 255.255149 351.306816 
L 254.685136 354.023489 
L 254.126544 356.740163 
L 253.580981 359.456837 
L 253.050009 362.17351 
L 252.53514 364.890184 
L 252.037832 367.606858 
z
" style="fill:#1f77b4;fill-opacity:0.3;"/>
   </g>
   <g id="PolyCollection_5">
    <path clip-path="url(#pbd3d0e1455)" d="M 302.984603 358.360421 
L 293.060476 358.360421 
L 292.599657 355.699245 
L 292.12289 353.038069 
L 291.632371 350.376893 
L 291.130468 347.715717 
L 290.61969 345.054541 
L 290.10265 342.393365 
L 289.582029 339.732189 
L 289.060538 337.071013 
L 288.540883 334.409837 
L 288.025722 331.748661 
L 287.51763 329.087484 
L 287.01906 326.426308 
L 286.532309 323.765132 
L 286.059478 321.103956 
L 285.602444 318.44278 
L 285.162827 315.781604 
L 284.741967 313.120428 
L 284.340902 310.459252 
L 283.960355 307.798076 
L 283.600732 305.1369 
L 283.262124 302.475724 
L 282.944323 299.814548 
L 282.646848 297.153372 
L 282.36898 294.492196 
L 282.109807 291.831019 
L 281.868282 289.169843 
L 281.643287 286.508667 
L 281.433693 283.847491 
L 281.23844 281.186315 
L 281.056598 278.525139 
L 280.88744 275.863963 
L 280.730494 273.202787 
L 280.585596 270.541611 
L 280.452923 267.880435 
L 280.333011 265.219259 
L 280.226761 262.558083 
L 280.135411 259.896907 
L 280.060504 257.23573 
L 280.003825 254.574554 
L 279.967324 251.913378 
L 279.953016 249.252202 
L 279.962875 246.591026 
L 279.99871 243.92985 
L 280.062044 241.268674 
L 280.153986 238.607498 
L 280.275115 235.946322 
L 280.425377 233.285146 
L 280.603997 230.62397 
L 280.809422 227.962794 
L 281.039288 225.301618 
L 281.290417 222.640442 
L 281.558857 219.979265 
L 281.839946 217.318089 
L 282.128405 214.656913 
L 282.418468 211.995737 
L 282.704023 209.334561 
L 282.978771 206.673385 
L 283.236392 204.012209 
L 283.470711 201.351033 
L 283.675854 198.689857 
L 283.846393 196.028681 
L 283.977476 193.367505 
L 284.064926 190.706329 
L 284.105332 188.045153 
L 284.096105 185.383977 
L 284.035528 182.7228 
L 283.922782 180.061624 
L 283.75796 177.400448 
L 283.542086 174.739272 
L 283.27711 172.078096 
L 282.965925 169.41692 
L 282.612363 166.755744 
L 282.221204 164.094568 
L 281.798173 161.433392 
L 281.349937 158.772216 
L 280.884075 156.11104 
L 280.40904 153.449864 
L 279.934088 150.788688 
L 279.469169 148.127511 
L 279.024791 145.466335 
L 278.611833 142.805159 
L 278.241327 140.143983 
L 277.924197 137.482807 
L 277.670974 134.821631 
L 277.491491 132.160455 
L 277.39457 129.499279 
L 277.387717 126.838103 
L 277.476842 124.176927 
L 277.66602 121.515751 
L 277.957294 118.854575 
L 278.350557 116.193399 
L 278.843494 113.532223 
L 279.431615 110.871046 
L 280.108357 108.20987 
L 280.865265 105.548694 
L 281.692249 102.887518 
L 282.577883 100.226342 
L 283.509764 97.565166 
L 284.474884 94.90399 
L 311.570195 94.90399 
L 311.570195 94.90399 
L 312.535315 97.565166 
L 313.467196 100.226342 
L 314.35283 102.887518 
L 315.179814 105.548694 
L 315.936722 108.20987 
L 316.613464 110.871046 
L 317.201585 113.532223 
L 317.694522 116.193399 
L 318.087785 118.854575 
L 318.379059 121.515751 
L 318.568236 124.176927 
L 318.657362 126.838103 
L 318.650509 129.499279 
L 318.553587 132.160455 
L 318.374105 134.821631 
L 318.120882 137.482807 
L 317.803752 140.143983 
L 317.433246 142.805159 
L 317.020288 145.466335 
L 316.57591 148.127511 
L 316.110991 150.788688 
L 315.636039 153.449864 
L 315.161004 156.11104 
L 314.695142 158.772216 
L 314.246906 161.433392 
L 313.823875 164.094568 
L 313.432716 166.755744 
L 313.079154 169.41692 
L 312.767969 172.078096 
L 312.502993 174.739272 
L 312.287119 177.400448 
L 312.122297 180.061624 
L 312.009551 182.7228 
L 311.948974 185.383977 
L 311.939747 188.045153 
L 311.980153 190.706329 
L 312.067603 193.367505 
L 312.198686 196.028681 
L 312.369225 198.689857 
L 312.574368 201.351033 
L 312.808687 204.012209 
L 313.066308 206.673385 
L 313.341056 209.334561 
L 313.626611 211.995737 
L 313.916674 214.656913 
L 314.205133 217.318089 
L 314.486222 219.979265 
L 314.754662 222.640442 
L 315.005791 225.301618 
L 315.235657 227.962794 
L 315.441082 230.62397 
L 315.619702 233.285146 
L 315.769964 235.946322 
L 315.891093 238.607498 
L 315.983035 241.268674 
L 316.046369 243.92985 
L 316.082204 246.591026 
L 316.092063 249.252202 
L 316.077755 251.913378 
L 316.041254 254.574554 
L 315.984575 257.23573 
L 315.909668 259.896907 
L 315.818318 262.558083 
L 315.712067 265.219259 
L 315.592156 267.880435 
L 315.459483 270.541611 
L 315.314585 273.202787 
L 315.157639 275.863963 
L 314.98848 278.525139 
L 314.806639 281.186315 
L 314.611386 283.847491 
L 314.401792 286.508667 
L 314.176797 289.169843 
L 313.935272 291.831019 
L 313.676099 294.492196 
L 313.398231 297.153372 
L 313.100756 299.814548 
L 312.782955 302.475724 
L 312.444347 305.1369 
L 312.084724 307.798076 
L 311.704177 310.459252 
L 311.303112 313.120428 
L 310.882252 315.781604 
L 310.442635 318.44278 
L 309.985601 321.103956 
L 309.51277 323.765132 
L 309.026019 326.426308 
L 308.527449 329.087484 
L 308.019357 331.748661 
L 307.504195 334.409837 
L 306.984541 337.071013 
L 306.46305 339.732189 
L 305.942429 342.393365 
L 305.425389 345.054541 
L 304.914611 347.715717 
L 304.412708 350.376893 
L 303.922189 353.038069 
L 303.445422 355.699245 
L 302.984603 358.360421 
z
" style="fill:#1f77b4;fill-opacity:0.3;"/>
   </g>
   <g id="PolyCollection_6">
    <path clip-path="url(#pbd3d0e1455)" d="M 350.671067 386.367743 
L 348.548126 386.367743 
L 348.416504 383.329589 
L 348.269103 380.291436 
L 348.104064 377.253282 
L 347.919533 374.215129 
L 347.713723 371.176976 
L 347.484992 368.138822 
L 347.231919 365.100669 
L 346.953374 362.062515 
L 346.648583 359.024362 
L 346.317188 355.986208 
L 345.95929 352.948055 
L 345.575485 349.909901 
L 345.166877 346.871748 
L 344.735084 343.833594 
L 344.282226 340.795441 
L 343.810896 337.757288 
L 343.324118 334.719134 
L 342.825287 331.680981 
L 342.3181 328.642827 
L 341.806474 325.604674 
L 341.294452 322.56652 
L 340.7861 319.528367 
L 340.285406 316.490213 
L 339.796173 313.45206 
L 339.321915 310.413906 
L 338.865761 307.375753 
L 338.430372 304.337599 
L 338.017871 301.299446 
L 337.629786 298.261293 
L 337.267024 295.223139 
L 336.929855 292.184986 
L 336.617931 289.146832 
L 336.330314 286.108679 
L 336.065536 283.070525 
L 335.821678 280.032372 
L 335.596458 276.994218 
L 335.387344 273.956065 
L 335.191671 270.917911 
L 335.006773 267.879758 
L 334.830111 264.841605 
L 334.659408 261.803451 
L 334.492771 258.765298 
L 334.328812 255.727144 
L 334.166744 252.688991 
L 334.006456 249.650837 
L 333.848561 246.612684 
L 333.694409 243.57453 
L 333.546049 240.536377 
L 333.406162 237.498223 
L 333.277935 234.46007 
L 333.164896 231.421917 
L 333.070709 228.383763 
L 332.998937 225.34561 
L 332.952784 222.307456 
L 332.934833 219.269303 
L 332.946796 216.231149 
L 332.989286 213.192996 
L 333.061641 210.154842 
L 333.1618 207.116689 
L 333.286248 204.078535 
L 333.430047 201.040382 
L 333.58693 198.002228 
L 333.749488 194.964075 
L 333.909414 191.925922 
L 334.05781 188.887768 
L 334.185538 185.849615 
L 334.283595 182.811461 
L 334.343499 179.773308 
L 334.357673 176.735154 
L 334.319798 173.697001 
L 334.22514 170.658847 
L 334.070822 167.620694 
L 333.856039 164.58254 
L 333.582221 161.544387 
L 333.253109 158.506234 
L 332.874774 155.46808 
L 332.455554 152.429927 
L 332.00591 149.391773 
L 331.53822 146.35362 
L 331.066481 143.315466 
L 330.605955 140.277313 
L 330.172738 137.239159 
L 329.783283 134.201006 
L 329.453877 131.162852 
L 329.200091 128.124699 
L 329.036226 125.086545 
L 328.974774 122.048392 
L 329.025924 119.010239 
L 329.197134 115.972085 
L 329.492786 112.933932 
L 329.913962 109.895778 
L 330.458344 106.857625 
L 331.120244 103.819471 
L 331.890783 100.781318 
L 332.7582 97.743164 
L 333.708277 94.705011 
L 334.724872 91.666857 
L 335.790517 88.628704 
L 336.887063 85.590551 
L 362.33213 85.590551 
L 362.33213 85.590551 
L 363.428676 88.628704 
L 364.494321 91.666857 
L 365.510916 94.705011 
L 366.460993 97.743164 
L 367.32841 100.781318 
L 368.098949 103.819471 
L 368.760849 106.857625 
L 369.305231 109.895778 
L 369.726407 112.933932 
L 370.022059 115.972085 
L 370.193269 119.010239 
L 370.244419 122.048392 
L 370.182967 125.086545 
L 370.019102 128.124699 
L 369.765316 131.162852 
L 369.43591 134.201006 
L 369.046455 137.239159 
L 368.613238 140.277313 
L 368.152712 143.315466 
L 367.680973 146.35362 
L 367.213283 149.391773 
L 366.763639 152.429927 
L 366.344419 155.46808 
L 365.966084 158.506234 
L 365.636972 161.544387 
L 365.363154 164.58254 
L 365.148371 167.620694 
L 364.994053 170.658847 
L 364.899395 173.697001 
L 364.86152 176.735154 
L 364.875694 179.773308 
L 364.935598 182.811461 
L 365.033655 185.849615 
L 365.161383 188.887768 
L 365.309779 191.925922 
L 365.469705 194.964075 
L 365.632263 198.002228 
L 365.789146 201.040382 
L 365.932945 204.078535 
L 366.057393 207.116689 
L 366.157552 210.154842 
L 366.229907 213.192996 
L 366.272397 216.231149 
L 366.28436 219.269303 
L 366.266409 222.307456 
L 366.220256 225.34561 
L 366.148484 228.383763 
L 366.054297 231.421917 
L 365.941258 234.46007 
L 365.813031 237.498223 
L 365.673144 240.536377 
L 365.524784 243.57453 
L 365.370632 246.612684 
L 365.212737 249.650837 
L 365.052449 252.688991 
L 364.890381 255.727144 
L 364.726422 258.765298 
L 364.559785 261.803451 
L 364.389082 264.841605 
L 364.21242 267.879758 
L 364.027522 270.917911 
L 363.831849 273.956065 
L 363.622735 276.994218 
L 363.397515 280.032372 
L 363.153657 283.070525 
L 362.888879 286.108679 
L 362.601262 289.146832 
L 362.289338 292.184986 
L 361.952169 295.223139 
L 361.589407 298.261293 
L 361.201322 301.299446 
L 360.788821 304.337599 
L 360.353432 307.375753 
L 359.897278 310.413906 
L 359.42302 313.45206 
L 358.933787 316.490213 
L 358.433093 319.528367 
L 357.924741 322.56652 
L 357.412719 325.604674 
L 356.901093 328.642827 
L 356.393906 331.680981 
L 355.895075 334.719134 
L 355.408296 337.757288 
L 354.936967 340.795441 
L 354.484109 343.833594 
L 354.052316 346.871748 
L 353.643708 349.909901 
L 353.259903 352.948055 
L 352.902005 355.986208 
L 352.57061 359.024362 
L 352.265819 362.062515 
L 351.987274 365.100669 
L 351.734201 368.138822 
L 351.50547 371.176976 
L 351.29966 374.215129 
L 351.115129 377.253282 
L 350.95009 380.291436 
L 350.802689 383.329589 
L 350.671067 386.367743 
z
" style="fill:#1f77b4;fill-opacity:0.3;"/>
   </g>
   <g id="PolyCollection_7">
    <path clip-path="url(#pbd3d0e1455)" d="M 404.963463 337.957959 
L 397.429844 337.957959 
L 397.082219 335.341113 
L 396.723628 332.724267 
L 396.355806 330.107422 
L 395.980583 327.490576 
L 395.599859 324.87373 
L 395.215566 322.256884 
L 394.829639 319.640039 
L 394.44398 317.023193 
L 394.060432 314.406347 
L 393.680747 311.789502 
L 393.306567 309.172656 
L 392.9394 306.55581 
L 392.580614 303.938965 
L 392.231425 301.322119 
L 391.8929 298.705273 
L 391.565958 296.088427 
L 391.251378 293.471582 
L 390.949805 290.854736 
L 390.661762 288.23789 
L 390.387653 285.621045 
L 390.127768 283.004199 
L 389.882276 280.387353 
L 389.651224 277.770508 
L 389.43452 275.153662 
L 389.231924 272.536816 
L 389.043029 269.91997 
L 388.867254 267.303125 
L 388.703831 264.686279 
L 388.551808 262.069433 
L 388.41006 259.452588 
L 388.27731 256.835742 
L 388.152165 254.218896 
L 388.033155 251.602051 
L 387.918798 248.985205 
L 387.807648 246.368359 
L 387.698371 243.751513 
L 387.589796 241.134668 
L 387.480977 238.517822 
L 387.371239 235.900976 
L 387.260206 233.284131 
L 387.14782 230.667285 
L 387.034343 228.050439 
L 386.920333 225.433594 
L 386.806613 222.816748 
L 386.694218 220.199902 
L 386.584336 217.583056 
L 386.478229 214.966211 
L 386.37716 212.349365 
L 386.28231 209.732519 
L 386.194694 207.115674 
L 386.115084 204.498828 
L 386.043938 201.881982 
L 385.981336 199.265137 
L 385.926927 196.648291 
L 385.879891 194.031445 
L 385.838918 191.414599 
L 385.802203 188.797754 
L 385.767458 186.180908 
L 385.731955 183.564062 
L 385.692585 180.947217 
L 385.645942 178.330371 
L 385.588428 175.713525 
L 385.516385 173.09668 
L 385.426242 170.479834 
L 385.31467 167.862988 
L 385.178757 165.246142 
L 385.016172 162.629297 
L 384.825331 160.012451 
L 384.605541 157.395605 
L 384.357129 154.77876 
L 384.081529 152.161914 
L 383.78135 149.545068 
L 383.460384 146.928223 
L 383.123591 144.311377 
L 382.77702 141.694531 
L 382.42771 139.077685 
L 382.083532 136.46084 
L 381.753016 133.843994 
L 381.44514 131.227148 
L 381.169105 128.610303 
L 380.934099 125.993457 
L 380.749051 123.376611 
L 380.622394 120.759766 
L 380.561831 118.14292 
L 380.574123 115.526074 
L 380.664888 112.909228 
L 380.838435 110.292383 
L 381.097615 107.675537 
L 381.443716 105.058691 
L 381.87639 102.441846 
L 382.393621 99.825 
L 382.991737 97.208154 
L 383.66547 94.591309 
L 384.408058 91.974463 
L 385.211391 89.357617 
L 386.066212 86.740771 
L 386.962337 84.123926 
L 387.888925 81.50708 
L 388.834755 78.890234 
L 413.558552 78.890234 
L 413.558552 78.890234 
L 414.504382 81.50708 
L 415.43097 84.123926 
L 416.327095 86.740771 
L 417.181916 89.357617 
L 417.985249 91.974463 
L 418.727837 94.591309 
L 419.40157 97.208154 
L 419.999686 99.825 
L 420.516917 102.441846 
L 420.949591 105.058691 
L 421.295692 107.675537 
L 421.554872 110.292383 
L 421.728419 112.909228 
L 421.819184 115.526074 
L 421.831476 118.14292 
L 421.770913 120.759766 
L 421.644256 123.376611 
L 421.459208 125.993457 
L 421.224202 128.610303 
L 420.948167 131.227148 
L 420.640291 133.843994 
L 420.309775 136.46084 
L 419.965597 139.077685 
L 419.616287 141.694531 
L 419.269716 144.311377 
L 418.932923 146.928223 
L 418.611958 149.545068 
L 418.311778 152.161914 
L 418.036178 154.77876 
L 417.787766 157.395605 
L 417.567976 160.012451 
L 417.377135 162.629297 
L 417.214551 165.246142 
L 417.078637 167.862988 
L 416.967065 170.479834 
L 416.876922 173.09668 
L 416.804879 175.713525 
L 416.747365 178.330371 
L 416.700722 180.947217 
L 416.661352 183.564062 
L 416.625849 186.180908 
L 416.591104 188.797754 
L 416.554389 191.414599 
L 416.513416 194.031445 
L 416.46638 196.648291 
L 416.411971 199.265137 
L 416.349369 201.881982 
L 416.278223 204.498828 
L 416.198613 207.115674 
L 416.110997 209.732519 
L 416.016147 212.349365 
L 415.915078 214.966211 
L 415.808971 217.583056 
L 415.699089 220.199902 
L 415.586694 222.816748 
L 415.472974 225.433594 
L 415.358964 228.050439 
L 415.245487 230.667285 
L 415.133101 233.284131 
L 415.022068 235.900976 
L 414.91233 238.517822 
L 414.803511 241.134668 
L 414.694936 243.751513 
L 414.585659 246.368359 
L 414.474509 248.985205 
L 414.360152 251.602051 
L 414.241142 254.218896 
L 414.115997 256.835742 
L 413.983247 259.452588 
L 413.841499 262.069433 
L 413.689476 264.686279 
L 413.526053 267.303125 
L 413.350278 269.91997 
L 413.161383 272.536816 
L 412.958787 275.153662 
L 412.742083 277.770508 
L 412.511031 280.387353 
L 412.265539 283.004199 
L 412.005654 285.621045 
L 411.731545 288.23789 
L 411.443502 290.854736 
L 411.141929 293.471582 
L 410.827349 296.088427 
L 410.500407 298.705273 
L 410.161882 301.322119 
L 409.812693 303.938965 
L 409.453907 306.55581 
L 409.08674 309.172656 
L 408.71256 311.789502 
L 408.332875 314.406347 
L 407.949327 317.023193 
L 407.563668 319.640039 
L 407.177741 322.256884 
L 406.793448 324.87373 
L 406.412724 327.490576 
L 406.037501 330.107422 
L 405.669679 332.724267 
L 405.311088 335.341113 
L 404.963463 337.957959 
z
" style="fill:#1f77b4;fill-opacity:0.3;"/>
   </g>
   <g id="PolyCollection_8">
    <path clip-path="url(#pbd3d0e1455)" d="M 456.286366 328.168797 
L 449.281055 328.168797 
L 448.974903 325.545251 
L 448.660005 322.921705 
L 448.337676 320.298159 
L 448.009333 317.674613 
L 447.676497 315.051067 
L 447.340789 312.427521 
L 447.003921 309.803975 
L 446.667682 307.180429 
L 446.333919 304.556883 
L 446.004501 301.933337 
L 445.68129 299.309791 
L 445.366096 296.686245 
L 445.060635 294.062698 
L 444.766485 291.439152 
L 444.485045 288.815606 
L 444.2175 286.19206 
L 443.964793 283.568514 
L 443.727608 280.944968 
L 443.506361 278.321422 
L 443.301201 275.697876 
L 443.112022 273.07433 
L 442.938478 270.450784 
L 442.780006 267.827238 
L 442.635851 265.203692 
L 442.505097 262.580146 
L 442.386685 259.9566 
L 442.279442 257.333054 
L 442.182106 254.709508 
L 442.093337 252.085962 
L 442.011747 249.462416 
L 441.935907 246.83887 
L 441.864372 244.215324 
L 441.795694 241.591778 
L 441.728442 238.968232 
L 441.661223 236.344686 
L 441.592698 233.72114 
L 441.521599 231.097594 
L 441.446751 228.474048 
L 441.367082 225.850502 
L 441.281633 223.226956 
L 441.189563 220.60341 
L 441.090152 217.979864 
L 440.982791 215.356318 
L 440.866977 212.732772 
L 440.742297 210.109226 
L 440.608413 207.48568 
L 440.465043 204.862134 
L 440.311947 202.238588 
L 440.148912 199.615042 
L 439.975737 196.991496 
L 439.792231 194.36795 
L 439.598205 191.744404 
L 439.393479 189.120858 
L 439.177886 186.497312 
L 438.951288 183.873766 
L 438.713588 181.25022 
L 438.464752 178.626674 
L 438.204828 176.003128 
L 437.933969 173.379582 
L 437.652457 170.756036 
L 437.360725 168.13249 
L 437.059377 165.508944 
L 436.749212 162.885398 
L 436.43124 160.261852 
L 436.106705 157.638306 
L 435.777099 155.01476 
L 435.44418 152.391214 
L 435.109988 149.767668 
L 434.776863 147.144122 
L 434.447453 144.520576 
L 434.124731 141.89703 
L 433.812003 139.273484 
L 433.51291 136.649938 
L 433.231432 134.026392 
L 432.971873 131.402846 
L 432.738846 128.7793 
L 432.537236 126.155754 
L 432.372149 123.532207 
L 432.24885 120.908661 
L 432.172668 118.285115 
L 432.148888 115.661569 
L 432.182617 113.038023 
L 432.278638 110.414477 
L 432.441233 107.790931 
L 432.674014 105.167385 
L 432.979732 102.543839 
L 433.360107 99.920293 
L 433.815662 97.296747 
L 434.345593 94.673201 
L 434.947665 92.049655 
L 435.618168 89.426109 
L 436.351914 86.802563 
L 437.142304 84.179017 
L 437.981443 81.555471 
L 438.860326 78.931925 
L 439.769066 76.308379 
L 440.697167 73.684833 
L 441.633826 71.061287 
L 442.56825 68.437741 
L 462.999171 68.437741 
L 462.999171 68.437741 
L 463.933595 71.061287 
L 464.870254 73.684833 
L 465.798355 76.308379 
L 466.707095 78.931925 
L 467.585978 81.555471 
L 468.425117 84.179017 
L 469.215507 86.802563 
L 469.949253 89.426109 
L 470.619756 92.049655 
L 471.221829 94.673201 
L 471.751759 97.296747 
L 472.207314 99.920293 
L 472.587689 102.543839 
L 472.893407 105.167385 
L 473.126188 107.790931 
L 473.288783 110.414477 
L 473.384804 113.038023 
L 473.418533 115.661569 
L 473.394753 118.285115 
L 473.318571 120.908661 
L 473.195272 123.532207 
L 473.030185 126.155754 
L 472.828575 128.7793 
L 472.595548 131.402846 
L 472.335989 134.026392 
L 472.054511 136.649938 
L 471.755418 139.273484 
L 471.44269 141.89703 
L 471.119968 144.520576 
L 470.790558 147.144122 
L 470.457433 149.767668 
L 470.123241 152.391214 
L 469.790322 155.01476 
L 469.460716 157.638306 
L 469.136181 160.261852 
L 468.818209 162.885398 
L 468.508044 165.508944 
L 468.206696 168.13249 
L 467.914964 170.756036 
L 467.633452 173.379582 
L 467.362593 176.003128 
L 467.102669 178.626674 
L 466.853833 181.25022 
L 466.616133 183.873766 
L 466.389535 186.497312 
L 466.173942 189.120858 
L 465.969216 191.744404 
L 465.77519 194.36795 
L 465.591684 196.991496 
L 465.418509 199.615042 
L 465.255474 202.238588 
L 465.102378 204.862134 
L 464.959008 207.48568 
L 464.825124 210.109226 
L 464.700444 212.732772 
L 464.58463 215.356318 
L 464.477269 217.979864 
L 464.377858 220.60341 
L 464.285788 223.226956 
L 464.200339 225.850502 
L 464.12067 228.474048 
L 464.045822 231.097594 
L 463.974723 233.72114 
L 463.906198 236.344686 
L 463.838979 238.968232 
L 463.771728 241.591778 
L 463.703049 244.215324 
L 463.631514 246.83887 
L 463.555674 249.462416 
L 463.474084 252.085962 
L 463.385315 254.709508 
L 463.287979 257.333054 
L 463.180736 259.9566 
L 463.062324 262.580146 
L 462.93157 265.203692 
L 462.787415 267.827238 
L 462.628943 270.450784 
L 462.455399 273.07433 
L 462.26622 275.697876 
L 462.06106 278.321422 
L 461.839813 280.944968 
L 461.602629 283.568514 
L 461.349921 286.19206 
L 461.082376 288.815606 
L 460.800936 291.439152 
L 460.506786 294.062698 
L 460.201325 296.686245 
L 459.886131 299.309791 
L 459.56292 301.933337 
L 459.233502 304.556883 
L 458.899739 307.180429 
L 458.563501 309.803975 
L 458.226632 312.427521 
L 457.890924 315.051067 
L 457.558088 317.674613 
L 457.229745 320.298159 
L 456.907416 322.921705 
L 456.592518 325.545251 
L 456.286366 328.168797 
z
" style="fill:#1f77b4;fill-opacity:0.3;"/>
   </g>
   <g id="PolyCollection_9">
    <path clip-path="url(#pbd3d0e1455)" d="M 504.726621 437.430852 
L 504.014914 437.430852 
L 504.017448 433.65695 
L 504.025869 429.883048 
L 504.039474 426.109145 
L 504.057198 422.335243 
L 504.077656 418.561341 
L 504.099205 414.787438 
L 504.120007 411.013536 
L 504.138093 407.239634 
L 504.151416 403.465731 
L 504.157891 399.691829 
L 504.155435 395.917927 
L 504.141987 392.144024 
L 504.115543 388.370122 
L 504.074188 384.59622 
L 504.016143 380.822318 
L 503.939826 377.048415 
L 503.843923 373.274513 
L 503.727465 369.500611 
L 503.589905 365.726708 
L 503.431171 361.952806 
L 503.251696 358.178904 
L 503.052402 354.405001 
L 502.834644 350.631099 
L 502.600106 346.857197 
L 502.350653 343.083294 
L 502.088174 339.309392 
L 501.814412 335.53549 
L 501.530828 331.761587 
L 501.238507 327.987685 
L 500.938137 324.213783 
L 500.630064 320.43988 
L 500.314419 316.665978 
L 499.991314 312.892076 
L 499.661072 309.118174 
L 499.324458 305.344271 
L 498.982877 301.570369 
L 498.638493 297.796467 
L 498.294259 294.022564 
L 497.953815 290.248662 
L 497.621285 286.47476 
L 497.300962 282.700857 
L 496.996937 278.926955 
L 496.712701 275.153053 
L 496.45078 271.37915 
L 496.212449 267.605248 
L 495.997557 263.831346 
L 495.804513 260.057443 
L 495.630409 256.283541 
L 495.471302 252.509639 
L 495.322604 248.735736 
L 495.179543 244.961834 
L 495.037642 241.187932 
L 494.893153 237.41403 
L 494.743407 233.640127 
L 494.587004 229.866225 
L 494.423851 226.092323 
L 494.255002 222.31842 
L 494.082333 218.544518 
L 493.908072 214.770616 
L 493.734233 210.996713 
L 493.562023 207.222811 
L 493.391296 203.448909 
L 493.220122 199.675006 
L 493.044544 195.901104 
L 492.858583 192.127202 
L 492.654495 188.353299 
L 492.423306 184.579397 
L 492.155566 180.805495 
L 491.842274 177.031592 
L 491.475877 173.25769 
L 491.051233 169.483788 
L 490.566437 165.709886 
L 490.023407 161.935983 
L 489.42816 158.162081 
L 488.79074 154.388179 
L 488.124792 150.614276 
L 487.446847 146.840374 
L 486.775374 143.066472 
L 486.129729 139.292569 
L 485.529101 135.518667 
L 484.991581 131.744765 
L 484.533425 127.970862 
L 484.168579 124.19696 
L 483.908474 120.423058 
L 483.76205 116.649155 
L 483.735945 112.875253 
L 483.834765 109.101351 
L 484.061332 105.327448 
L 484.416822 101.553546 
L 484.900752 97.779644 
L 485.510801 94.005742 
L 486.242481 90.231839 
L 487.088755 86.457937 
L 488.039667 82.684035 
L 489.082123 78.910132 
L 490.199876 75.13623 
L 491.373812 71.362328 
L 492.582535 67.588425 
L 493.803226 63.814523 
L 514.938309 63.814523 
L 514.938309 63.814523 
L 516.159001 67.588425 
L 517.367723 71.362328 
L 518.541659 75.13623 
L 519.659412 78.910132 
L 520.701868 82.684035 
L 521.65278 86.457937 
L 522.499054 90.231839 
L 523.230734 94.005742 
L 523.840783 97.779644 
L 524.324714 101.553546 
L 524.680203 105.327448 
L 524.90677 109.101351 
L 525.00559 112.875253 
L 524.979485 116.649155 
L 524.833061 120.423058 
L 524.572956 124.19696 
L 524.208111 127.970862 
L 523.749954 131.744765 
L 523.212434 135.518667 
L 522.611806 139.292569 
L 521.966161 143.066472 
L 521.294688 146.840374 
L 520.616743 150.614276 
L 519.950795 154.388179 
L 519.313375 158.162081 
L 518.718128 161.935983 
L 518.175098 165.709886 
L 517.690302 169.483788 
L 517.265658 173.25769 
L 516.899261 177.031592 
L 516.585969 180.805495 
L 516.318229 184.579397 
L 516.08704 188.353299 
L 515.882952 192.127202 
L 515.696991 195.901104 
L 515.521413 199.675006 
L 515.350239 203.448909 
L 515.179512 207.222811 
L 515.007302 210.996713 
L 514.833463 214.770616 
L 514.659202 218.544518 
L 514.486533 222.31842 
L 514.317684 226.092323 
L 514.154531 229.866225 
L 513.998128 233.640127 
L 513.848382 237.41403 
L 513.703893 241.187932 
L 513.561992 244.961834 
L 513.418931 248.735736 
L 513.270233 252.509639 
L 513.111126 256.283541 
L 512.937022 260.057443 
L 512.743978 263.831346 
L 512.529086 267.605248 
L 512.290755 271.37915 
L 512.028835 275.153053 
L 511.744599 278.926955 
L 511.440573 282.700857 
L 511.12025 286.47476 
L 510.78772 290.248662 
L 510.447276 294.022564 
L 510.103042 297.796467 
L 509.758658 301.570369 
L 509.417077 305.344271 
L 509.080463 309.118174 
L 508.750221 312.892076 
L 508.427116 316.665978 
L 508.111471 320.43988 
L 507.803398 324.213783 
L 507.503028 327.987685 
L 507.210708 331.761587 
L 506.927123 335.53549 
L 506.653361 339.309392 
L 506.390882 343.083294 
L 506.14143 346.857197 
L 505.906891 350.631099 
L 505.689133 354.405001 
L 505.489839 358.178904 
L 505.310364 361.952806 
L 505.15163 365.726708 
L 505.01407 369.500611 
L 504.897612 373.274513 
L 504.801709 377.048415 
L 504.725392 380.822318 
L 504.667347 384.59622 
L 504.625992 388.370122 
L 504.599548 392.144024 
L 504.5861 395.917927 
L 504.583644 399.691829 
L 504.590119 403.465731 
L 504.603442 407.239634 
L 504.621528 411.013536 
L 504.64233 414.787438 
L 504.663879 418.561341 
L 504.684337 422.335243 
L 504.702061 426.109145 
L 504.715667 429.883048 
L 504.724087 433.65695 
L 504.726621 437.430852 
z
" style="fill:#1f77b4;fill-opacity:0.3;"/>
   </g>
   <g id="PolyCollection_10">
    <path clip-path="url(#pbd3d0e1455)" d="M 557.577892 353.757304 
L 554.337757 353.757304 
L 554.144843 350.738575 
L 553.939413 347.719845 
L 553.722126 344.701116 
L 553.493847 341.682387 
L 553.255633 338.663658 
L 553.008721 335.644928 
L 552.754498 332.626199 
L 552.494473 329.60747 
L 552.230239 326.58874 
L 551.963437 323.570011 
L 551.695715 320.551282 
L 551.428692 317.532552 
L 551.163921 314.513823 
L 550.902856 311.495094 
L 550.646826 308.476364 
L 550.397008 305.457635 
L 550.154411 302.438906 
L 549.919862 299.420177 
L 549.694001 296.401447 
L 549.477275 293.382718 
L 549.269941 290.363989 
L 549.072078 287.345259 
L 548.883598 284.32653 
L 548.704267 281.307801 
L 548.533725 278.289071 
L 548.371519 275.270342 
L 548.217129 272.251613 
L 548.070005 269.232883 
L 547.929597 266.214154 
L 547.795393 263.195425 
L 547.666941 260.176696 
L 547.543884 257.157966 
L 547.425978 254.139237 
L 547.313111 251.120508 
L 547.205312 248.101778 
L 547.102763 245.083049 
L 547.005791 242.06432 
L 546.914868 239.04559 
L 546.830592 236.026861 
L 546.753666 233.008132 
L 546.684862 229.989402 
L 546.624973 226.970673 
L 546.57475 223.951944 
L 546.534827 220.933215 
L 546.505624 217.914485 
L 546.487242 214.895756 
L 546.479342 211.877027 
L 546.481027 208.858297 
L 546.490726 205.839568 
L 546.50609 202.820839 
L 546.523923 199.802109 
L 546.540142 196.78338 
L 546.549795 193.764651 
L 546.547133 190.745921 
L 546.525746 187.727192 
L 546.478765 184.708463 
L 546.399118 181.689734 
L 546.279844 178.671004 
L 546.114435 175.652275 
L 545.897194 172.633546 
L 545.623593 169.614816 
L 545.29059 166.596087 
L 544.896906 163.577358 
L 544.443215 160.558628 
L 543.932257 157.539899 
L 543.368847 154.52117 
L 542.759778 151.50244 
L 542.113635 148.483711 
L 541.440515 145.464982 
L 540.751681 142.446252 
L 540.059172 139.427523 
L 539.375381 136.408794 
L 538.712654 133.390065 
L 538.082903 130.371335 
L 537.497278 127.352606 
L 536.965905 124.333877 
L 536.497694 121.315147 
L 536.100233 118.296418 
L 535.77975 115.277689 
L 535.541146 112.258959 
L 535.388064 109.24023 
L 535.323002 106.221501 
L 535.347424 103.202771 
L 535.461875 100.184042 
L 535.666062 97.165313 
L 535.958909 94.146584 
L 536.338578 91.127854 
L 536.802442 88.109125 
L 537.347043 85.090396 
L 537.968025 82.071666 
L 538.660071 79.052937 
L 539.416848 76.034208 
L 540.230996 73.015478 
L 541.094149 69.996749 
L 541.997023 66.97802 
L 542.92955 63.95929 
L 543.881084 60.940561 
L 544.840643 57.921832 
L 545.797197 54.903103 
L 566.118452 54.903103 
L 566.118452 54.903103 
L 567.075006 57.921832 
L 568.034565 60.940561 
L 568.986099 63.95929 
L 569.918626 66.97802 
L 570.8215 69.996749 
L 571.684653 73.015478 
L 572.498801 76.034208 
L 573.255578 79.052937 
L 573.947624 82.071666 
L 574.568606 85.090396 
L 575.113208 88.109125 
L 575.577072 91.127854 
L 575.95674 94.146584 
L 576.249588 97.165313 
L 576.453774 100.184042 
L 576.568225 103.202771 
L 576.592647 106.221501 
L 576.527585 109.24023 
L 576.374503 112.258959 
L 576.135899 115.277689 
L 575.815416 118.296418 
L 575.417955 121.315147 
L 574.949744 124.333877 
L 574.418371 127.352606 
L 573.832746 130.371335 
L 573.202995 133.390065 
L 572.540268 136.408794 
L 571.856477 139.427523 
L 571.163968 142.446252 
L 570.475134 145.464982 
L 569.802015 148.483711 
L 569.155872 151.50244 
L 568.546802 154.52117 
L 567.983392 157.539899 
L 567.472434 160.558628 
L 567.018743 163.577358 
L 566.625059 166.596087 
L 566.292056 169.614816 
L 566.018455 172.633546 
L 565.801214 175.652275 
L 565.635805 178.671004 
L 565.516531 181.689734 
L 565.436884 184.708463 
L 565.389903 187.727192 
L 565.368516 190.745921 
L 565.365854 193.764651 
L 565.375507 196.78338 
L 565.391726 199.802109 
L 565.409559 202.820839 
L 565.424923 205.839568 
L 565.434622 208.858297 
L 565.436307 211.877027 
L 565.428407 214.895756 
L 565.410025 217.914485 
L 565.380822 220.933215 
L 565.340899 223.951944 
L 565.290676 226.970673 
L 565.230787 229.989402 
L 565.161983 233.008132 
L 565.085057 236.026861 
L 565.000781 239.04559 
L 564.909858 242.06432 
L 564.812886 245.083049 
L 564.710337 248.101778 
L 564.602538 251.120508 
L 564.489671 254.139237 
L 564.371765 257.157966 
L 564.248708 260.176696 
L 564.120256 263.195425 
L 563.986052 266.214154 
L 563.845644 269.232883 
L 563.69852 272.251613 
L 563.54413 275.270342 
L 563.381924 278.289071 
L 563.211382 281.307801 
L 563.032051 284.32653 
L 562.843571 287.345259 
L 562.645708 290.363989 
L 562.438374 293.382718 
L 562.221648 296.401447 
L 561.995787 299.420177 
L 561.761238 302.438906 
L 561.518641 305.457635 
L 561.268823 308.476364 
L 561.012793 311.495094 
L 560.751728 314.513823 
L 560.486957 317.532552 
L 560.219934 320.551282 
L 559.952212 323.570011 
L 559.68541 326.58874 
L 559.421176 329.60747 
L 559.161151 332.626199 
L 558.906928 335.644928 
L 558.660016 338.663658 
L 558.421802 341.682387 
L 558.193523 344.701116 
L 557.976236 347.719845 
L 557.770807 350.738575 
L 557.577892 353.757304 
z
" style="fill:#1f77b4;fill-opacity:0.3;"/>
   </g>
   <g id="PolyCollection_11">
    <path clip-path="url(#pbd3d0e1455)" d="M 611.253393 332.946122 
L 603.83637 332.946122 
L 603.515955 330.048946 
L 603.191994 327.15177 
L 602.867322 324.254594 
L 602.544837 321.357418 
L 602.227433 318.460242 
L 601.917917 315.563066 
L 601.618943 312.665889 
L 601.33294 309.768713 
L 601.062047 306.871537 
L 600.808066 303.974361 
L 600.57242 301.077185 
L 600.356129 298.180009 
L 600.1598 295.282833 
L 599.983631 292.385657 
L 599.827436 289.488481 
L 599.690675 286.591305 
L 599.572505 283.694128 
L 599.47183 280.796952 
L 599.387362 277.899776 
L 599.317687 275.0026 
L 599.261326 272.105424 
L 599.216793 269.208248 
L 599.182649 266.311072 
L 599.157545 263.413896 
L 599.140259 260.51672 
L 599.12972 257.619544 
L 599.125022 254.722367 
L 599.125429 251.825191 
L 599.130369 248.928015 
L 599.139421 246.030839 
L 599.152297 243.133663 
L 599.168809 240.236487 
L 599.188849 237.339311 
L 599.212347 234.442135 
L 599.23924 231.544959 
L 599.269436 228.647783 
L 599.302776 225.750606 
L 599.338995 222.85343 
L 599.377689 219.956254 
L 599.418279 217.059078 
L 599.459976 214.161902 
L 599.501749 211.264726 
L 599.542294 208.36755 
L 599.580013 205.470374 
L 599.612987 202.573198 
L 599.638969 199.676022 
L 599.655372 196.778845 
L 599.659284 193.881669 
L 599.647481 190.984493 
L 599.616469 188.087317 
L 599.562532 185.190141 
L 599.481813 182.292965 
L 599.370405 179.395789 
L 599.224464 176.498613 
L 599.040339 173.601437 
L 598.814723 170.704261 
L 598.544801 167.807085 
L 598.228415 164.909908 
L 597.864209 162.012732 
L 597.451777 159.115556 
L 596.991775 156.21838 
L 596.486014 153.321204 
L 595.937513 150.424028 
L 595.350503 147.526852 
L 594.730397 144.629676 
L 594.083707 141.7325 
L 593.417915 138.835324 
L 592.741311 135.938147 
L 592.062791 133.040971 
L 591.391643 130.143795 
L 590.737314 127.246619 
L 590.109178 124.349443 
L 589.516318 121.452267 
L 588.967329 118.555091 
L 588.470146 115.657915 
L 588.031911 112.760739 
L 587.658874 109.863563 
L 587.356337 106.966386 
L 587.128619 104.06921 
L 586.979064 101.172034 
L 586.910059 98.274858 
L 586.923071 95.377682 
L 587.018691 92.480506 
L 587.196668 89.58333 
L 587.455952 86.686154 
L 587.794713 83.788978 
L 588.210357 80.891802 
L 588.699539 77.994625 
L 589.25816 75.097449 
L 589.881373 72.200273 
L 590.563598 69.303097 
L 591.298544 66.405921 
L 592.079255 63.508745 
L 592.898181 60.611569 
L 593.747271 57.714393 
L 594.618095 54.817217 
L 595.501994 51.920041 
L 596.390241 49.022864 
L 597.274223 46.125688 
L 617.81554 46.125688 
L 617.81554 46.125688 
L 618.699523 49.022864 
L 619.587769 51.920041 
L 620.471668 54.817217 
L 621.342492 57.714393 
L 622.191582 60.611569 
L 623.010508 63.508745 
L 623.791219 66.405921 
L 624.526165 69.303097 
L 625.20839 72.200273 
L 625.831603 75.097449 
L 626.390224 77.994625 
L 626.879406 80.891802 
L 627.29505 83.788978 
L 627.633811 86.686154 
L 627.893095 89.58333 
L 628.071072 92.480506 
L 628.166692 95.377682 
L 628.179704 98.274858 
L 628.110699 101.172034 
L 627.961144 104.06921 
L 627.733426 106.966386 
L 627.430889 109.863563 
L 627.057852 112.760739 
L 626.619617 115.657915 
L 626.122434 118.555091 
L 625.573445 121.452267 
L 624.980585 124.349443 
L 624.352449 127.246619 
L 623.69812 130.143795 
L 623.026973 133.040971 
L 622.348453 135.938147 
L 621.671848 138.835324 
L 621.006056 141.7325 
L 620.359366 144.629676 
L 619.739261 147.526852 
L 619.15225 150.424028 
L 618.603749 153.321204 
L 618.097988 156.21838 
L 617.637986 159.115556 
L 617.225554 162.012732 
L 616.861348 164.909908 
L 616.544962 167.807085 
L 616.27504 170.704261 
L 616.049424 173.601437 
L 615.865299 176.498613 
L 615.719358 179.395789 
L 615.60795 182.292965 
L 615.527231 185.190141 
L 615.473295 188.087317 
L 615.442282 190.984493 
L 615.430479 193.881669 
L 615.434391 196.778845 
L 615.450795 199.676022 
L 615.476776 202.573198 
L 615.50975 205.470374 
L 615.547469 208.36755 
L 615.588014 211.264726 
L 615.629787 214.161902 
L 615.671484 217.059078 
L 615.712074 219.956254 
L 615.750768 222.85343 
L 615.786987 225.750606 
L 615.820327 228.647783 
L 615.850523 231.544959 
L 615.877417 234.442135 
L 615.900914 237.339311 
L 615.920954 240.236487 
L 615.937467 243.133663 
L 615.950342 246.030839 
L 615.959394 248.928015 
L 615.964334 251.825191 
L 615.964741 254.722367 
L 615.960043 257.619544 
L 615.949504 260.51672 
L 615.932218 263.413896 
L 615.907114 266.311072 
L 615.87297 269.208248 
L 615.828437 272.105424 
L 615.772076 275.0026 
L 615.702401 277.899776 
L 615.617933 280.796952 
L 615.517258 283.694128 
L 615.399088 286.591305 
L 615.262328 289.488481 
L 615.106132 292.385657 
L 614.929963 295.282833 
L 614.733634 298.180009 
L 614.517343 301.077185 
L 614.281697 303.974361 
L 614.027716 306.871537 
L 613.756823 309.768713 
L 613.47082 312.665889 
L 613.171846 315.563066 
L 612.86233 318.460242 
L 612.544926 321.357418 
L 612.222441 324.254594 
L 611.897769 327.15177 
L 611.573808 330.048946 
L 611.253393 332.946122 
z
" style="fill:#1f77b4;fill-opacity:0.3;"/>
   </g>
   <g id="PolyCollection_12">
    <path clip-path="url(#pbd3d0e1455)" d="M 662.169496 330.131989 
L 656.094381 330.131989 
L 655.816588 327.222428 
L 655.534541 324.312866 
L 655.250596 321.403305 
L 654.967123 318.493743 
L 654.686444 315.584182 
L 654.410773 312.67462 
L 654.142154 309.765059 
L 653.882419 306.855497 
L 653.633153 303.945936 
L 653.395666 301.036374 
L 653.170985 298.126812 
L 652.959853 295.217251 
L 652.762745 292.307689 
L 652.579881 289.398128 
L 652.411263 286.488566 
L 652.256703 283.579005 
L 652.115857 280.669443 
L 651.988259 277.759882 
L 651.873358 274.85032 
L 651.770538 271.940759 
L 651.679145 269.031197 
L 651.598509 266.121636 
L 651.527949 263.212074 
L 651.466789 260.302513 
L 651.414361 257.392951 
L 651.370009 254.48339 
L 651.33309 251.573828 
L 651.302976 248.664266 
L 651.279059 245.754705 
L 651.26075 242.845143 
L 651.247485 239.935582 
L 651.238726 237.02602 
L 651.233968 234.116459 
L 651.232735 231.206897 
L 651.234584 228.297336 
L 651.239099 225.387774 
L 651.24588 222.478213 
L 651.254535 219.568651 
L 651.264658 216.65909 
L 651.275809 213.749528 
L 651.287482 210.839967 
L 651.299077 207.930405 
L 651.309859 205.020843 
L 651.318928 202.111282 
L 651.325174 199.20172 
L 651.327239 196.292159 
L 651.323488 193.382597 
L 651.311976 190.473036 
L 651.290426 187.563474 
L 651.256223 184.653913 
L 651.206414 181.744351 
L 651.137736 178.83479 
L 651.046653 175.925228 
L 650.929428 173.015667 
L 650.782215 170.106105 
L 650.601171 167.196544 
L 650.382599 164.286982 
L 650.123115 161.377421 
L 649.819816 158.467859 
L 649.470469 155.558297 
L 649.073696 152.648736 
L 648.629142 149.739174 
L 648.137621 146.829613 
L 647.601233 143.920051 
L 647.023431 141.01049 
L 646.409036 138.100928 
L 645.7642 135.191367 
L 645.0963 132.281805 
L 644.413785 129.372244 
L 643.725968 126.462682 
L 643.042783 123.553121 
L 642.374501 120.643559 
L 641.731454 117.733998 
L 641.123744 114.824436 
L 640.560982 111.914874 
L 640.05205 109.005313 
L 639.604915 106.095751 
L 639.226485 103.18619 
L 638.922516 100.276628 
L 638.697572 97.367067 
L 638.55503 94.457505 
L 638.497116 91.547944 
L 638.52497 88.638382 
L 638.638726 85.728821 
L 638.837589 82.819259 
L 639.119913 79.909698 
L 639.483261 77.000136 
L 639.924451 74.090575 
L 640.439586 71.181013 
L 641.024071 68.271452 
L 641.672622 65.36189 
L 642.379275 62.452328 
L 643.137402 59.542767 
L 643.939755 56.633205 
L 644.778513 53.723644 
L 645.64538 50.814082 
L 646.531695 47.904521 
L 647.428578 44.994959 
L 648.327104 42.085398 
L 669.936773 42.085398 
L 669.936773 42.085398 
L 670.835299 44.994959 
L 671.732183 47.904521 
L 672.618497 50.814082 
L 673.485364 53.723644 
L 674.324122 56.633205 
L 675.126475 59.542767 
L 675.884603 62.452328 
L 676.591255 65.36189 
L 677.239806 68.271452 
L 677.824291 71.181013 
L 678.339426 74.090575 
L 678.780616 77.000136 
L 679.143964 79.909698 
L 679.426288 82.819259 
L 679.625151 85.728821 
L 679.738907 88.638382 
L 679.766761 91.547944 
L 679.708847 94.457505 
L 679.566305 97.367067 
L 679.341361 100.276628 
L 679.037392 103.18619 
L 678.658962 106.095751 
L 678.211828 109.005313 
L 677.702896 111.914874 
L 677.140133 114.824436 
L 676.532423 117.733998 
L 675.889376 120.643559 
L 675.221094 123.553121 
L 674.537909 126.462682 
L 673.850093 129.372244 
L 673.167577 132.281805 
L 672.499677 135.191367 
L 671.854841 138.100928 
L 671.240446 141.01049 
L 670.662644 143.920051 
L 670.126256 146.829613 
L 669.634735 149.739174 
L 669.190181 152.648736 
L 668.793408 155.558297 
L 668.444062 158.467859 
L 668.140762 161.377421 
L 667.881278 164.286982 
L 667.662707 167.196544 
L 667.481662 170.106105 
L 667.334449 173.015667 
L 667.217225 175.925228 
L 667.126142 178.83479 
L 667.057463 181.744351 
L 667.007654 184.653913 
L 666.973451 187.563474 
L 666.951901 190.473036 
L 666.940389 193.382597 
L 666.936638 196.292159 
L 666.938704 199.20172 
L 666.944949 202.111282 
L 666.954018 205.020843 
L 666.9648 207.930405 
L 666.976395 210.839967 
L 666.988068 213.749528 
L 666.999219 216.65909 
L 667.009342 219.568651 
L 667.017998 222.478213 
L 667.024779 225.387774 
L 667.029293 228.297336 
L 667.031142 231.206897 
L 667.029909 234.116459 
L 667.025151 237.02602 
L 667.016392 239.935582 
L 667.003127 242.845143 
L 666.984818 245.754705 
L 666.960901 248.664266 
L 666.930788 251.573828 
L 666.893868 254.48339 
L 666.849516 257.392951 
L 666.797088 260.302513 
L 666.735928 263.212074 
L 666.665369 266.121636 
L 666.584732 269.031197 
L 666.49334 271.940759 
L 666.390519 274.85032 
L 666.275618 277.759882 
L 666.148021 280.669443 
L 666.007174 283.579005 
L 665.852614 286.488566 
L 665.683996 289.398128 
L 665.501133 292.307689 
L 665.304024 295.217251 
L 665.092892 298.126812 
L 664.868211 301.036374 
L 664.630724 303.945936 
L 664.381458 306.855497 
L 664.121723 309.765059 
L 663.853104 312.67462 
L 663.577433 315.584182 
L 663.296755 318.493743 
L 663.013282 321.403305 
L 662.729336 324.312866 
L 662.447289 327.222428 
L 662.169496 330.131989 
z
" style="fill:#1f77b4;fill-opacity:0.3;"/>
   </g>
   <g id="matplotlib.axis_1">
    <g id="xtick_1">
     <g id="line2d_1">
      <path clip-path="url(#pbd3d0e1455)" d="M 91.674311 457.198125 
L 91.674311 22.318125 
" style="fill:none;stroke:#b0b0b0;stroke-linecap:square;stroke-width:0.8;"/>
     </g>
     <g id="line2d_2">
      <defs>
       <path d="M 0 0 
L 0 3.5 
" id="me5ca036c65" style="stroke:#000000;stroke-width:0.8;"/>
      </defs>
      <g>
       <use style="stroke:#000000;stroke-width:0.8;" x="91.674311" xlink:href="#me5ca036c65" y="457.198125"/>
      </g>
     </g>
     <g id="text_1">
      <!-- 1952 -->
      <g transform="translate(78.949311 471.796562)scale(0.1 -0.1)">
       <defs>
        <path d="M 794 531 
L 1825 531 
L 1825 4091 
L 703 3866 
L 703 4441 
L 1819 4666 
L 2450 4666 
L 2450 531 
L 3481 531 
L 3481 0 
L 794 0 
L 794 531 
z
" id="DejaVuSans-31" transform="scale(0.015625)"/>
        <path d="M 703 97 
L 703 672 
Q 941 559 1184 500 
Q 1428 441 1663 441 
Q 2288 441 2617 861 
Q 2947 1281 2994 2138 
Q 2813 1869 2534 1725 
Q 2256 1581 1919 1581 
Q 1219 1581 811 2004 
Q 403 2428 403 3163 
Q 403 3881 828 4315 
Q 1253 4750 1959 4750 
Q 2769 4750 3195 4129 
Q 3622 3509 3622 2328 
Q 3622 1225 3098 567 
Q 2575 -91 1691 -91 
Q 1453 -91 1209 -44 
Q 966 3 703 97 
z
M 1959 2075 
Q 2384 2075 2632 2365 
Q 2881 2656 2881 3163 
Q 2881 3666 2632 3958 
Q 2384 4250 1959 4250 
Q 1534 4250 1286 3958 
Q 1038 3666 1038 3163 
Q 1038 2656 1286 2365 
Q 1534 2075 1959 2075 
z
" id="DejaVuSans-39" transform="scale(0.015625)"/>
        <path d="M 691 4666 
L 3169 4666 
L 3169 4134 
L 1269 4134 
L 1269 2991 
Q 1406 3038 1543 3061 
Q 1681 3084 1819 3084 
Q 2600 3084 3056 2656 
Q 3513 2228 3513 1497 
Q 3513 744 3044 326 
Q 2575 -91 1722 -91 
Q 1428 -91 1123 -41 
Q 819 9 494 109 
L 494 744 
Q 775 591 1075 516 
Q 1375 441 1709 441 
Q 2250 441 2565 725 
Q 2881 1009 2881 1497 
Q 2881 1984 2565 2268 
Q 2250 2553 1709 2553 
Q 1456 2553 1204 2497 
Q 953 2441 691 2322 
L 691 4666 
z
" id="DejaVuSans-35" transform="scale(0.015625)"/>
        <path d="M 1228 531 
L 3431 531 
L 3431 0 
L 469 0 
L 469 531 
Q 828 903 1448 1529 
Q 2069 2156 2228 2338 
Q 2531 2678 2651 2914 
Q 2772 3150 2772 3378 
Q 2772 3750 2511 3984 
Q 2250 4219 1831 4219 
Q 1534 4219 1204 4116 
Q 875 4013 500 3803 
L 500 4441 
Q 881 4594 1212 4672 
Q 1544 4750 1819 4750 
Q 2544 4750 2975 4387 
Q 3406 4025 3406 3419 
Q 3406 3131 3298 2873 
Q 3191 2616 2906 2266 
Q 2828 2175 2409 1742 
Q 1991 1309 1228 531 
z
" id="DejaVuSans-32" transform="scale(0.015625)"/>
       </defs>
       <use xlink:href="#DejaVuSans-31"/>
       <use x="63.623047" xlink:href="#DejaVuSans-39"/>
       <use x="127.246094" xlink:href="#DejaVuSans-35"/>
       <use x="190.869141" xlink:href="#DejaVuSans-32"/>
      </g>
     </g>
    </g>
    <g id="xtick_2">
     <g id="line2d_3">
      <path clip-path="url(#pbd3d0e1455)" d="M 143.261368 457.198125 
L 143.261368 22.318125 
" style="fill:none;stroke:#b0b0b0;stroke-linecap:square;stroke-width:0.8;"/>
     </g>
     <g id="line2d_4">
      <g>
       <use style="stroke:#000000;stroke-width:0.8;" x="143.261368" xlink:href="#me5ca036c65" y="457.198125"/>
      </g>
     </g>
     <g id="text_2">
      <!-- 1957 -->
      <g transform="translate(130.536368 471.796562)scale(0.1 -0.1)">
       <defs>
        <path d="M 525 4666 
L 3525 4666 
L 3525 4397 
L 1831 0 
L 1172 0 
L 2766 4134 
L 525 4134 
L 525 4666 
z
" id="DejaVuSans-37" transform="scale(0.015625)"/>
       </defs>
       <use xlink:href="#DejaVuSans-31"/>
       <use x="63.623047" xlink:href="#DejaVuSans-39"/>
       <use x="127.246094" xlink:href="#DejaVuSans-35"/>
       <use x="190.869141" xlink:href="#DejaVuSans-37"/>
      </g>
     </g>
    </g>
    <g id="xtick_3">
     <g id="line2d_5">
      <path clip-path="url(#pbd3d0e1455)" d="M 194.848425 457.198125 
L 194.848425 22.318125 
" style="fill:none;stroke:#b0b0b0;stroke-linecap:square;stroke-width:0.8;"/>
     </g>
     <g id="line2d_6">
      <g>
       <use style="stroke:#000000;stroke-width:0.8;" x="194.848425" xlink:href="#me5ca036c65" y="457.198125"/>
      </g>
     </g>
     <g id="text_3">
      <!-- 1962 -->
      <g transform="translate(182.123425 471.796562)scale(0.1 -0.1)">
       <defs>
        <path d="M 2113 2584 
Q 1688 2584 1439 2293 
Q 1191 2003 1191 1497 
Q 1191 994 1439 701 
Q 1688 409 2113 409 
Q 2538 409 2786 701 
Q 3034 994 3034 1497 
Q 3034 2003 2786 2293 
Q 2538 2584 2113 2584 
z
M 3366 4563 
L 3366 3988 
Q 3128 4100 2886 4159 
Q 2644 4219 2406 4219 
Q 1781 4219 1451 3797 
Q 1122 3375 1075 2522 
Q 1259 2794 1537 2939 
Q 1816 3084 2150 3084 
Q 2853 3084 3261 2657 
Q 3669 2231 3669 1497 
Q 3669 778 3244 343 
Q 2819 -91 2113 -91 
Q 1303 -91 875 529 
Q 447 1150 447 2328 
Q 447 3434 972 4092 
Q 1497 4750 2381 4750 
Q 2619 4750 2861 4703 
Q 3103 4656 3366 4563 
z
" id="DejaVuSans-36" transform="scale(0.015625)"/>
       </defs>
       <use xlink:href="#DejaVuSans-31"/>
       <use x="63.623047" xlink:href="#DejaVuSans-39"/>
       <use x="127.246094" xlink:href="#DejaVuSans-36"/>
       <use x="190.869141" xlink:href="#DejaVuSans-32"/>
      </g>
     </g>
    </g>
    <g id="xtick_4">
     <g id="line2d_7">
      <path clip-path="url(#pbd3d0e1455)" d="M 246.435482 457.198125 
L 246.435482 22.318125 
" style="fill:none;stroke:#b0b0b0;stroke-linecap:square;stroke-width:0.8;"/>
     </g>
     <g id="line2d_8">
      <g>
       <use style="stroke:#000000;stroke-width:0.8;" x="246.435482" xlink:href="#me5ca036c65" y="457.198125"/>
      </g>
     </g>
     <g id="text_4">
      <!-- 1967 -->
      <g transform="translate(233.710482 471.796562)scale(0.1 -0.1)">
       <use xlink:href="#DejaVuSans-31"/>
       <use x="63.623047" xlink:href="#DejaVuSans-39"/>
       <use x="127.246094" xlink:href="#DejaVuSans-36"/>
       <use x="190.869141" xlink:href="#DejaVuSans-37"/>
      </g>
     </g>
    </g>
    <g id="xtick_5">
     <g id="line2d_9">
      <path clip-path="url(#pbd3d0e1455)" d="M 298.022539 457.198125 
L 298.022539 22.318125 
" style="fill:none;stroke:#b0b0b0;stroke-linecap:square;stroke-width:0.8;"/>
     </g>
     <g id="line2d_10">
      <g>
       <use style="stroke:#000000;stroke-width:0.8;" x="298.022539" xlink:href="#me5ca036c65" y="457.198125"/>
      </g>
     </g>
     <g id="text_5">
      <!-- 1972 -->
      <g transform="translate(285.297539 471.796562)scale(0.1 -0.1)">
       <use xlink:href="#DejaVuSans-31"/>
       <use x="63.623047" xlink:href="#DejaVuSans-39"/>
       <use x="127.246094" xlink:href="#DejaVuSans-37"/>
       <use x="190.869141" xlink:href="#DejaVuSans-32"/>
      </g>
     </g>
    </g>
    <g id="xtick_6">
     <g id="line2d_11">
      <path clip-path="url(#pbd3d0e1455)" d="M 349.609596 457.198125 
L 349.609596 22.318125 
" style="fill:none;stroke:#b0b0b0;stroke-linecap:square;stroke-width:0.8;"/>
     </g>
     <g id="line2d_12">
      <g>
       <use style="stroke:#000000;stroke-width:0.8;" x="349.609596" xlink:href="#me5ca036c65" y="457.198125"/>
      </g>
     </g>
     <g id="text_6">
      <!-- 1977 -->
      <g transform="translate(336.884596 471.796562)scale(0.1 -0.1)">
       <use xlink:href="#DejaVuSans-31"/>
       <use x="63.623047" xlink:href="#DejaVuSans-39"/>
       <use x="127.246094" xlink:href="#DejaVuSans-37"/>
       <use x="190.869141" xlink:href="#DejaVuSans-37"/>
      </g>
     </g>
    </g>
    <g id="xtick_7">
     <g id="line2d_13">
      <path clip-path="url(#pbd3d0e1455)" d="M 401.196654 457.198125 
L 401.196654 22.318125 
" style="fill:none;stroke:#b0b0b0;stroke-linecap:square;stroke-width:0.8;"/>
     </g>
     <g id="line2d_14">
      <g>
       <use style="stroke:#000000;stroke-width:0.8;" x="401.196654" xlink:href="#me5ca036c65" y="457.198125"/>
      </g>
     </g>
     <g id="text_7">
      <!-- 1982 -->
      <g transform="translate(388.471654 471.796562)scale(0.1 -0.1)">
       <defs>
        <path d="M 2034 2216 
Q 1584 2216 1326 1975 
Q 1069 1734 1069 1313 
Q 1069 891 1326 650 
Q 1584 409 2034 409 
Q 2484 409 2743 651 
Q 3003 894 3003 1313 
Q 3003 1734 2745 1975 
Q 2488 2216 2034 2216 
z
M 1403 2484 
Q 997 2584 770 2862 
Q 544 3141 544 3541 
Q 544 4100 942 4425 
Q 1341 4750 2034 4750 
Q 2731 4750 3128 4425 
Q 3525 4100 3525 3541 
Q 3525 3141 3298 2862 
Q 3072 2584 2669 2484 
Q 3125 2378 3379 2068 
Q 3634 1759 3634 1313 
Q 3634 634 3220 271 
Q 2806 -91 2034 -91 
Q 1263 -91 848 271 
Q 434 634 434 1313 
Q 434 1759 690 2068 
Q 947 2378 1403 2484 
z
M 1172 3481 
Q 1172 3119 1398 2916 
Q 1625 2713 2034 2713 
Q 2441 2713 2670 2916 
Q 2900 3119 2900 3481 
Q 2900 3844 2670 4047 
Q 2441 4250 2034 4250 
Q 1625 4250 1398 4047 
Q 1172 3844 1172 3481 
z
" id="DejaVuSans-38" transform="scale(0.015625)"/>
       </defs>
       <use xlink:href="#DejaVuSans-31"/>
       <use x="63.623047" xlink:href="#DejaVuSans-39"/>
       <use x="127.246094" xlink:href="#DejaVuSans-38"/>
       <use x="190.869141" xlink:href="#DejaVuSans-32"/>
      </g>
     </g>
    </g>
    <g id="xtick_8">
     <g id="line2d_15">
      <path clip-path="url(#pbd3d0e1455)" d="M 452.783711 457.198125 
L 452.783711 22.318125 
" style="fill:none;stroke:#b0b0b0;stroke-linecap:square;stroke-width:0.8;"/>
     </g>
     <g id="line2d_16">
      <g>
       <use style="stroke:#000000;stroke-width:0.8;" x="452.783711" xlink:href="#me5ca036c65" y="457.198125"/>
      </g>
     </g>
     <g id="text_8">
      <!-- 1987 -->
      <g transform="translate(440.058711 471.796562)scale(0.1 -0.1)">
       <use xlink:href="#DejaVuSans-31"/>
       <use x="63.623047" xlink:href="#DejaVuSans-39"/>
       <use x="127.246094" xlink:href="#DejaVuSans-38"/>
       <use x="190.869141" xlink:href="#DejaVuSans-37"/>
      </g>
     </g>
    </g>
    <g id="xtick_9">
     <g id="line2d_17">
      <path clip-path="url(#pbd3d0e1455)" d="M 504.370768 457.198125 
L 504.370768 22.318125 
" style="fill:none;stroke:#b0b0b0;stroke-linecap:square;stroke-width:0.8;"/>
     </g>
     <g id="line2d_18">
      <g>
       <use style="stroke:#000000;stroke-width:0.8;" x="504.370768" xlink:href="#me5ca036c65" y="457.198125"/>
      </g>
     </g>
     <g id="text_9">
      <!-- 1992 -->
      <g transform="translate(491.645768 471.796562)scale(0.1 -0.1)">
       <use xlink:href="#DejaVuSans-31"/>
       <use x="63.623047" xlink:href="#DejaVuSans-39"/>
       <use x="127.246094" xlink:href="#DejaVuSans-39"/>
       <use x="190.869141" xlink:href="#DejaVuSans-32"/>
      </g>
     </g>
    </g>
    <g id="xtick_10">
     <g id="line2d_19">
      <path clip-path="url(#pbd3d0e1455)" d="M 555.957825 457.198125 
L 555.957825 22.318125 
" style="fill:none;stroke:#b0b0b0;stroke-linecap:square;stroke-width:0.8;"/>
     </g>
     <g id="line2d_20">
      <g>
       <use style="stroke:#000000;stroke-width:0.8;" x="555.957825" xlink:href="#me5ca036c65" y="457.198125"/>
      </g>
     </g>
     <g id="text_10">
      <!-- 1997 -->
      <g transform="translate(543.232825 471.796562)scale(0.1 -0.1)">
       <use xlink:href="#DejaVuSans-31"/>
       <use x="63.623047" xlink:href="#DejaVuSans-39"/>
       <use x="127.246094" xlink:href="#DejaVuSans-39"/>
       <use x="190.869141" xlink:href="#DejaVuSans-37"/>
      </g>
     </g>
    </g>
    <g id="xtick_11">
     <g id="line2d_21">
      <path clip-path="url(#pbd3d0e1455)" d="M 607.544882 457.198125 
L 607.544882 22.318125 
" style="fill:none;stroke:#b0b0b0;stroke-linecap:square;stroke-width:0.8;"/>
     </g>
     <g id="line2d_22">
      <g>
       <use style="stroke:#000000;stroke-width:0.8;" x="607.544882" xlink:href="#me5ca036c65" y="457.198125"/>
      </g>
     </g>
     <g id="text_11">
      <!-- 2002 -->
      <g transform="translate(594.819882 471.796562)scale(0.1 -0.1)">
       <defs>
        <path d="M 2034 4250 
Q 1547 4250 1301 3770 
Q 1056 3291 1056 2328 
Q 1056 1369 1301 889 
Q 1547 409 2034 409 
Q 2525 409 2770 889 
Q 3016 1369 3016 2328 
Q 3016 3291 2770 3770 
Q 2525 4250 2034 4250 
z
M 2034 4750 
Q 2819 4750 3233 4129 
Q 3647 3509 3647 2328 
Q 3647 1150 3233 529 
Q 2819 -91 2034 -91 
Q 1250 -91 836 529 
Q 422 1150 422 2328 
Q 422 3509 836 4129 
Q 1250 4750 2034 4750 
z
" id="DejaVuSans-30" transform="scale(0.015625)"/>
       </defs>
       <use xlink:href="#DejaVuSans-32"/>
       <use x="63.623047" xlink:href="#DejaVuSans-30"/>
       <use x="127.246094" xlink:href="#DejaVuSans-30"/>
       <use x="190.869141" xlink:href="#DejaVuSans-32"/>
      </g>
     </g>
    </g>
    <g id="xtick_12">
     <g id="line2d_23">
      <path clip-path="url(#pbd3d0e1455)" d="M 659.131939 457.198125 
L 659.131939 22.318125 
" style="fill:none;stroke:#b0b0b0;stroke-linecap:square;stroke-width:0.8;"/>
     </g>
     <g id="line2d_24">
      <g>
       <use style="stroke:#000000;stroke-width:0.8;" x="659.131939" xlink:href="#me5ca036c65" y="457.198125"/>
      </g>
     </g>
     <g id="text_12">
      <!-- 2007 -->
      <g transform="translate(646.406939 471.796562)scale(0.1 -0.1)">
       <use xlink:href="#DejaVuSans-32"/>
       <use x="63.623047" xlink:href="#DejaVuSans-30"/>
       <use x="127.246094" xlink:href="#DejaVuSans-30"/>
       <use x="190.869141" xlink:href="#DejaVuSans-37"/>
      </g>
     </g>
    </g>
    <g id="text_13">
     <!-- Year -->
     <g transform="translate(364.815625 485.474687)scale(0.1 -0.1)">
      <defs>
       <path d="M -13 4666 
L 666 4666 
L 1959 2747 
L 3244 4666 
L 3922 4666 
L 2272 2222 
L 2272 0 
L 1638 0 
L 1638 2222 
L -13 4666 
z
" id="DejaVuSans-59" transform="scale(0.015625)"/>
       <path d="M 3597 1894 
L 3597 1613 
L 953 1613 
Q 991 1019 1311 708 
Q 1631 397 2203 397 
Q 2534 397 2845 478 
Q 3156 559 3463 722 
L 3463 178 
Q 3153 47 2828 -22 
Q 2503 -91 2169 -91 
Q 1331 -91 842 396 
Q 353 884 353 1716 
Q 353 2575 817 3079 
Q 1281 3584 2069 3584 
Q 2775 3584 3186 3129 
Q 3597 2675 3597 1894 
z
M 3022 2063 
Q 3016 2534 2758 2815 
Q 2500 3097 2075 3097 
Q 1594 3097 1305 2825 
Q 1016 2553 972 2059 
L 3022 2063 
z
" id="DejaVuSans-65" transform="scale(0.015625)"/>
       <path d="M 2194 1759 
Q 1497 1759 1228 1600 
Q 959 1441 959 1056 
Q 959 750 1161 570 
Q 1363 391 1709 391 
Q 2188 391 2477 730 
Q 2766 1069 2766 1631 
L 2766 1759 
L 2194 1759 
z
M 3341 1997 
L 3341 0 
L 2766 0 
L 2766 531 
Q 2569 213 2275 61 
Q 1981 -91 1556 -91 
Q 1019 -91 701 211 
Q 384 513 384 1019 
Q 384 1609 779 1909 
Q 1175 2209 1959 2209 
L 2766 2209 
L 2766 2266 
Q 2766 2663 2505 2880 
Q 2244 3097 1772 3097 
Q 1472 3097 1187 3025 
Q 903 2953 641 2809 
L 641 3341 
Q 956 3463 1253 3523 
Q 1550 3584 1831 3584 
Q 2591 3584 2966 3190 
Q 3341 2797 3341 1997 
z
" id="DejaVuSans-61" transform="scale(0.015625)"/>
       <path d="M 2631 2963 
Q 2534 3019 2420 3045 
Q 2306 3072 2169 3072 
Q 1681 3072 1420 2755 
Q 1159 2438 1159 1844 
L 1159 0 
L 581 0 
L 581 3500 
L 1159 3500 
L 1159 2956 
Q 1341 3275 1631 3429 
Q 1922 3584 2338 3584 
Q 2397 3584 2469 3576 
Q 2541 3569 2628 3553 
L 2631 2963 
z
" id="DejaVuSans-72" transform="scale(0.015625)"/>
      </defs>
      <use xlink:href="#DejaVuSans-59"/>
      <use x="47.833984" xlink:href="#DejaVuSans-65"/>
      <use x="109.357422" xlink:href="#DejaVuSans-61"/>
      <use x="170.636719" xlink:href="#DejaVuSans-72"/>
     </g>
    </g>
   </g>
   <g id="matplotlib.axis_2">
    <g id="ytick_1">
     <g id="line2d_25">
      <path clip-path="url(#pbd3d0e1455)" d="M 40.603125 394.542129 
L 710.203125 394.542129 
" style="fill:none;stroke:#b0b0b0;stroke-linecap:square;stroke-width:0.8;"/>
     </g>
     <g id="line2d_26">
      <defs>
       <path d="M 0 0 
L -3.5 0 
" id="md509b4dee1" style="stroke:#000000;stroke-width:0.8;"/>
      </defs>
      <g>
       <use style="stroke:#000000;stroke-width:0.8;" x="40.603125" xlink:href="#md509b4dee1" y="394.542129"/>
      </g>
     </g>
     <g id="text_14">
      <!-- 30 -->
      <g transform="translate(20.878125 398.341347)scale(0.1 -0.1)">
       <defs>
        <path d="M 2597 2516 
Q 3050 2419 3304 2112 
Q 3559 1806 3559 1356 
Q 3559 666 3084 287 
Q 2609 -91 1734 -91 
Q 1441 -91 1130 -33 
Q 819 25 488 141 
L 488 750 
Q 750 597 1062 519 
Q 1375 441 1716 441 
Q 2309 441 2620 675 
Q 2931 909 2931 1356 
Q 2931 1769 2642 2001 
Q 2353 2234 1838 2234 
L 1294 2234 
L 1294 2753 
L 1863 2753 
Q 2328 2753 2575 2939 
Q 2822 3125 2822 3475 
Q 2822 3834 2567 4026 
Q 2313 4219 1838 4219 
Q 1578 4219 1281 4162 
Q 984 4106 628 3988 
L 628 4550 
Q 988 4650 1302 4700 
Q 1616 4750 1894 4750 
Q 2613 4750 3031 4423 
Q 3450 4097 3450 3541 
Q 3450 3153 3228 2886 
Q 3006 2619 2597 2516 
z
" id="DejaVuSans-33" transform="scale(0.015625)"/>
       </defs>
       <use xlink:href="#DejaVuSans-33"/>
       <use x="63.623047" xlink:href="#DejaVuSans-30"/>
      </g>
     </g>
    </g>
    <g id="ytick_2">
     <g id="line2d_27">
      <path clip-path="url(#pbd3d0e1455)" d="M 40.603125 327.538967 
L 710.203125 327.538967 
" style="fill:none;stroke:#b0b0b0;stroke-linecap:square;stroke-width:0.8;"/>
     </g>
     <g id="line2d_28">
      <g>
       <use style="stroke:#000000;stroke-width:0.8;" x="40.603125" xlink:href="#md509b4dee1" y="327.538967"/>
      </g>
     </g>
     <g id="text_15">
      <!-- 40 -->
      <g transform="translate(20.878125 331.338186)scale(0.1 -0.1)">
       <defs>
        <path d="M 2419 4116 
L 825 1625 
L 2419 1625 
L 2419 4116 
z
M 2253 4666 
L 3047 4666 
L 3047 1625 
L 3713 1625 
L 3713 1100 
L 3047 1100 
L 3047 0 
L 2419 0 
L 2419 1100 
L 313 1100 
L 313 1709 
L 2253 4666 
z
" id="DejaVuSans-34" transform="scale(0.015625)"/>
       </defs>
       <use xlink:href="#DejaVuSans-34"/>
       <use x="63.623047" xlink:href="#DejaVuSans-30"/>
      </g>
     </g>
    </g>
    <g id="ytick_3">
     <g id="line2d_29">
      <path clip-path="url(#pbd3d0e1455)" d="M 40.603125 260.535805 
L 710.203125 260.535805 
" style="fill:none;stroke:#b0b0b0;stroke-linecap:square;stroke-width:0.8;"/>
     </g>
     <g id="line2d_30">
      <g>
       <use style="stroke:#000000;stroke-width:0.8;" x="40.603125" xlink:href="#md509b4dee1" y="260.535805"/>
      </g>
     </g>
     <g id="text_16">
      <!-- 50 -->
      <g transform="translate(20.878125 264.335024)scale(0.1 -0.1)">
       <use xlink:href="#DejaVuSans-35"/>
       <use x="63.623047" xlink:href="#DejaVuSans-30"/>
      </g>
     </g>
    </g>
    <g id="ytick_4">
     <g id="line2d_31">
      <path clip-path="url(#pbd3d0e1455)" d="M 40.603125 193.532644 
L 710.203125 193.532644 
" style="fill:none;stroke:#b0b0b0;stroke-linecap:square;stroke-width:0.8;"/>
     </g>
     <g id="line2d_32">
      <g>
       <use style="stroke:#000000;stroke-width:0.8;" x="40.603125" xlink:href="#md509b4dee1" y="193.532644"/>
      </g>
     </g>
     <g id="text_17">
      <!-- 60 -->
      <g transform="translate(20.878125 197.331863)scale(0.1 -0.1)">
       <use xlink:href="#DejaVuSans-36"/>
       <use x="63.623047" xlink:href="#DejaVuSans-30"/>
      </g>
     </g>
    </g>
    <g id="ytick_5">
     <g id="line2d_33">
      <path clip-path="url(#pbd3d0e1455)" d="M 40.603125 126.529482 
L 710.203125 126.529482 
" style="fill:none;stroke:#b0b0b0;stroke-linecap:square;stroke-width:0.8;"/>
     </g>
     <g id="line2d_34">
      <g>
       <use style="stroke:#000000;stroke-width:0.8;" x="40.603125" xlink:href="#md509b4dee1" y="126.529482"/>
      </g>
     </g>
     <g id="text_18">
      <!-- 70 -->
      <g transform="translate(20.878125 130.328701)scale(0.1 -0.1)">
       <use xlink:href="#DejaVuSans-37"/>
       <use x="63.623047" xlink:href="#DejaVuSans-30"/>
      </g>
     </g>
    </g>
    <g id="ytick_6">
     <g id="line2d_35">
      <path clip-path="url(#pbd3d0e1455)" d="M 40.603125 59.526321 
L 710.203125 59.526321 
" style="fill:none;stroke:#b0b0b0;stroke-linecap:square;stroke-width:0.8;"/>
     </g>
     <g id="line2d_36">
      <g>
       <use style="stroke:#000000;stroke-width:0.8;" x="40.603125" xlink:href="#md509b4dee1" y="59.526321"/>
      </g>
     </g>
     <g id="text_19">
      <!-- 80 -->
      <g transform="translate(20.878125 63.325539)scale(0.1 -0.1)">
       <use xlink:href="#DejaVuSans-38"/>
       <use x="63.623047" xlink:href="#DejaVuSans-30"/>
      </g>
     </g>
    </g>
    <g id="text_20">
     <!-- Life Expectancy -->
     <g transform="translate(14.798438 279.379219)rotate(-90)scale(0.1 -0.1)">
      <defs>
       <path d="M 628 4666 
L 1259 4666 
L 1259 531 
L 3531 531 
L 3531 0 
L 628 0 
L 628 4666 
z
" id="DejaVuSans-4c" transform="scale(0.015625)"/>
       <path d="M 603 3500 
L 1178 3500 
L 1178 0 
L 603 0 
L 603 3500 
z
M 603 4863 
L 1178 4863 
L 1178 4134 
L 603 4134 
L 603 4863 
z
" id="DejaVuSans-69" transform="scale(0.015625)"/>
       <path d="M 2375 4863 
L 2375 4384 
L 1825 4384 
Q 1516 4384 1395 4259 
Q 1275 4134 1275 3809 
L 1275 3500 
L 2222 3500 
L 2222 3053 
L 1275 3053 
L 1275 0 
L 697 0 
L 697 3053 
L 147 3053 
L 147 3500 
L 697 3500 
L 697 3744 
Q 697 4328 969 4595 
Q 1241 4863 1831 4863 
L 2375 4863 
z
" id="DejaVuSans-66" transform="scale(0.015625)"/>
       <path id="DejaVuSans-20" transform="scale(0.015625)"/>
       <path d="M 628 4666 
L 3578 4666 
L 3578 4134 
L 1259 4134 
L 1259 2753 
L 3481 2753 
L 3481 2222 
L 1259 2222 
L 1259 531 
L 3634 531 
L 3634 0 
L 628 0 
L 628 4666 
z
" id="DejaVuSans-45" transform="scale(0.015625)"/>
       <path d="M 3513 3500 
L 2247 1797 
L 3578 0 
L 2900 0 
L 1881 1375 
L 863 0 
L 184 0 
L 1544 1831 
L 300 3500 
L 978 3500 
L 1906 2253 
L 2834 3500 
L 3513 3500 
z
" id="DejaVuSans-78" transform="scale(0.015625)"/>
       <path d="M 1159 525 
L 1159 -1331 
L 581 -1331 
L 581 3500 
L 1159 3500 
L 1159 2969 
Q 1341 3281 1617 3432 
Q 1894 3584 2278 3584 
Q 2916 3584 3314 3078 
Q 3713 2572 3713 1747 
Q 3713 922 3314 415 
Q 2916 -91 2278 -91 
Q 1894 -91 1617 61 
Q 1341 213 1159 525 
z
M 3116 1747 
Q 3116 2381 2855 2742 
Q 2594 3103 2138 3103 
Q 1681 3103 1420 2742 
Q 1159 2381 1159 1747 
Q 1159 1113 1420 752 
Q 1681 391 2138 391 
Q 2594 391 2855 752 
Q 3116 1113 3116 1747 
z
" id="DejaVuSans-70" transform="scale(0.015625)"/>
       <path d="M 3122 3366 
L 3122 2828 
Q 2878 2963 2633 3030 
Q 2388 3097 2138 3097 
Q 1578 3097 1268 2742 
Q 959 2388 959 1747 
Q 959 1106 1268 751 
Q 1578 397 2138 397 
Q 2388 397 2633 464 
Q 2878 531 3122 666 
L 3122 134 
Q 2881 22 2623 -34 
Q 2366 -91 2075 -91 
Q 1284 -91 818 406 
Q 353 903 353 1747 
Q 353 2603 823 3093 
Q 1294 3584 2113 3584 
Q 2378 3584 2631 3529 
Q 2884 3475 3122 3366 
z
" id="DejaVuSans-63" transform="scale(0.015625)"/>
       <path d="M 1172 4494 
L 1172 3500 
L 2356 3500 
L 2356 3053 
L 1172 3053 
L 1172 1153 
Q 1172 725 1289 603 
Q 1406 481 1766 481 
L 2356 481 
L 2356 0 
L 1766 0 
Q 1100 0 847 248 
Q 594 497 594 1153 
L 594 3053 
L 172 3053 
L 172 3500 
L 594 3500 
L 594 4494 
L 1172 4494 
z
" id="DejaVuSans-74" transform="scale(0.015625)"/>
       <path d="M 3513 2113 
L 3513 0 
L 2938 0 
L 2938 2094 
Q 2938 2591 2744 2837 
Q 2550 3084 2163 3084 
Q 1697 3084 1428 2787 
Q 1159 2491 1159 1978 
L 1159 0 
L 581 0 
L 581 3500 
L 1159 3500 
L 1159 2956 
Q 1366 3272 1645 3428 
Q 1925 3584 2291 3584 
Q 2894 3584 3203 3211 
Q 3513 2838 3513 2113 
z
" id="DejaVuSans-6e" transform="scale(0.015625)"/>
       <path d="M 2059 -325 
Q 1816 -950 1584 -1140 
Q 1353 -1331 966 -1331 
L 506 -1331 
L 506 -850 
L 844 -850 
Q 1081 -850 1212 -737 
Q 1344 -625 1503 -206 
L 1606 56 
L 191 3500 
L 800 3500 
L 1894 763 
L 2988 3500 
L 3597 3500 
L 2059 -325 
z
" id="DejaVuSans-79" transform="scale(0.015625)"/>
      </defs>
      <use xlink:href="#DejaVuSans-4c"/>
      <use x="55.712891" xlink:href="#DejaVuSans-69"/>
      <use x="83.496094" xlink:href="#DejaVuSans-66"/>
      <use x="118.701172" xlink:href="#DejaVuSans-65"/>
      <use x="180.224609" xlink:href="#DejaVuSans-20"/>
      <use x="212.011719" xlink:href="#DejaVuSans-45"/>
      <use x="275.195312" xlink:href="#DejaVuSans-78"/>
      <use x="334.375" xlink:href="#DejaVuSans-70"/>
      <use x="397.851562" xlink:href="#DejaVuSans-65"/>
      <use x="459.375" xlink:href="#DejaVuSans-63"/>
      <use x="514.355469" xlink:href="#DejaVuSans-74"/>
      <use x="553.564453" xlink:href="#DejaVuSans-61"/>
      <use x="614.84375" xlink:href="#DejaVuSans-6e"/>
      <use x="678.222656" xlink:href="#DejaVuSans-63"/>
      <use x="733.203125" xlink:href="#DejaVuSans-79"/>
     </g>
    </g>
   </g>
   <g id="LineCollection_1">
    <path clip-path="url(#pbd3d0e1455)" d="M 81.3569 266.850051 
L 101.991723 266.850051 
" style="fill:none;stroke:#1f77b4;stroke-width:1.5;"/>
    <path clip-path="url(#pbd3d0e1455)" d="M 132.943957 250.435741 
L 153.57878 250.435741 
" style="fill:none;stroke:#1f77b4;stroke-width:1.5;"/>
    <path clip-path="url(#pbd3d0e1455)" d="M 184.531014 236.352696 
L 205.165837 236.352696 
" style="fill:none;stroke:#1f77b4;stroke-width:1.5;"/>
    <path clip-path="url(#pbd3d0e1455)" d="M 236.118071 222.48947 
L 256.752894 222.48947 
" style="fill:none;stroke:#1f77b4;stroke-width:1.5;"/>
    <path clip-path="url(#pbd3d0e1455)" d="M 287.705128 209.295898 
L 308.339951 209.295898 
" style="fill:none;stroke:#1f77b4;stroke-width:1.5;"/>
    <path clip-path="url(#pbd3d0e1455)" d="M 339.292185 196.412725 
L 359.927008 196.412725 
" style="fill:none;stroke:#1f77b4;stroke-width:1.5;"/>
    <path clip-path="url(#pbd3d0e1455)" d="M 390.879242 183.259738 
L 411.514065 183.259738 
" style="fill:none;stroke:#1f77b4;stroke-width:1.5;"/>
    <path clip-path="url(#pbd3d0e1455)" d="M 442.466299 172.007123 
L 463.101122 172.007123 
" style="fill:none;stroke:#1f77b4;stroke-width:1.5;"/>
    <path clip-path="url(#pbd3d0e1455)" d="M 494.053356 165.657064 
L 514.688179 165.657064 
" style="fill:none;stroke:#1f77b4;stroke-width:1.5;"/>
    <path clip-path="url(#pbd3d0e1455)" d="M 545.640413 159.932729 
L 566.275236 159.932729 
" style="fill:none;stroke:#1f77b4;stroke-width:1.5;"/>
    <path clip-path="url(#pbd3d0e1455)" d="M 597.22747 155.374862 
L 617.862293 155.374862 
" style="fill:none;stroke:#1f77b4;stroke-width:1.5;"/>
    <path clip-path="url(#pbd3d0e1455)" d="M 648.814527 146.580697 
L 669.44935 146.580697 
" style="fill:none;stroke:#1f77b4;stroke-width:1.5;"/>
   </g>
   <g id="LineCollection_2">
    <path clip-path="url(#pbd3d0e1455)" d="M 81.3569 108.639638 
L 101.991723 108.639638 
" style="fill:none;stroke:#1f77b4;stroke-width:1.5;"/>
    <path clip-path="url(#pbd3d0e1455)" d="M 132.943957 103.279385 
L 153.57878 103.279385 
" style="fill:none;stroke:#1f77b4;stroke-width:1.5;"/>
    <path clip-path="url(#pbd3d0e1455)" d="M 184.531014 101.872319 
L 205.165837 101.872319 
" style="fill:none;stroke:#1f77b4;stroke-width:1.5;"/>
    <path clip-path="url(#pbd3d0e1455)" d="M 236.118071 98.656167 
L 256.752894 98.656167 
" style="fill:none;stroke:#1f77b4;stroke-width:1.5;"/>
    <path clip-path="url(#pbd3d0e1455)" d="M 287.705128 94.90399 
L 308.339951 94.90399 
" style="fill:none;stroke:#1f77b4;stroke-width:1.5;"/>
    <path clip-path="url(#pbd3d0e1455)" d="M 339.292185 85.590551 
L 359.927008 85.590551 
" style="fill:none;stroke:#1f77b4;stroke-width:1.5;"/>
    <path clip-path="url(#pbd3d0e1455)" d="M 390.879242 78.890234 
L 411.514065 78.890234 
" style="fill:none;stroke:#1f77b4;stroke-width:1.5;"/>
    <path clip-path="url(#pbd3d0e1455)" d="M 442.466299 68.437741 
L 463.101122 68.437741 
" style="fill:none;stroke:#1f77b4;stroke-width:1.5;"/>
    <path clip-path="url(#pbd3d0e1455)" d="M 494.053356 63.814523 
L 514.688179 63.814523 
" style="fill:none;stroke:#1f77b4;stroke-width:1.5;"/>
    <path clip-path="url(#pbd3d0e1455)" d="M 545.640413 54.903103 
L 566.275236 54.903103 
" style="fill:none;stroke:#1f77b4;stroke-width:1.5;"/>
    <path clip-path="url(#pbd3d0e1455)" d="M 597.22747 46.125688 
L 617.862293 46.125688 
" style="fill:none;stroke:#1f77b4;stroke-width:1.5;"/>
    <path clip-path="url(#pbd3d0e1455)" d="M 648.814527 42.085398 
L 669.44935 42.085398 
" style="fill:none;stroke:#1f77b4;stroke-width:1.5;"/>
   </g>
   <g id="LineCollection_3">
    <path clip-path="url(#pbd3d0e1455)" d="M 81.3569 402.575808 
L 101.991723 402.575808 
" style="fill:none;stroke:#1f77b4;stroke-width:1.5;"/>
    <path clip-path="url(#pbd3d0e1455)" d="M 132.943957 392.317624 
L 153.57878 392.317624 
" style="fill:none;stroke:#1f77b4;stroke-width:1.5;"/>
    <path clip-path="url(#pbd3d0e1455)" d="M 184.531014 381.161597 
L 205.165837 381.161597 
" style="fill:none;stroke:#1f77b4;stroke-width:1.5;"/>
    <path clip-path="url(#pbd3d0e1455)" d="M 236.118071 367.606858 
L 256.752894 367.606858 
" style="fill:none;stroke:#1f77b4;stroke-width:1.5;"/>
    <path clip-path="url(#pbd3d0e1455)" d="M 287.705128 358.360421 
L 308.339951 358.360421 
" style="fill:none;stroke:#1f77b4;stroke-width:1.5;"/>
    <path clip-path="url(#pbd3d0e1455)" d="M 339.292185 386.367743 
L 359.927008 386.367743 
" style="fill:none;stroke:#1f77b4;stroke-width:1.5;"/>
    <path clip-path="url(#pbd3d0e1455)" d="M 390.879242 337.957959 
L 411.514065 337.957959 
" style="fill:none;stroke:#1f77b4;stroke-width:1.5;"/>
    <path clip-path="url(#pbd3d0e1455)" d="M 442.466299 328.168797 
L 463.101122 328.168797 
" style="fill:none;stroke:#1f77b4;stroke-width:1.5;"/>
    <path clip-path="url(#pbd3d0e1455)" d="M 494.053356 437.430852 
L 514.688179 437.430852 
" style="fill:none;stroke:#1f77b4;stroke-width:1.5;"/>
    <path clip-path="url(#pbd3d0e1455)" d="M 545.640413 353.757304 
L 566.275236 353.757304 
" style="fill:none;stroke:#1f77b4;stroke-width:1.5;"/>
    <path clip-path="url(#pbd3d0e1455)" d="M 597.22747 332.946122 
L 617.862293 332.946122 
" style="fill:none;stroke:#1f77b4;stroke-width:1.5;"/>
    <path clip-path="url(#pbd3d0e1455)" d="M 648.814527 330.131989 
L 669.44935 330.131989 
" style="fill:none;stroke:#1f77b4;stroke-width:1.5;"/>
   </g>
   <g id="LineCollection_4">
    <path clip-path="url(#pbd3d0e1455)" d="M 91.674311 402.575808 
L 91.674311 108.639638 
" style="fill:none;stroke:#1f77b4;stroke-width:1.5;"/>
    <path clip-path="url(#pbd3d0e1455)" d="M 143.261368 392.317624 
L 143.261368 103.279385 
" style="fill:none;stroke:#1f77b4;stroke-width:1.5;"/>
    <path clip-path="url(#pbd3d0e1455)" d="M 194.848425 381.161597 
L 194.848425 101.872319 
" style="fill:none;stroke:#1f77b4;stroke-width:1.5;"/>
    <path clip-path="url(#pbd3d0e1455)" d="M 246.435482 367.606858 
L 246.435482 98.656167 
" style="fill:none;stroke:#1f77b4;stroke-width:1.5;"/>
    <path clip-path="url(#pbd3d0e1455)" d="M 298.022539 358.360421 
L 298.022539 94.90399 
" style="fill:none;stroke:#1f77b4;stroke-width:1.5;"/>
    <path clip-path="url(#pbd3d0e1455)" d="M 349.609596 386.367743 
L 349.609596 85.590551 
" style="fill:none;stroke:#1f77b4;stroke-width:1.5;"/>
    <path clip-path="url(#pbd3d0e1455)" d="M 401.196654 337.957959 
L 401.196654 78.890234 
" style="fill:none;stroke:#1f77b4;stroke-width:1.5;"/>
    <path clip-path="url(#pbd3d0e1455)" d="M 452.783711 328.168797 
L 452.783711 68.437741 
" style="fill:none;stroke:#1f77b4;stroke-width:1.5;"/>
    <path clip-path="url(#pbd3d0e1455)" d="M 504.370768 437.430852 
L 504.370768 63.814523 
" style="fill:none;stroke:#1f77b4;stroke-width:1.5;"/>
    <path clip-path="url(#pbd3d0e1455)" d="M 555.957825 353.757304 
L 555.957825 54.903103 
" style="fill:none;stroke:#1f77b4;stroke-width:1.5;"/>
    <path clip-path="url(#pbd3d0e1455)" d="M 607.544882 332.946122 
L 607.544882 46.125688 
" style="fill:none;stroke:#1f77b4;stroke-width:1.5;"/>
    <path clip-path="url(#pbd3d0e1455)" d="M 659.131939 330.131989 
L 659.131939 42.085398 
" style="fill:none;stroke:#1f77b4;stroke-width:1.5;"/>
   </g>
   <g id="patch_3">
    <path d="M 40.603125 457.198125 
L 40.603125 22.318125 
" style="fill:none;stroke:#000000;stroke-linecap:square;stroke-linejoin:miter;stroke-width:0.8;"/>
   </g>
   <g id="patch_4">
    <path d="M 710.203125 457.198125 
L 710.203125 22.318125 
" style="fill:none;stroke:#000000;stroke-linecap:square;stroke-linejoin:miter;stroke-width:0.8;"/>
   </g>
   <g id="patch_5">
    <path d="M 40.603125 457.198125 
L 710.203125 457.198125 
" style="fill:none;stroke:#000000;stroke-linecap:square;stroke-linejoin:miter;stroke-width:0.8;"/>
   </g>
   <g id="patch_6">
    <path d="M 40.603125 22.318125 
L 710.203125 22.318125 
" style="fill:none;stroke:#000000;stroke-linecap:square;stroke-linejoin:miter;stroke-width:0.8;"/>
   </g>
   <g id="text_21">
    <!-- Life Expectancy Violin Plot  -->
    <g transform="translate(294.385313 16.318125)scale(0.12 -0.12)">
     <defs>
      <path d="M 1831 0 
L 50 4666 
L 709 4666 
L 2188 738 
L 3669 4666 
L 4325 4666 
L 2547 0 
L 1831 0 
z
" id="DejaVuSans-56" transform="scale(0.015625)"/>
      <path d="M 1959 3097 
Q 1497 3097 1228 2736 
Q 959 2375 959 1747 
Q 959 1119 1226 758 
Q 1494 397 1959 397 
Q 2419 397 2687 759 
Q 2956 1122 2956 1747 
Q 2956 2369 2687 2733 
Q 2419 3097 1959 3097 
z
M 1959 3584 
Q 2709 3584 3137 3096 
Q 3566 2609 3566 1747 
Q 3566 888 3137 398 
Q 2709 -91 1959 -91 
Q 1206 -91 779 398 
Q 353 888 353 1747 
Q 353 2609 779 3096 
Q 1206 3584 1959 3584 
z
" id="DejaVuSans-6f" transform="scale(0.015625)"/>
      <path d="M 603 4863 
L 1178 4863 
L 1178 0 
L 603 0 
L 603 4863 
z
" id="DejaVuSans-6c" transform="scale(0.015625)"/>
      <path d="M 1259 4147 
L 1259 2394 
L 2053 2394 
Q 2494 2394 2734 2622 
Q 2975 2850 2975 3272 
Q 2975 3691 2734 3919 
Q 2494 4147 2053 4147 
L 1259 4147 
z
M 628 4666 
L 2053 4666 
Q 2838 4666 3239 4311 
Q 3641 3956 3641 3272 
Q 3641 2581 3239 2228 
Q 2838 1875 2053 1875 
L 1259 1875 
L 1259 0 
L 628 0 
L 628 4666 
z
" id="DejaVuSans-50" transform="scale(0.015625)"/>
     </defs>
     <use xlink:href="#DejaVuSans-4c"/>
     <use x="55.712891" xlink:href="#DejaVuSans-69"/>
     <use x="83.496094" xlink:href="#DejaVuSans-66"/>
     <use x="118.701172" xlink:href="#DejaVuSans-65"/>
     <use x="180.224609" xlink:href="#DejaVuSans-20"/>
     <use x="212.011719" xlink:href="#DejaVuSans-45"/>
     <use x="275.195312" xlink:href="#DejaVuSans-78"/>
     <use x="334.375" xlink:href="#DejaVuSans-70"/>
     <use x="397.851562" xlink:href="#DejaVuSans-65"/>
     <use x="459.375" xlink:href="#DejaVuSans-63"/>
     <use x="514.355469" xlink:href="#DejaVuSans-74"/>
     <use x="553.564453" xlink:href="#DejaVuSans-61"/>
     <use x="614.84375" xlink:href="#DejaVuSans-6e"/>
     <use x="678.222656" xlink:href="#DejaVuSans-63"/>
     <use x="733.203125" xlink:href="#DejaVuSans-79"/>
     <use x="792.382812" xlink:href="#DejaVuSans-20"/>
     <use x="824.169922" xlink:href="#DejaVuSans-56"/>
     <use x="890.328125" xlink:href="#DejaVuSans-69"/>
     <use x="918.111328" xlink:href="#DejaVuSans-6f"/>
     <use x="979.292969" xlink:href="#DejaVuSans-6c"/>
     <use x="1007.076172" xlink:href="#DejaVuSans-69"/>
     <use x="1034.859375" xlink:href="#DejaVuSans-6e"/>
     <use x="1098.238281" xlink:href="#DejaVuSans-20"/>
     <use x="1130.025391" xlink:href="#DejaVuSans-50"/>
     <use x="1190.328125" xlink:href="#DejaVuSans-6c"/>
     <use x="1218.111328" xlink:href="#DejaVuSans-6f"/>
     <use x="1279.292969" xlink:href="#DejaVuSans-74"/>
     <use x="1318.501953" xlink:href="#DejaVuSans-20"/>
    </g>
   </g>
  </g>
 </g>
 <defs>
  <clipPath id="pbd3d0e1455">
   <rect height="434.88" width="669.6" x="40.603125" y="22.318125"/>
  </clipPath>
 </defs>
</svg>
