<?xml version="1.0" encoding="utf-8" standalone="no"?>
<!DOCTYPE svg PUBLIC "-//W3C//DTD SVG 1.1//EN"
  "http://www.w3.org/Graphics/SVG/1.1/DTD/svg11.dtd">
<svg height="494.754375pt" version="1.1" viewBox="0 0 725.782813 494.754375" width="725.782813pt" xmlns="http://www.w3.org/2000/svg" xmlns:xlink="http://www.w3.org/1999/xlink">
 <metadata>
  <rdf:RDF xmlns:cc="http://creativecommons.org/ns#" xmlns:dc="http://purl.org/dc/elements/1.1/" xmlns:rdf="http://www.w3.org/1999/02/22-rdf-syntax-ns#">
   <cc:Work>
    <dc:type rdf:resource="http://purl.org/dc/dcmitype/StillImage"/>
    <dc:date>2021-07-15T20:37:50.089751</dc:date>
    <dc:format>image/svg+xml</dc:format>
    <dc:creator>
     <cc:Agent>
      <dc:title>Matplotlib v3.4.2, https://matplotlib.org/</dc:title>
     </cc:Agent>
    </dc:creator>
   </cc:Work>
  </rdf:RDF>
 </metadata>
 <defs>
  <style type="text/css">*{stroke-linecap:butt;stroke-linejoin:round;}</style>
 </defs>
 <g id="figure_1">
  <g id="patch_1">
   <path d="M 0 494.754375 
L 725.782813 494.754375 
L 725.782813 0 
L 0 0 
z
" style="fill:none;"/>
  </g>
  <g id="axes_1">
   <g id="patch_2">
    <path d="M 48.982813 457.198125 
L 718.582813 457.198125 
L 718.582813 22.318125 
L 48.982813 22.318125 
z
" style="fill:#ffffff;"/>
   </g>
   <g id="PolyCollection_1">
    <path clip-path="url(#p36f5d21a05)" d="M 105.462992 321.335192 
L 94.645006 321.335192 
L 94.073265 318.514487 
L 93.470843 315.693782 
L 92.839234 312.873077 
L 92.180281 310.052372 
L 91.496202 307.231667 
L 90.789614 304.410962 
L 90.063559 301.590257 
L 89.321527 298.769552 
L 88.567478 295.948847 
L 87.805849 293.128142 
L 87.041558 290.307437 
L 86.279986 287.486732 
L 85.526948 284.666027 
L 84.788644 281.845322 
L 84.071587 279.024617 
L 83.382515 276.203912 
L 82.728285 273.383207 
L 82.115745 270.562502 
L 81.5516 267.741797 
L 81.04226 264.921092 
L 80.593691 262.100387 
L 80.211257 259.279682 
L 79.899574 256.458977 
L 79.66237 253.638272 
L 79.502363 250.817567 
L 79.421159 247.996862 
L 79.419176 245.176157 
L 79.495602 242.355452 
L 79.64838 239.534747 
L 79.874232 236.714042 
L 80.168718 233.893337 
L 80.526333 231.072632 
L 80.940628 228.251927 
L 81.40437 225.431222 
L 81.909712 222.610517 
L 82.448387 219.789812 
L 83.011909 216.969107 
L 83.591766 214.148402 
L 84.179614 211.327697 
L 84.76745 208.506992 
L 85.34776 205.686287 
L 85.913653 202.865582 
L 86.458951 200.044877 
L 86.97826 197.224172 
L 87.467005 194.403467 
L 87.921446 191.582762 
L 88.338664 188.762057 
L 88.716527 185.941353 
L 89.053655 183.120648 
L 89.349357 180.299943 
L 89.603578 177.479238 
L 89.816838 174.658533 
L 89.990169 171.837828 
L 90.125055 169.017123 
L 90.223377 166.196418 
L 90.287357 163.375713 
L 90.319499 160.555008 
L 90.322537 157.734303 
L 90.299377 154.913598 
L 90.253039 152.092893 
L 90.186604 149.272188 
L 90.10315 146.451483 
L 90.005708 143.630778 
L 89.897206 140.810073 
L 89.780435 137.989368 
L 89.658014 135.168663 
L 89.532382 132.347958 
L 89.405789 129.527253 
L 89.280313 126.706548 
L 89.157886 123.885843 
L 89.040334 121.065138 
L 88.929426 118.244433 
L 88.826923 115.423728 
L 88.734633 112.603023 
L 88.654453 109.782318 
L 88.588403 106.961613 
L 88.538644 104.140908 
L 88.507475 101.320203 
L 88.497309 98.499498 
L 88.510624 95.678793 
L 88.549901 92.858088 
L 88.617534 90.037383 
L 88.71574 87.216678 
L 88.84645 84.395973 
L 89.011209 81.575268 
L 89.211077 78.754563 
L 89.446551 75.933858 
L 89.717491 73.113153 
L 90.023087 70.292448 
L 90.361838 67.471743 
L 90.731564 64.651038 
L 91.129445 61.830333 
L 91.552082 59.009628 
L 91.99558 56.188923 
L 92.455653 53.368218 
L 92.927733 50.547513 
L 93.407092 47.726808 
L 93.888965 44.906103 
L 94.368671 42.085398 
L 105.739327 42.085398 
L 105.739327 42.085398 
L 106.219033 44.906103 
L 106.700906 47.726808 
L 107.180265 50.547513 
L 107.652345 53.368218 
L 108.112417 56.188923 
L 108.555916 59.009628 
L 108.978552 61.830333 
L 109.376434 64.651038 
L 109.74616 67.471743 
L 110.084911 70.292448 
L 110.390507 73.113153 
L 110.661447 75.933858 
L 110.896921 78.754563 
L 111.096789 81.575268 
L 111.261548 84.395973 
L 111.392258 87.216678 
L 111.490464 90.037383 
L 111.558097 92.858088 
L 111.597374 95.678793 
L 111.610689 98.499498 
L 111.600523 101.320203 
L 111.569354 104.140908 
L 111.519595 106.961613 
L 111.453545 109.782318 
L 111.373365 112.603023 
L 111.281074 115.423728 
L 111.178572 118.244433 
L 111.067663 121.065138 
L 110.950112 123.885843 
L 110.827685 126.706548 
L 110.702209 129.527253 
L 110.575616 132.347958 
L 110.449984 135.168663 
L 110.327563 137.989368 
L 110.210792 140.810073 
L 110.10229 143.630778 
L 110.004848 146.451483 
L 109.921394 149.272188 
L 109.854959 152.092893 
L 109.808621 154.913598 
L 109.785461 157.734303 
L 109.788499 160.555008 
L 109.820641 163.375713 
L 109.884621 166.196418 
L 109.982943 169.017123 
L 110.117829 171.837828 
L 110.291159 174.658533 
L 110.50442 177.479238 
L 110.758641 180.299943 
L 111.054343 183.120648 
L 111.391471 185.941353 
L 111.769334 188.762057 
L 112.186551 191.582762 
L 112.640993 194.403467 
L 113.129738 197.224172 
L 113.649047 200.044877 
L 114.194345 202.865582 
L 114.760238 205.686287 
L 115.340548 208.506992 
L 115.928383 211.327697 
L 116.516232 214.148402 
L 117.096089 216.969107 
L 117.659611 219.789812 
L 118.198286 222.610517 
L 118.703628 225.431222 
L 119.167369 228.251927 
L 119.581665 231.072632 
L 119.93928 233.893337 
L 120.233766 236.714042 
L 120.459618 239.534747 
L 120.612396 242.355452 
L 120.688822 245.176157 
L 120.686839 247.996862 
L 120.605635 250.817567 
L 120.445628 253.638272 
L 120.208424 256.458977 
L 119.896741 259.279682 
L 119.514307 262.100387 
L 119.065738 264.921092 
L 118.556398 267.741797 
L 117.992253 270.562502 
L 117.379713 273.383207 
L 116.725482 276.203912 
L 116.036411 279.024617 
L 115.319354 281.845322 
L 114.58105 284.666027 
L 113.828012 287.486732 
L 113.06644 290.307437 
L 112.302149 293.128142 
L 111.54052 295.948847 
L 110.786471 298.769552 
L 110.044439 301.590257 
L 109.318384 304.410962 
L 108.611796 307.231667 
L 107.927717 310.052372 
L 107.268764 312.873077 
L 106.637155 315.693782 
L 106.034733 318.514487 
L 105.462992 321.335192 
z
" style="fill:#1f77b4;fill-opacity:0.3;"/>
   </g>
   <g id="PolyCollection_2">
    <path clip-path="url(#p36f5d21a05)" d="M 156.882599 321.96232 
L 146.399512 321.96232 
L 145.855294 319.188617 
L 145.282794 316.414914 
L 144.683402 313.641211 
L 144.058787 310.867508 
L 143.410899 308.093805 
L 142.741992 305.320102 
L 142.054637 302.546399 
L 141.35174 299.772697 
L 140.636564 296.998994 
L 139.912738 294.225291 
L 139.18427 291.451588 
L 138.455539 288.677885 
L 137.731283 285.904182 
L 137.016569 283.130479 
L 136.31675 280.356776 
L 135.637403 277.583073 
L 134.984253 274.80937 
L 134.363083 272.035668 
L 133.779629 269.261965 
L 133.239477 266.488262 
L 132.747936 263.714559 
L 132.309934 260.940856 
L 131.929891 258.167153 
L 131.611624 255.39345 
L 131.35824 252.619747 
L 131.172057 249.846044 
L 131.054536 247.072342 
L 131.006233 244.298639 
L 131.026767 241.524936 
L 131.114813 238.751233 
L 131.268118 235.97753 
L 131.483532 233.203827 
L 131.757069 230.430124 
L 132.083981 227.656421 
L 132.458853 224.882718 
L 132.875712 222.109016 
L 133.328152 219.335313 
L 133.809463 216.56161 
L 134.312766 213.787907 
L 134.831152 211.014204 
L 135.357809 208.240501 
L 135.886147 205.466798 
L 136.409903 202.693095 
L 136.923241 199.919392 
L 137.420819 197.14569 
L 137.897849 194.371987 
L 138.350127 191.598284 
L 138.774052 188.824581 
L 139.166622 186.050878 
L 139.525418 183.277175 
L 139.848572 180.503472 
L 140.134734 177.729769 
L 140.383028 174.956066 
L 140.593009 172.182364 
L 140.764617 169.408661 
L 140.898142 166.634958 
L 140.994183 163.861255 
L 141.053618 161.087552 
L 141.077577 158.313849 
L 141.067423 155.540146 
L 141.02473 152.766443 
L 140.951272 149.99274 
L 140.84901 147.219038 
L 140.720085 144.445335 
L 140.566814 141.671632 
L 140.391688 138.897929 
L 140.19737 136.124226 
L 139.986706 133.350523 
L 139.762729 130.57682 
L 139.528671 127.803117 
L 139.287974 125.029414 
L 139.044307 122.255712 
L 138.80157 119.482009 
L 138.5639 116.708306 
L 138.335664 113.934603 
L 138.121442 111.1609 
L 137.925987 108.387197 
L 137.754179 105.613494 
L 137.610942 102.839791 
L 137.50116 100.066088 
L 137.429557 97.292386 
L 137.400573 94.518683 
L 137.418229 91.74498 
L 137.485983 88.971277 
L 137.606593 86.197574 
L 137.781993 83.423871 
L 138.013181 80.650168 
L 138.300143 77.876465 
L 138.641799 75.102762 
L 139.035995 72.329059 
L 139.479521 69.555357 
L 139.968181 66.781654 
L 140.49689 64.007951 
L 141.059806 61.234248 
L 141.650491 58.460545 
L 142.262082 55.686842 
L 142.887486 52.913139 
L 143.519567 50.139436 
L 144.151335 47.365733 
L 159.130777 47.365733 
L 159.130777 47.365733 
L 159.762545 50.139436 
L 160.394626 52.913139 
L 161.02003 55.686842 
L 161.631621 58.460545 
L 162.222305 61.234248 
L 162.785222 64.007951 
L 163.313931 66.781654 
L 163.802591 69.555357 
L 164.246117 72.329059 
L 164.640313 75.102762 
L 164.981969 77.876465 
L 165.268931 80.650168 
L 165.500119 83.423871 
L 165.675519 86.197574 
L 165.796129 88.971277 
L 165.863883 91.74498 
L 165.881539 94.518683 
L 165.852555 97.292386 
L 165.780952 100.066088 
L 165.67117 102.839791 
L 165.527933 105.613494 
L 165.356125 108.387197 
L 165.16067 111.1609 
L 164.946448 113.934603 
L 164.718212 116.708306 
L 164.480542 119.482009 
L 164.237805 122.255712 
L 163.994138 125.029414 
L 163.753441 127.803117 
L 163.519383 130.57682 
L 163.295405 133.350523 
L 163.084742 136.124226 
L 162.890424 138.897929 
L 162.715298 141.671632 
L 162.562027 144.445335 
L 162.433102 147.219038 
L 162.33084 149.99274 
L 162.257382 152.766443 
L 162.214689 155.540146 
L 162.204535 158.313849 
L 162.228494 161.087552 
L 162.287929 163.861255 
L 162.38397 166.634958 
L 162.517494 169.408661 
L 162.689103 172.182364 
L 162.899084 174.956066 
L 163.147378 177.729769 
L 163.43354 180.503472 
L 163.756694 183.277175 
L 164.11549 186.050878 
L 164.50806 188.824581 
L 164.931985 191.598284 
L 165.384263 194.371987 
L 165.861293 197.14569 
L 166.358871 199.919392 
L 166.872209 202.693095 
L 167.395965 205.466798 
L 167.924302 208.240501 
L 168.45096 211.014204 
L 168.969346 213.787907 
L 169.472649 216.56161 
L 169.95396 219.335313 
L 170.4064 222.109016 
L 170.823259 224.882718 
L 171.198131 227.656421 
L 171.525043 230.430124 
L 171.79858 233.203827 
L 172.013994 235.97753 
L 172.167299 238.751233 
L 172.255345 241.524936 
L 172.275879 244.298639 
L 172.227576 247.072342 
L 172.110055 249.846044 
L 171.923872 252.619747 
L 171.670488 255.39345 
L 171.35222 258.167153 
L 170.972178 260.940856 
L 170.534176 263.714559 
L 170.042635 266.488262 
L 169.502483 269.261965 
L 168.919029 272.035668 
L 168.297859 274.80937 
L 167.644709 277.583073 
L 166.965362 280.356776 
L 166.265543 283.130479 
L 165.550829 285.904182 
L 164.826573 288.677885 
L 164.097841 291.451588 
L 163.369373 294.225291 
L 162.645548 296.998994 
L 161.930372 299.772697 
L 161.227475 302.546399 
L 160.540119 305.320102 
L 159.871213 308.093805 
L 159.223325 310.867508 
L 158.59871 313.641211 
L 157.999318 316.414914 
L 157.426818 319.188617 
L 156.882599 321.96232 
z
" style="fill:#1f77b4;fill-opacity:0.3;"/>
   </g>
   <g id="PolyCollection_3">
    <path clip-path="url(#p36f5d21a05)" d="M 208.395355 321.736465 
L 198.060871 321.736465 
L 197.553861 319.056316 
L 197.02254 316.376167 
L 196.468059 313.696019 
L 195.891748 311.01587 
L 195.295127 308.335721 
L 194.679913 305.655572 
L 194.048042 302.975423 
L 193.40168 300.295275 
L 192.743244 297.615126 
L 192.075419 294.934977 
L 191.401167 292.254828 
L 190.723735 289.57468 
L 190.046649 286.894531 
L 189.373702 284.214382 
L 188.70893 281.534233 
L 188.056578 278.854085 
L 187.421052 276.173936 
L 186.806866 273.493787 
L 186.218576 270.813638 
L 185.660715 268.133489 
L 185.137719 265.453341 
L 184.653853 262.773192 
L 184.213139 260.093043 
L 183.819289 257.412894 
L 183.475637 254.732746 
L 183.185079 252.052597 
L 182.950023 249.372448 
L 182.772335 246.692299 
L 182.653307 244.012151 
L 182.593614 241.332002 
L 182.59329 238.651853 
L 182.651711 235.971704 
L 182.767579 233.291555 
L 182.938921 230.611407 
L 183.163101 227.931258 
L 183.436835 225.251109 
L 183.756232 222.57096 
L 184.116838 219.890812 
L 184.513706 217.210663 
L 184.941468 214.530514 
L 185.394435 211.850365 
L 185.866694 209.170217 
L 186.352225 206.490068 
L 186.845011 203.809919 
L 187.339157 201.12977 
L 187.828993 198.449621 
L 188.309174 195.769473 
L 188.774763 193.089324 
L 189.221292 190.409175 
L 189.644803 187.729026 
L 190.041874 185.048878 
L 190.40961 182.368729 
L 190.745629 179.68858 
L 191.048019 177.008431 
L 191.315295 174.328283 
L 191.546338 171.648134 
L 191.740337 168.967985 
L 191.896736 166.287836 
L 192.015186 163.607687 
L 192.095504 160.927539 
L 192.137657 158.24739 
L 192.141748 155.567241 
L 192.108028 152.887092 
L 192.036916 150.206944 
L 191.929038 147.526795 
L 191.785272 144.846646 
L 191.606803 142.166497 
L 191.395179 139.486349 
L 191.152374 136.8062 
L 190.880842 134.126051 
L 190.583567 131.445902 
L 190.264109 128.765754 
L 189.926623 126.085605 
L 189.575882 123.405456 
L 189.217267 120.725307 
L 188.856741 118.045158 
L 188.500802 115.36501 
L 188.15641 112.684861 
L 187.830885 110.004712 
L 187.531788 107.324563 
L 187.266766 104.644415 
L 187.043386 101.964266 
L 186.868943 99.284117 
L 186.75026 96.603968 
L 186.693483 93.92382 
L 186.703874 91.243671 
L 186.785622 88.563522 
L 186.941674 85.883373 
L 187.173593 83.203224 
L 187.481464 80.523076 
L 187.863836 77.842927 
L 188.317721 75.162778 
L 188.838648 72.482629 
L 189.420767 69.802481 
L 190.057 67.122332 
L 190.739242 64.442183 
L 191.458591 61.762034 
L 192.20561 59.081886 
L 192.970592 56.401737 
L 213.485634 56.401737 
L 213.485634 56.401737 
L 214.250616 59.081886 
L 214.997635 61.762034 
L 215.716984 64.442183 
L 216.399226 67.122332 
L 217.035459 69.802481 
L 217.617578 72.482629 
L 218.138505 75.162778 
L 218.59239 77.842927 
L 218.974762 80.523076 
L 219.282633 83.203224 
L 219.514552 85.883373 
L 219.670604 88.563522 
L 219.752352 91.243671 
L 219.762743 93.92382 
L 219.705966 96.603968 
L 219.587283 99.284117 
L 219.41284 101.964266 
L 219.18946 104.644415 
L 218.924438 107.324563 
L 218.62534 110.004712 
L 218.299816 112.684861 
L 217.955424 115.36501 
L 217.599485 118.045158 
L 217.238959 120.725307 
L 216.880344 123.405456 
L 216.529603 126.085605 
L 216.192117 128.765754 
L 215.872658 131.445902 
L 215.575384 134.126051 
L 215.303852 136.8062 
L 215.061047 139.486349 
L 214.849423 142.166497 
L 214.670954 144.846646 
L 214.527188 147.526795 
L 214.41931 150.206944 
L 214.348198 152.887092 
L 214.314478 155.567241 
L 214.318568 158.24739 
L 214.360721 160.927539 
L 214.44104 163.607687 
L 214.55949 166.287836 
L 214.715889 168.967985 
L 214.909888 171.648134 
L 215.140931 174.328283 
L 215.408207 177.008431 
L 215.710597 179.68858 
L 216.046616 182.368729 
L 216.414352 185.048878 
L 216.811423 187.729026 
L 217.234934 190.409175 
L 217.681463 193.089324 
L 218.147052 195.769473 
L 218.627233 198.449621 
L 219.117069 201.12977 
L 219.611215 203.809919 
L 220.104001 206.490068 
L 220.589532 209.170217 
L 221.061791 211.850365 
L 221.514758 214.530514 
L 221.94252 217.210663 
L 222.339387 219.890812 
L 222.699994 222.57096 
L 223.019391 225.251109 
L 223.293125 227.931258 
L 223.517305 230.611407 
L 223.688647 233.291555 
L 223.804515 235.971704 
L 223.862936 238.651853 
L 223.862612 241.332002 
L 223.802919 244.012151 
L 223.68389 246.692299 
L 223.506203 249.372448 
L 223.271147 252.052597 
L 222.980589 254.732746 
L 222.636936 257.412894 
L 222.243087 260.093043 
L 221.802373 262.773192 
L 221.318507 265.453341 
L 220.795511 268.133489 
L 220.23765 270.813638 
L 219.64936 273.493787 
L 219.035174 276.173936 
L 218.399648 278.854085 
L 217.747296 281.534233 
L 217.082524 284.214382 
L 216.409577 286.894531 
L 215.732491 289.57468 
L 215.055059 292.254828 
L 214.380807 294.934977 
L 213.712982 297.615126 
L 213.054546 300.295275 
L 212.408184 302.975423 
L 211.776313 305.655572 
L 211.161099 308.335721 
L 210.564478 311.01587 
L 209.988167 313.696019 
L 209.433686 316.376167 
L 208.902365 319.056316 
L 208.395355 321.736465 
z
" style="fill:#1f77b4;fill-opacity:0.3;"/>
   </g>
   <g id="PolyCollection_4">
    <path clip-path="url(#p36f5d21a05)" d="M 260.417519 319.231747 
L 249.212821 319.231747 
L 248.715513 316.650811 
L 248.200643 314.069875 
L 247.669671 311.488938 
L 247.124108 308.908002 
L 246.565516 306.327065 
L 245.995503 303.746129 
L 245.415734 301.165193 
L 244.827939 298.584256 
L 244.233929 296.00332 
L 243.635614 293.422383 
L 243.035014 290.841447 
L 242.434276 288.260511 
L 241.835678 285.679574 
L 241.241629 283.098638 
L 240.654664 280.517702 
L 240.077424 277.936765 
L 239.512634 275.355829 
L 238.963073 272.774892 
L 238.431536 270.193956 
L 237.920795 267.61302 
L 237.433558 265.032083 
L 236.972433 262.451147 
L 236.539889 259.87021 
L 236.138229 257.289274 
L 235.769567 254.708338 
L 235.435812 252.127401 
L 235.138659 249.546465 
L 234.879585 246.965528 
L 234.659851 244.384592 
L 234.480503 241.803656 
L 234.342374 239.222719 
L 234.246081 236.641783 
L 234.192019 234.060847 
L 234.180347 231.47991 
L 234.210966 228.898974 
L 234.283492 226.318037 
L 234.397223 223.737101 
L 234.551103 221.156165 
L 234.743686 218.575228 
L 234.973108 215.994292 
L 235.23706 213.413355 
L 235.532782 210.832419 
L 235.85706 208.251483 
L 236.206253 205.670546 
L 236.576327 203.08961 
L 236.962909 200.508673 
L 237.361361 197.927737 
L 237.766858 195.346801 
L 238.174481 192.765864 
L 238.579303 190.184928 
L 238.976485 187.603991 
L 239.361352 185.023055 
L 239.729468 182.442119 
L 240.07669 179.861182 
L 240.399204 177.280246 
L 240.693554 174.69931 
L 240.956646 172.118373 
L 241.185743 169.537437 
L 241.37845 166.9565 
L 241.532701 164.375564 
L 241.646736 161.794628 
L 241.719091 159.213691 
L 241.748596 156.632755 
L 241.734384 154.051818 
L 241.675916 151.470882 
L 241.573018 148.889946 
L 241.425935 146.309009 
L 241.235398 143.728073 
L 241.002695 141.147136 
L 240.729749 138.5662 
L 240.419194 135.985264 
L 240.074443 133.404327 
L 239.699742 130.823391 
L 239.300209 128.242454 
L 238.881846 125.661518 
L 238.451523 123.080582 
L 238.016927 120.499645 
L 237.586484 117.918709 
L 237.169237 115.337773 
L 236.774688 112.756836 
L 236.412615 110.1759 
L 236.09285 107.594963 
L 235.825036 105.014027 
L 235.618368 102.433091 
L 235.481321 99.852154 
L 235.421388 97.271218 
L 235.444825 94.690281 
L 235.556423 92.109345 
L 235.759314 89.528409 
L 236.054827 86.947472 
L 236.442395 84.366536 
L 236.919529 81.785599 
L 237.481848 79.204663 
L 238.123184 76.623727 
L 238.835745 74.04279 
L 239.610335 71.461854 
L 240.436621 68.880917 
L 241.303438 66.299981 
L 242.199119 63.719045 
L 267.431221 63.719045 
L 267.431221 63.719045 
L 268.326902 66.299981 
L 269.193719 68.880917 
L 270.020005 71.461854 
L 270.794595 74.04279 
L 271.507156 76.623727 
L 272.148492 79.204663 
L 272.710811 81.785599 
L 273.187945 84.366536 
L 273.575513 86.947472 
L 273.871026 89.528409 
L 274.073917 92.109345 
L 274.185515 94.690281 
L 274.208952 97.271218 
L 274.149019 99.852154 
L 274.011972 102.433091 
L 273.805304 105.014027 
L 273.53749 107.594963 
L 273.217725 110.1759 
L 272.855652 112.756836 
L 272.461103 115.337773 
L 272.043856 117.918709 
L 271.613413 120.499645 
L 271.178817 123.080582 
L 270.748494 125.661518 
L 270.330131 128.242454 
L 269.930598 130.823391 
L 269.555897 133.404327 
L 269.211145 135.985264 
L 268.900591 138.5662 
L 268.627645 141.147136 
L 268.394942 143.728073 
L 268.204405 146.309009 
L 268.057322 148.889946 
L 267.954424 151.470882 
L 267.895955 154.051818 
L 267.881744 156.632755 
L 267.911249 159.213691 
L 267.983604 161.794628 
L 268.097639 164.375564 
L 268.251889 166.9565 
L 268.444597 169.537437 
L 268.673694 172.118373 
L 268.936786 174.69931 
L 269.231136 177.280246 
L 269.55365 179.861182 
L 269.900872 182.442119 
L 270.268988 185.023055 
L 270.653855 187.603991 
L 271.051037 190.184928 
L 271.455859 192.765864 
L 271.863482 195.346801 
L 272.268979 197.927737 
L 272.667431 200.508673 
L 273.054013 203.08961 
L 273.424086 205.670546 
L 273.77328 208.251483 
L 274.097558 210.832419 
L 274.39328 213.413355 
L 274.657232 215.994292 
L 274.886654 218.575228 
L 275.079237 221.156165 
L 275.233117 223.737101 
L 275.346848 226.318037 
L 275.419374 228.898974 
L 275.449993 231.47991 
L 275.438321 234.060847 
L 275.384259 236.641783 
L 275.287966 239.222719 
L 275.149837 241.803656 
L 274.970489 244.384592 
L 274.750755 246.965528 
L 274.491681 249.546465 
L 274.194527 252.127401 
L 273.860773 254.708338 
L 273.492111 257.289274 
L 273.090451 259.87021 
L 272.657907 262.451147 
L 272.196782 265.032083 
L 271.709545 267.61302 
L 271.198804 270.193956 
L 270.667267 272.774892 
L 270.117706 275.355829 
L 269.552916 277.936765 
L 268.975676 280.517702 
L 268.388711 283.098638 
L 267.794662 285.679574 
L 267.196064 288.260511 
L 266.595326 290.841447 
L 265.994726 293.422383 
L 265.396411 296.00332 
L 264.802401 298.584256 
L 264.214606 301.165193 
L 263.634836 303.746129 
L 263.064824 306.327065 
L 262.506232 308.908002 
L 261.960669 311.488938 
L 261.429696 314.069875 
L 260.914827 316.650811 
L 260.417519 319.231747 
z
" style="fill:#1f77b4;fill-opacity:0.3;"/>
   </g>
   <g id="PolyCollection_5">
    <path clip-path="url(#p36f5d21a05)" d="M 311.364291 320.820071 
L 301.440163 320.820071 
L 300.979344 318.291859 
L 300.502578 315.763648 
L 300.012058 313.235436 
L 299.510155 310.707224 
L 298.999377 308.179012 
L 298.482337 305.650801 
L 297.961716 303.122589 
L 297.440226 300.594377 
L 296.920571 298.066165 
L 296.40541 295.537954 
L 295.897318 293.009742 
L 295.398748 290.48153 
L 294.911996 287.953318 
L 294.439165 285.425107 
L 293.982131 282.896895 
L 293.542515 280.368683 
L 293.121655 277.840472 
L 292.720589 275.31226 
L 292.340042 272.784048 
L 291.980419 270.255836 
L 291.641812 267.727625 
L 291.324011 265.199413 
L 291.026536 262.671201 
L 290.748667 260.142989 
L 290.489494 257.614778 
L 290.24797 255.086566 
L 290.022974 252.558354 
L 289.813381 250.030143 
L 289.618127 247.501931 
L 289.436286 244.973719 
L 289.267128 242.445507 
L 289.110181 239.917296 
L 288.965283 237.389084 
L 288.83261 234.860872 
L 288.712699 232.33266 
L 288.606448 229.804449 
L 288.515098 227.276237 
L 288.440191 224.748025 
L 288.383513 222.219813 
L 288.347011 219.691602 
L 288.332704 217.16339 
L 288.342562 214.635178 
L 288.378397 212.106967 
L 288.441731 209.578755 
L 288.533673 207.050543 
L 288.654802 204.522331 
L 288.805064 201.99412 
L 288.983685 199.465908 
L 289.18911 196.937696 
L 289.418975 194.409484 
L 289.670104 191.881273 
L 289.938545 189.353061 
L 290.219633 186.824849 
L 290.508092 184.296638 
L 290.798156 181.768426 
L 291.083711 179.240214 
L 291.358459 176.712002 
L 291.61608 174.183791 
L 291.850399 171.655579 
L 292.055541 169.127367 
L 292.226081 166.599155 
L 292.357163 164.070944 
L 292.444614 161.542732 
L 292.485019 159.01452 
L 292.475793 156.486308 
L 292.415216 153.958097 
L 292.302469 151.429885 
L 292.137648 148.901673 
L 291.921773 146.373462 
L 291.656798 143.84525 
L 291.345613 141.317038 
L 290.99205 138.788826 
L 290.600891 136.260615 
L 290.177861 133.732403 
L 289.729624 131.204191 
L 289.263762 128.675979 
L 288.788728 126.147768 
L 288.313775 123.619556 
L 287.848856 121.091344 
L 287.404478 118.563133 
L 286.991521 116.034921 
L 286.621015 113.506709 
L 286.303885 110.978497 
L 286.050662 108.450286 
L 285.871179 105.922074 
L 285.774257 103.393862 
L 285.767404 100.86565 
L 285.85653 98.337439 
L 286.045708 95.809227 
L 286.336982 93.281015 
L 286.730244 90.752803 
L 287.223182 88.224592 
L 287.811303 85.69638 
L 288.488044 83.168168 
L 289.244953 80.639957 
L 290.071936 78.111745 
L 290.95757 75.583533 
L 291.889451 73.055321 
L 292.854571 70.52711 
L 319.949883 70.52711 
L 319.949883 70.52711 
L 320.915003 73.055321 
L 321.846884 75.583533 
L 322.732518 78.111745 
L 323.559501 80.639957 
L 324.31641 83.168168 
L 324.993151 85.69638 
L 325.581272 88.224592 
L 326.07421 90.752803 
L 326.467472 93.281015 
L 326.758746 95.809227 
L 326.947924 98.337439 
L 327.03705 100.86565 
L 327.030196 103.393862 
L 326.933275 105.922074 
L 326.753792 108.450286 
L 326.500569 110.978497 
L 326.183439 113.506709 
L 325.812933 116.034921 
L 325.399976 118.563133 
L 324.955598 121.091344 
L 324.490679 123.619556 
L 324.015726 126.147768 
L 323.540692 128.675979 
L 323.07483 131.204191 
L 322.626593 133.732403 
L 322.203563 136.260615 
L 321.812404 138.788826 
L 321.458841 141.317038 
L 321.147656 143.84525 
L 320.882681 146.373462 
L 320.666806 148.901673 
L 320.501985 151.429885 
L 320.389238 153.958097 
L 320.328661 156.486308 
L 320.319435 159.01452 
L 320.35984 161.542732 
L 320.447291 164.070944 
L 320.578373 166.599155 
L 320.748913 169.127367 
L 320.954055 171.655579 
L 321.188374 174.183791 
L 321.445995 176.712002 
L 321.720743 179.240214 
L 322.006298 181.768426 
L 322.296362 184.296638 
L 322.584821 186.824849 
L 322.865909 189.353061 
L 323.13435 191.881273 
L 323.385479 194.409484 
L 323.615344 196.937696 
L 323.820769 199.465908 
L 323.99939 201.99412 
L 324.149652 204.522331 
L 324.270781 207.050543 
L 324.362723 209.578755 
L 324.426057 212.106967 
L 324.461892 214.635178 
L 324.47175 217.16339 
L 324.457442 219.691602 
L 324.420941 222.219813 
L 324.364263 224.748025 
L 324.289356 227.276237 
L 324.198006 229.804449 
L 324.091755 232.33266 
L 323.971844 234.860872 
L 323.839171 237.389084 
L 323.694273 239.917296 
L 323.537326 242.445507 
L 323.368168 244.973719 
L 323.186327 247.501931 
L 322.991073 250.030143 
L 322.78148 252.558354 
L 322.556484 255.086566 
L 322.31496 257.614778 
L 322.055787 260.142989 
L 321.777918 262.671201 
L 321.480443 265.199413 
L 321.162642 267.727625 
L 320.824035 270.255836 
L 320.464412 272.784048 
L 320.083865 275.31226 
L 319.682799 277.840472 
L 319.261939 280.368683 
L 318.822323 282.896895 
L 318.365289 285.425107 
L 317.892458 287.953318 
L 317.405706 290.48153 
L 316.907136 293.009742 
L 316.399044 295.537954 
L 315.883883 298.066165 
L 315.364228 300.594377 
L 314.842738 303.122589 
L 314.322117 305.650801 
L 313.805077 308.179012 
L 313.294298 310.707224 
L 312.792396 313.235436 
L 312.301876 315.763648 
L 311.82511 318.291859 
L 311.364291 320.820071 
z
" style="fill:#1f77b4;fill-opacity:0.3;"/>
   </g>
   <g id="PolyCollection_6">
    <path clip-path="url(#p36f5d21a05)" d="M 359.050755 357.800787 
L 356.927813 357.800787 
L 356.796192 354.914433 
L 356.64879 352.02808 
L 356.483752 349.141726 
L 356.299221 346.255372 
L 356.09341 343.369019 
L 355.86468 340.482665 
L 355.611607 337.596312 
L 355.333061 334.709958 
L 355.02827 331.823604 
L 354.696875 328.937251 
L 354.338978 326.050897 
L 353.955173 323.164543 
L 353.546565 320.27819 
L 353.114772 317.391836 
L 352.661914 314.505482 
L 352.190584 311.619129 
L 351.703805 308.732775 
L 351.204974 305.846422 
L 350.697787 302.960068 
L 350.186162 300.073714 
L 349.674139 297.187361 
L 349.165787 294.301007 
L 348.665094 291.414653 
L 348.175861 288.5283 
L 347.701602 285.641946 
L 347.245448 282.755593 
L 346.81006 279.869239 
L 346.397558 276.982885 
L 346.009474 274.096532 
L 345.646711 271.210178 
L 345.309543 268.323824 
L 344.997618 265.437471 
L 344.710001 262.551117 
L 344.445224 259.664764 
L 344.201366 256.77841 
L 343.976146 253.892056 
L 343.767031 251.005703 
L 343.571359 248.119349 
L 343.386461 245.232995 
L 343.209799 242.346642 
L 343.039095 239.460288 
L 342.872459 236.573935 
L 342.7085 233.687581 
L 342.546431 230.801227 
L 342.386143 227.914874 
L 342.228249 225.02852 
L 342.074096 222.142166 
L 341.925737 219.255813 
L 341.78585 216.369459 
L 341.657623 213.483106 
L 341.544584 210.596752 
L 341.450397 207.710398 
L 341.378624 204.824045 
L 341.332471 201.937691 
L 341.31452 199.051337 
L 341.326483 196.164984 
L 341.368973 193.27863 
L 341.441329 190.392277 
L 341.541487 187.505923 
L 341.665936 184.619569 
L 341.809734 181.733216 
L 341.966617 178.846862 
L 342.129175 175.960508 
L 342.289101 173.074155 
L 342.437497 170.187801 
L 342.565225 167.301448 
L 342.663282 164.415094 
L 342.723186 161.52874 
L 342.73736 158.642387 
L 342.699486 155.756033 
L 342.604828 152.869679 
L 342.450509 149.983326 
L 342.235727 147.096972 
L 341.961908 144.210619 
L 341.632797 141.324265 
L 341.254462 138.437911 
L 340.835241 135.551558 
L 340.385598 132.665204 
L 339.917907 129.77885 
L 339.446169 126.892497 
L 338.985642 124.006143 
L 338.552425 121.11979 
L 338.162971 118.233436 
L 337.833565 115.347082 
L 337.579779 112.460729 
L 337.415913 109.574375 
L 337.354461 106.688021 
L 337.405612 103.801668 
L 337.576821 100.915314 
L 337.872473 98.02896 
L 338.29365 95.142607 
L 338.838031 92.256253 
L 339.499931 89.3699 
L 340.270471 86.483546 
L 341.137888 83.597192 
L 342.087965 80.710839 
L 343.104559 77.824485 
L 344.170204 74.938131 
L 345.26675 72.051778 
L 370.711818 72.051778 
L 370.711818 72.051778 
L 371.808364 74.938131 
L 372.874009 77.824485 
L 373.890603 80.710839 
L 374.84068 83.597192 
L 375.708097 86.483546 
L 376.478637 89.3699 
L 377.140537 92.256253 
L 377.684918 95.142607 
L 378.106095 98.02896 
L 378.401747 100.915314 
L 378.572956 103.801668 
L 378.624107 106.688021 
L 378.562655 109.574375 
L 378.398789 112.460729 
L 378.145003 115.347082 
L 377.815597 118.233436 
L 377.426143 121.11979 
L 376.992926 124.006143 
L 376.532399 126.892497 
L 376.060661 129.77885 
L 375.59297 132.665204 
L 375.143327 135.551558 
L 374.724106 138.437911 
L 374.345771 141.324265 
L 374.01666 144.210619 
L 373.742841 147.096972 
L 373.528059 149.983326 
L 373.37374 152.869679 
L 373.279082 155.756033 
L 373.241208 158.642387 
L 373.255382 161.52874 
L 373.315286 164.415094 
L 373.413343 167.301448 
L 373.541071 170.187801 
L 373.689467 173.074155 
L 373.849393 175.960508 
L 374.011951 178.846862 
L 374.168834 181.733216 
L 374.312632 184.619569 
L 374.437081 187.505923 
L 374.537239 190.392277 
L 374.609595 193.27863 
L 374.652085 196.164984 
L 374.664048 199.051337 
L 374.646097 201.937691 
L 374.599944 204.824045 
L 374.528171 207.710398 
L 374.433984 210.596752 
L 374.320945 213.483106 
L 374.192718 216.369459 
L 374.052831 219.255813 
L 373.904472 222.142166 
L 373.750319 225.02852 
L 373.592425 227.914874 
L 373.432137 230.801227 
L 373.270068 233.687581 
L 373.106109 236.573935 
L 372.939473 239.460288 
L 372.768769 242.346642 
L 372.592107 245.232995 
L 372.407209 248.119349 
L 372.211537 251.005703 
L 372.002422 253.892056 
L 371.777202 256.77841 
L 371.533344 259.664764 
L 371.268567 262.551117 
L 370.98095 265.437471 
L 370.669025 268.323824 
L 370.331857 271.210178 
L 369.969094 274.096532 
L 369.58101 276.982885 
L 369.168508 279.869239 
L 368.73312 282.755593 
L 368.276966 285.641946 
L 367.802707 288.5283 
L 367.313474 291.414653 
L 366.812781 294.301007 
L 366.304429 297.187361 
L 365.792406 300.073714 
L 365.280781 302.960068 
L 364.773594 305.846422 
L 364.274763 308.732775 
L 363.787984 311.619129 
L 363.316654 314.505482 
L 362.863796 317.391836 
L 362.432003 320.27819 
L 362.023395 323.164543 
L 361.63959 326.050897 
L 361.281693 328.937251 
L 360.950298 331.823604 
L 360.645507 334.709958 
L 360.366961 337.596312 
L 360.113888 340.482665 
L 359.885158 343.369019 
L 359.679347 346.255372 
L 359.494816 349.141726 
L 359.329778 352.02808 
L 359.182376 354.914433 
L 359.050755 357.800787 
z
" style="fill:#1f77b4;fill-opacity:0.3;"/>
   </g>
   <g id="PolyCollection_7">
    <path clip-path="url(#p36f5d21a05)" d="M 413.343151 322.18254 
L 405.809531 322.18254 
L 405.461906 319.696444 
L 405.103316 317.210347 
L 404.735493 314.724251 
L 404.360271 312.238155 
L 403.979547 309.752058 
L 403.595254 307.265962 
L 403.209326 304.779866 
L 402.823668 302.293769 
L 402.44012 299.807673 
L 402.060435 297.321577 
L 401.686254 294.83548 
L 401.319087 292.349384 
L 400.960301 289.863288 
L 400.611112 287.377192 
L 400.272588 284.891095 
L 399.945646 282.404999 
L 399.631065 279.918903 
L 399.329492 277.432806 
L 399.041449 274.94671 
L 398.767341 272.460614 
L 398.507455 269.974517 
L 398.261964 267.488421 
L 398.030911 265.002325 
L 397.814207 262.516229 
L 397.611611 260.030132 
L 397.422717 257.544036 
L 397.246942 255.05794 
L 397.083519 252.571843 
L 396.931495 250.085747 
L 396.789747 247.599651 
L 396.656998 245.113554 
L 396.531852 242.627458 
L 396.412843 240.141362 
L 396.298485 237.655266 
L 396.187336 235.169169 
L 396.078058 232.683073 
L 395.969483 230.196977 
L 395.860665 227.71088 
L 395.750927 225.224784 
L 395.639893 222.738688 
L 395.527508 220.252591 
L 395.41403 217.766495 
L 395.30002 215.280399 
L 395.1863 212.794303 
L 395.073906 210.308206 
L 394.964023 207.82211 
L 394.857916 205.336014 
L 394.756848 202.849917 
L 394.661998 200.363821 
L 394.574381 197.877725 
L 394.494771 195.391628 
L 394.423625 192.905532 
L 394.361023 190.419436 
L 394.306614 187.93334 
L 394.259578 185.447243 
L 394.218606 182.961147 
L 394.18189 180.475051 
L 394.147145 177.988954 
L 394.111643 175.502858 
L 394.072273 173.016762 
L 394.025629 170.530665 
L 393.968115 168.044569 
L 393.896073 165.558473 
L 393.805929 163.072377 
L 393.694357 160.58628 
L 393.558444 158.100184 
L 393.395859 155.614088 
L 393.205018 153.127991 
L 392.985229 150.641895 
L 392.736816 148.155799 
L 392.461217 145.669702 
L 392.161037 143.183606 
L 391.840072 140.69751 
L 391.503278 138.211413 
L 391.156708 135.725317 
L 390.807397 133.239221 
L 390.463219 130.753125 
L 390.132703 128.267028 
L 389.824827 125.780932 
L 389.548793 123.294836 
L 389.313787 120.808739 
L 389.128739 118.322643 
L 389.002081 115.836547 
L 388.941518 113.35045 
L 388.95381 110.864354 
L 389.044576 108.378258 
L 389.218123 105.892162 
L 389.477303 103.406065 
L 389.823404 100.919969 
L 390.256077 98.433873 
L 390.773308 95.947776 
L 391.371425 93.46168 
L 392.045158 90.975584 
L 392.787745 88.489487 
L 393.591079 86.003391 
L 394.445899 83.517295 
L 395.342025 81.031199 
L 396.268613 78.545102 
L 397.214443 76.059006 
L 421.938239 76.059006 
L 421.938239 76.059006 
L 422.88407 78.545102 
L 423.810657 81.031199 
L 424.706783 83.517295 
L 425.561603 86.003391 
L 426.364937 88.489487 
L 427.107524 90.975584 
L 427.781257 93.46168 
L 428.379374 95.947776 
L 428.896605 98.433873 
L 429.329278 100.919969 
L 429.675379 103.406065 
L 429.934559 105.892162 
L 430.108106 108.378258 
L 430.198872 110.864354 
L 430.211164 113.35045 
L 430.150601 115.836547 
L 430.023943 118.322643 
L 429.838895 120.808739 
L 429.603889 123.294836 
L 429.327855 125.780932 
L 429.019979 128.267028 
L 428.689463 130.753125 
L 428.345285 133.239221 
L 427.995974 135.725317 
L 427.649404 138.211413 
L 427.31261 140.69751 
L 426.991645 143.183606 
L 426.691465 145.669702 
L 426.415866 148.155799 
L 426.167453 150.641895 
L 425.947664 153.127991 
L 425.756823 155.614088 
L 425.594238 158.100184 
L 425.458325 160.58628 
L 425.346753 163.072377 
L 425.256609 165.558473 
L 425.184567 168.044569 
L 425.127053 170.530665 
L 425.080409 173.016762 
L 425.041039 175.502858 
L 425.005537 177.988954 
L 424.970792 180.475051 
L 424.934076 182.961147 
L 424.893104 185.447243 
L 424.846068 187.93334 
L 424.791659 190.419436 
L 424.729057 192.905532 
L 424.657911 195.391628 
L 424.578301 197.877725 
L 424.490684 200.363821 
L 424.395834 202.849917 
L 424.294766 205.336014 
L 424.188659 207.82211 
L 424.078776 210.308206 
L 423.966382 212.794303 
L 423.852662 215.280399 
L 423.738652 217.766495 
L 423.625174 220.252591 
L 423.512789 222.738688 
L 423.401755 225.224784 
L 423.292017 227.71088 
L 423.183199 230.196977 
L 423.074624 232.683073 
L 422.965346 235.169169 
L 422.854197 237.655266 
L 422.739839 240.141362 
L 422.62083 242.627458 
L 422.495684 245.113554 
L 422.362935 247.599651 
L 422.221187 250.085747 
L 422.069163 252.571843 
L 421.90574 255.05794 
L 421.729965 257.544036 
L 421.541071 260.030132 
L 421.338475 262.516229 
L 421.121771 265.002325 
L 420.890718 267.488421 
L 420.645227 269.974517 
L 420.385341 272.460614 
L 420.111233 274.94671 
L 419.82319 277.432806 
L 419.521617 279.918903 
L 419.207036 282.404999 
L 418.880094 284.891095 
L 418.54157 287.377192 
L 418.192381 289.863288 
L 417.833595 292.349384 
L 417.466428 294.83548 
L 417.092247 297.321577 
L 416.712563 299.807673 
L 416.329014 302.293769 
L 415.943356 304.779866 
L 415.557428 307.265962 
L 415.173135 309.752058 
L 414.792411 312.238155 
L 414.417189 314.724251 
L 414.049366 317.210347 
L 413.690776 319.696444 
L 413.343151 322.18254 
z
" style="fill:#1f77b4;fill-opacity:0.3;"/>
   </g>
   <g id="PolyCollection_8">
    <path clip-path="url(#p36f5d21a05)" d="M 464.666054 323.255255 
L 457.660742 323.255255 
L 457.35459 320.762793 
L 457.039692 318.270331 
L 456.717363 315.777869 
L 456.38902 313.285407 
L 456.056184 310.792946 
L 455.720476 308.300484 
L 455.383608 305.808022 
L 455.04737 303.31556 
L 454.713606 300.823098 
L 454.384188 298.330636 
L 454.060977 295.838175 
L 453.745784 293.345713 
L 453.440323 290.853251 
L 453.146173 288.360789 
L 452.864732 285.868327 
L 452.597187 283.375865 
L 452.34448 280.883404 
L 452.107295 278.390942 
L 451.886048 275.89848 
L 451.680889 273.406018 
L 451.49171 270.913556 
L 451.318166 268.421094 
L 451.159693 265.928633 
L 451.015539 263.436171 
L 450.884784 260.943709 
L 450.766372 258.451247 
L 450.65913 255.958785 
L 450.561793 253.466323 
L 450.473025 250.973861 
L 450.391434 248.4814 
L 450.315594 245.988938 
L 450.244059 243.496476 
L 450.175381 241.004014 
L 450.10813 238.511552 
L 450.040911 236.01909 
L 449.972385 233.526629 
L 449.901287 231.034167 
L 449.826439 228.541705 
L 449.74677 226.049243 
L 449.661321 223.556781 
L 449.569251 221.064319 
L 449.469839 218.571858 
L 449.362479 216.079396 
L 449.246665 213.586934 
L 449.121985 211.094472 
L 448.9881 208.60201 
L 448.84473 206.109548 
L 448.691635 203.617087 
L 448.5286 201.124625 
L 448.355425 198.632163 
L 448.171918 196.139701 
L 447.977892 193.647239 
L 447.773166 191.154777 
L 447.557574 188.662315 
L 447.330976 186.169854 
L 447.093276 183.677392 
L 446.84444 181.18493 
L 446.584515 178.692468 
L 446.313656 176.200006 
L 446.032144 173.707544 
L 445.740412 171.215083 
L 445.439065 168.722621 
L 445.128899 166.230159 
L 444.810928 163.737697 
L 444.486393 161.245235 
L 444.156786 158.752773 
L 443.823867 156.260312 
L 443.489676 153.76785 
L 443.156551 151.275388 
L 442.827141 148.782926 
L 442.504419 146.290464 
L 442.191691 143.798002 
L 441.892598 141.305541 
L 441.61112 138.813079 
L 441.351561 136.320617 
L 441.118534 133.828155 
L 440.916923 131.335693 
L 440.751837 128.843231 
L 440.628538 126.350769 
L 440.552356 123.858308 
L 440.528575 121.365846 
L 440.562305 118.873384 
L 440.658325 116.380922 
L 440.820921 113.88846 
L 441.053701 111.395998 
L 441.359419 108.903537 
L 441.739794 106.411075 
L 442.19535 103.918613 
L 442.72528 101.426151 
L 443.327352 98.933689 
L 443.997855 96.441227 
L 444.731602 93.948766 
L 445.521991 91.456304 
L 446.36113 88.963842 
L 447.240013 86.47138 
L 448.148753 83.978918 
L 449.076854 81.486456 
L 450.013513 78.993995 
L 450.947937 76.501533 
L 471.378859 76.501533 
L 471.378859 76.501533 
L 472.313283 78.993995 
L 473.249942 81.486456 
L 474.178043 83.978918 
L 475.086783 86.47138 
L 475.965666 88.963842 
L 476.804805 91.456304 
L 477.595194 93.948766 
L 478.328941 96.441227 
L 478.999444 98.933689 
L 479.601516 101.426151 
L 480.131446 103.918613 
L 480.587002 106.411075 
L 480.967377 108.903537 
L 481.273095 111.395998 
L 481.505875 113.88846 
L 481.668471 116.380922 
L 481.764491 118.873384 
L 481.798221 121.365846 
L 481.77444 123.858308 
L 481.698258 126.350769 
L 481.574959 128.843231 
L 481.409873 131.335693 
L 481.208262 133.828155 
L 480.975235 136.320617 
L 480.715676 138.813079 
L 480.434198 141.305541 
L 480.135105 143.798002 
L 479.822377 146.290464 
L 479.499655 148.782926 
L 479.170245 151.275388 
L 478.83712 153.76785 
L 478.502929 156.260312 
L 478.17001 158.752773 
L 477.840403 161.245235 
L 477.515868 163.737697 
L 477.197897 166.230159 
L 476.887732 168.722621 
L 476.586384 171.215083 
L 476.294652 173.707544 
L 476.01314 176.200006 
L 475.742281 178.692468 
L 475.482356 181.18493 
L 475.23352 183.677392 
L 474.99582 186.169854 
L 474.769222 188.662315 
L 474.55363 191.154777 
L 474.348904 193.647239 
L 474.154878 196.139701 
L 473.971371 198.632163 
L 473.798196 201.124625 
L 473.635161 203.617087 
L 473.482066 206.109548 
L 473.338696 208.60201 
L 473.204811 211.094472 
L 473.080131 213.586934 
L 472.964318 216.079396 
L 472.856957 218.571858 
L 472.757545 221.064319 
L 472.665475 223.556781 
L 472.580026 226.049243 
L 472.500357 228.541705 
L 472.425509 231.034167 
L 472.354411 233.526629 
L 472.285885 236.01909 
L 472.218666 238.511552 
L 472.151415 241.004014 
L 472.082737 243.496476 
L 472.011202 245.988938 
L 471.935362 248.4814 
L 471.853771 250.973861 
L 471.765003 253.466323 
L 471.667666 255.958785 
L 471.560424 258.451247 
L 471.442012 260.943709 
L 471.311257 263.436171 
L 471.167103 265.928633 
L 471.00863 268.421094 
L 470.835086 270.913556 
L 470.645907 273.406018 
L 470.440748 275.89848 
L 470.219501 278.390942 
L 469.982316 280.883404 
L 469.729609 283.375865 
L 469.462064 285.868327 
L 469.180623 288.360789 
L 468.886473 290.853251 
L 468.581012 293.345713 
L 468.265819 295.838175 
L 467.942608 298.330636 
L 467.61319 300.823098 
L 467.279426 303.31556 
L 466.943188 305.808022 
L 466.60632 308.300484 
L 466.270612 310.792946 
L 465.937776 313.285407 
L 465.609433 315.777869 
L 465.287104 318.270331 
L 464.972206 320.762793 
L 464.666054 323.255255 
z
" style="fill:#1f77b4;fill-opacity:0.3;"/>
   </g>
   <g id="PolyCollection_9">
    <path clip-path="url(#p36f5d21a05)" d="M 513.106309 437.430852 
L 512.394601 437.430852 
L 512.397136 433.845511 
L 512.405556 430.26017 
L 512.419161 426.674829 
L 512.436885 423.089488 
L 512.457343 419.504146 
L 512.478892 415.918805 
L 512.499694 412.333464 
L 512.517781 408.748123 
L 512.531103 405.162782 
L 512.537579 401.577441 
L 512.535122 397.9921 
L 512.521674 394.406758 
L 512.49523 390.821417 
L 512.453875 387.236076 
L 512.39583 383.650735 
L 512.319513 380.065394 
L 512.22361 376.480053 
L 512.107153 372.894711 
L 511.969593 369.30937 
L 511.810859 365.724029 
L 511.631383 362.138688 
L 511.432089 358.553347 
L 511.214332 354.968006 
L 510.979793 351.382664 
L 510.73034 347.797323 
L 510.467861 344.211982 
L 510.194099 340.626641 
L 509.910515 337.0413 
L 509.618194 333.455959 
L 509.317825 329.870618 
L 509.009752 326.285276 
L 508.694106 322.699935 
L 508.371001 319.114594 
L 508.040759 315.529253 
L 507.704146 311.943912 
L 507.362564 308.358571 
L 507.018181 304.773229 
L 506.673946 301.187888 
L 506.333503 297.602547 
L 506.000972 294.017206 
L 505.680649 290.431865 
L 505.376624 286.846524 
L 505.092388 283.261182 
L 504.830468 279.675841 
L 504.592136 276.0905 
L 504.377245 272.505159 
L 504.1842 268.919818 
L 504.010096 265.334477 
L 503.85099 261.749136 
L 503.702292 258.163794 
L 503.559231 254.578453 
L 503.417329 250.993112 
L 503.272841 247.407771 
L 503.123094 243.82243 
L 502.966692 240.237089 
L 502.803539 236.651747 
L 502.634689 233.066406 
L 502.462021 229.481065 
L 502.287759 225.895724 
L 502.11392 222.310383 
L 501.941711 218.725042 
L 501.770984 215.1397 
L 501.599809 211.554359 
L 501.424232 207.969018 
L 501.23827 204.383677 
L 501.034183 200.798336 
L 500.802994 197.212995 
L 500.535253 193.627654 
L 500.221961 190.042312 
L 499.855564 186.456971 
L 499.43092 182.87163 
L 498.946124 179.286289 
L 498.403094 175.700948 
L 497.807848 172.115607 
L 497.170427 168.530265 
L 496.50448 164.944924 
L 495.826535 161.359583 
L 495.155062 157.774242 
L 494.509416 154.188901 
L 493.908789 150.60356 
L 493.371269 147.018218 
L 492.913112 143.432877 
L 492.548266 139.847536 
L 492.288162 136.262195 
L 492.141737 132.676854 
L 492.115632 129.091513 
L 492.214453 125.506172 
L 492.44102 121.92083 
L 492.796509 118.335489 
L 493.28044 114.750148 
L 493.890488 111.164807 
L 494.622169 107.579466 
L 495.468442 103.994125 
L 496.419355 100.408783 
L 497.461811 96.823442 
L 498.579563 93.238101 
L 499.753499 89.65276 
L 500.962222 86.067419 
L 502.182913 82.482078 
L 523.317997 82.482078 
L 523.317997 82.482078 
L 524.538688 86.067419 
L 525.747411 89.65276 
L 526.921347 93.238101 
L 528.0391 96.823442 
L 529.081555 100.408783 
L 530.032468 103.994125 
L 530.878741 107.579466 
L 531.610422 111.164807 
L 532.22047 114.750148 
L 532.704401 118.335489 
L 533.059891 121.92083 
L 533.286457 125.506172 
L 533.385278 129.091513 
L 533.359173 132.676854 
L 533.212748 136.262195 
L 532.952644 139.847536 
L 532.587798 143.432877 
L 532.129641 147.018218 
L 531.592121 150.60356 
L 530.991494 154.188901 
L 530.345849 157.774242 
L 529.674376 161.359583 
L 528.99643 164.944924 
L 528.330483 168.530265 
L 527.693062 172.115607 
L 527.097816 175.700948 
L 526.554786 179.286289 
L 526.06999 182.87163 
L 525.645346 186.456971 
L 525.278949 190.042312 
L 524.965657 193.627654 
L 524.697917 197.212995 
L 524.466727 200.798336 
L 524.26264 204.383677 
L 524.076679 207.969018 
L 523.901101 211.554359 
L 523.729926 215.1397 
L 523.559199 218.725042 
L 523.38699 222.310383 
L 523.213151 225.895724 
L 523.03889 229.481065 
L 522.866221 233.066406 
L 522.697371 236.651747 
L 522.534218 240.237089 
L 522.377816 243.82243 
L 522.228069 247.407771 
L 522.083581 250.993112 
L 521.941679 254.578453 
L 521.798618 258.163794 
L 521.64992 261.749136 
L 521.490814 265.334477 
L 521.31671 268.919818 
L 521.123665 272.505159 
L 520.908774 276.0905 
L 520.670442 279.675841 
L 520.408522 283.261182 
L 520.124286 286.846524 
L 519.820261 290.431865 
L 519.499938 294.017206 
L 519.167407 297.602547 
L 518.826964 301.187888 
L 518.482729 304.773229 
L 518.138346 308.358571 
L 517.796764 311.943912 
L 517.460151 315.529253 
L 517.129909 319.114594 
L 516.806804 322.699935 
L 516.491158 326.285276 
L 516.183085 329.870618 
L 515.882716 333.455959 
L 515.590395 337.0413 
L 515.306811 340.626641 
L 515.033049 344.211982 
L 514.77057 347.797323 
L 514.521117 351.382664 
L 514.286578 354.968006 
L 514.068821 358.553347 
L 513.869527 362.138688 
L 513.690051 365.724029 
L 513.531317 369.30937 
L 513.393758 372.894711 
L 513.2773 376.480053 
L 513.181397 380.065394 
L 513.10508 383.650735 
L 513.047035 387.236076 
L 513.00568 390.821417 
L 512.979236 394.406758 
L 512.965788 397.9921 
L 512.963331 401.577441 
L 512.969807 405.162782 
L 512.983129 408.748123 
L 513.001216 412.333464 
L 513.022018 415.918805 
L 513.043567 419.504146 
L 513.064025 423.089488 
L 513.081749 426.674829 
L 513.095354 430.26017 
L 513.103774 433.845511 
L 513.106309 437.430852 
z
" style="fill:#1f77b4;fill-opacity:0.3;"/>
   </g>
   <g id="PolyCollection_10">
    <path clip-path="url(#p36f5d21a05)" d="M 565.957579 368.310778 
L 562.717445 368.310778 
L 562.52453 365.442878 
L 562.3191 362.574978 
L 562.101814 359.707078 
L 561.873534 356.839178 
L 561.63532 353.971278 
L 561.388408 351.103378 
L 561.134186 348.235478 
L 560.874161 345.367578 
L 560.609927 342.499678 
L 560.343124 339.631778 
L 560.075402 336.763878 
L 559.808379 333.895978 
L 559.543608 331.028078 
L 559.282544 328.160178 
L 559.026514 325.292278 
L 558.776695 322.424378 
L 558.534098 319.556478 
L 558.29955 316.688578 
L 558.073689 313.820678 
L 557.856962 310.952778 
L 557.649628 308.084878 
L 557.451765 305.216978 
L 557.263286 302.349078 
L 557.083954 299.481178 
L 556.913413 296.613278 
L 556.751206 293.745378 
L 556.596816 290.877478 
L 556.449692 288.009578 
L 556.309285 285.141678 
L 556.17508 282.273778 
L 556.046628 279.405878 
L 555.923572 276.537978 
L 555.805666 273.670078 
L 555.692798 270.802178 
L 555.585 267.934278 
L 555.48245 265.066378 
L 555.385478 262.198478 
L 555.294555 259.330578 
L 555.210279 256.462678 
L 555.133354 253.594778 
L 555.06455 250.726878 
L 555.00466 247.858978 
L 554.954437 244.991078 
L 554.914515 242.123178 
L 554.885312 239.255278 
L 554.866929 236.387378 
L 554.859029 233.519478 
L 554.860714 230.651578 
L 554.870413 227.783678 
L 554.885778 224.915778 
L 554.90361 222.047878 
L 554.919829 219.179978 
L 554.929482 216.312078 
L 554.92682 213.444178 
L 554.905434 210.576278 
L 554.858453 207.708378 
L 554.778806 204.840478 
L 554.659532 201.972578 
L 554.494122 199.104678 
L 554.276882 196.236778 
L 554.00328 193.368878 
L 553.670278 190.500978 
L 553.276593 187.633078 
L 552.822902 184.765178 
L 552.311945 181.897278 
L 551.748534 179.029378 
L 551.139465 176.161478 
L 550.493322 173.293578 
L 549.820202 170.425678 
L 549.131369 167.557778 
L 548.438859 164.689878 
L 547.755069 161.821978 
L 547.092342 158.954078 
L 546.462591 156.086178 
L 545.876966 153.218278 
L 545.345593 150.350378 
L 544.877381 147.482478 
L 544.47992 144.614578 
L 544.159438 141.746678 
L 543.920833 138.878778 
L 543.767752 136.010878 
L 543.702689 133.142978 
L 543.727112 130.275078 
L 543.841563 127.407178 
L 544.045749 124.539278 
L 544.338597 121.671378 
L 544.718265 118.803478 
L 545.182129 115.935578 
L 545.72673 113.067678 
L 546.347713 110.199778 
L 547.039758 107.331878 
L 547.796536 104.463978 
L 548.610683 101.596078 
L 549.473837 98.728178 
L 550.37671 95.860278 
L 551.309238 92.992378 
L 552.260772 90.124478 
L 553.220331 87.256578 
L 554.176884 84.388678 
L 574.49814 84.388678 
L 574.49814 84.388678 
L 575.454693 87.256578 
L 576.414252 90.124478 
L 577.365787 92.992378 
L 578.298314 95.860278 
L 579.201187 98.728178 
L 580.064341 101.596078 
L 580.878489 104.463978 
L 581.635266 107.331878 
L 582.327311 110.199778 
L 582.948294 113.067678 
L 583.492895 115.935578 
L 583.956759 118.803478 
L 584.336427 121.671378 
L 584.629275 124.539278 
L 584.833462 127.407178 
L 584.947912 130.275078 
L 584.972335 133.142978 
L 584.907272 136.010878 
L 584.754191 138.878778 
L 584.515586 141.746678 
L 584.195104 144.614578 
L 583.797643 147.482478 
L 583.329431 150.350378 
L 582.798058 153.218278 
L 582.212434 156.086178 
L 581.582682 158.954078 
L 580.919955 161.821978 
L 580.236165 164.689878 
L 579.543655 167.557778 
L 578.854822 170.425678 
L 578.181702 173.293578 
L 577.535559 176.161478 
L 576.92649 179.029378 
L 576.363079 181.897278 
L 575.852122 184.765178 
L 575.398431 187.633078 
L 575.004746 190.500978 
L 574.671744 193.368878 
L 574.398142 196.236778 
L 574.180902 199.104678 
L 574.015492 201.972578 
L 573.896218 204.840478 
L 573.816572 207.708378 
L 573.76959 210.576278 
L 573.748204 213.444178 
L 573.745542 216.312078 
L 573.755195 219.179978 
L 573.771414 222.047878 
L 573.789246 224.915778 
L 573.804611 227.783678 
L 573.81431 230.651578 
L 573.815995 233.519478 
L 573.808095 236.387378 
L 573.789712 239.255278 
L 573.760509 242.123178 
L 573.720587 244.991078 
L 573.670364 247.858978 
L 573.610474 250.726878 
L 573.54167 253.594778 
L 573.464745 256.462678 
L 573.380469 259.330578 
L 573.289546 262.198478 
L 573.192574 265.066378 
L 573.090024 267.934278 
L 572.982226 270.802178 
L 572.869358 273.670078 
L 572.751452 276.537978 
L 572.628396 279.405878 
L 572.499944 282.273778 
L 572.365739 285.141678 
L 572.225332 288.009578 
L 572.078208 290.877478 
L 571.923818 293.745378 
L 571.761611 296.613278 
L 571.59107 299.481178 
L 571.411738 302.349078 
L 571.223259 305.216978 
L 571.025396 308.084878 
L 570.818062 310.952778 
L 570.601335 313.820678 
L 570.375474 316.688578 
L 570.140926 319.556478 
L 569.898329 322.424378 
L 569.64851 325.292278 
L 569.39248 328.160178 
L 569.131416 331.028078 
L 568.866645 333.895978 
L 568.599622 336.763878 
L 568.3319 339.631778 
L 568.065097 342.499678 
L 567.800863 345.367578 
L 567.540839 348.235478 
L 567.286616 351.103378 
L 567.039704 353.971278 
L 566.80149 356.839178 
L 566.57321 359.707078 
L 566.355924 362.574978 
L 566.150494 365.442878 
L 565.957579 368.310778 
z
" style="fill:#1f77b4;fill-opacity:0.3;"/>
   </g>
   <g id="PolyCollection_11">
    <path clip-path="url(#p36f5d21a05)" d="M 619.63308 358.912182 
L 612.216058 358.912182 
L 611.895642 356.159762 
L 611.571681 353.407342 
L 611.247009 350.654922 
L 610.924525 347.902502 
L 610.60712 345.150082 
L 610.297604 342.397662 
L 609.998631 339.645242 
L 609.712627 336.892821 
L 609.441734 334.140401 
L 609.187753 331.387981 
L 608.952108 328.635561 
L 608.735817 325.883141 
L 608.539487 323.130721 
L 608.363318 320.378301 
L 608.207123 317.62588 
L 608.070363 314.87346 
L 607.952193 312.12104 
L 607.851517 309.36862 
L 607.767049 306.6162 
L 607.697375 303.86378 
L 607.641014 301.11136 
L 607.596481 298.35894 
L 607.562337 295.606519 
L 607.537232 292.854099 
L 607.519946 290.101679 
L 607.509407 287.349259 
L 607.504709 284.596839 
L 607.505116 281.844419 
L 607.510056 279.091999 
L 607.519109 276.339578 
L 607.531984 273.587158 
L 607.548497 270.834738 
L 607.568536 268.082318 
L 607.592034 265.329898 
L 607.618928 262.577478 
L 607.649124 259.825058 
L 607.682463 257.072638 
L 607.718682 254.320217 
L 607.757376 251.567797 
L 607.797967 248.815377 
L 607.839664 246.062957 
L 607.881436 243.310537 
L 607.921982 240.558117 
L 607.959701 237.805697 
L 607.992675 235.053277 
L 608.018656 232.300856 
L 608.03506 229.548436 
L 608.038972 226.796016 
L 608.027169 224.043596 
L 607.996156 221.291176 
L 607.942219 218.538756 
L 607.861501 215.786336 
L 607.750093 213.033915 
L 607.604151 210.281495 
L 607.420026 207.529075 
L 607.19441 204.776655 
L 606.924489 202.024235 
L 606.608102 199.271815 
L 606.243897 196.519395 
L 605.831464 193.766975 
L 605.371462 191.014554 
L 604.865702 188.262134 
L 604.3172 185.509714 
L 603.73019 182.757294 
L 603.110085 180.004874 
L 602.463395 177.252454 
L 601.797603 174.500034 
L 601.120998 171.747613 
L 600.442478 168.995193 
L 599.77133 166.242773 
L 599.117001 163.490353 
L 598.488865 160.737933 
L 597.896006 157.985513 
L 597.347017 155.233093 
L 596.849834 152.480673 
L 596.411598 149.728252 
L 596.038562 146.975832 
L 595.736024 144.223412 
L 595.508307 141.470992 
L 595.358751 138.718572 
L 595.289746 135.966152 
L 595.302759 133.213732 
L 595.398378 130.461312 
L 595.576356 127.708891 
L 595.83564 124.956471 
L 596.1744 122.204051 
L 596.590045 119.451631 
L 597.079227 116.699211 
L 597.637847 113.946791 
L 598.26106 111.194371 
L 598.943285 108.44195 
L 599.678231 105.68953 
L 600.458943 102.93711 
L 601.277869 100.18469 
L 602.126958 97.43227 
L 602.997783 94.67985 
L 603.881681 91.92743 
L 604.769928 89.17501 
L 605.65391 86.422589 
L 626.195228 86.422589 
L 626.195228 86.422589 
L 627.07921 89.17501 
L 627.967457 91.92743 
L 628.851355 94.67985 
L 629.72218 97.43227 
L 630.571269 100.18469 
L 631.390195 102.93711 
L 632.170907 105.68953 
L 632.905853 108.44195 
L 633.588078 111.194371 
L 634.211291 113.946791 
L 634.769911 116.699211 
L 635.259093 119.451631 
L 635.674738 122.204051 
L 636.013498 124.956471 
L 636.272782 127.708891 
L 636.45076 130.461312 
L 636.546379 133.213732 
L 636.559392 135.966152 
L 636.490387 138.718572 
L 636.340832 141.470992 
L 636.113114 144.223412 
L 635.810576 146.975832 
L 635.43754 149.728252 
L 634.999304 152.480673 
L 634.502121 155.233093 
L 633.953132 157.985513 
L 633.360273 160.737933 
L 632.732137 163.490353 
L 632.077808 166.242773 
L 631.40666 168.995193 
L 630.72814 171.747613 
L 630.051535 174.500034 
L 629.385743 177.252454 
L 628.739054 180.004874 
L 628.118948 182.757294 
L 627.531938 185.509714 
L 626.983436 188.262134 
L 626.477676 191.014554 
L 626.017674 193.766975 
L 625.605241 196.519395 
L 625.241036 199.271815 
L 624.924649 202.024235 
L 624.654728 204.776655 
L 624.429112 207.529075 
L 624.244987 210.281495 
L 624.099045 213.033915 
L 623.987637 215.786336 
L 623.906919 218.538756 
L 623.852982 221.291176 
L 623.821969 224.043596 
L 623.810167 226.796016 
L 623.814078 229.548436 
L 623.830482 232.300856 
L 623.856463 235.053277 
L 623.889438 237.805697 
L 623.927156 240.558117 
L 623.967702 243.310537 
L 624.009474 246.062957 
L 624.051171 248.815377 
L 624.091762 251.567797 
L 624.130456 254.320217 
L 624.166675 257.072638 
L 624.200014 259.825058 
L 624.230211 262.577478 
L 624.257104 265.329898 
L 624.280602 268.082318 
L 624.300642 270.834738 
L 624.317154 273.587158 
L 624.330029 276.339578 
L 624.339082 279.091999 
L 624.344022 281.844419 
L 624.344429 284.596839 
L 624.339731 287.349259 
L 624.329192 290.101679 
L 624.311906 292.854099 
L 624.286801 295.606519 
L 624.252657 298.35894 
L 624.208124 301.11136 
L 624.151764 303.86378 
L 624.082089 306.6162 
L 623.997621 309.36862 
L 623.896945 312.12104 
L 623.778775 314.87346 
L 623.642015 317.62588 
L 623.48582 320.378301 
L 623.309651 323.130721 
L 623.113321 325.883141 
L 622.89703 328.635561 
L 622.661385 331.387981 
L 622.407404 334.140401 
L 622.136511 336.892821 
L 621.850507 339.645242 
L 621.551534 342.397662 
L 621.242018 345.150082 
L 620.924613 347.902502 
L 620.602129 350.654922 
L 620.277457 353.407342 
L 619.953496 356.159762 
L 619.63308 358.912182 
z
" style="fill:#1f77b4;fill-opacity:0.3;"/>
   </g>
   <g id="PolyCollection_12">
    <path clip-path="url(#p36f5d21a05)" d="M 670.549183 366.611423 
L 664.474069 366.611423 
L 664.196275 363.847236 
L 663.914228 361.083049 
L 663.630283 358.318862 
L 663.34681 355.554676 
L 663.066132 352.790489 
L 662.79046 350.026302 
L 662.521841 347.262116 
L 662.262107 344.497929 
L 662.012841 341.733742 
L 661.775354 338.969555 
L 661.550672 336.205369 
L 661.339541 333.441182 
L 661.142432 330.676995 
L 660.959568 327.912808 
L 660.790951 325.148622 
L 660.636391 322.384435 
L 660.495544 319.620248 
L 660.367947 316.856062 
L 660.253046 314.091875 
L 660.150225 311.327688 
L 660.058833 308.563501 
L 659.978196 305.799315 
L 659.907636 303.035128 
L 659.846476 300.270941 
L 659.794049 297.506754 
L 659.749697 294.742568 
L 659.712777 291.978381 
L 659.682663 289.214194 
L 659.658746 286.450007 
L 659.640437 283.685821 
L 659.627172 280.921634 
L 659.618414 278.157447 
L 659.613655 275.393261 
L 659.612423 272.629074 
L 659.614272 269.864887 
L 659.618786 267.1007 
L 659.625567 264.336514 
L 659.634222 261.572327 
L 659.644346 258.80814 
L 659.655497 256.043953 
L 659.66717 253.279767 
L 659.678764 250.51558 
L 659.689547 247.751393 
L 659.698616 244.987206 
L 659.704861 242.22302 
L 659.706926 239.458833 
L 659.703176 236.694646 
L 659.691664 233.93046 
L 659.670114 231.166273 
L 659.635911 228.402086 
L 659.586102 225.637899 
L 659.517423 222.873713 
L 659.42634 220.109526 
L 659.309116 217.345339 
L 659.161903 214.581152 
L 658.980858 211.816966 
L 658.762287 209.052779 
L 658.502802 206.288592 
L 658.199503 203.524405 
L 657.850157 200.760219 
L 657.453384 197.996032 
L 657.008829 195.231845 
L 656.517308 192.467659 
L 655.98092 189.703472 
L 655.403118 186.939285 
L 654.788724 184.175098 
L 654.143888 181.410912 
L 653.475987 178.646725 
L 652.793472 175.882538 
L 652.105656 173.118351 
L 651.42247 170.354165 
L 650.754189 167.589978 
L 650.111142 164.825791 
L 649.503432 162.061604 
L 648.940669 159.297418 
L 648.431737 156.533231 
L 647.984603 153.769044 
L 647.606173 151.004858 
L 647.302203 148.240671 
L 647.07726 145.476484 
L 646.934717 142.712297 
L 646.876803 139.948111 
L 646.904658 137.183924 
L 647.018414 134.419737 
L 647.217277 131.65555 
L 647.499601 128.891364 
L 647.862949 126.127177 
L 648.304138 123.36299 
L 648.819274 120.598804 
L 649.403759 117.834617 
L 650.05231 115.07043 
L 650.758962 112.306243 
L 651.51709 109.542057 
L 652.319442 106.77787 
L 653.158201 104.013683 
L 654.025068 101.249496 
L 654.911382 98.48531 
L 655.808266 95.721123 
L 656.706792 92.956936 
L 678.31646 92.956936 
L 678.31646 92.956936 
L 679.214986 95.721123 
L 680.11187 98.48531 
L 680.998184 101.249496 
L 681.865051 104.013683 
L 682.70381 106.77787 
L 683.506162 109.542057 
L 684.26429 112.306243 
L 684.970942 115.07043 
L 685.619493 117.834617 
L 686.203979 120.598804 
L 686.719114 123.36299 
L 687.160304 126.127177 
L 687.523651 128.891364 
L 687.805975 131.65555 
L 688.004838 134.419737 
L 688.118594 137.183924 
L 688.146449 139.948111 
L 688.088535 142.712297 
L 687.945993 145.476484 
L 687.721049 148.240671 
L 687.41708 151.004858 
L 687.03865 153.769044 
L 686.591515 156.533231 
L 686.082583 159.297418 
L 685.51982 162.061604 
L 684.91211 164.825791 
L 684.269063 167.589978 
L 683.600782 170.354165 
L 682.917596 173.118351 
L 682.22978 175.882538 
L 681.547265 178.646725 
L 680.879365 181.410912 
L 680.234528 184.175098 
L 679.620134 186.939285 
L 679.042332 189.703472 
L 678.505944 192.467659 
L 678.014423 195.231845 
L 677.569868 197.996032 
L 677.173095 200.760219 
L 676.823749 203.524405 
L 676.52045 206.288592 
L 676.260965 209.052779 
L 676.042394 211.816966 
L 675.861349 214.581152 
L 675.714136 217.345339 
L 675.596912 220.109526 
L 675.505829 222.873713 
L 675.43715 225.637899 
L 675.387342 228.402086 
L 675.353138 231.166273 
L 675.331589 233.93046 
L 675.320076 236.694646 
L 675.316326 239.458833 
L 675.318391 242.22302 
L 675.324636 244.987206 
L 675.333705 247.751393 
L 675.344488 250.51558 
L 675.356082 253.279767 
L 675.367755 256.043953 
L 675.378906 258.80814 
L 675.38903 261.572327 
L 675.397685 264.336514 
L 675.404466 267.1007 
L 675.40898 269.864887 
L 675.41083 272.629074 
L 675.409597 275.393261 
L 675.404838 278.157447 
L 675.39608 280.921634 
L 675.382815 283.685821 
L 675.364506 286.450007 
L 675.340589 289.214194 
L 675.310475 291.978381 
L 675.273556 294.742568 
L 675.229203 297.506754 
L 675.176776 300.270941 
L 675.115616 303.035128 
L 675.045056 305.799315 
L 674.964419 308.563501 
L 674.873027 311.327688 
L 674.770207 314.091875 
L 674.655305 316.856062 
L 674.527708 319.620248 
L 674.386862 322.384435 
L 674.232301 325.148622 
L 674.063684 327.912808 
L 673.88082 330.676995 
L 673.683711 333.441182 
L 673.47258 336.205369 
L 673.247899 338.969555 
L 673.010411 341.733742 
L 672.761145 344.497929 
L 672.501411 347.262116 
L 672.232792 350.026302 
L 671.95712 352.790489 
L 671.676442 355.554676 
L 671.392969 358.318862 
L 671.109024 361.083049 
L 670.826977 363.847236 
L 670.549183 366.611423 
z
" style="fill:#1f77b4;fill-opacity:0.3;"/>
   </g>
   <g id="matplotlib.axis_1">
    <g id="xtick_1">
     <g id="line2d_1">
      <path clip-path="url(#p36f5d21a05)" d="M 100.053999 457.198125 
L 100.053999 22.318125 
" style="fill:none;stroke:#b0b0b0;stroke-linecap:square;stroke-width:0.8;"/>
     </g>
     <g id="line2d_2">
      <defs>
       <path d="M 0 0 
L 0 3.5 
" id="mdd49412a0c" style="stroke:#000000;stroke-width:0.8;"/>
      </defs>
      <g>
       <use style="stroke:#000000;stroke-width:0.8;" x="100.053999" xlink:href="#mdd49412a0c" y="457.198125"/>
      </g>
     </g>
     <g id="text_1">
      <!-- 1952 -->
      <g transform="translate(87.328999 471.796562)scale(0.1 -0.1)">
       <defs>
        <path d="M 794 531 
L 1825 531 
L 1825 4091 
L 703 3866 
L 703 4441 
L 1819 4666 
L 2450 4666 
L 2450 531 
L 3481 531 
L 3481 0 
L 794 0 
L 794 531 
z
" id="DejaVuSans-31" transform="scale(0.015625)"/>
        <path d="M 703 97 
L 703 672 
Q 941 559 1184 500 
Q 1428 441 1663 441 
Q 2288 441 2617 861 
Q 2947 1281 2994 2138 
Q 2813 1869 2534 1725 
Q 2256 1581 1919 1581 
Q 1219 1581 811 2004 
Q 403 2428 403 3163 
Q 403 3881 828 4315 
Q 1253 4750 1959 4750 
Q 2769 4750 3195 4129 
Q 3622 3509 3622 2328 
Q 3622 1225 3098 567 
Q 2575 -91 1691 -91 
Q 1453 -91 1209 -44 
Q 966 3 703 97 
z
M 1959 2075 
Q 2384 2075 2632 2365 
Q 2881 2656 2881 3163 
Q 2881 3666 2632 3958 
Q 2384 4250 1959 4250 
Q 1534 4250 1286 3958 
Q 1038 3666 1038 3163 
Q 1038 2656 1286 2365 
Q 1534 2075 1959 2075 
z
" id="DejaVuSans-39" transform="scale(0.015625)"/>
        <path d="M 691 4666 
L 3169 4666 
L 3169 4134 
L 1269 4134 
L 1269 2991 
Q 1406 3038 1543 3061 
Q 1681 3084 1819 3084 
Q 2600 3084 3056 2656 
Q 3513 2228 3513 1497 
Q 3513 744 3044 326 
Q 2575 -91 1722 -91 
Q 1428 -91 1123 -41 
Q 819 9 494 109 
L 494 744 
Q 775 591 1075 516 
Q 1375 441 1709 441 
Q 2250 441 2565 725 
Q 2881 1009 2881 1497 
Q 2881 1984 2565 2268 
Q 2250 2553 1709 2553 
Q 1456 2553 1204 2497 
Q 953 2441 691 2322 
L 691 4666 
z
" id="DejaVuSans-35" transform="scale(0.015625)"/>
        <path d="M 1228 531 
L 3431 531 
L 3431 0 
L 469 0 
L 469 531 
Q 828 903 1448 1529 
Q 2069 2156 2228 2338 
Q 2531 2678 2651 2914 
Q 2772 3150 2772 3378 
Q 2772 3750 2511 3984 
Q 2250 4219 1831 4219 
Q 1534 4219 1204 4116 
Q 875 4013 500 3803 
L 500 4441 
Q 881 4594 1212 4672 
Q 1544 4750 1819 4750 
Q 2544 4750 2975 4387 
Q 3406 4025 3406 3419 
Q 3406 3131 3298 2873 
Q 3191 2616 2906 2266 
Q 2828 2175 2409 1742 
Q 1991 1309 1228 531 
z
" id="DejaVuSans-32" transform="scale(0.015625)"/>
       </defs>
       <use xlink:href="#DejaVuSans-31"/>
       <use x="63.623047" xlink:href="#DejaVuSans-39"/>
       <use x="127.246094" xlink:href="#DejaVuSans-35"/>
       <use x="190.869141" xlink:href="#DejaVuSans-32"/>
      </g>
     </g>
    </g>
    <g id="xtick_2">
     <g id="line2d_3">
      <path clip-path="url(#p36f5d21a05)" d="M 151.641056 457.198125 
L 151.641056 22.318125 
" style="fill:none;stroke:#b0b0b0;stroke-linecap:square;stroke-width:0.8;"/>
     </g>
     <g id="line2d_4">
      <g>
       <use style="stroke:#000000;stroke-width:0.8;" x="151.641056" xlink:href="#mdd49412a0c" y="457.198125"/>
      </g>
     </g>
     <g id="text_2">
      <!-- 1957 -->
      <g transform="translate(138.916056 471.796562)scale(0.1 -0.1)">
       <defs>
        <path d="M 525 4666 
L 3525 4666 
L 3525 4397 
L 1831 0 
L 1172 0 
L 2766 4134 
L 525 4134 
L 525 4666 
z
" id="DejaVuSans-37" transform="scale(0.015625)"/>
       </defs>
       <use xlink:href="#DejaVuSans-31"/>
       <use x="63.623047" xlink:href="#DejaVuSans-39"/>
       <use x="127.246094" xlink:href="#DejaVuSans-35"/>
       <use x="190.869141" xlink:href="#DejaVuSans-37"/>
      </g>
     </g>
    </g>
    <g id="xtick_3">
     <g id="line2d_5">
      <path clip-path="url(#p36f5d21a05)" d="M 203.228113 457.198125 
L 203.228113 22.318125 
" style="fill:none;stroke:#b0b0b0;stroke-linecap:square;stroke-width:0.8;"/>
     </g>
     <g id="line2d_6">
      <g>
       <use style="stroke:#000000;stroke-width:0.8;" x="203.228113" xlink:href="#mdd49412a0c" y="457.198125"/>
      </g>
     </g>
     <g id="text_3">
      <!-- 1962 -->
      <g transform="translate(190.503113 471.796562)scale(0.1 -0.1)">
       <defs>
        <path d="M 2113 2584 
Q 1688 2584 1439 2293 
Q 1191 2003 1191 1497 
Q 1191 994 1439 701 
Q 1688 409 2113 409 
Q 2538 409 2786 701 
Q 3034 994 3034 1497 
Q 3034 2003 2786 2293 
Q 2538 2584 2113 2584 
z
M 3366 4563 
L 3366 3988 
Q 3128 4100 2886 4159 
Q 2644 4219 2406 4219 
Q 1781 4219 1451 3797 
Q 1122 3375 1075 2522 
Q 1259 2794 1537 2939 
Q 1816 3084 2150 3084 
Q 2853 3084 3261 2657 
Q 3669 2231 3669 1497 
Q 3669 778 3244 343 
Q 2819 -91 2113 -91 
Q 1303 -91 875 529 
Q 447 1150 447 2328 
Q 447 3434 972 4092 
Q 1497 4750 2381 4750 
Q 2619 4750 2861 4703 
Q 3103 4656 3366 4563 
z
" id="DejaVuSans-36" transform="scale(0.015625)"/>
       </defs>
       <use xlink:href="#DejaVuSans-31"/>
       <use x="63.623047" xlink:href="#DejaVuSans-39"/>
       <use x="127.246094" xlink:href="#DejaVuSans-36"/>
       <use x="190.869141" xlink:href="#DejaVuSans-32"/>
      </g>
     </g>
    </g>
    <g id="xtick_4">
     <g id="line2d_7">
      <path clip-path="url(#p36f5d21a05)" d="M 254.81517 457.198125 
L 254.81517 22.318125 
" style="fill:none;stroke:#b0b0b0;stroke-linecap:square;stroke-width:0.8;"/>
     </g>
     <g id="line2d_8">
      <g>
       <use style="stroke:#000000;stroke-width:0.8;" x="254.81517" xlink:href="#mdd49412a0c" y="457.198125"/>
      </g>
     </g>
     <g id="text_4">
      <!-- 1967 -->
      <g transform="translate(242.09017 471.796562)scale(0.1 -0.1)">
       <use xlink:href="#DejaVuSans-31"/>
       <use x="63.623047" xlink:href="#DejaVuSans-39"/>
       <use x="127.246094" xlink:href="#DejaVuSans-36"/>
       <use x="190.869141" xlink:href="#DejaVuSans-37"/>
      </g>
     </g>
    </g>
    <g id="xtick_5">
     <g id="line2d_9">
      <path clip-path="url(#p36f5d21a05)" d="M 306.402227 457.198125 
L 306.402227 22.318125 
" style="fill:none;stroke:#b0b0b0;stroke-linecap:square;stroke-width:0.8;"/>
     </g>
     <g id="line2d_10">
      <g>
       <use style="stroke:#000000;stroke-width:0.8;" x="306.402227" xlink:href="#mdd49412a0c" y="457.198125"/>
      </g>
     </g>
     <g id="text_5">
      <!-- 1972 -->
      <g transform="translate(293.677227 471.796562)scale(0.1 -0.1)">
       <use xlink:href="#DejaVuSans-31"/>
       <use x="63.623047" xlink:href="#DejaVuSans-39"/>
       <use x="127.246094" xlink:href="#DejaVuSans-37"/>
       <use x="190.869141" xlink:href="#DejaVuSans-32"/>
      </g>
     </g>
    </g>
    <g id="xtick_6">
     <g id="line2d_11">
      <path clip-path="url(#p36f5d21a05)" d="M 357.989284 457.198125 
L 357.989284 22.318125 
" style="fill:none;stroke:#b0b0b0;stroke-linecap:square;stroke-width:0.8;"/>
     </g>
     <g id="line2d_12">
      <g>
       <use style="stroke:#000000;stroke-width:0.8;" x="357.989284" xlink:href="#mdd49412a0c" y="457.198125"/>
      </g>
     </g>
     <g id="text_6">
      <!-- 1977 -->
      <g transform="translate(345.264284 471.796562)scale(0.1 -0.1)">
       <use xlink:href="#DejaVuSans-31"/>
       <use x="63.623047" xlink:href="#DejaVuSans-39"/>
       <use x="127.246094" xlink:href="#DejaVuSans-37"/>
       <use x="190.869141" xlink:href="#DejaVuSans-37"/>
      </g>
     </g>
    </g>
    <g id="xtick_7">
     <g id="line2d_13">
      <path clip-path="url(#p36f5d21a05)" d="M 409.576341 457.198125 
L 409.576341 22.318125 
" style="fill:none;stroke:#b0b0b0;stroke-linecap:square;stroke-width:0.8;"/>
     </g>
     <g id="line2d_14">
      <g>
       <use style="stroke:#000000;stroke-width:0.8;" x="409.576341" xlink:href="#mdd49412a0c" y="457.198125"/>
      </g>
     </g>
     <g id="text_7">
      <!-- 1982 -->
      <g transform="translate(396.851341 471.796562)scale(0.1 -0.1)">
       <defs>
        <path d="M 2034 2216 
Q 1584 2216 1326 1975 
Q 1069 1734 1069 1313 
Q 1069 891 1326 650 
Q 1584 409 2034 409 
Q 2484 409 2743 651 
Q 3003 894 3003 1313 
Q 3003 1734 2745 1975 
Q 2488 2216 2034 2216 
z
M 1403 2484 
Q 997 2584 770 2862 
Q 544 3141 544 3541 
Q 544 4100 942 4425 
Q 1341 4750 2034 4750 
Q 2731 4750 3128 4425 
Q 3525 4100 3525 3541 
Q 3525 3141 3298 2862 
Q 3072 2584 2669 2484 
Q 3125 2378 3379 2068 
Q 3634 1759 3634 1313 
Q 3634 634 3220 271 
Q 2806 -91 2034 -91 
Q 1263 -91 848 271 
Q 434 634 434 1313 
Q 434 1759 690 2068 
Q 947 2378 1403 2484 
z
M 1172 3481 
Q 1172 3119 1398 2916 
Q 1625 2713 2034 2713 
Q 2441 2713 2670 2916 
Q 2900 3119 2900 3481 
Q 2900 3844 2670 4047 
Q 2441 4250 2034 4250 
Q 1625 4250 1398 4047 
Q 1172 3844 1172 3481 
z
" id="DejaVuSans-38" transform="scale(0.015625)"/>
       </defs>
       <use xlink:href="#DejaVuSans-31"/>
       <use x="63.623047" xlink:href="#DejaVuSans-39"/>
       <use x="127.246094" xlink:href="#DejaVuSans-38"/>
       <use x="190.869141" xlink:href="#DejaVuSans-32"/>
      </g>
     </g>
    </g>
    <g id="xtick_8">
     <g id="line2d_15">
      <path clip-path="url(#p36f5d21a05)" d="M 461.163398 457.198125 
L 461.163398 22.318125 
" style="fill:none;stroke:#b0b0b0;stroke-linecap:square;stroke-width:0.8;"/>
     </g>
     <g id="line2d_16">
      <g>
       <use style="stroke:#000000;stroke-width:0.8;" x="461.163398" xlink:href="#mdd49412a0c" y="457.198125"/>
      </g>
     </g>
     <g id="text_8">
      <!-- 1987 -->
      <g transform="translate(448.438398 471.796562)scale(0.1 -0.1)">
       <use xlink:href="#DejaVuSans-31"/>
       <use x="63.623047" xlink:href="#DejaVuSans-39"/>
       <use x="127.246094" xlink:href="#DejaVuSans-38"/>
       <use x="190.869141" xlink:href="#DejaVuSans-37"/>
      </g>
     </g>
    </g>
    <g id="xtick_9">
     <g id="line2d_17">
      <path clip-path="url(#p36f5d21a05)" d="M 512.750455 457.198125 
L 512.750455 22.318125 
" style="fill:none;stroke:#b0b0b0;stroke-linecap:square;stroke-width:0.8;"/>
     </g>
     <g id="line2d_18">
      <g>
       <use style="stroke:#000000;stroke-width:0.8;" x="512.750455" xlink:href="#mdd49412a0c" y="457.198125"/>
      </g>
     </g>
     <g id="text_9">
      <!-- 1992 -->
      <g transform="translate(500.025455 471.796562)scale(0.1 -0.1)">
       <use xlink:href="#DejaVuSans-31"/>
       <use x="63.623047" xlink:href="#DejaVuSans-39"/>
       <use x="127.246094" xlink:href="#DejaVuSans-39"/>
       <use x="190.869141" xlink:href="#DejaVuSans-32"/>
      </g>
     </g>
    </g>
    <g id="xtick_10">
     <g id="line2d_19">
      <path clip-path="url(#p36f5d21a05)" d="M 564.337512 457.198125 
L 564.337512 22.318125 
" style="fill:none;stroke:#b0b0b0;stroke-linecap:square;stroke-width:0.8;"/>
     </g>
     <g id="line2d_20">
      <g>
       <use style="stroke:#000000;stroke-width:0.8;" x="564.337512" xlink:href="#mdd49412a0c" y="457.198125"/>
      </g>
     </g>
     <g id="text_10">
      <!-- 1997 -->
      <g transform="translate(551.612512 471.796562)scale(0.1 -0.1)">
       <use xlink:href="#DejaVuSans-31"/>
       <use x="63.623047" xlink:href="#DejaVuSans-39"/>
       <use x="127.246094" xlink:href="#DejaVuSans-39"/>
       <use x="190.869141" xlink:href="#DejaVuSans-37"/>
      </g>
     </g>
    </g>
    <g id="xtick_11">
     <g id="line2d_21">
      <path clip-path="url(#p36f5d21a05)" d="M 615.924569 457.198125 
L 615.924569 22.318125 
" style="fill:none;stroke:#b0b0b0;stroke-linecap:square;stroke-width:0.8;"/>
     </g>
     <g id="line2d_22">
      <g>
       <use style="stroke:#000000;stroke-width:0.8;" x="615.924569" xlink:href="#mdd49412a0c" y="457.198125"/>
      </g>
     </g>
     <g id="text_11">
      <!-- 2002 -->
      <g transform="translate(603.199569 471.796562)scale(0.1 -0.1)">
       <defs>
        <path d="M 2034 4250 
Q 1547 4250 1301 3770 
Q 1056 3291 1056 2328 
Q 1056 1369 1301 889 
Q 1547 409 2034 409 
Q 2525 409 2770 889 
Q 3016 1369 3016 2328 
Q 3016 3291 2770 3770 
Q 2525 4250 2034 4250 
z
M 2034 4750 
Q 2819 4750 3233 4129 
Q 3647 3509 3647 2328 
Q 3647 1150 3233 529 
Q 2819 -91 2034 -91 
Q 1250 -91 836 529 
Q 422 1150 422 2328 
Q 422 3509 836 4129 
Q 1250 4750 2034 4750 
z
" id="DejaVuSans-30" transform="scale(0.015625)"/>
       </defs>
       <use xlink:href="#DejaVuSans-32"/>
       <use x="63.623047" xlink:href="#DejaVuSans-30"/>
       <use x="127.246094" xlink:href="#DejaVuSans-30"/>
       <use x="190.869141" xlink:href="#DejaVuSans-32"/>
      </g>
     </g>
    </g>
    <g id="xtick_12">
     <g id="line2d_23">
      <path clip-path="url(#p36f5d21a05)" d="M 667.511626 457.198125 
L 667.511626 22.318125 
" style="fill:none;stroke:#b0b0b0;stroke-linecap:square;stroke-width:0.8;"/>
     </g>
     <g id="line2d_24">
      <g>
       <use style="stroke:#000000;stroke-width:0.8;" x="667.511626" xlink:href="#mdd49412a0c" y="457.198125"/>
      </g>
     </g>
     <g id="text_12">
      <!-- 2007 -->
      <g transform="translate(654.786626 471.796562)scale(0.1 -0.1)">
       <use xlink:href="#DejaVuSans-32"/>
       <use x="63.623047" xlink:href="#DejaVuSans-30"/>
       <use x="127.246094" xlink:href="#DejaVuSans-30"/>
       <use x="190.869141" xlink:href="#DejaVuSans-37"/>
      </g>
     </g>
    </g>
    <g id="text_13">
     <!-- Year -->
     <g transform="translate(373.195313 485.474687)scale(0.1 -0.1)">
      <defs>
       <path d="M -13 4666 
L 666 4666 
L 1959 2747 
L 3244 4666 
L 3922 4666 
L 2272 2222 
L 2272 0 
L 1638 0 
L 1638 2222 
L -13 4666 
z
" id="DejaVuSans-59" transform="scale(0.015625)"/>
       <path d="M 3597 1894 
L 3597 1613 
L 953 1613 
Q 991 1019 1311 708 
Q 1631 397 2203 397 
Q 2534 397 2845 478 
Q 3156 559 3463 722 
L 3463 178 
Q 3153 47 2828 -22 
Q 2503 -91 2169 -91 
Q 1331 -91 842 396 
Q 353 884 353 1716 
Q 353 2575 817 3079 
Q 1281 3584 2069 3584 
Q 2775 3584 3186 3129 
Q 3597 2675 3597 1894 
z
M 3022 2063 
Q 3016 2534 2758 2815 
Q 2500 3097 2075 3097 
Q 1594 3097 1305 2825 
Q 1016 2553 972 2059 
L 3022 2063 
z
" id="DejaVuSans-65" transform="scale(0.015625)"/>
       <path d="M 2194 1759 
Q 1497 1759 1228 1600 
Q 959 1441 959 1056 
Q 959 750 1161 570 
Q 1363 391 1709 391 
Q 2188 391 2477 730 
Q 2766 1069 2766 1631 
L 2766 1759 
L 2194 1759 
z
M 3341 1997 
L 3341 0 
L 2766 0 
L 2766 531 
Q 2569 213 2275 61 
Q 1981 -91 1556 -91 
Q 1019 -91 701 211 
Q 384 513 384 1019 
Q 384 1609 779 1909 
Q 1175 2209 1959 2209 
L 2766 2209 
L 2766 2266 
Q 2766 2663 2505 2880 
Q 2244 3097 1772 3097 
Q 1472 3097 1187 3025 
Q 903 2953 641 2809 
L 641 3341 
Q 956 3463 1253 3523 
Q 1550 3584 1831 3584 
Q 2591 3584 2966 3190 
Q 3341 2797 3341 1997 
z
" id="DejaVuSans-61" transform="scale(0.015625)"/>
       <path d="M 2631 2963 
Q 2534 3019 2420 3045 
Q 2306 3072 2169 3072 
Q 1681 3072 1420 2755 
Q 1159 2438 1159 1844 
L 1159 0 
L 581 0 
L 581 3500 
L 1159 3500 
L 1159 2956 
Q 1341 3275 1631 3429 
Q 1922 3584 2338 3584 
Q 2397 3584 2469 3576 
Q 2541 3569 2628 3553 
L 2631 2963 
z
" id="DejaVuSans-72" transform="scale(0.015625)"/>
      </defs>
      <use xlink:href="#DejaVuSans-59"/>
      <use x="47.833984" xlink:href="#DejaVuSans-65"/>
      <use x="109.357422" xlink:href="#DejaVuSans-61"/>
      <use x="170.636719" xlink:href="#DejaVuSans-72"/>
     </g>
    </g>
   </g>
   <g id="matplotlib.axis_2">
    <g id="ytick_1">
     <g id="line2d_25">
      <path clip-path="url(#p36f5d21a05)" d="M 48.982813 437.753985 
L 718.582813 437.753985 
" style="fill:none;stroke:#b0b0b0;stroke-linecap:square;stroke-width:0.8;"/>
     </g>
     <g id="line2d_26">
      <defs>
       <path d="M 0 0 
L -3.5 0 
" id="m5e73b9c92d" style="stroke:#000000;stroke-width:0.8;"/>
      </defs>
      <g>
       <use style="stroke:#000000;stroke-width:0.8;" x="48.982813" xlink:href="#m5e73b9c92d" y="437.753985"/>
      </g>
     </g>
     <g id="text_14">
      <!-- 40 -->
      <g transform="translate(20.878125 441.553203)scale(0.1 -0.1)">
       <defs>
        <path d="M 678 2272 
L 4684 2272 
L 4684 1741 
L 678 1741 
L 678 2272 
z
" id="DejaVuSans-2212" transform="scale(0.015625)"/>
        <path d="M 2419 4116 
L 825 1625 
L 2419 1625 
L 2419 4116 
z
M 2253 4666 
L 3047 4666 
L 3047 1625 
L 3713 1625 
L 3713 1100 
L 3047 1100 
L 3047 0 
L 2419 0 
L 2419 1100 
L 313 1100 
L 313 1709 
L 2253 4666 
z
" id="DejaVuSans-34" transform="scale(0.015625)"/>
       </defs>
       <use xlink:href="#DejaVuSans-2212"/>
       <use x="83.789062" xlink:href="#DejaVuSans-34"/>
       <use x="147.412109" xlink:href="#DejaVuSans-30"/>
      </g>
     </g>
    </g>
    <g id="ytick_2">
     <g id="line2d_27">
      <path clip-path="url(#p36f5d21a05)" d="M 48.982813 374.098603 
L 718.582813 374.098603 
" style="fill:none;stroke:#b0b0b0;stroke-linecap:square;stroke-width:0.8;"/>
     </g>
     <g id="line2d_28">
      <g>
       <use style="stroke:#000000;stroke-width:0.8;" x="48.982813" xlink:href="#m5e73b9c92d" y="374.098603"/>
      </g>
     </g>
     <g id="text_15">
      <!-- 30 -->
      <g transform="translate(20.878125 377.897822)scale(0.1 -0.1)">
       <defs>
        <path d="M 2597 2516 
Q 3050 2419 3304 2112 
Q 3559 1806 3559 1356 
Q 3559 666 3084 287 
Q 2609 -91 1734 -91 
Q 1441 -91 1130 -33 
Q 819 25 488 141 
L 488 750 
Q 750 597 1062 519 
Q 1375 441 1716 441 
Q 2309 441 2620 675 
Q 2931 909 2931 1356 
Q 2931 1769 2642 2001 
Q 2353 2234 1838 2234 
L 1294 2234 
L 1294 2753 
L 1863 2753 
Q 2328 2753 2575 2939 
Q 2822 3125 2822 3475 
Q 2822 3834 2567 4026 
Q 2313 4219 1838 4219 
Q 1578 4219 1281 4162 
Q 984 4106 628 3988 
L 628 4550 
Q 988 4650 1302 4700 
Q 1616 4750 1894 4750 
Q 2613 4750 3031 4423 
Q 3450 4097 3450 3541 
Q 3450 3153 3228 2886 
Q 3006 2619 2597 2516 
z
" id="DejaVuSans-33" transform="scale(0.015625)"/>
       </defs>
       <use xlink:href="#DejaVuSans-2212"/>
       <use x="83.789062" xlink:href="#DejaVuSans-33"/>
       <use x="147.412109" xlink:href="#DejaVuSans-30"/>
      </g>
     </g>
    </g>
    <g id="ytick_3">
     <g id="line2d_29">
      <path clip-path="url(#p36f5d21a05)" d="M 48.982813 310.443221 
L 718.582813 310.443221 
" style="fill:none;stroke:#b0b0b0;stroke-linecap:square;stroke-width:0.8;"/>
     </g>
     <g id="line2d_30">
      <g>
       <use style="stroke:#000000;stroke-width:0.8;" x="48.982813" xlink:href="#m5e73b9c92d" y="310.443221"/>
      </g>
     </g>
     <g id="text_16">
      <!-- 20 -->
      <g transform="translate(20.878125 314.24244)scale(0.1 -0.1)">
       <use xlink:href="#DejaVuSans-2212"/>
       <use x="83.789062" xlink:href="#DejaVuSans-32"/>
       <use x="147.412109" xlink:href="#DejaVuSans-30"/>
      </g>
     </g>
    </g>
    <g id="ytick_4">
     <g id="line2d_31">
      <path clip-path="url(#p36f5d21a05)" d="M 48.982813 246.787839 
L 718.582813 246.787839 
" style="fill:none;stroke:#b0b0b0;stroke-linecap:square;stroke-width:0.8;"/>
     </g>
     <g id="line2d_32">
      <g>
       <use style="stroke:#000000;stroke-width:0.8;" x="48.982813" xlink:href="#m5e73b9c92d" y="246.787839"/>
      </g>
     </g>
     <g id="text_17">
      <!-- 10 -->
      <g transform="translate(20.878125 250.587058)scale(0.1 -0.1)">
       <use xlink:href="#DejaVuSans-2212"/>
       <use x="83.789062" xlink:href="#DejaVuSans-31"/>
       <use x="147.412109" xlink:href="#DejaVuSans-30"/>
      </g>
     </g>
    </g>
    <g id="ytick_5">
     <g id="line2d_33">
      <path clip-path="url(#p36f5d21a05)" d="M 48.982813 183.132457 
L 718.582813 183.132457 
" style="fill:none;stroke:#b0b0b0;stroke-linecap:square;stroke-width:0.8;"/>
     </g>
     <g id="line2d_34">
      <g>
       <use style="stroke:#000000;stroke-width:0.8;" x="48.982813" xlink:href="#m5e73b9c92d" y="183.132457"/>
      </g>
     </g>
     <g id="text_18">
      <!-- 0 -->
      <g transform="translate(35.620312 186.931676)scale(0.1 -0.1)">
       <use xlink:href="#DejaVuSans-30"/>
      </g>
     </g>
    </g>
    <g id="ytick_6">
     <g id="line2d_35">
      <path clip-path="url(#p36f5d21a05)" d="M 48.982813 119.477076 
L 718.582813 119.477076 
" style="fill:none;stroke:#b0b0b0;stroke-linecap:square;stroke-width:0.8;"/>
     </g>
     <g id="line2d_36">
      <g>
       <use style="stroke:#000000;stroke-width:0.8;" x="48.982813" xlink:href="#m5e73b9c92d" y="119.477076"/>
      </g>
     </g>
     <g id="text_19">
      <!-- 10 -->
      <g transform="translate(29.257812 123.276294)scale(0.1 -0.1)">
       <use xlink:href="#DejaVuSans-31"/>
       <use x="63.623047" xlink:href="#DejaVuSans-30"/>
      </g>
     </g>
    </g>
    <g id="ytick_7">
     <g id="line2d_37">
      <path clip-path="url(#p36f5d21a05)" d="M 48.982813 55.821694 
L 718.582813 55.821694 
" style="fill:none;stroke:#b0b0b0;stroke-linecap:square;stroke-width:0.8;"/>
     </g>
     <g id="line2d_38">
      <g>
       <use style="stroke:#000000;stroke-width:0.8;" x="48.982813" xlink:href="#m5e73b9c92d" y="55.821694"/>
      </g>
     </g>
     <g id="text_20">
      <!-- 20 -->
      <g transform="translate(29.257812 59.620912)scale(0.1 -0.1)">
       <use xlink:href="#DejaVuSans-32"/>
       <use x="63.623047" xlink:href="#DejaVuSans-30"/>
      </g>
     </g>
    </g>
    <g id="text_21">
     <!-- Residuals -->
     <g transform="translate(14.798437 263.478437)rotate(-90)scale(0.1 -0.1)">
      <defs>
       <path d="M 2841 2188 
Q 3044 2119 3236 1894 
Q 3428 1669 3622 1275 
L 4263 0 
L 3584 0 
L 2988 1197 
Q 2756 1666 2539 1819 
Q 2322 1972 1947 1972 
L 1259 1972 
L 1259 0 
L 628 0 
L 628 4666 
L 2053 4666 
Q 2853 4666 3247 4331 
Q 3641 3997 3641 3322 
Q 3641 2881 3436 2590 
Q 3231 2300 2841 2188 
z
M 1259 4147 
L 1259 2491 
L 2053 2491 
Q 2509 2491 2742 2702 
Q 2975 2913 2975 3322 
Q 2975 3731 2742 3939 
Q 2509 4147 2053 4147 
L 1259 4147 
z
" id="DejaVuSans-52" transform="scale(0.015625)"/>
       <path d="M 2834 3397 
L 2834 2853 
Q 2591 2978 2328 3040 
Q 2066 3103 1784 3103 
Q 1356 3103 1142 2972 
Q 928 2841 928 2578 
Q 928 2378 1081 2264 
Q 1234 2150 1697 2047 
L 1894 2003 
Q 2506 1872 2764 1633 
Q 3022 1394 3022 966 
Q 3022 478 2636 193 
Q 2250 -91 1575 -91 
Q 1294 -91 989 -36 
Q 684 19 347 128 
L 347 722 
Q 666 556 975 473 
Q 1284 391 1588 391 
Q 1994 391 2212 530 
Q 2431 669 2431 922 
Q 2431 1156 2273 1281 
Q 2116 1406 1581 1522 
L 1381 1569 
Q 847 1681 609 1914 
Q 372 2147 372 2553 
Q 372 3047 722 3315 
Q 1072 3584 1716 3584 
Q 2034 3584 2315 3537 
Q 2597 3491 2834 3397 
z
" id="DejaVuSans-73" transform="scale(0.015625)"/>
       <path d="M 603 3500 
L 1178 3500 
L 1178 0 
L 603 0 
L 603 3500 
z
M 603 4863 
L 1178 4863 
L 1178 4134 
L 603 4134 
L 603 4863 
z
" id="DejaVuSans-69" transform="scale(0.015625)"/>
       <path d="M 2906 2969 
L 2906 4863 
L 3481 4863 
L 3481 0 
L 2906 0 
L 2906 525 
Q 2725 213 2448 61 
Q 2172 -91 1784 -91 
Q 1150 -91 751 415 
Q 353 922 353 1747 
Q 353 2572 751 3078 
Q 1150 3584 1784 3584 
Q 2172 3584 2448 3432 
Q 2725 3281 2906 2969 
z
M 947 1747 
Q 947 1113 1208 752 
Q 1469 391 1925 391 
Q 2381 391 2643 752 
Q 2906 1113 2906 1747 
Q 2906 2381 2643 2742 
Q 2381 3103 1925 3103 
Q 1469 3103 1208 2742 
Q 947 2381 947 1747 
z
" id="DejaVuSans-64" transform="scale(0.015625)"/>
       <path d="M 544 1381 
L 544 3500 
L 1119 3500 
L 1119 1403 
Q 1119 906 1312 657 
Q 1506 409 1894 409 
Q 2359 409 2629 706 
Q 2900 1003 2900 1516 
L 2900 3500 
L 3475 3500 
L 3475 0 
L 2900 0 
L 2900 538 
Q 2691 219 2414 64 
Q 2138 -91 1772 -91 
Q 1169 -91 856 284 
Q 544 659 544 1381 
z
M 1991 3584 
L 1991 3584 
z
" id="DejaVuSans-75" transform="scale(0.015625)"/>
       <path d="M 603 4863 
L 1178 4863 
L 1178 0 
L 603 0 
L 603 4863 
z
" id="DejaVuSans-6c" transform="scale(0.015625)"/>
      </defs>
      <use xlink:href="#DejaVuSans-52"/>
      <use x="64.982422" xlink:href="#DejaVuSans-65"/>
      <use x="126.505859" xlink:href="#DejaVuSans-73"/>
      <use x="178.605469" xlink:href="#DejaVuSans-69"/>
      <use x="206.388672" xlink:href="#DejaVuSans-64"/>
      <use x="269.865234" xlink:href="#DejaVuSans-75"/>
      <use x="333.244141" xlink:href="#DejaVuSans-61"/>
      <use x="394.523438" xlink:href="#DejaVuSans-6c"/>
      <use x="422.306641" xlink:href="#DejaVuSans-73"/>
     </g>
    </g>
   </g>
   <g id="LineCollection_1">
    <path clip-path="url(#p36f5d21a05)" d="M 89.736588 192.390906 
L 110.37141 192.390906 
" style="fill:none;stroke:#1f77b4;stroke-width:1.5;"/>
    <path clip-path="url(#p36f5d21a05)" d="M 141.323645 187.169495 
L 161.958467 187.169495 
" style="fill:none;stroke:#1f77b4;stroke-width:1.5;"/>
    <path clip-path="url(#p36f5d21a05)" d="M 192.910702 184.162869 
L 213.545524 184.162869 
" style="fill:none;stroke:#1f77b4;stroke-width:1.5;"/>
    <path clip-path="url(#p36f5d21a05)" d="M 244.497759 181.365078 
L 265.132581 181.365078 
" style="fill:none;stroke:#1f77b4;stroke-width:1.5;"/>
    <path clip-path="url(#p36f5d21a05)" d="M 296.084816 179.203483 
L 316.719638 179.203483 
" style="fill:none;stroke:#1f77b4;stroke-width:1.5;"/>
    <path clip-path="url(#p36f5d21a05)" d="M 347.671873 177.336777 
L 368.306695 177.336777 
" style="fill:none;stroke:#1f77b4;stroke-width:1.5;"/>
    <path clip-path="url(#p36f5d21a05)" d="M 399.25893 175.213739 
L 419.893752 175.213739 
" style="fill:none;stroke:#1f77b4;stroke-width:1.5;"/>
    <path clip-path="url(#p36f5d21a05)" d="M 450.845987 174.896122 
L 471.480809 174.896122 
" style="fill:none;stroke:#1f77b4;stroke-width:1.5;"/>
    <path clip-path="url(#p36f5d21a05)" d="M 502.433044 179.236106 
L 523.067866 179.236106 
" style="fill:none;stroke:#1f77b4;stroke-width:1.5;"/>
    <path clip-path="url(#p36f5d21a05)" d="M 554.020101 184.170551 
L 574.654923 184.170551 
" style="fill:none;stroke:#1f77b4;stroke-width:1.5;"/>
    <path clip-path="url(#p36f5d21a05)" d="M 605.607158 190.213183 
L 626.24198 190.213183 
" style="fill:none;stroke:#1f77b4;stroke-width:1.5;"/>
    <path clip-path="url(#p36f5d21a05)" d="M 657.194215 192.23118 
L 677.829037 192.23118 
" style="fill:none;stroke:#1f77b4;stroke-width:1.5;"/>
   </g>
   <g id="LineCollection_2">
    <path clip-path="url(#p36f5d21a05)" d="M 89.736588 42.085398 
L 110.37141 42.085398 
" style="fill:none;stroke:#1f77b4;stroke-width:1.5;"/>
    <path clip-path="url(#p36f5d21a05)" d="M 141.323645 47.365733 
L 161.958467 47.365733 
" style="fill:none;stroke:#1f77b4;stroke-width:1.5;"/>
    <path clip-path="url(#p36f5d21a05)" d="M 192.910702 56.401737 
L 213.545524 56.401737 
" style="fill:none;stroke:#1f77b4;stroke-width:1.5;"/>
    <path clip-path="url(#p36f5d21a05)" d="M 244.497759 63.719045 
L 265.132581 63.719045 
" style="fill:none;stroke:#1f77b4;stroke-width:1.5;"/>
    <path clip-path="url(#p36f5d21a05)" d="M 296.084816 70.52711 
L 316.719638 70.52711 
" style="fill:none;stroke:#1f77b4;stroke-width:1.5;"/>
    <path clip-path="url(#p36f5d21a05)" d="M 347.671873 72.051778 
L 368.306695 72.051778 
" style="fill:none;stroke:#1f77b4;stroke-width:1.5;"/>
    <path clip-path="url(#p36f5d21a05)" d="M 399.25893 76.059006 
L 419.893752 76.059006 
" style="fill:none;stroke:#1f77b4;stroke-width:1.5;"/>
    <path clip-path="url(#p36f5d21a05)" d="M 450.845987 76.501533 
L 471.480809 76.501533 
" style="fill:none;stroke:#1f77b4;stroke-width:1.5;"/>
    <path clip-path="url(#p36f5d21a05)" d="M 502.433044 82.482078 
L 523.067866 82.482078 
" style="fill:none;stroke:#1f77b4;stroke-width:1.5;"/>
    <path clip-path="url(#p36f5d21a05)" d="M 554.020101 84.388678 
L 574.654923 84.388678 
" style="fill:none;stroke:#1f77b4;stroke-width:1.5;"/>
    <path clip-path="url(#p36f5d21a05)" d="M 605.607158 86.422589 
L 626.24198 86.422589 
" style="fill:none;stroke:#1f77b4;stroke-width:1.5;"/>
    <path clip-path="url(#p36f5d21a05)" d="M 657.194215 92.956936 
L 677.829037 92.956936 
" style="fill:none;stroke:#1f77b4;stroke-width:1.5;"/>
   </g>
   <g id="LineCollection_3">
    <path clip-path="url(#p36f5d21a05)" d="M 89.736588 321.335192 
L 110.37141 321.335192 
" style="fill:none;stroke:#1f77b4;stroke-width:1.5;"/>
    <path clip-path="url(#p36f5d21a05)" d="M 141.323645 321.96232 
L 161.958467 321.96232 
" style="fill:none;stroke:#1f77b4;stroke-width:1.5;"/>
    <path clip-path="url(#p36f5d21a05)" d="M 192.910702 321.736465 
L 213.545524 321.736465 
" style="fill:none;stroke:#1f77b4;stroke-width:1.5;"/>
    <path clip-path="url(#p36f5d21a05)" d="M 244.497759 319.231747 
L 265.132581 319.231747 
" style="fill:none;stroke:#1f77b4;stroke-width:1.5;"/>
    <path clip-path="url(#p36f5d21a05)" d="M 296.084816 320.820071 
L 316.719638 320.820071 
" style="fill:none;stroke:#1f77b4;stroke-width:1.5;"/>
    <path clip-path="url(#p36f5d21a05)" d="M 347.671873 357.800787 
L 368.306695 357.800787 
" style="fill:none;stroke:#1f77b4;stroke-width:1.5;"/>
    <path clip-path="url(#p36f5d21a05)" d="M 399.25893 322.18254 
L 419.893752 322.18254 
" style="fill:none;stroke:#1f77b4;stroke-width:1.5;"/>
    <path clip-path="url(#p36f5d21a05)" d="M 450.845987 323.255255 
L 471.480809 323.255255 
" style="fill:none;stroke:#1f77b4;stroke-width:1.5;"/>
    <path clip-path="url(#p36f5d21a05)" d="M 502.433044 437.430852 
L 523.067866 437.430852 
" style="fill:none;stroke:#1f77b4;stroke-width:1.5;"/>
    <path clip-path="url(#p36f5d21a05)" d="M 554.020101 368.310778 
L 574.654923 368.310778 
" style="fill:none;stroke:#1f77b4;stroke-width:1.5;"/>
    <path clip-path="url(#p36f5d21a05)" d="M 605.607158 358.912182 
L 626.24198 358.912182 
" style="fill:none;stroke:#1f77b4;stroke-width:1.5;"/>
    <path clip-path="url(#p36f5d21a05)" d="M 657.194215 366.611423 
L 677.829037 366.611423 
" style="fill:none;stroke:#1f77b4;stroke-width:1.5;"/>
   </g>
   <g id="LineCollection_4">
    <path clip-path="url(#p36f5d21a05)" d="M 100.053999 321.335192 
L 100.053999 42.085398 
" style="fill:none;stroke:#1f77b4;stroke-width:1.5;"/>
    <path clip-path="url(#p36f5d21a05)" d="M 151.641056 321.96232 
L 151.641056 47.365733 
" style="fill:none;stroke:#1f77b4;stroke-width:1.5;"/>
    <path clip-path="url(#p36f5d21a05)" d="M 203.228113 321.736465 
L 203.228113 56.401737 
" style="fill:none;stroke:#1f77b4;stroke-width:1.5;"/>
    <path clip-path="url(#p36f5d21a05)" d="M 254.81517 319.231747 
L 254.81517 63.719045 
" style="fill:none;stroke:#1f77b4;stroke-width:1.5;"/>
    <path clip-path="url(#p36f5d21a05)" d="M 306.402227 320.820071 
L 306.402227 70.52711 
" style="fill:none;stroke:#1f77b4;stroke-width:1.5;"/>
    <path clip-path="url(#p36f5d21a05)" d="M 357.989284 357.800787 
L 357.989284 72.051778 
" style="fill:none;stroke:#1f77b4;stroke-width:1.5;"/>
    <path clip-path="url(#p36f5d21a05)" d="M 409.576341 322.18254 
L 409.576341 76.059006 
" style="fill:none;stroke:#1f77b4;stroke-width:1.5;"/>
    <path clip-path="url(#p36f5d21a05)" d="M 461.163398 323.255255 
L 461.163398 76.501533 
" style="fill:none;stroke:#1f77b4;stroke-width:1.5;"/>
    <path clip-path="url(#p36f5d21a05)" d="M 512.750455 437.430852 
L 512.750455 82.482078 
" style="fill:none;stroke:#1f77b4;stroke-width:1.5;"/>
    <path clip-path="url(#p36f5d21a05)" d="M 564.337512 368.310778 
L 564.337512 84.388678 
" style="fill:none;stroke:#1f77b4;stroke-width:1.5;"/>
    <path clip-path="url(#p36f5d21a05)" d="M 615.924569 358.912182 
L 615.924569 86.422589 
" style="fill:none;stroke:#1f77b4;stroke-width:1.5;"/>
    <path clip-path="url(#p36f5d21a05)" d="M 667.511626 366.611423 
L 667.511626 92.956936 
" style="fill:none;stroke:#1f77b4;stroke-width:1.5;"/>
   </g>
   <g id="patch_3">
    <path d="M 48.982813 457.198125 
L 48.982813 22.318125 
" style="fill:none;stroke:#000000;stroke-linecap:square;stroke-linejoin:miter;stroke-width:0.8;"/>
   </g>
   <g id="patch_4">
    <path d="M 718.582813 457.198125 
L 718.582813 22.318125 
" style="fill:none;stroke:#000000;stroke-linecap:square;stroke-linejoin:miter;stroke-width:0.8;"/>
   </g>
   <g id="patch_5">
    <path d="M 48.982812 457.198125 
L 718.582813 457.198125 
" style="fill:none;stroke:#000000;stroke-linecap:square;stroke-linejoin:miter;stroke-width:0.8;"/>
   </g>
   <g id="patch_6">
    <path d="M 48.982812 22.318125 
L 718.582813 22.318125 
" style="fill:none;stroke:#000000;stroke-linecap:square;stroke-linejoin:miter;stroke-width:0.8;"/>
   </g>
   <g id="text_22">
    <!-- Violin Plot of Residuals  -->
    <g transform="translate(314.155625 16.318125)scale(0.12 -0.12)">
     <defs>
      <path d="M 1831 0 
L 50 4666 
L 709 4666 
L 2188 738 
L 3669 4666 
L 4325 4666 
L 2547 0 
L 1831 0 
z
" id="DejaVuSans-56" transform="scale(0.015625)"/>
      <path d="M 1959 3097 
Q 1497 3097 1228 2736 
Q 959 2375 959 1747 
Q 959 1119 1226 758 
Q 1494 397 1959 397 
Q 2419 397 2687 759 
Q 2956 1122 2956 1747 
Q 2956 2369 2687 2733 
Q 2419 3097 1959 3097 
z
M 1959 3584 
Q 2709 3584 3137 3096 
Q 3566 2609 3566 1747 
Q 3566 888 3137 398 
Q 2709 -91 1959 -91 
Q 1206 -91 779 398 
Q 353 888 353 1747 
Q 353 2609 779 3096 
Q 1206 3584 1959 3584 
z
" id="DejaVuSans-6f" transform="scale(0.015625)"/>
      <path d="M 3513 2113 
L 3513 0 
L 2938 0 
L 2938 2094 
Q 2938 2591 2744 2837 
Q 2550 3084 2163 3084 
Q 1697 3084 1428 2787 
Q 1159 2491 1159 1978 
L 1159 0 
L 581 0 
L 581 3500 
L 1159 3500 
L 1159 2956 
Q 1366 3272 1645 3428 
Q 1925 3584 2291 3584 
Q 2894 3584 3203 3211 
Q 3513 2838 3513 2113 
z
" id="DejaVuSans-6e" transform="scale(0.015625)"/>
      <path id="DejaVuSans-20" transform="scale(0.015625)"/>
      <path d="M 1259 4147 
L 1259 2394 
L 2053 2394 
Q 2494 2394 2734 2622 
Q 2975 2850 2975 3272 
Q 2975 3691 2734 3919 
Q 2494 4147 2053 4147 
L 1259 4147 
z
M 628 4666 
L 2053 4666 
Q 2838 4666 3239 4311 
Q 3641 3956 3641 3272 
Q 3641 2581 3239 2228 
Q 2838 1875 2053 1875 
L 1259 1875 
L 1259 0 
L 628 0 
L 628 4666 
z
" id="DejaVuSans-50" transform="scale(0.015625)"/>
      <path d="M 1172 4494 
L 1172 3500 
L 2356 3500 
L 2356 3053 
L 1172 3053 
L 1172 1153 
Q 1172 725 1289 603 
Q 1406 481 1766 481 
L 2356 481 
L 2356 0 
L 1766 0 
Q 1100 0 847 248 
Q 594 497 594 1153 
L 594 3053 
L 172 3053 
L 172 3500 
L 594 3500 
L 594 4494 
L 1172 4494 
z
" id="DejaVuSans-74" transform="scale(0.015625)"/>
      <path d="M 2375 4863 
L 2375 4384 
L 1825 4384 
Q 1516 4384 1395 4259 
Q 1275 4134 1275 3809 
L 1275 3500 
L 2222 3500 
L 2222 3053 
L 1275 3053 
L 1275 0 
L 697 0 
L 697 3053 
L 147 3053 
L 147 3500 
L 697 3500 
L 697 3744 
Q 697 4328 969 4595 
Q 1241 4863 1831 4863 
L 2375 4863 
z
" id="DejaVuSans-66" transform="scale(0.015625)"/>
     </defs>
     <use xlink:href="#DejaVuSans-56"/>
     <use x="66.158203" xlink:href="#DejaVuSans-69"/>
     <use x="93.941406" xlink:href="#DejaVuSans-6f"/>
     <use x="155.123047" xlink:href="#DejaVuSans-6c"/>
     <use x="182.90625" xlink:href="#DejaVuSans-69"/>
     <use x="210.689453" xlink:href="#DejaVuSans-6e"/>
     <use x="274.068359" xlink:href="#DejaVuSans-20"/>
     <use x="305.855469" xlink:href="#DejaVuSans-50"/>
     <use x="366.158203" xlink:href="#DejaVuSans-6c"/>
     <use x="393.941406" xlink:href="#DejaVuSans-6f"/>
     <use x="455.123047" xlink:href="#DejaVuSans-74"/>
     <use x="494.332031" xlink:href="#DejaVuSans-20"/>
     <use x="526.119141" xlink:href="#DejaVuSans-6f"/>
     <use x="587.300781" xlink:href="#DejaVuSans-66"/>
     <use x="622.505859" xlink:href="#DejaVuSans-20"/>
     <use x="654.292969" xlink:href="#DejaVuSans-52"/>
     <use x="719.275391" xlink:href="#DejaVuSans-65"/>
     <use x="780.798828" xlink:href="#DejaVuSans-73"/>
     <use x="832.898438" xlink:href="#DejaVuSans-69"/>
     <use x="860.681641" xlink:href="#DejaVuSans-64"/>
     <use x="924.158203" xlink:href="#DejaVuSans-75"/>
     <use x="987.537109" xlink:href="#DejaVuSans-61"/>
     <use x="1048.816406" xlink:href="#DejaVuSans-6c"/>
     <use x="1076.599609" xlink:href="#DejaVuSans-73"/>
     <use x="1128.699219" xlink:href="#DejaVuSans-20"/>
    </g>
   </g>
  </g>
 </g>
 <defs>
  <clipPath id="p36f5d21a05">
   <rect height="434.88" width="669.6" x="48.982813" y="22.318125"/>
  </clipPath>
 </defs>
</svg>
