<?xml version="1.0" encoding="utf-8" standalone="no"?>
<!DOCTYPE svg PUBLIC "-//W3C//DTD SVG 1.1//EN"
  "http://www.w3.org/Graphics/SVG/1.1/DTD/svg11.dtd">
<svg height="592.155469pt" version="1.1" viewBox="0 0 915.696875 592.155469" width="915.696875pt" xmlns="http://www.w3.org/2000/svg" xmlns:xlink="http://www.w3.org/1999/xlink">
 <metadata>
  <rdf:RDF xmlns:cc="http://creativecommons.org/ns#" xmlns:dc="http://purl.org/dc/elements/1.1/" xmlns:rdf="http://www.w3.org/1999/02/22-rdf-syntax-ns#">
   <cc:Work>
    <dc:type rdf:resource="http://purl.org/dc/dcmitype/StillImage"/>
    <dc:date>2021-07-06T17:41:46.181431</dc:date>
    <dc:format>image/svg+xml</dc:format>
    <dc:creator>
     <cc:Agent>
      <dc:title>Matplotlib v3.4.2, https://matplotlib.org/</dc:title>
     </cc:Agent>
    </dc:creator>
   </cc:Work>
  </rdf:RDF>
 </metadata>
 <defs>
  <style type="text/css">*{stroke-linecap:butt;stroke-linejoin:round;}</style>
 </defs>
 <g id="figure_1">
  <g id="patch_1">
   <path d="M 0 592.155469 
L 915.696875 592.155469 
L 915.696875 0 
L 0 0 
z
" style="fill:none;"/>
  </g>
  <g id="axes_1">
   <g id="patch_2">
    <path d="M 71.496875 554.599219 
L 908.496875 554.599219 
L 908.496875 10.999219 
L 71.496875 10.999219 
z
" style="fill:#ffffff;"/>
   </g>
   <g id="matplotlib.axis_1">
    <g id="xtick_1">
     <g id="line2d_1">
      <path clip-path="url(#pd8d1aab86a)" d="M 109.54233 554.599219 
L 109.54233 10.999219 
" style="fill:none;stroke:#b0b0b0;stroke-linecap:square;stroke-width:0.8;"/>
     </g>
     <g id="line2d_2">
      <defs>
       <path d="M 0 0 
L 0 3.5 
" id="m176ace0a05" style="stroke:#000000;stroke-width:0.8;"/>
      </defs>
      <g>
       <use style="stroke:#000000;stroke-width:0.8;" x="109.54233" xlink:href="#m176ace0a05" y="554.599219"/>
      </g>
     </g>
     <g id="text_1">
      <!-- 1990 -->
      <g transform="translate(96.81733 569.197656)scale(0.1 -0.1)">
       <defs>
        <path d="M 794 531 
L 1825 531 
L 1825 4091 
L 703 3866 
L 703 4441 
L 1819 4666 
L 2450 4666 
L 2450 531 
L 3481 531 
L 3481 0 
L 794 0 
L 794 531 
z
" id="DejaVuSans-31" transform="scale(0.015625)"/>
        <path d="M 703 97 
L 703 672 
Q 941 559 1184 500 
Q 1428 441 1663 441 
Q 2288 441 2617 861 
Q 2947 1281 2994 2138 
Q 2813 1869 2534 1725 
Q 2256 1581 1919 1581 
Q 1219 1581 811 2004 
Q 403 2428 403 3163 
Q 403 3881 828 4315 
Q 1253 4750 1959 4750 
Q 2769 4750 3195 4129 
Q 3622 3509 3622 2328 
Q 3622 1225 3098 567 
Q 2575 -91 1691 -91 
Q 1453 -91 1209 -44 
Q 966 3 703 97 
z
M 1959 2075 
Q 2384 2075 2632 2365 
Q 2881 2656 2881 3163 
Q 2881 3666 2632 3958 
Q 2384 4250 1959 4250 
Q 1534 4250 1286 3958 
Q 1038 3666 1038 3163 
Q 1038 2656 1286 2365 
Q 1534 2075 1959 2075 
z
" id="DejaVuSans-39" transform="scale(0.015625)"/>
        <path d="M 2034 4250 
Q 1547 4250 1301 3770 
Q 1056 3291 1056 2328 
Q 1056 1369 1301 889 
Q 1547 409 2034 409 
Q 2525 409 2770 889 
Q 3016 1369 3016 2328 
Q 3016 3291 2770 3770 
Q 2525 4250 2034 4250 
z
M 2034 4750 
Q 2819 4750 3233 4129 
Q 3647 3509 3647 2328 
Q 3647 1150 3233 529 
Q 2819 -91 2034 -91 
Q 1250 -91 836 529 
Q 422 1150 422 2328 
Q 422 3509 836 4129 
Q 1250 4750 2034 4750 
z
" id="DejaVuSans-30" transform="scale(0.015625)"/>
       </defs>
       <use xlink:href="#DejaVuSans-31"/>
       <use x="63.623047" xlink:href="#DejaVuSans-39"/>
       <use x="127.246094" xlink:href="#DejaVuSans-39"/>
       <use x="190.869141" xlink:href="#DejaVuSans-30"/>
      </g>
     </g>
    </g>
    <g id="xtick_2">
     <g id="line2d_3">
      <path clip-path="url(#pd8d1aab86a)" d="M 141.246875 554.599219 
L 141.246875 10.999219 
" style="fill:none;stroke:#b0b0b0;stroke-linecap:square;stroke-width:0.8;"/>
     </g>
     <g id="line2d_4">
      <g>
       <use style="stroke:#000000;stroke-width:0.8;" x="141.246875" xlink:href="#m176ace0a05" y="554.599219"/>
      </g>
     </g>
     <g id="text_2">
      <!-- 1991 -->
      <g transform="translate(128.521875 569.197656)scale(0.1 -0.1)">
       <use xlink:href="#DejaVuSans-31"/>
       <use x="63.623047" xlink:href="#DejaVuSans-39"/>
       <use x="127.246094" xlink:href="#DejaVuSans-39"/>
       <use x="190.869141" xlink:href="#DejaVuSans-31"/>
      </g>
     </g>
    </g>
    <g id="xtick_3">
     <g id="line2d_5">
      <path clip-path="url(#pd8d1aab86a)" d="M 172.95142 554.599219 
L 172.95142 10.999219 
" style="fill:none;stroke:#b0b0b0;stroke-linecap:square;stroke-width:0.8;"/>
     </g>
     <g id="line2d_6">
      <g>
       <use style="stroke:#000000;stroke-width:0.8;" x="172.95142" xlink:href="#m176ace0a05" y="554.599219"/>
      </g>
     </g>
     <g id="text_3">
      <!-- 1992 -->
      <g transform="translate(160.22642 569.197656)scale(0.1 -0.1)">
       <defs>
        <path d="M 1228 531 
L 3431 531 
L 3431 0 
L 469 0 
L 469 531 
Q 828 903 1448 1529 
Q 2069 2156 2228 2338 
Q 2531 2678 2651 2914 
Q 2772 3150 2772 3378 
Q 2772 3750 2511 3984 
Q 2250 4219 1831 4219 
Q 1534 4219 1204 4116 
Q 875 4013 500 3803 
L 500 4441 
Q 881 4594 1212 4672 
Q 1544 4750 1819 4750 
Q 2544 4750 2975 4387 
Q 3406 4025 3406 3419 
Q 3406 3131 3298 2873 
Q 3191 2616 2906 2266 
Q 2828 2175 2409 1742 
Q 1991 1309 1228 531 
z
" id="DejaVuSans-32" transform="scale(0.015625)"/>
       </defs>
       <use xlink:href="#DejaVuSans-31"/>
       <use x="63.623047" xlink:href="#DejaVuSans-39"/>
       <use x="127.246094" xlink:href="#DejaVuSans-39"/>
       <use x="190.869141" xlink:href="#DejaVuSans-32"/>
      </g>
     </g>
    </g>
    <g id="xtick_4">
     <g id="line2d_7">
      <path clip-path="url(#pd8d1aab86a)" d="M 204.655966 554.599219 
L 204.655966 10.999219 
" style="fill:none;stroke:#b0b0b0;stroke-linecap:square;stroke-width:0.8;"/>
     </g>
     <g id="line2d_8">
      <g>
       <use style="stroke:#000000;stroke-width:0.8;" x="204.655966" xlink:href="#m176ace0a05" y="554.599219"/>
      </g>
     </g>
     <g id="text_4">
      <!-- 1993 -->
      <g transform="translate(191.930966 569.197656)scale(0.1 -0.1)">
       <defs>
        <path d="M 2597 2516 
Q 3050 2419 3304 2112 
Q 3559 1806 3559 1356 
Q 3559 666 3084 287 
Q 2609 -91 1734 -91 
Q 1441 -91 1130 -33 
Q 819 25 488 141 
L 488 750 
Q 750 597 1062 519 
Q 1375 441 1716 441 
Q 2309 441 2620 675 
Q 2931 909 2931 1356 
Q 2931 1769 2642 2001 
Q 2353 2234 1838 2234 
L 1294 2234 
L 1294 2753 
L 1863 2753 
Q 2328 2753 2575 2939 
Q 2822 3125 2822 3475 
Q 2822 3834 2567 4026 
Q 2313 4219 1838 4219 
Q 1578 4219 1281 4162 
Q 984 4106 628 3988 
L 628 4550 
Q 988 4650 1302 4700 
Q 1616 4750 1894 4750 
Q 2613 4750 3031 4423 
Q 3450 4097 3450 3541 
Q 3450 3153 3228 2886 
Q 3006 2619 2597 2516 
z
" id="DejaVuSans-33" transform="scale(0.015625)"/>
       </defs>
       <use xlink:href="#DejaVuSans-31"/>
       <use x="63.623047" xlink:href="#DejaVuSans-39"/>
       <use x="127.246094" xlink:href="#DejaVuSans-39"/>
       <use x="190.869141" xlink:href="#DejaVuSans-33"/>
      </g>
     </g>
    </g>
    <g id="xtick_5">
     <g id="line2d_9">
      <path clip-path="url(#pd8d1aab86a)" d="M 236.360511 554.599219 
L 236.360511 10.999219 
" style="fill:none;stroke:#b0b0b0;stroke-linecap:square;stroke-width:0.8;"/>
     </g>
     <g id="line2d_10">
      <g>
       <use style="stroke:#000000;stroke-width:0.8;" x="236.360511" xlink:href="#m176ace0a05" y="554.599219"/>
      </g>
     </g>
     <g id="text_5">
      <!-- 1994 -->
      <g transform="translate(223.635511 569.197656)scale(0.1 -0.1)">
       <defs>
        <path d="M 2419 4116 
L 825 1625 
L 2419 1625 
L 2419 4116 
z
M 2253 4666 
L 3047 4666 
L 3047 1625 
L 3713 1625 
L 3713 1100 
L 3047 1100 
L 3047 0 
L 2419 0 
L 2419 1100 
L 313 1100 
L 313 1709 
L 2253 4666 
z
" id="DejaVuSans-34" transform="scale(0.015625)"/>
       </defs>
       <use xlink:href="#DejaVuSans-31"/>
       <use x="63.623047" xlink:href="#DejaVuSans-39"/>
       <use x="127.246094" xlink:href="#DejaVuSans-39"/>
       <use x="190.869141" xlink:href="#DejaVuSans-34"/>
      </g>
     </g>
    </g>
    <g id="xtick_6">
     <g id="line2d_11">
      <path clip-path="url(#pd8d1aab86a)" d="M 268.065057 554.599219 
L 268.065057 10.999219 
" style="fill:none;stroke:#b0b0b0;stroke-linecap:square;stroke-width:0.8;"/>
     </g>
     <g id="line2d_12">
      <g>
       <use style="stroke:#000000;stroke-width:0.8;" x="268.065057" xlink:href="#m176ace0a05" y="554.599219"/>
      </g>
     </g>
     <g id="text_6">
      <!-- 1995 -->
      <g transform="translate(255.340057 569.197656)scale(0.1 -0.1)">
       <defs>
        <path d="M 691 4666 
L 3169 4666 
L 3169 4134 
L 1269 4134 
L 1269 2991 
Q 1406 3038 1543 3061 
Q 1681 3084 1819 3084 
Q 2600 3084 3056 2656 
Q 3513 2228 3513 1497 
Q 3513 744 3044 326 
Q 2575 -91 1722 -91 
Q 1428 -91 1123 -41 
Q 819 9 494 109 
L 494 744 
Q 775 591 1075 516 
Q 1375 441 1709 441 
Q 2250 441 2565 725 
Q 2881 1009 2881 1497 
Q 2881 1984 2565 2268 
Q 2250 2553 1709 2553 
Q 1456 2553 1204 2497 
Q 953 2441 691 2322 
L 691 4666 
z
" id="DejaVuSans-35" transform="scale(0.015625)"/>
       </defs>
       <use xlink:href="#DejaVuSans-31"/>
       <use x="63.623047" xlink:href="#DejaVuSans-39"/>
       <use x="127.246094" xlink:href="#DejaVuSans-39"/>
       <use x="190.869141" xlink:href="#DejaVuSans-35"/>
      </g>
     </g>
    </g>
    <g id="xtick_7">
     <g id="line2d_13">
      <path clip-path="url(#pd8d1aab86a)" d="M 299.769602 554.599219 
L 299.769602 10.999219 
" style="fill:none;stroke:#b0b0b0;stroke-linecap:square;stroke-width:0.8;"/>
     </g>
     <g id="line2d_14">
      <g>
       <use style="stroke:#000000;stroke-width:0.8;" x="299.769602" xlink:href="#m176ace0a05" y="554.599219"/>
      </g>
     </g>
     <g id="text_7">
      <!-- 1996 -->
      <g transform="translate(287.044602 569.197656)scale(0.1 -0.1)">
       <defs>
        <path d="M 2113 2584 
Q 1688 2584 1439 2293 
Q 1191 2003 1191 1497 
Q 1191 994 1439 701 
Q 1688 409 2113 409 
Q 2538 409 2786 701 
Q 3034 994 3034 1497 
Q 3034 2003 2786 2293 
Q 2538 2584 2113 2584 
z
M 3366 4563 
L 3366 3988 
Q 3128 4100 2886 4159 
Q 2644 4219 2406 4219 
Q 1781 4219 1451 3797 
Q 1122 3375 1075 2522 
Q 1259 2794 1537 2939 
Q 1816 3084 2150 3084 
Q 2853 3084 3261 2657 
Q 3669 2231 3669 1497 
Q 3669 778 3244 343 
Q 2819 -91 2113 -91 
Q 1303 -91 875 529 
Q 447 1150 447 2328 
Q 447 3434 972 4092 
Q 1497 4750 2381 4750 
Q 2619 4750 2861 4703 
Q 3103 4656 3366 4563 
z
" id="DejaVuSans-36" transform="scale(0.015625)"/>
       </defs>
       <use xlink:href="#DejaVuSans-31"/>
       <use x="63.623047" xlink:href="#DejaVuSans-39"/>
       <use x="127.246094" xlink:href="#DejaVuSans-39"/>
       <use x="190.869141" xlink:href="#DejaVuSans-36"/>
      </g>
     </g>
    </g>
    <g id="xtick_8">
     <g id="line2d_15">
      <path clip-path="url(#pd8d1aab86a)" d="M 331.474148 554.599219 
L 331.474148 10.999219 
" style="fill:none;stroke:#b0b0b0;stroke-linecap:square;stroke-width:0.8;"/>
     </g>
     <g id="line2d_16">
      <g>
       <use style="stroke:#000000;stroke-width:0.8;" x="331.474148" xlink:href="#m176ace0a05" y="554.599219"/>
      </g>
     </g>
     <g id="text_8">
      <!-- 1997 -->
      <g transform="translate(318.749148 569.197656)scale(0.1 -0.1)">
       <defs>
        <path d="M 525 4666 
L 3525 4666 
L 3525 4397 
L 1831 0 
L 1172 0 
L 2766 4134 
L 525 4134 
L 525 4666 
z
" id="DejaVuSans-37" transform="scale(0.015625)"/>
       </defs>
       <use xlink:href="#DejaVuSans-31"/>
       <use x="63.623047" xlink:href="#DejaVuSans-39"/>
       <use x="127.246094" xlink:href="#DejaVuSans-39"/>
       <use x="190.869141" xlink:href="#DejaVuSans-37"/>
      </g>
     </g>
    </g>
    <g id="xtick_9">
     <g id="line2d_17">
      <path clip-path="url(#pd8d1aab86a)" d="M 363.178693 554.599219 
L 363.178693 10.999219 
" style="fill:none;stroke:#b0b0b0;stroke-linecap:square;stroke-width:0.8;"/>
     </g>
     <g id="line2d_18">
      <g>
       <use style="stroke:#000000;stroke-width:0.8;" x="363.178693" xlink:href="#m176ace0a05" y="554.599219"/>
      </g>
     </g>
     <g id="text_9">
      <!-- 1998 -->
      <g transform="translate(350.453693 569.197656)scale(0.1 -0.1)">
       <defs>
        <path d="M 2034 2216 
Q 1584 2216 1326 1975 
Q 1069 1734 1069 1313 
Q 1069 891 1326 650 
Q 1584 409 2034 409 
Q 2484 409 2743 651 
Q 3003 894 3003 1313 
Q 3003 1734 2745 1975 
Q 2488 2216 2034 2216 
z
M 1403 2484 
Q 997 2584 770 2862 
Q 544 3141 544 3541 
Q 544 4100 942 4425 
Q 1341 4750 2034 4750 
Q 2731 4750 3128 4425 
Q 3525 4100 3525 3541 
Q 3525 3141 3298 2862 
Q 3072 2584 2669 2484 
Q 3125 2378 3379 2068 
Q 3634 1759 3634 1313 
Q 3634 634 3220 271 
Q 2806 -91 2034 -91 
Q 1263 -91 848 271 
Q 434 634 434 1313 
Q 434 1759 690 2068 
Q 947 2378 1403 2484 
z
M 1172 3481 
Q 1172 3119 1398 2916 
Q 1625 2713 2034 2713 
Q 2441 2713 2670 2916 
Q 2900 3119 2900 3481 
Q 2900 3844 2670 4047 
Q 2441 4250 2034 4250 
Q 1625 4250 1398 4047 
Q 1172 3844 1172 3481 
z
" id="DejaVuSans-38" transform="scale(0.015625)"/>
       </defs>
       <use xlink:href="#DejaVuSans-31"/>
       <use x="63.623047" xlink:href="#DejaVuSans-39"/>
       <use x="127.246094" xlink:href="#DejaVuSans-39"/>
       <use x="190.869141" xlink:href="#DejaVuSans-38"/>
      </g>
     </g>
    </g>
    <g id="xtick_10">
     <g id="line2d_19">
      <path clip-path="url(#pd8d1aab86a)" d="M 394.883239 554.599219 
L 394.883239 10.999219 
" style="fill:none;stroke:#b0b0b0;stroke-linecap:square;stroke-width:0.8;"/>
     </g>
     <g id="line2d_20">
      <g>
       <use style="stroke:#000000;stroke-width:0.8;" x="394.883239" xlink:href="#m176ace0a05" y="554.599219"/>
      </g>
     </g>
     <g id="text_10">
      <!-- 1999 -->
      <g transform="translate(382.158239 569.197656)scale(0.1 -0.1)">
       <use xlink:href="#DejaVuSans-31"/>
       <use x="63.623047" xlink:href="#DejaVuSans-39"/>
       <use x="127.246094" xlink:href="#DejaVuSans-39"/>
       <use x="190.869141" xlink:href="#DejaVuSans-39"/>
      </g>
     </g>
    </g>
    <g id="xtick_11">
     <g id="line2d_21">
      <path clip-path="url(#pd8d1aab86a)" d="M 426.587784 554.599219 
L 426.587784 10.999219 
" style="fill:none;stroke:#b0b0b0;stroke-linecap:square;stroke-width:0.8;"/>
     </g>
     <g id="line2d_22">
      <g>
       <use style="stroke:#000000;stroke-width:0.8;" x="426.587784" xlink:href="#m176ace0a05" y="554.599219"/>
      </g>
     </g>
     <g id="text_11">
      <!-- 2000 -->
      <g transform="translate(413.862784 569.197656)scale(0.1 -0.1)">
       <use xlink:href="#DejaVuSans-32"/>
       <use x="63.623047" xlink:href="#DejaVuSans-30"/>
       <use x="127.246094" xlink:href="#DejaVuSans-30"/>
       <use x="190.869141" xlink:href="#DejaVuSans-30"/>
      </g>
     </g>
    </g>
    <g id="xtick_12">
     <g id="line2d_23">
      <path clip-path="url(#pd8d1aab86a)" d="M 458.29233 554.599219 
L 458.29233 10.999219 
" style="fill:none;stroke:#b0b0b0;stroke-linecap:square;stroke-width:0.8;"/>
     </g>
     <g id="line2d_24">
      <g>
       <use style="stroke:#000000;stroke-width:0.8;" x="458.29233" xlink:href="#m176ace0a05" y="554.599219"/>
      </g>
     </g>
     <g id="text_12">
      <!-- 2001 -->
      <g transform="translate(445.56733 569.197656)scale(0.1 -0.1)">
       <use xlink:href="#DejaVuSans-32"/>
       <use x="63.623047" xlink:href="#DejaVuSans-30"/>
       <use x="127.246094" xlink:href="#DejaVuSans-30"/>
       <use x="190.869141" xlink:href="#DejaVuSans-31"/>
      </g>
     </g>
    </g>
    <g id="xtick_13">
     <g id="line2d_25">
      <path clip-path="url(#pd8d1aab86a)" d="M 489.996875 554.599219 
L 489.996875 10.999219 
" style="fill:none;stroke:#b0b0b0;stroke-linecap:square;stroke-width:0.8;"/>
     </g>
     <g id="line2d_26">
      <g>
       <use style="stroke:#000000;stroke-width:0.8;" x="489.996875" xlink:href="#m176ace0a05" y="554.599219"/>
      </g>
     </g>
     <g id="text_13">
      <!-- 2002 -->
      <g transform="translate(477.271875 569.197656)scale(0.1 -0.1)">
       <use xlink:href="#DejaVuSans-32"/>
       <use x="63.623047" xlink:href="#DejaVuSans-30"/>
       <use x="127.246094" xlink:href="#DejaVuSans-30"/>
       <use x="190.869141" xlink:href="#DejaVuSans-32"/>
      </g>
     </g>
    </g>
    <g id="xtick_14">
     <g id="line2d_27">
      <path clip-path="url(#pd8d1aab86a)" d="M 521.70142 554.599219 
L 521.70142 10.999219 
" style="fill:none;stroke:#b0b0b0;stroke-linecap:square;stroke-width:0.8;"/>
     </g>
     <g id="line2d_28">
      <g>
       <use style="stroke:#000000;stroke-width:0.8;" x="521.70142" xlink:href="#m176ace0a05" y="554.599219"/>
      </g>
     </g>
     <g id="text_14">
      <!-- 2003 -->
      <g transform="translate(508.97642 569.197656)scale(0.1 -0.1)">
       <use xlink:href="#DejaVuSans-32"/>
       <use x="63.623047" xlink:href="#DejaVuSans-30"/>
       <use x="127.246094" xlink:href="#DejaVuSans-30"/>
       <use x="190.869141" xlink:href="#DejaVuSans-33"/>
      </g>
     </g>
    </g>
    <g id="xtick_15">
     <g id="line2d_29">
      <path clip-path="url(#pd8d1aab86a)" d="M 553.405966 554.599219 
L 553.405966 10.999219 
" style="fill:none;stroke:#b0b0b0;stroke-linecap:square;stroke-width:0.8;"/>
     </g>
     <g id="line2d_30">
      <g>
       <use style="stroke:#000000;stroke-width:0.8;" x="553.405966" xlink:href="#m176ace0a05" y="554.599219"/>
      </g>
     </g>
     <g id="text_15">
      <!-- 2004 -->
      <g transform="translate(540.680966 569.197656)scale(0.1 -0.1)">
       <use xlink:href="#DejaVuSans-32"/>
       <use x="63.623047" xlink:href="#DejaVuSans-30"/>
       <use x="127.246094" xlink:href="#DejaVuSans-30"/>
       <use x="190.869141" xlink:href="#DejaVuSans-34"/>
      </g>
     </g>
    </g>
    <g id="xtick_16">
     <g id="line2d_31">
      <path clip-path="url(#pd8d1aab86a)" d="M 585.110511 554.599219 
L 585.110511 10.999219 
" style="fill:none;stroke:#b0b0b0;stroke-linecap:square;stroke-width:0.8;"/>
     </g>
     <g id="line2d_32">
      <g>
       <use style="stroke:#000000;stroke-width:0.8;" x="585.110511" xlink:href="#m176ace0a05" y="554.599219"/>
      </g>
     </g>
     <g id="text_16">
      <!-- 2005 -->
      <g transform="translate(572.385511 569.197656)scale(0.1 -0.1)">
       <use xlink:href="#DejaVuSans-32"/>
       <use x="63.623047" xlink:href="#DejaVuSans-30"/>
       <use x="127.246094" xlink:href="#DejaVuSans-30"/>
       <use x="190.869141" xlink:href="#DejaVuSans-35"/>
      </g>
     </g>
    </g>
    <g id="xtick_17">
     <g id="line2d_33">
      <path clip-path="url(#pd8d1aab86a)" d="M 616.815057 554.599219 
L 616.815057 10.999219 
" style="fill:none;stroke:#b0b0b0;stroke-linecap:square;stroke-width:0.8;"/>
     </g>
     <g id="line2d_34">
      <g>
       <use style="stroke:#000000;stroke-width:0.8;" x="616.815057" xlink:href="#m176ace0a05" y="554.599219"/>
      </g>
     </g>
     <g id="text_17">
      <!-- 2006 -->
      <g transform="translate(604.090057 569.197656)scale(0.1 -0.1)">
       <use xlink:href="#DejaVuSans-32"/>
       <use x="63.623047" xlink:href="#DejaVuSans-30"/>
       <use x="127.246094" xlink:href="#DejaVuSans-30"/>
       <use x="190.869141" xlink:href="#DejaVuSans-36"/>
      </g>
     </g>
    </g>
    <g id="xtick_18">
     <g id="line2d_35">
      <path clip-path="url(#pd8d1aab86a)" d="M 648.519602 554.599219 
L 648.519602 10.999219 
" style="fill:none;stroke:#b0b0b0;stroke-linecap:square;stroke-width:0.8;"/>
     </g>
     <g id="line2d_36">
      <g>
       <use style="stroke:#000000;stroke-width:0.8;" x="648.519602" xlink:href="#m176ace0a05" y="554.599219"/>
      </g>
     </g>
     <g id="text_18">
      <!-- 2007 -->
      <g transform="translate(635.794602 569.197656)scale(0.1 -0.1)">
       <use xlink:href="#DejaVuSans-32"/>
       <use x="63.623047" xlink:href="#DejaVuSans-30"/>
       <use x="127.246094" xlink:href="#DejaVuSans-30"/>
       <use x="190.869141" xlink:href="#DejaVuSans-37"/>
      </g>
     </g>
    </g>
    <g id="xtick_19">
     <g id="line2d_37">
      <path clip-path="url(#pd8d1aab86a)" d="M 680.224148 554.599219 
L 680.224148 10.999219 
" style="fill:none;stroke:#b0b0b0;stroke-linecap:square;stroke-width:0.8;"/>
     </g>
     <g id="line2d_38">
      <g>
       <use style="stroke:#000000;stroke-width:0.8;" x="680.224148" xlink:href="#m176ace0a05" y="554.599219"/>
      </g>
     </g>
     <g id="text_19">
      <!-- 2008 -->
      <g transform="translate(667.499148 569.197656)scale(0.1 -0.1)">
       <use xlink:href="#DejaVuSans-32"/>
       <use x="63.623047" xlink:href="#DejaVuSans-30"/>
       <use x="127.246094" xlink:href="#DejaVuSans-30"/>
       <use x="190.869141" xlink:href="#DejaVuSans-38"/>
      </g>
     </g>
    </g>
    <g id="xtick_20">
     <g id="line2d_39">
      <path clip-path="url(#pd8d1aab86a)" d="M 711.928693 554.599219 
L 711.928693 10.999219 
" style="fill:none;stroke:#b0b0b0;stroke-linecap:square;stroke-width:0.8;"/>
     </g>
     <g id="line2d_40">
      <g>
       <use style="stroke:#000000;stroke-width:0.8;" x="711.928693" xlink:href="#m176ace0a05" y="554.599219"/>
      </g>
     </g>
     <g id="text_20">
      <!-- 2009 -->
      <g transform="translate(699.203693 569.197656)scale(0.1 -0.1)">
       <use xlink:href="#DejaVuSans-32"/>
       <use x="63.623047" xlink:href="#DejaVuSans-30"/>
       <use x="127.246094" xlink:href="#DejaVuSans-30"/>
       <use x="190.869141" xlink:href="#DejaVuSans-39"/>
      </g>
     </g>
    </g>
    <g id="xtick_21">
     <g id="line2d_41">
      <path clip-path="url(#pd8d1aab86a)" d="M 743.633239 554.599219 
L 743.633239 10.999219 
" style="fill:none;stroke:#b0b0b0;stroke-linecap:square;stroke-width:0.8;"/>
     </g>
     <g id="line2d_42">
      <g>
       <use style="stroke:#000000;stroke-width:0.8;" x="743.633239" xlink:href="#m176ace0a05" y="554.599219"/>
      </g>
     </g>
     <g id="text_21">
      <!-- 2010 -->
      <g transform="translate(730.908239 569.197656)scale(0.1 -0.1)">
       <use xlink:href="#DejaVuSans-32"/>
       <use x="63.623047" xlink:href="#DejaVuSans-30"/>
       <use x="127.246094" xlink:href="#DejaVuSans-31"/>
       <use x="190.869141" xlink:href="#DejaVuSans-30"/>
      </g>
     </g>
    </g>
    <g id="xtick_22">
     <g id="line2d_43">
      <path clip-path="url(#pd8d1aab86a)" d="M 775.337784 554.599219 
L 775.337784 10.999219 
" style="fill:none;stroke:#b0b0b0;stroke-linecap:square;stroke-width:0.8;"/>
     </g>
     <g id="line2d_44">
      <g>
       <use style="stroke:#000000;stroke-width:0.8;" x="775.337784" xlink:href="#m176ace0a05" y="554.599219"/>
      </g>
     </g>
     <g id="text_22">
      <!-- 2011 -->
      <g transform="translate(762.612784 569.197656)scale(0.1 -0.1)">
       <use xlink:href="#DejaVuSans-32"/>
       <use x="63.623047" xlink:href="#DejaVuSans-30"/>
       <use x="127.246094" xlink:href="#DejaVuSans-31"/>
       <use x="190.869141" xlink:href="#DejaVuSans-31"/>
      </g>
     </g>
    </g>
    <g id="xtick_23">
     <g id="line2d_45">
      <path clip-path="url(#pd8d1aab86a)" d="M 807.04233 554.599219 
L 807.04233 10.999219 
" style="fill:none;stroke:#b0b0b0;stroke-linecap:square;stroke-width:0.8;"/>
     </g>
     <g id="line2d_46">
      <g>
       <use style="stroke:#000000;stroke-width:0.8;" x="807.04233" xlink:href="#m176ace0a05" y="554.599219"/>
      </g>
     </g>
     <g id="text_23">
      <!-- 2012 -->
      <g transform="translate(794.31733 569.197656)scale(0.1 -0.1)">
       <use xlink:href="#DejaVuSans-32"/>
       <use x="63.623047" xlink:href="#DejaVuSans-30"/>
       <use x="127.246094" xlink:href="#DejaVuSans-31"/>
       <use x="190.869141" xlink:href="#DejaVuSans-32"/>
      </g>
     </g>
    </g>
    <g id="xtick_24">
     <g id="line2d_47">
      <path clip-path="url(#pd8d1aab86a)" d="M 838.746875 554.599219 
L 838.746875 10.999219 
" style="fill:none;stroke:#b0b0b0;stroke-linecap:square;stroke-width:0.8;"/>
     </g>
     <g id="line2d_48">
      <g>
       <use style="stroke:#000000;stroke-width:0.8;" x="838.746875" xlink:href="#m176ace0a05" y="554.599219"/>
      </g>
     </g>
     <g id="text_24">
      <!-- 2013 -->
      <g transform="translate(826.021875 569.197656)scale(0.1 -0.1)">
       <use xlink:href="#DejaVuSans-32"/>
       <use x="63.623047" xlink:href="#DejaVuSans-30"/>
       <use x="127.246094" xlink:href="#DejaVuSans-31"/>
       <use x="190.869141" xlink:href="#DejaVuSans-33"/>
      </g>
     </g>
    </g>
    <g id="xtick_25">
     <g id="line2d_49">
      <path clip-path="url(#pd8d1aab86a)" d="M 870.45142 554.599219 
L 870.45142 10.999219 
" style="fill:none;stroke:#b0b0b0;stroke-linecap:square;stroke-width:0.8;"/>
     </g>
     <g id="line2d_50">
      <g>
       <use style="stroke:#000000;stroke-width:0.8;" x="870.45142" xlink:href="#m176ace0a05" y="554.599219"/>
      </g>
     </g>
     <g id="text_25">
      <!-- 2014 -->
      <g transform="translate(857.72642 569.197656)scale(0.1 -0.1)">
       <use xlink:href="#DejaVuSans-32"/>
       <use x="63.623047" xlink:href="#DejaVuSans-30"/>
       <use x="127.246094" xlink:href="#DejaVuSans-31"/>
       <use x="190.869141" xlink:href="#DejaVuSans-34"/>
      </g>
     </g>
    </g>
    <g id="text_26">
     <!-- Year -->
     <g transform="translate(479.409375 582.875781)scale(0.1 -0.1)">
      <defs>
       <path d="M -13 4666 
L 666 4666 
L 1959 2747 
L 3244 4666 
L 3922 4666 
L 2272 2222 
L 2272 0 
L 1638 0 
L 1638 2222 
L -13 4666 
z
" id="DejaVuSans-59" transform="scale(0.015625)"/>
       <path d="M 3597 1894 
L 3597 1613 
L 953 1613 
Q 991 1019 1311 708 
Q 1631 397 2203 397 
Q 2534 397 2845 478 
Q 3156 559 3463 722 
L 3463 178 
Q 3153 47 2828 -22 
Q 2503 -91 2169 -91 
Q 1331 -91 842 396 
Q 353 884 353 1716 
Q 353 2575 817 3079 
Q 1281 3584 2069 3584 
Q 2775 3584 3186 3129 
Q 3597 2675 3597 1894 
z
M 3022 2063 
Q 3016 2534 2758 2815 
Q 2500 3097 2075 3097 
Q 1594 3097 1305 2825 
Q 1016 2553 972 2059 
L 3022 2063 
z
" id="DejaVuSans-65" transform="scale(0.015625)"/>
       <path d="M 2194 1759 
Q 1497 1759 1228 1600 
Q 959 1441 959 1056 
Q 959 750 1161 570 
Q 1363 391 1709 391 
Q 2188 391 2477 730 
Q 2766 1069 2766 1631 
L 2766 1759 
L 2194 1759 
z
M 3341 1997 
L 3341 0 
L 2766 0 
L 2766 531 
Q 2569 213 2275 61 
Q 1981 -91 1556 -91 
Q 1019 -91 701 211 
Q 384 513 384 1019 
Q 384 1609 779 1909 
Q 1175 2209 1959 2209 
L 2766 2209 
L 2766 2266 
Q 2766 2663 2505 2880 
Q 2244 3097 1772 3097 
Q 1472 3097 1187 3025 
Q 903 2953 641 2809 
L 641 3341 
Q 956 3463 1253 3523 
Q 1550 3584 1831 3584 
Q 2591 3584 2966 3190 
Q 3341 2797 3341 1997 
z
" id="DejaVuSans-61" transform="scale(0.015625)"/>
       <path d="M 2631 2963 
Q 2534 3019 2420 3045 
Q 2306 3072 2169 3072 
Q 1681 3072 1420 2755 
Q 1159 2438 1159 1844 
L 1159 0 
L 581 0 
L 581 3500 
L 1159 3500 
L 1159 2956 
Q 1341 3275 1631 3429 
Q 1922 3584 2338 3584 
Q 2397 3584 2469 3576 
Q 2541 3569 2628 3553 
L 2631 2963 
z
" id="DejaVuSans-72" transform="scale(0.015625)"/>
      </defs>
      <use xlink:href="#DejaVuSans-59"/>
      <use x="47.833984" xlink:href="#DejaVuSans-65"/>
      <use x="109.357422" xlink:href="#DejaVuSans-61"/>
      <use x="170.636719" xlink:href="#DejaVuSans-72"/>
     </g>
    </g>
   </g>
   <g id="matplotlib.axis_2">
    <g id="ytick_1">
     <g id="line2d_51">
      <path clip-path="url(#pd8d1aab86a)" d="M 71.496875 550.804929 
L 908.496875 550.804929 
" style="fill:none;stroke:#b0b0b0;stroke-linecap:square;stroke-width:0.8;"/>
     </g>
     <g id="line2d_52">
      <defs>
       <path d="M 0 0 
L -3.5 0 
" id="m9a4d94b287" style="stroke:#000000;stroke-width:0.8;"/>
      </defs>
      <g>
       <use style="stroke:#000000;stroke-width:0.8;" x="71.496875" xlink:href="#m9a4d94b287" y="550.804929"/>
      </g>
     </g>
     <g id="text_27">
      <!-- $0.0M -->
      <g transform="translate(33.603125 554.604147)scale(0.1 -0.1)">
       <defs>
        <path d="M 2163 -941 
L 1850 -941 
L 1847 0 
Q 1519 6 1191 76 
Q 863 147 531 288 
L 531 850 
Q 850 650 1176 548 
Q 1503 447 1850 444 
L 1850 1869 
Q 1159 1981 845 2250 
Q 531 2519 531 2988 
Q 531 3497 872 3790 
Q 1213 4084 1850 4128 
L 1850 4863 
L 2163 4863 
L 2163 4138 
Q 2453 4125 2725 4076 
Q 2997 4028 3256 3944 
L 3256 3397 
Q 2997 3528 2723 3600 
Q 2450 3672 2163 3684 
L 2163 2350 
Q 2872 2241 3206 1959 
Q 3541 1678 3541 1191 
Q 3541 663 3186 358 
Q 2831 53 2163 6 
L 2163 -941 
z
M 1850 2406 
L 1850 3688 
Q 1488 3647 1297 3481 
Q 1106 3316 1106 3041 
Q 1106 2772 1282 2622 
Q 1459 2472 1850 2406 
z
M 2163 1806 
L 2163 453 
Q 2559 506 2761 678 
Q 2963 850 2963 1131 
Q 2963 1406 2770 1568 
Q 2578 1731 2163 1806 
z
" id="DejaVuSans-24" transform="scale(0.015625)"/>
        <path d="M 684 794 
L 1344 794 
L 1344 0 
L 684 0 
L 684 794 
z
" id="DejaVuSans-2e" transform="scale(0.015625)"/>
        <path d="M 628 4666 
L 1569 4666 
L 2759 1491 
L 3956 4666 
L 4897 4666 
L 4897 0 
L 4281 0 
L 4281 4097 
L 3078 897 
L 2444 897 
L 1241 4097 
L 1241 0 
L 628 0 
L 628 4666 
z
" id="DejaVuSans-4d" transform="scale(0.015625)"/>
       </defs>
       <use xlink:href="#DejaVuSans-24"/>
       <use x="63.623047" xlink:href="#DejaVuSans-30"/>
       <use x="127.246094" xlink:href="#DejaVuSans-2e"/>
       <use x="159.033203" xlink:href="#DejaVuSans-30"/>
       <use x="222.65625" xlink:href="#DejaVuSans-4d"/>
      </g>
     </g>
    </g>
    <g id="ytick_2">
     <g id="line2d_53">
      <path clip-path="url(#pd8d1aab86a)" d="M 71.496875 496.824358 
L 908.496875 496.824358 
" style="fill:none;stroke:#b0b0b0;stroke-linecap:square;stroke-width:0.8;"/>
     </g>
     <g id="line2d_54">
      <g>
       <use style="stroke:#000000;stroke-width:0.8;" x="71.496875" xlink:href="#m9a4d94b287" y="496.824358"/>
      </g>
     </g>
     <g id="text_28">
      <!-- $25.0M -->
      <g transform="translate(27.240625 500.623576)scale(0.1 -0.1)">
       <use xlink:href="#DejaVuSans-24"/>
       <use x="63.623047" xlink:href="#DejaVuSans-32"/>
       <use x="127.246094" xlink:href="#DejaVuSans-35"/>
       <use x="190.869141" xlink:href="#DejaVuSans-2e"/>
       <use x="222.65625" xlink:href="#DejaVuSans-30"/>
       <use x="286.279297" xlink:href="#DejaVuSans-4d"/>
      </g>
     </g>
    </g>
    <g id="ytick_3">
     <g id="line2d_55">
      <path clip-path="url(#pd8d1aab86a)" d="M 71.496875 442.843787 
L 908.496875 442.843787 
" style="fill:none;stroke:#b0b0b0;stroke-linecap:square;stroke-width:0.8;"/>
     </g>
     <g id="line2d_56">
      <g>
       <use style="stroke:#000000;stroke-width:0.8;" x="71.496875" xlink:href="#m9a4d94b287" y="442.843787"/>
      </g>
     </g>
     <g id="text_29">
      <!-- $50.0M -->
      <g transform="translate(27.240625 446.643005)scale(0.1 -0.1)">
       <use xlink:href="#DejaVuSans-24"/>
       <use x="63.623047" xlink:href="#DejaVuSans-35"/>
       <use x="127.246094" xlink:href="#DejaVuSans-30"/>
       <use x="190.869141" xlink:href="#DejaVuSans-2e"/>
       <use x="222.65625" xlink:href="#DejaVuSans-30"/>
       <use x="286.279297" xlink:href="#DejaVuSans-4d"/>
      </g>
     </g>
    </g>
    <g id="ytick_4">
     <g id="line2d_57">
      <path clip-path="url(#pd8d1aab86a)" d="M 71.496875 388.863216 
L 908.496875 388.863216 
" style="fill:none;stroke:#b0b0b0;stroke-linecap:square;stroke-width:0.8;"/>
     </g>
     <g id="line2d_58">
      <g>
       <use style="stroke:#000000;stroke-width:0.8;" x="71.496875" xlink:href="#m9a4d94b287" y="388.863216"/>
      </g>
     </g>
     <g id="text_30">
      <!-- $75.0M -->
      <g transform="translate(27.240625 392.662434)scale(0.1 -0.1)">
       <use xlink:href="#DejaVuSans-24"/>
       <use x="63.623047" xlink:href="#DejaVuSans-37"/>
       <use x="127.246094" xlink:href="#DejaVuSans-35"/>
       <use x="190.869141" xlink:href="#DejaVuSans-2e"/>
       <use x="222.65625" xlink:href="#DejaVuSans-30"/>
       <use x="286.279297" xlink:href="#DejaVuSans-4d"/>
      </g>
     </g>
    </g>
    <g id="ytick_5">
     <g id="line2d_59">
      <path clip-path="url(#pd8d1aab86a)" d="M 71.496875 334.882645 
L 908.496875 334.882645 
" style="fill:none;stroke:#b0b0b0;stroke-linecap:square;stroke-width:0.8;"/>
     </g>
     <g id="line2d_60">
      <g>
       <use style="stroke:#000000;stroke-width:0.8;" x="71.496875" xlink:href="#m9a4d94b287" y="334.882645"/>
      </g>
     </g>
     <g id="text_31">
      <!-- $100.0M -->
      <g transform="translate(20.878125 338.681863)scale(0.1 -0.1)">
       <use xlink:href="#DejaVuSans-24"/>
       <use x="63.623047" xlink:href="#DejaVuSans-31"/>
       <use x="127.246094" xlink:href="#DejaVuSans-30"/>
       <use x="190.869141" xlink:href="#DejaVuSans-30"/>
       <use x="254.492188" xlink:href="#DejaVuSans-2e"/>
       <use x="286.279297" xlink:href="#DejaVuSans-30"/>
       <use x="349.902344" xlink:href="#DejaVuSans-4d"/>
      </g>
     </g>
    </g>
    <g id="ytick_6">
     <g id="line2d_61">
      <path clip-path="url(#pd8d1aab86a)" d="M 71.496875 280.902074 
L 908.496875 280.902074 
" style="fill:none;stroke:#b0b0b0;stroke-linecap:square;stroke-width:0.8;"/>
     </g>
     <g id="line2d_62">
      <g>
       <use style="stroke:#000000;stroke-width:0.8;" x="71.496875" xlink:href="#m9a4d94b287" y="280.902074"/>
      </g>
     </g>
     <g id="text_32">
      <!-- $125.0M -->
      <g transform="translate(20.878125 284.701292)scale(0.1 -0.1)">
       <use xlink:href="#DejaVuSans-24"/>
       <use x="63.623047" xlink:href="#DejaVuSans-31"/>
       <use x="127.246094" xlink:href="#DejaVuSans-32"/>
       <use x="190.869141" xlink:href="#DejaVuSans-35"/>
       <use x="254.492188" xlink:href="#DejaVuSans-2e"/>
       <use x="286.279297" xlink:href="#DejaVuSans-30"/>
       <use x="349.902344" xlink:href="#DejaVuSans-4d"/>
      </g>
     </g>
    </g>
    <g id="ytick_7">
     <g id="line2d_63">
      <path clip-path="url(#pd8d1aab86a)" d="M 71.496875 226.921503 
L 908.496875 226.921503 
" style="fill:none;stroke:#b0b0b0;stroke-linecap:square;stroke-width:0.8;"/>
     </g>
     <g id="line2d_64">
      <g>
       <use style="stroke:#000000;stroke-width:0.8;" x="71.496875" xlink:href="#m9a4d94b287" y="226.921503"/>
      </g>
     </g>
     <g id="text_33">
      <!-- $150.0M -->
      <g transform="translate(20.878125 230.720721)scale(0.1 -0.1)">
       <use xlink:href="#DejaVuSans-24"/>
       <use x="63.623047" xlink:href="#DejaVuSans-31"/>
       <use x="127.246094" xlink:href="#DejaVuSans-35"/>
       <use x="190.869141" xlink:href="#DejaVuSans-30"/>
       <use x="254.492188" xlink:href="#DejaVuSans-2e"/>
       <use x="286.279297" xlink:href="#DejaVuSans-30"/>
       <use x="349.902344" xlink:href="#DejaVuSans-4d"/>
      </g>
     </g>
    </g>
    <g id="ytick_8">
     <g id="line2d_65">
      <path clip-path="url(#pd8d1aab86a)" d="M 71.496875 172.940932 
L 908.496875 172.940932 
" style="fill:none;stroke:#b0b0b0;stroke-linecap:square;stroke-width:0.8;"/>
     </g>
     <g id="line2d_66">
      <g>
       <use style="stroke:#000000;stroke-width:0.8;" x="71.496875" xlink:href="#m9a4d94b287" y="172.940932"/>
      </g>
     </g>
     <g id="text_34">
      <!-- $175.0M -->
      <g transform="translate(20.878125 176.74015)scale(0.1 -0.1)">
       <use xlink:href="#DejaVuSans-24"/>
       <use x="63.623047" xlink:href="#DejaVuSans-31"/>
       <use x="127.246094" xlink:href="#DejaVuSans-37"/>
       <use x="190.869141" xlink:href="#DejaVuSans-35"/>
       <use x="254.492188" xlink:href="#DejaVuSans-2e"/>
       <use x="286.279297" xlink:href="#DejaVuSans-30"/>
       <use x="349.902344" xlink:href="#DejaVuSans-4d"/>
      </g>
     </g>
    </g>
    <g id="ytick_9">
     <g id="line2d_67">
      <path clip-path="url(#pd8d1aab86a)" d="M 71.496875 118.960361 
L 908.496875 118.960361 
" style="fill:none;stroke:#b0b0b0;stroke-linecap:square;stroke-width:0.8;"/>
     </g>
     <g id="line2d_68">
      <g>
       <use style="stroke:#000000;stroke-width:0.8;" x="71.496875" xlink:href="#m9a4d94b287" y="118.960361"/>
      </g>
     </g>
     <g id="text_35">
      <!-- $200.0M -->
      <g transform="translate(20.878125 122.759579)scale(0.1 -0.1)">
       <use xlink:href="#DejaVuSans-24"/>
       <use x="63.623047" xlink:href="#DejaVuSans-32"/>
       <use x="127.246094" xlink:href="#DejaVuSans-30"/>
       <use x="190.869141" xlink:href="#DejaVuSans-30"/>
       <use x="254.492188" xlink:href="#DejaVuSans-2e"/>
       <use x="286.279297" xlink:href="#DejaVuSans-30"/>
       <use x="349.902344" xlink:href="#DejaVuSans-4d"/>
      </g>
     </g>
    </g>
    <g id="ytick_10">
     <g id="line2d_69">
      <path clip-path="url(#pd8d1aab86a)" d="M 71.496875 64.97979 
L 908.496875 64.97979 
" style="fill:none;stroke:#b0b0b0;stroke-linecap:square;stroke-width:0.8;"/>
     </g>
     <g id="line2d_70">
      <g>
       <use style="stroke:#000000;stroke-width:0.8;" x="71.496875" xlink:href="#m9a4d94b287" y="64.97979"/>
      </g>
     </g>
     <g id="text_36">
      <!-- $225.0M -->
      <g transform="translate(20.878125 68.779008)scale(0.1 -0.1)">
       <use xlink:href="#DejaVuSans-24"/>
       <use x="63.623047" xlink:href="#DejaVuSans-32"/>
       <use x="127.246094" xlink:href="#DejaVuSans-32"/>
       <use x="190.869141" xlink:href="#DejaVuSans-35"/>
       <use x="254.492188" xlink:href="#DejaVuSans-2e"/>
       <use x="286.279297" xlink:href="#DejaVuSans-30"/>
       <use x="349.902344" xlink:href="#DejaVuSans-4d"/>
      </g>
     </g>
    </g>
    <g id="ytick_11">
     <g id="line2d_71">
      <path clip-path="url(#pd8d1aab86a)" d="M 71.496875 10.999219 
L 908.496875 10.999219 
" style="fill:none;stroke:#b0b0b0;stroke-linecap:square;stroke-width:0.8;"/>
     </g>
     <g id="line2d_72">
      <g>
       <use style="stroke:#000000;stroke-width:0.8;" x="71.496875" xlink:href="#m9a4d94b287" y="10.999219"/>
      </g>
     </g>
     <g id="text_37">
      <!-- $250.0M -->
      <g transform="translate(20.878125 14.798437)scale(0.1 -0.1)">
       <use xlink:href="#DejaVuSans-24"/>
       <use x="63.623047" xlink:href="#DejaVuSans-32"/>
       <use x="127.246094" xlink:href="#DejaVuSans-35"/>
       <use x="190.869141" xlink:href="#DejaVuSans-30"/>
       <use x="254.492188" xlink:href="#DejaVuSans-2e"/>
       <use x="286.279297" xlink:href="#DejaVuSans-30"/>
       <use x="349.902344" xlink:href="#DejaVuSans-4d"/>
      </g>
     </g>
    </g>
    <g id="text_38">
     <!-- Total Payroll (Millions) -->
     <g transform="translate(14.798438 336.852344)rotate(-90)scale(0.1 -0.1)">
      <defs>
       <path d="M -19 4666 
L 3928 4666 
L 3928 4134 
L 2272 4134 
L 2272 0 
L 1638 0 
L 1638 4134 
L -19 4134 
L -19 4666 
z
" id="DejaVuSans-54" transform="scale(0.015625)"/>
       <path d="M 1959 3097 
Q 1497 3097 1228 2736 
Q 959 2375 959 1747 
Q 959 1119 1226 758 
Q 1494 397 1959 397 
Q 2419 397 2687 759 
Q 2956 1122 2956 1747 
Q 2956 2369 2687 2733 
Q 2419 3097 1959 3097 
z
M 1959 3584 
Q 2709 3584 3137 3096 
Q 3566 2609 3566 1747 
Q 3566 888 3137 398 
Q 2709 -91 1959 -91 
Q 1206 -91 779 398 
Q 353 888 353 1747 
Q 353 2609 779 3096 
Q 1206 3584 1959 3584 
z
" id="DejaVuSans-6f" transform="scale(0.015625)"/>
       <path d="M 1172 4494 
L 1172 3500 
L 2356 3500 
L 2356 3053 
L 1172 3053 
L 1172 1153 
Q 1172 725 1289 603 
Q 1406 481 1766 481 
L 2356 481 
L 2356 0 
L 1766 0 
Q 1100 0 847 248 
Q 594 497 594 1153 
L 594 3053 
L 172 3053 
L 172 3500 
L 594 3500 
L 594 4494 
L 1172 4494 
z
" id="DejaVuSans-74" transform="scale(0.015625)"/>
       <path d="M 603 4863 
L 1178 4863 
L 1178 0 
L 603 0 
L 603 4863 
z
" id="DejaVuSans-6c" transform="scale(0.015625)"/>
       <path id="DejaVuSans-20" transform="scale(0.015625)"/>
       <path d="M 1259 4147 
L 1259 2394 
L 2053 2394 
Q 2494 2394 2734 2622 
Q 2975 2850 2975 3272 
Q 2975 3691 2734 3919 
Q 2494 4147 2053 4147 
L 1259 4147 
z
M 628 4666 
L 2053 4666 
Q 2838 4666 3239 4311 
Q 3641 3956 3641 3272 
Q 3641 2581 3239 2228 
Q 2838 1875 2053 1875 
L 1259 1875 
L 1259 0 
L 628 0 
L 628 4666 
z
" id="DejaVuSans-50" transform="scale(0.015625)"/>
       <path d="M 2059 -325 
Q 1816 -950 1584 -1140 
Q 1353 -1331 966 -1331 
L 506 -1331 
L 506 -850 
L 844 -850 
Q 1081 -850 1212 -737 
Q 1344 -625 1503 -206 
L 1606 56 
L 191 3500 
L 800 3500 
L 1894 763 
L 2988 3500 
L 3597 3500 
L 2059 -325 
z
" id="DejaVuSans-79" transform="scale(0.015625)"/>
       <path d="M 1984 4856 
Q 1566 4138 1362 3434 
Q 1159 2731 1159 2009 
Q 1159 1288 1364 580 
Q 1569 -128 1984 -844 
L 1484 -844 
Q 1016 -109 783 600 
Q 550 1309 550 2009 
Q 550 2706 781 3412 
Q 1013 4119 1484 4856 
L 1984 4856 
z
" id="DejaVuSans-28" transform="scale(0.015625)"/>
       <path d="M 603 3500 
L 1178 3500 
L 1178 0 
L 603 0 
L 603 3500 
z
M 603 4863 
L 1178 4863 
L 1178 4134 
L 603 4134 
L 603 4863 
z
" id="DejaVuSans-69" transform="scale(0.015625)"/>
       <path d="M 3513 2113 
L 3513 0 
L 2938 0 
L 2938 2094 
Q 2938 2591 2744 2837 
Q 2550 3084 2163 3084 
Q 1697 3084 1428 2787 
Q 1159 2491 1159 1978 
L 1159 0 
L 581 0 
L 581 3500 
L 1159 3500 
L 1159 2956 
Q 1366 3272 1645 3428 
Q 1925 3584 2291 3584 
Q 2894 3584 3203 3211 
Q 3513 2838 3513 2113 
z
" id="DejaVuSans-6e" transform="scale(0.015625)"/>
       <path d="M 2834 3397 
L 2834 2853 
Q 2591 2978 2328 3040 
Q 2066 3103 1784 3103 
Q 1356 3103 1142 2972 
Q 928 2841 928 2578 
Q 928 2378 1081 2264 
Q 1234 2150 1697 2047 
L 1894 2003 
Q 2506 1872 2764 1633 
Q 3022 1394 3022 966 
Q 3022 478 2636 193 
Q 2250 -91 1575 -91 
Q 1294 -91 989 -36 
Q 684 19 347 128 
L 347 722 
Q 666 556 975 473 
Q 1284 391 1588 391 
Q 1994 391 2212 530 
Q 2431 669 2431 922 
Q 2431 1156 2273 1281 
Q 2116 1406 1581 1522 
L 1381 1569 
Q 847 1681 609 1914 
Q 372 2147 372 2553 
Q 372 3047 722 3315 
Q 1072 3584 1716 3584 
Q 2034 3584 2315 3537 
Q 2597 3491 2834 3397 
z
" id="DejaVuSans-73" transform="scale(0.015625)"/>
       <path d="M 513 4856 
L 1013 4856 
Q 1481 4119 1714 3412 
Q 1947 2706 1947 2009 
Q 1947 1309 1714 600 
Q 1481 -109 1013 -844 
L 513 -844 
Q 928 -128 1133 580 
Q 1338 1288 1338 2009 
Q 1338 2731 1133 3434 
Q 928 4138 513 4856 
z
" id="DejaVuSans-29" transform="scale(0.015625)"/>
      </defs>
      <use xlink:href="#DejaVuSans-54"/>
      <use x="44.083984" xlink:href="#DejaVuSans-6f"/>
      <use x="105.265625" xlink:href="#DejaVuSans-74"/>
      <use x="144.474609" xlink:href="#DejaVuSans-61"/>
      <use x="205.753906" xlink:href="#DejaVuSans-6c"/>
      <use x="233.537109" xlink:href="#DejaVuSans-20"/>
      <use x="265.324219" xlink:href="#DejaVuSans-50"/>
      <use x="321.126953" xlink:href="#DejaVuSans-61"/>
      <use x="382.40625" xlink:href="#DejaVuSans-79"/>
      <use x="441.585938" xlink:href="#DejaVuSans-72"/>
      <use x="480.449219" xlink:href="#DejaVuSans-6f"/>
      <use x="541.630859" xlink:href="#DejaVuSans-6c"/>
      <use x="569.414062" xlink:href="#DejaVuSans-6c"/>
      <use x="597.197266" xlink:href="#DejaVuSans-20"/>
      <use x="628.984375" xlink:href="#DejaVuSans-28"/>
      <use x="667.998047" xlink:href="#DejaVuSans-4d"/>
      <use x="754.277344" xlink:href="#DejaVuSans-69"/>
      <use x="782.060547" xlink:href="#DejaVuSans-6c"/>
      <use x="809.84375" xlink:href="#DejaVuSans-6c"/>
      <use x="837.626953" xlink:href="#DejaVuSans-69"/>
      <use x="865.410156" xlink:href="#DejaVuSans-6f"/>
      <use x="926.591797" xlink:href="#DejaVuSans-6e"/>
      <use x="989.970703" xlink:href="#DejaVuSans-73"/>
      <use x="1042.070312" xlink:href="#DejaVuSans-29"/>
     </g>
    </g>
   </g>
   <g id="line2d_73">
    <path clip-path="url(#pd8d1aab86a)" d="M 331.474148 483.576506 
L 363.178693 461.67005 
L 394.883239 431.209535 
L 426.587784 439.682324 
L 458.29233 448.16591 
L 489.996875 417.534095 
L 521.70142 380.157948 
L 553.405966 333.728179 
" style="fill:none;stroke:#000000;stroke-linecap:square;stroke-width:1.5;"/>
   </g>
   <g id="line2d_74">
    <path clip-path="url(#pd8d1aab86a)" d="M 363.178693 480.960547 
L 394.883239 402.457685 
L 426.587784 375.847781 
L 458.29233 367.091774 
L 489.996875 328.793638 
L 521.70142 376.648492 
L 553.405966 400.132739 
L 585.110511 416.22237 
L 616.815057 421.933385 
L 648.519602 438.379494 
L 680.224148 407.858521 
L 711.928693 392.931913 
L 743.633239 419.700878 
L 775.337784 434.984576 
L 807.04233 391.443847 
L 838.746875 356.189856 
L 870.45142 339.500143 
" style="fill:none;stroke:#0000ff;stroke-linecap:square;stroke-width:1.5;"/>
   </g>
   <g id="line2d_75">
    <path clip-path="url(#pd8d1aab86a)" d="M 109.54233 519.376358 
L 141.246875 511.067671 
L 172.95142 476.041119 
L 204.655966 460.89183 
L 236.360511 444.174919 
L 268.065057 448.813077 
L 299.769602 443.494792 
L 331.474148 437.923997 
L 363.178693 418.69072 
L 394.883239 392.87937 
L 426.587784 368.268902 
L 458.29233 352.294259 
L 489.996875 350.277111 
L 521.70142 321.401176 
L 553.405966 356.080815 
L 585.110511 364.124347 
L 616.815057 356.136143 
L 648.519602 362.324568 
L 680.224148 329.774608 
L 711.928693 341.951582 
L 743.633239 368.515421 
L 775.337784 362.946729 
L 807.04233 371.956626 
L 838.746875 361.070725 
L 870.45142 340.045346 
" style="fill:none;stroke:#b8860b;stroke-linecap:square;stroke-width:1.5;"/>
   </g>
   <g id="line2d_76">
    <path clip-path="url(#pd8d1aab86a)" d="M 109.54233 529.90347 
L 141.246875 512.977504 
L 172.95142 499.457169 
L 204.655966 487.979101 
L 236.360511 466.91962 
L 268.065057 455.923234 
L 299.769602 433.148196 
L 331.474148 424.454981 
L 363.178693 394.572991 
L 394.883239 376.758908 
L 426.587784 374.941767 
L 458.29233 404.842458 
L 489.996875 420.18601 
L 521.70142 391.286943 
L 553.405966 439.338649 
L 585.110511 391.207413 
L 616.815057 394.076482 
L 648.519602 349.619755 
L 680.224148 405.713259 
L 711.928693 405.917479 
L 743.633239 374.585355 
L 775.337784 366.614501 
L 807.04233 383.780407 
L 838.746875 368.580916 
L 870.45142 327.506739 
" style="fill:none;stroke:#a52a2a;stroke-linecap:square;stroke-width:1.5;"/>
   </g>
   <g id="line2d_77">
    <path clip-path="url(#pd8d1aab86a)" d="M 109.54233 506.414906 
L 141.246875 474.870459 
L 172.95142 456.63996 
L 204.655966 470.653318 
L 236.360511 469.05873 
L 268.065057 480.726233 
L 299.769602 459.267915 
L 331.474148 456.751881 
L 363.178693 428.253918 
L 394.883239 413.699676 
L 426.587784 382.514381 
L 458.29233 313.213045 
L 489.996875 316.818457 
L 521.70142 334.998163 
L 553.405966 275.9391 
L 585.110511 284.129842 
L 616.815057 291.482646 
L 648.519602 241.979461 
L 680.224148 262.786118 
L 711.928693 288.791876 
L 743.633239 200.044937 
L 775.337784 201.523698 
L 807.04233 176.85643 
L 838.746875 223.617892 
L 870.45142 250.629923 
" style="fill:none;stroke:#deb887;stroke-linecap:square;stroke-width:1.5;"/>
   </g>
   <g id="line2d_78">
    <path clip-path="url(#pd8d1aab86a)" d="M 109.54233 503.906608 
L 141.246875 479.421019 
L 172.95142 475.773373 
L 204.655966 489.076345 
L 236.360511 496.487048 
L 268.065057 483.387145 
L 299.769602 488.753183 
" style="fill:none;stroke:#5f9ea0;stroke-linecap:square;stroke-width:1.5;"/>
   </g>
   <g id="line2d_79">
    <path clip-path="url(#pd8d1aab86a)" d="M 109.54233 530.310665 
L 141.246875 514.271597 
L 172.95142 485.680969 
L 204.655966 465.09206 
L 236.360511 466.198295 
L 268.065057 449.405056 
L 299.769602 453.338689 
L 331.474148 426.131402 
L 363.178693 468.031121 
L 394.883239 495.485639 
L 426.587784 483.580764 
L 458.29233 409.044031 
L 489.996875 427.615148 
L 521.70142 440.662971 
L 553.405966 409.996609 
L 585.110511 388.478874 
L 616.815057 328.943342 
L 648.519602 316.158225 
L 680.224148 289.130155 
L 711.928693 343.371629 
L 743.633239 322.942142 
L 775.337784 274.880001 
L 807.04233 341.534131 
L 838.746875 291.55724 
L 870.45142 374.114644 
" style="fill:none;stroke:#7fff00;stroke-linecap:square;stroke-width:1.5;"/>
   </g>
   <g id="line2d_80">
    <path clip-path="url(#pd8d1aab86a)" d="M 109.54233 521.387677 
L 141.246875 500.763499 
L 172.95142 486.395989 
L 204.655966 465.76034 
L 236.360511 472.45249 
L 268.065057 487.095258 
L 299.769602 479.375678 
L 331.474148 459.782171 
L 363.178693 441.034358 
L 394.883239 416.192499 
L 426.587784 420.087018 
L 458.29233 411.069024 
L 489.996875 387.371553 
L 521.70142 378.3514 
L 553.405966 355.265708 
L 585.110511 362.881432 
L 616.815057 346.921394 
L 648.519602 335.594471 
L 680.224148 295.269903 
L 711.928693 259.722257 
L 743.633239 234.243427 
L 775.337784 280.79988 
L 807.04233 360.367881 
L 838.746875 333.656798 
L 870.45142 409.32725 
" style="fill:none;stroke:#d2691e;stroke-linecap:square;stroke-width:1.5;"/>
   </g>
   <g id="line2d_81">
    <path clip-path="url(#pd8d1aab86a)" d="M 109.54233 519.776896 
L 141.246875 494.005853 
L 172.95142 473.220815 
L 204.655966 453.899729 
L 236.360511 462.359203 
L 268.065057 457.645972 
L 299.769602 458.981097 
L 331.474148 443.344726 
L 363.178693 501.132007 
L 394.883239 477.471759 
L 426.587784 449.6082 
L 458.29233 445.033239 
L 489.996875 453.531098 
L 521.70142 422.642817 
L 553.405966 450.152216 
L 585.110511 417.16505 
L 616.815057 419.287704 
L 648.519602 402.844227 
L 680.224148 390.768309 
L 711.928693 391.975735 
L 743.633239 395.855768 
L 775.337784 386.818142 
L 807.04233 373.309003 
L 838.746875 321.053984 
L 870.45142 317.139231 
" style="fill:none;stroke:#ff7f50;stroke-linecap:square;stroke-width:1.5;"/>
   </g>
   <g id="line2d_82">
    <path clip-path="url(#pd8d1aab86a)" d="M 109.54233 519.524267 
L 141.246875 512.727034 
L 172.95142 530.566438 
L 204.655966 510.727593 
L 236.360511 484.969145 
L 268.065057 468.888689 
L 299.769602 446.930418 
L 331.474148 428.15576 
L 363.178693 419.523821 
L 394.883239 393.228167 
L 426.587784 386.961435 
L 458.29233 349.669 
L 489.996875 380.421844 
L 521.70142 445.899445 
L 553.405966 476.701912 
L 585.110511 461.191783 
L 616.815057 429.820434 
L 648.519602 417.638602 
L 680.224148 380.290958 
L 711.928693 374.65733 
L 743.633239 418.651927 
L 775.337784 445.485453 
L 807.04233 381.456433 
L 838.746875 387.196727 
L 870.45142 373.420672 
" style="fill:none;stroke:#6495ed;stroke-linecap:square;stroke-width:1.5;"/>
   </g>
   <g id="line2d_83">
    <path clip-path="url(#pd8d1aab86a)" d="M 204.655966 528.449415 
L 236.360511 499.226854 
L 268.065057 477.057284 
L 299.769602 464.047737 
L 331.474148 456.749901 
L 363.178693 441.797324 
L 394.883239 417.071655 
L 426.587784 418.852251 
L 458.29233 396.331246 
L 489.996875 428.050858 
L 521.70142 405.749057 
L 553.405966 409.494229 
L 585.110511 447.509867 
L 616.815057 461.773693 
L 648.519602 434.118367 
L 680.224148 402.562405 
L 711.928693 388.429212 
L 743.633239 368.940066 
L 775.337784 360.4736 
L 807.04233 382.235328 
L 838.746875 390.139163 
L 870.45142 344.807512 
" style="fill:none;stroke:#dc143c;stroke-linecap:square;stroke-width:1.5;"/>
   </g>
   <g id="line2d_84">
    <path clip-path="url(#pd8d1aab86a)" d="M 109.54233 512.817207 
L 141.246875 499.332655 
L 172.95142 491.808841 
L 204.655966 468.430221 
L 236.360511 461.312697 
L 268.065057 470.818315 
L 299.769602 500.197064 
L 331.474148 513.510832 
L 363.178693 498.843231 
L 394.883239 472.015608 
L 426.587784 424.997449 
L 458.29233 435.467521 
L 489.996875 431.94403 
L 521.70142 444.64026 
L 553.405966 449.684205 
L 585.110511 401.619904 
L 616.815057 372.425341 
L 648.519602 346.109807 
L 680.224148 253.511909 
L 711.928693 302.310455 
L 743.633239 285.51217 
L 775.337784 322.574576 
L 807.04233 265.139747 
L 838.746875 235.581066 
L 870.45142 220.755842 
" style="fill:none;stroke:#00ffff;stroke-linecap:square;stroke-width:1.5;"/>
   </g>
   <g id="line2d_85">
    <path clip-path="url(#pd8d1aab86a)" d="M 204.655966 509.065974 
L 236.360511 504.094461 
L 268.065057 497.869894 
L 299.769602 483.820438 
L 331.474148 445.66697 
L 363.178693 461.580082 
L 394.883239 505.277715 
L 426.587784 507.896852 
L 458.29233 473.585722 
L 489.996875 460.160933 
L 521.70142 444.031359 
L 553.405966 459.80871 
L 585.110511 420.368794 
L 616.815057 519.125891 
L 648.519602 484.933517 
L 680.224148 503.70904 
L 711.928693 471.272114 
L 743.633239 427.665057 
L 775.337784 427.850143 
" style="fill:none;stroke:#00008b;stroke-linecap:square;stroke-width:1.5;"/>
   </g>
   <g id="line2d_86">
    <path clip-path="url(#pd8d1aab86a)" d="M 109.54233 511.226374 
L 141.246875 523.053517 
L 172.95142 517.536703 
L 204.655966 485.573727 
L 236.360511 479.278513 
L 268.065057 477.024643 
L 299.769602 489.295148 
L 331.474148 475.712556 
L 363.178693 459.31002 
L 394.883239 432.233366 
L 426.587784 440.060309 
L 458.29233 419.928674 
L 489.996875 413.805657 
L 521.70142 397.413738 
L 553.405966 388.006004 
L 585.110511 385.021958 
L 616.815057 359.293879 
L 648.519602 361.313691 
L 680.224148 358.784348 
L 711.928693 328.412719 
L 743.633239 351.388824 
L 775.337784 398.160829 
L 807.04233 419.845904 
L 838.746875 512.17492 
L 870.45142 474.981012 
" style="fill:none;stroke:#008b8b;stroke-linecap:square;stroke-width:1.5;"/>
   </g>
   <g id="line2d_87">
    <path clip-path="url(#pd8d1aab86a)" d="M 109.54233 500.363142 
L 141.246875 493.974542 
L 172.95142 477.620588 
L 204.655966 461.52934 
L 236.360511 463.267154 
L 268.065057 487.036959 
L 299.769602 507.01319 
L 331.474148 475.977061 
L 363.178693 471.210577 
L 394.883239 494.17931 
L 426.587784 500.20786 
L 458.29233 474.319858 
L 489.996875 448.766535 
L 521.70142 463.317538 
L 553.405966 448.006488 
L 585.110511 471.170631 
L 616.815057 448.686644 
L 648.519602 405.885449 
L 680.224148 425.039915 
L 711.928693 398.537974 
L 743.633239 396.625168 
L 775.337784 473.694762 
L 807.04233 419.273224 
L 838.746875 377.869047 
L 870.45142 389.739698 
" style="fill:none;stroke:#b8860b;stroke-linecap:square;stroke-width:1.5;"/>
   </g>
   <g id="line2d_88">
    <path clip-path="url(#pd8d1aab86a)" d="M 585.110511 345.964161 
L 616.815057 327.385823 
L 648.519602 314.906955 
L 680.224148 293.3903 
L 711.928693 305.281859 
L 743.633239 324.164552 
L 775.337784 251.65936 
L 807.04233 217.23703 
L 838.746875 282.683972 
L 870.45142 287.405113 
" style="fill:none;stroke:#a9a9a9;stroke-linecap:square;stroke-width:1.5;"/>
   </g>
   <g id="line2d_89">
    <path clip-path="url(#pd8d1aab86a)" d="M 109.54233 504.773096 
L 141.246875 480.002578 
L 172.95142 454.097298 
L 204.655966 465.878378 
L 236.360511 468.754458 
L 268.065057 466.005336 
L 299.769602 474.465605 
L 331.474148 452.81874 
L 363.178693 445.39167 
L 394.883239 376.204873 
L 426.587784 360.956802 
L 458.29233 315.220863 
L 489.996875 346.000584 
L 521.70142 322.850116 
L 553.405966 350.208806 
L 585.110511 371.505223 
L 616.815057 338.235514 
L 648.519602 316.627443 
L 680.224148 294.745853 
L 711.928693 333.987448 
L 743.633239 344.905722 
L 775.337784 325.837662 
L 807.04233 345.368748 
L 838.746875 68.516174 
L 870.45142 82.222048 
" style="fill:none;stroke:#006400;stroke-linecap:square;stroke-width:1.5;"/>
   </g>
   <g id="line2d_90">
    <path clip-path="url(#pd8d1aab86a)" d="M 807.04233 295.848214 
L 838.746875 478.250939 
L 870.45142 460.469739 
" style="fill:none;stroke:#bdb76b;stroke-linecap:square;stroke-width:1.5;"/>
   </g>
   <g id="line2d_91">
    <path clip-path="url(#pd8d1aab86a)" d="M 363.178693 477.575093 
L 394.883239 457.143467 
L 426.587784 471.98178 
L 458.29233 456.043476 
L 489.996875 442.222291 
L 521.70142 463.082182 
L 553.405966 491.364763 
L 585.110511 464.576725 
L 616.815057 426.502069 
L 648.519602 397.529256 
L 680.224148 376.042832 
L 711.928693 377.673039 
L 743.633239 375.674082 
L 775.337784 366.197134 
L 807.04233 339.948302 
L 838.746875 384.659137 
L 870.45142 332.25487 
" style="fill:none;stroke:#b22222;stroke-linecap:square;stroke-width:1.5;"/>
   </g>
   <g id="line2d_92">
    <path clip-path="url(#pd8d1aab86a)" d="M 109.54233 519.275957 
L 141.246875 500.361525 
L 172.95142 490.286589 
L 204.655966 489.876123 
L 236.360511 489.39987 
L 268.065057 495.937997 
L 299.769602 500.890174 
L 331.474148 477.234808 
L 363.178693 490.503233 
L 394.883239 504.905249 
L 426.587784 515.135647 
L 458.29233 498.702881 
L 489.996875 463.518345 
L 521.70142 430.957265 
L 553.405966 435.102973 
L 585.110511 429.486834 
L 616.815057 413.918824 
L 648.519602 396.551129 
L 680.224148 427.8744 
L 711.928693 409.809262 
L 743.633239 340.152949 
L 775.337784 307.380623 
L 807.04233 347.654448 
L 838.746875 388.134478 
L 870.45142 369.943025 
" style="fill:none;stroke:#556b2f;stroke-linecap:square;stroke-width:1.5;"/>
   </g>
   <g id="line2d_93">
    <path clip-path="url(#pd8d1aab86a)" d="M 109.54233 508.226853 
L 141.246875 500.893413 
L 172.95142 483.83951 
L 204.655966 499.400669 
L 236.360511 498.226773 
L 268.065057 512.373299 
L 299.769602 503.885016 
L 331.474148 499.727782 
" style="fill:none;stroke:#ff8c00;stroke-linecap:square;stroke-width:1.5;"/>
   </g>
   <g id="line2d_94">
    <path clip-path="url(#pd8d1aab86a)" d="M 109.54233 514.991221 
L 141.246875 527.63143 
L 172.95142 516.640984 
L 204.655966 509.997057 
L 236.360511 509.568091 
L 268.065057 524.108297 
L 299.769602 515.686249 
L 331.474148 509.141644 
L 363.178693 527.827559 
L 394.883239 512.148362 
L 426.587784 479.562811 
L 458.29233 474.887733 
L 489.996875 467.306702 
L 521.70142 438.636541 
L 553.405966 462.498112 
" style="fill:none;stroke:#ff00ff;stroke-linecap:square;stroke-width:1.5;"/>
   </g>
   <g id="line2d_95">
    <path clip-path="url(#pd8d1aab86a)" d="M 109.54233 505.650574 
L 141.246875 491.762776 
L 172.95142 469.740504 
L 204.655966 458.768271 
L 236.360511 452.060788 
L 268.065057 445.273234 
L 299.769602 433.792774 
L 331.474148 416.411563 
L 363.178693 406.554015 
L 394.883239 363.52612 
L 426.587784 351.426049 
L 458.29233 308.351965 
L 489.996875 278.897056 
L 521.70142 220.984041 
L 553.405966 153.089145 
L 585.110511 101.024092 
L 616.815057 130.483962 
L 648.519602 142.152476 
L 680.224148 101.909434 
L 711.928693 115.831239 
L 743.633239 105.285163 
L 775.337784 114.048068 
L 807.04233 126.469514 
L 838.746875 49.91082 
L 870.45142 124.263613 
" style="fill:none;stroke:#8b0000;stroke-linecap:square;stroke-width:1.5;"/>
   </g>
   <g id="line2d_96">
    <path clip-path="url(#pd8d1aab86a)" d="M 109.54233 503.900489 
L 141.246875 480.435854 
L 172.95142 454.499267 
L 204.655966 466.500951 
L 236.360511 483.962767 
L 268.065057 491.048454 
L 299.769602 497.948233 
L 331.474148 464.866996 
L 363.178693 438.356924 
L 394.883239 410.256597 
L 426.587784 379.125604 
L 458.29233 349.620576 
L 489.996875 346.469913 
L 521.70142 298.442674 
L 553.405966 342.092354 
L 585.110511 332.063086 
L 616.815057 332.539968 
L 648.519602 301.99409 
L 680.224148 253.278324 
L 711.928693 228.273204 
L 743.633239 260.555842 
L 775.337784 294.187105 
L 807.04233 349.232876 
L 838.746875 444.03493 
L 870.45142 484.408826 
" style="fill:none;stroke:#e9967a;stroke-linecap:square;stroke-width:1.5;"/>
   </g>
   <g id="line2d_97">
    <path clip-path="url(#pd8d1aab86a)" d="M 109.54233 507.863382 
L 141.246875 470.915482 
L 172.95142 462.201219 
L 204.655966 469.159676 
L 236.360511 477.018886 
L 268.065057 469.317532 
L 299.769602 504.936558 
L 331.474148 498.943635 
L 363.178693 504.807004 
L 394.883239 498.051157 
L 426.587784 481.771696 
L 458.29233 477.799985 
L 489.996875 464.427017 
L 521.70142 442.280588 
L 553.405966 422.491671 
L 585.110511 431.128357 
L 616.815057 416.408251 
L 648.519602 379.434019 
L 680.224148 447.233215 
L 711.928693 417.127443 
L 743.633239 431.497286 
L 775.337784 407.137798 
L 807.04233 431.243362 
L 838.746875 420.965461 
L 870.45142 394.459057 
" style="fill:none;stroke:#8fbc8f;stroke-linecap:square;stroke-width:1.5;"/>
   </g>
   <g id="line2d_98">
    <path clip-path="url(#pd8d1aab86a)" d="M 109.54233 522.360046 
L 141.246875 502.249768 
L 172.95142 498.154797 
L 204.655966 489.184306 
L 236.360511 482.575646 
L 268.065057 484.827834 
L 299.769602 476.712276 
L 331.474148 471.655377 
L 363.178693 472.430538 
L 394.883239 482.373759 
L 426.587784 448.656414 
L 458.29233 460.843429 
L 489.996875 425.667171 
L 521.70142 397.975136 
L 553.405966 350.171741 
L 585.110511 344.551644 
L 616.815057 360.203132 
L 648.519602 357.709489 
L 680.224148 339.460456 
L 711.928693 306.804011 
L 743.633239 244.349931 
L 775.337784 177.31038 
L 807.04233 173.936467 
L 838.746875 184.032451 
L 870.45142 160.104423 
" style="fill:none;stroke:#483d8b;stroke-linecap:square;stroke-width:1.5;"/>
   </g>
   <g id="line2d_99">
    <path clip-path="url(#pd8d1aab86a)" d="M 109.54233 517.216058 
L 141.246875 499.772416 
L 172.95142 477.511908 
L 204.655966 497.207691 
L 236.360511 498.514489 
L 268.065057 511.171648 
L 299.769602 501.105017 
L 331.474148 527.546499 
L 363.178693 518.276236 
L 394.883239 497.477164 
L 426.587784 488.342209 
L 458.29233 426.086419 
L 489.996875 459.418847 
L 521.70142 432.45268 
L 553.405966 481.217648 
L 585.110511 468.467284 
L 616.815057 449.930896 
L 648.519602 467.593159 
L 680.224148 445.672837 
L 711.928693 445.665891 
L 743.633239 475.355205 
L 775.337784 453.538417 
L 807.04233 414.877535 
L 838.746875 384.410898 
L 870.45142 384.160428 
" style="fill:none;stroke:#2f4f4f;stroke-linecap:square;stroke-width:1.5;"/>
   </g>
   <g id="line2d_100">
    <path clip-path="url(#pd8d1aab86a)" d="M 109.54233 512.827796 
L 141.246875 502.97814 
L 172.95142 492.820798 
L 204.655966 495.720276 
L 236.360511 518.597242 
L 268.065057 493.83959 
L 299.769602 489.594908 
L 331.474148 470.128435 
L 363.178693 449.620507 
L 394.883239 443.34434 
L 426.587784 432.434173 
L 458.29233 466.200461 
L 489.996875 461.359122 
L 521.70142 453.186464 
L 553.405966 431.216732 
L 585.110511 414.145916 
L 616.815057 399.883585 
L 648.519602 425.331265 
L 680.224148 391.718537 
L 711.928693 457.237814 
L 743.633239 469.187817 
L 775.337784 451.763234 
L 807.04233 431.519311 
L 838.746875 409.191219 
L 870.45142 387.382636 
" style="fill:none;stroke:#00ced1;stroke-linecap:square;stroke-width:1.5;"/>
   </g>
   <g id="line2d_101">
    <path clip-path="url(#pd8d1aab86a)" d="M 109.54233 523.698764 
L 141.246875 516.922764 
L 172.95142 500.754504 
L 204.655966 480.20626 
L 236.360511 487.694084 
L 268.065057 472.033649 
L 299.769602 461.567485 
L 331.474148 461.109385 
L 363.178693 434.018965 
L 394.883239 433.936986 
L 426.587784 423.594315 
L 458.29233 389.465997 
L 489.996875 377.456758 
L 521.70142 363.040709 
L 553.405966 374.794078 
L 585.110511 361.323766 
L 616.815057 360.880048 
L 648.519602 320.932266 
L 680.224148 296.736773 
L 711.928693 337.248794 
L 743.633239 364.010561 
L 775.337784 364.872954 
L 807.04233 373.795943 
L 838.746875 391.011549 
L 870.45142 351.009664 
" style="fill:none;stroke:#9400d3;stroke-linecap:square;stroke-width:1.5;"/>
   </g>
   <g id="line2d_102">
    <path clip-path="url(#pd8d1aab86a)" d="M 109.54233 509.055636 
L 141.246875 483.938837 
L 172.95142 479.198259 
L 204.655966 475.124168 
L 236.360511 458.738547 
L 268.065057 472.073668 
L 299.769602 470.60119 
L 331.474148 473.953053 
L 363.178693 458.895808 
L 394.883239 450.195817 
L 426.587784 434.772987 
L 458.29233 414.168947 
L 489.996875 381.738136 
L 521.70142 371.908637 
L 553.405966 373.707272 
L 585.110511 356.044108 
L 616.815057 356.353052 
L 648.519602 356.001882 
L 680.224148 385.420335 
L 711.928693 371.532321 
L 743.633239 337.816309 
L 775.337784 295.588388 
L 807.04233 296.835663 
L 838.746875 248.12435 
L 870.45142 507.620472 
" style="fill:none;stroke:#ff1493;stroke-linecap:square;stroke-width:1.5;"/>
   </g>
   <g id="line2d_103">
    <path clip-path="url(#pd8d1aab86a)" d="M 109.54233 506.490477 
L 141.246875 503.604315 
L 172.95142 491.24528 
L 204.655966 500.349647 
L 236.360511 487.592382 
L 268.065057 470.695602 
L 299.769602 463.853744 
L 331.474148 452.653855 
L 363.178693 432.754773 
L 394.883239 443.322713 
L 426.587784 418.112344 
L 458.29233 381.223166 
L 489.996875 389.595462 
L 521.70142 369.890846 
L 553.405966 371.096411 
L 585.110511 351.925751 
L 616.815057 358.86865 
L 648.519602 355.855558 
L 680.224148 335.693543 
L 711.928693 359.652366 
L 743.633239 348.829603 
L 775.337784 323.150352 
L 807.04233 312.640788 
L 838.746875 351.594792 
L 870.45142 290.201846 
" style="fill:none;stroke:#00bfff;stroke-linecap:square;stroke-width:1.5;"/>
   </g>
   <g id="line2d_104">
    <path clip-path="url(#pd8d1aab86a)" d="M 363.178693 491.901329 
L 394.883239 466.875937 
L 426.587784 415.281028 
L 458.29233 427.772411 
L 489.996875 476.570847 
L 521.70142 508.419384 
L 553.405966 486.985498 
L 585.110511 486.721209 
L 616.815057 475.409257 
L 648.519602 498.716916 
L 680.224148 456.186495 
L 711.928693 414.097979 
L 743.633239 395.506127 
L 775.337784 462.16112 
L 807.04233 412.240042 
L 838.746875 436.462696 
L 870.45142 393.852964 
" style="fill:none;stroke:#696969;stroke-linecap:square;stroke-width:1.5;"/>
   </g>
   <g id="line2d_105">
    <path clip-path="url(#pd8d1aab86a)" d="M 109.54233 518.687845 
L 141.246875 511.454172 
L 172.95142 485.751502 
L 204.655966 472.258968 
L 236.360511 479.607585 
L 268.065057 476.13587 
L 299.769602 466.50557 
L 331.474148 435.396977 
L 363.178693 428.653169 
L 394.883239 385.171094 
L 426.587784 397.940759 
L 458.29233 359.425451 
L 489.996875 322.950516 
L 521.70142 327.343357 
L 553.405966 431.938811 
L 585.110511 430.214492 
L 616.815057 403.484043 
L 648.519602 403.289685 
L 680.224148 404.598928 
L 711.928693 403.591711 
L 743.633239 431.506692 
L 775.337784 351.51025 
L 807.04233 290.594881 
L 838.746875 307.843561 
L 870.45142 308.421241 
" style="fill:none;stroke:#1e90ff;stroke-linecap:square;stroke-width:1.5;"/>
   </g>
   <g id="line2d_106">
    <path clip-path="url(#pd8d1aab86a)" d="M 109.54233 512.463967 
L 141.246875 507.831175 
L 172.95142 454.096218 
L 204.655966 448.718673 
L 236.360511 457.021961 
L 268.065057 441.569845 
L 299.769602 486.988918 
L 331.474148 449.149078 
L 363.178693 439.872696 
L 394.883239 452.680487 
L 426.587784 453.988978 
L 458.29233 384.769331 
L 489.996875 384.837705 
L 521.70142 440.103733 
L 553.405966 442.80708 
L 585.110511 452.08634 
L 616.815057 396.711991 
L 648.519602 373.872163 
L 680.224148 339.646106 
L 711.928693 376.904792 
L 743.633239 416.427854 
L 775.337784 415.707106 
L 807.04233 388.843351 
L 838.746875 278.120779 
L 870.45142 313.462938 
" style="fill:none;stroke:#ff4500;stroke-linecap:square;stroke-width:1.5;"/>
   </g>
   <g id="line2d_107">
    <path clip-path="url(#pd8d1aab86a)" d="M 585.110511 445.906644 
L 616.815057 414.465121 
L 648.519602 471.027043 
L 680.224148 432.131882 
L 711.928693 421.407022 
L 743.633239 418.228646 
L 775.337784 412.923591 
L 807.04233 376.220657 
L 838.746875 305.294231 
L 870.45142 265.822752 
" style="fill:none;stroke:#00ff00;stroke-linecap:square;stroke-width:1.5;"/>
   </g>
   <g id="patch_3">
    <path d="M 71.496875 554.599219 
L 71.496875 10.999219 
" style="fill:none;stroke:#000000;stroke-linecap:square;stroke-linejoin:miter;stroke-width:0.8;"/>
   </g>
   <g id="patch_4">
    <path d="M 908.496875 554.599219 
L 908.496875 10.999219 
" style="fill:none;stroke:#000000;stroke-linecap:square;stroke-linejoin:miter;stroke-width:0.8;"/>
   </g>
   <g id="patch_5">
    <path d="M 71.496875 554.599219 
L 908.496875 554.599219 
" style="fill:none;stroke:#000000;stroke-linecap:square;stroke-linejoin:miter;stroke-width:0.8;"/>
   </g>
   <g id="patch_6">
    <path d="M 71.496875 10.999219 
L 908.496875 10.999219 
" style="fill:none;stroke:#000000;stroke-linecap:square;stroke-linejoin:miter;stroke-width:0.8;"/>
   </g>
   <g id="legend_1">
    <g id="patch_7">
     <path d="M 78.496875 532.733594 
L 134.478125 532.733594 
Q 136.478125 532.733594 136.478125 530.733594 
L 136.478125 17.999219 
Q 136.478125 15.999219 134.478125 15.999219 
L 78.496875 15.999219 
Q 76.496875 15.999219 76.496875 17.999219 
L 76.496875 530.733594 
Q 76.496875 532.733594 78.496875 532.733594 
z
" style="fill:#ffffff;opacity:0.8;stroke:#cccccc;stroke-linejoin:miter;"/>
    </g>
    <g id="line2d_108">
     <path d="M 80.496875 24.097656 
L 100.496875 24.097656 
" style="fill:none;stroke:#000000;stroke-linecap:square;stroke-width:1.5;"/>
    </g>
    <g id="line2d_109"/>
    <g id="text_39">
     <!-- ANA -->
     <g transform="translate(108.496875 27.597656)scale(0.1 -0.1)">
      <defs>
       <path d="M 2188 4044 
L 1331 1722 
L 3047 1722 
L 2188 4044 
z
M 1831 4666 
L 2547 4666 
L 4325 0 
L 3669 0 
L 3244 1197 
L 1141 1197 
L 716 0 
L 50 0 
L 1831 4666 
z
" id="DejaVuSans-41" transform="scale(0.015625)"/>
       <path d="M 628 4666 
L 1478 4666 
L 3547 763 
L 3547 4666 
L 4159 4666 
L 4159 0 
L 3309 0 
L 1241 3903 
L 1241 0 
L 628 0 
L 628 4666 
z
" id="DejaVuSans-4e" transform="scale(0.015625)"/>
      </defs>
      <use xlink:href="#DejaVuSans-41"/>
      <use x="68.408203" xlink:href="#DejaVuSans-4e"/>
      <use x="143.212891" xlink:href="#DejaVuSans-41"/>
     </g>
    </g>
    <g id="line2d_110">
     <path d="M 80.496875 38.775781 
L 100.496875 38.775781 
" style="fill:none;stroke:#0000ff;stroke-linecap:square;stroke-width:1.5;"/>
    </g>
    <g id="line2d_111"/>
    <g id="text_40">
     <!-- ARI -->
     <g transform="translate(108.496875 42.275781)scale(0.1 -0.1)">
      <defs>
       <path d="M 2841 2188 
Q 3044 2119 3236 1894 
Q 3428 1669 3622 1275 
L 4263 0 
L 3584 0 
L 2988 1197 
Q 2756 1666 2539 1819 
Q 2322 1972 1947 1972 
L 1259 1972 
L 1259 0 
L 628 0 
L 628 4666 
L 2053 4666 
Q 2853 4666 3247 4331 
Q 3641 3997 3641 3322 
Q 3641 2881 3436 2590 
Q 3231 2300 2841 2188 
z
M 1259 4147 
L 1259 2491 
L 2053 2491 
Q 2509 2491 2742 2702 
Q 2975 2913 2975 3322 
Q 2975 3731 2742 3939 
Q 2509 4147 2053 4147 
L 1259 4147 
z
" id="DejaVuSans-52" transform="scale(0.015625)"/>
       <path d="M 628 4666 
L 1259 4666 
L 1259 0 
L 628 0 
L 628 4666 
z
" id="DejaVuSans-49" transform="scale(0.015625)"/>
      </defs>
      <use xlink:href="#DejaVuSans-41"/>
      <use x="68.408203" xlink:href="#DejaVuSans-52"/>
      <use x="137.890625" xlink:href="#DejaVuSans-49"/>
     </g>
    </g>
    <g id="line2d_112">
     <path d="M 80.496875 53.453906 
L 100.496875 53.453906 
" style="fill:none;stroke:#b8860b;stroke-linecap:square;stroke-width:1.5;"/>
    </g>
    <g id="line2d_113"/>
    <g id="text_41">
     <!-- ATL -->
     <g transform="translate(108.496875 56.953906)scale(0.1 -0.1)">
      <defs>
       <path d="M 628 4666 
L 1259 4666 
L 1259 531 
L 3531 531 
L 3531 0 
L 628 0 
L 628 4666 
z
" id="DejaVuSans-4c" transform="scale(0.015625)"/>
      </defs>
      <use xlink:href="#DejaVuSans-41"/>
      <use x="60.658203" xlink:href="#DejaVuSans-54"/>
      <use x="121.742188" xlink:href="#DejaVuSans-4c"/>
     </g>
    </g>
    <g id="line2d_114">
     <path d="M 80.496875 68.132031 
L 100.496875 68.132031 
" style="fill:none;stroke:#a52a2a;stroke-linecap:square;stroke-width:1.5;"/>
    </g>
    <g id="line2d_115"/>
    <g id="text_42">
     <!-- BAL -->
     <g transform="translate(108.496875 71.632031)scale(0.1 -0.1)">
      <defs>
       <path d="M 1259 2228 
L 1259 519 
L 2272 519 
Q 2781 519 3026 730 
Q 3272 941 3272 1375 
Q 3272 1813 3026 2020 
Q 2781 2228 2272 2228 
L 1259 2228 
z
M 1259 4147 
L 1259 2741 
L 2194 2741 
Q 2656 2741 2882 2914 
Q 3109 3088 3109 3444 
Q 3109 3797 2882 3972 
Q 2656 4147 2194 4147 
L 1259 4147 
z
M 628 4666 
L 2241 4666 
Q 2963 4666 3353 4366 
Q 3744 4066 3744 3513 
Q 3744 3084 3544 2831 
Q 3344 2578 2956 2516 
Q 3422 2416 3680 2098 
Q 3938 1781 3938 1306 
Q 3938 681 3513 340 
Q 3088 0 2303 0 
L 628 0 
L 628 4666 
z
" id="DejaVuSans-42" transform="scale(0.015625)"/>
      </defs>
      <use xlink:href="#DejaVuSans-42"/>
      <use x="68.603516" xlink:href="#DejaVuSans-41"/>
      <use x="137.011719" xlink:href="#DejaVuSans-4c"/>
     </g>
    </g>
    <g id="line2d_116">
     <path d="M 80.496875 82.810156 
L 100.496875 82.810156 
" style="fill:none;stroke:#deb887;stroke-linecap:square;stroke-width:1.5;"/>
    </g>
    <g id="line2d_117"/>
    <g id="text_43">
     <!-- BOS -->
     <g transform="translate(108.496875 86.310156)scale(0.1 -0.1)">
      <defs>
       <path d="M 2522 4238 
Q 1834 4238 1429 3725 
Q 1025 3213 1025 2328 
Q 1025 1447 1429 934 
Q 1834 422 2522 422 
Q 3209 422 3611 934 
Q 4013 1447 4013 2328 
Q 4013 3213 3611 3725 
Q 3209 4238 2522 4238 
z
M 2522 4750 
Q 3503 4750 4090 4092 
Q 4678 3434 4678 2328 
Q 4678 1225 4090 567 
Q 3503 -91 2522 -91 
Q 1538 -91 948 565 
Q 359 1222 359 2328 
Q 359 3434 948 4092 
Q 1538 4750 2522 4750 
z
" id="DejaVuSans-4f" transform="scale(0.015625)"/>
       <path d="M 3425 4513 
L 3425 3897 
Q 3066 4069 2747 4153 
Q 2428 4238 2131 4238 
Q 1616 4238 1336 4038 
Q 1056 3838 1056 3469 
Q 1056 3159 1242 3001 
Q 1428 2844 1947 2747 
L 2328 2669 
Q 3034 2534 3370 2195 
Q 3706 1856 3706 1288 
Q 3706 609 3251 259 
Q 2797 -91 1919 -91 
Q 1588 -91 1214 -16 
Q 841 59 441 206 
L 441 856 
Q 825 641 1194 531 
Q 1563 422 1919 422 
Q 2459 422 2753 634 
Q 3047 847 3047 1241 
Q 3047 1584 2836 1778 
Q 2625 1972 2144 2069 
L 1759 2144 
Q 1053 2284 737 2584 
Q 422 2884 422 3419 
Q 422 4038 858 4394 
Q 1294 4750 2059 4750 
Q 2388 4750 2728 4690 
Q 3069 4631 3425 4513 
z
" id="DejaVuSans-53" transform="scale(0.015625)"/>
      </defs>
      <use xlink:href="#DejaVuSans-42"/>
      <use x="66.853516" xlink:href="#DejaVuSans-4f"/>
      <use x="145.564453" xlink:href="#DejaVuSans-53"/>
     </g>
    </g>
    <g id="line2d_118">
     <path d="M 80.496875 97.488281 
L 100.496875 97.488281 
" style="fill:none;stroke:#5f9ea0;stroke-linecap:square;stroke-width:1.5;"/>
    </g>
    <g id="line2d_119"/>
    <g id="text_44">
     <!-- CAL -->
     <g transform="translate(108.496875 100.988281)scale(0.1 -0.1)">
      <defs>
       <path d="M 4122 4306 
L 4122 3641 
Q 3803 3938 3442 4084 
Q 3081 4231 2675 4231 
Q 1875 4231 1450 3742 
Q 1025 3253 1025 2328 
Q 1025 1406 1450 917 
Q 1875 428 2675 428 
Q 3081 428 3442 575 
Q 3803 722 4122 1019 
L 4122 359 
Q 3791 134 3420 21 
Q 3050 -91 2638 -91 
Q 1578 -91 968 557 
Q 359 1206 359 2328 
Q 359 3453 968 4101 
Q 1578 4750 2638 4750 
Q 3056 4750 3426 4639 
Q 3797 4528 4122 4306 
z
" id="DejaVuSans-43" transform="scale(0.015625)"/>
      </defs>
      <use xlink:href="#DejaVuSans-43"/>
      <use x="69.824219" xlink:href="#DejaVuSans-41"/>
      <use x="138.232422" xlink:href="#DejaVuSans-4c"/>
     </g>
    </g>
    <g id="line2d_120">
     <path d="M 80.496875 112.166406 
L 100.496875 112.166406 
" style="fill:none;stroke:#7fff00;stroke-linecap:square;stroke-width:1.5;"/>
    </g>
    <g id="line2d_121"/>
    <g id="text_45">
     <!-- CHA -->
     <g transform="translate(108.496875 115.666406)scale(0.1 -0.1)">
      <defs>
       <path d="M 628 4666 
L 1259 4666 
L 1259 2753 
L 3553 2753 
L 3553 4666 
L 4184 4666 
L 4184 0 
L 3553 0 
L 3553 2222 
L 1259 2222 
L 1259 0 
L 628 0 
L 628 4666 
z
" id="DejaVuSans-48" transform="scale(0.015625)"/>
      </defs>
      <use xlink:href="#DejaVuSans-43"/>
      <use x="69.824219" xlink:href="#DejaVuSans-48"/>
      <use x="145.019531" xlink:href="#DejaVuSans-41"/>
     </g>
    </g>
    <g id="line2d_122">
     <path d="M 80.496875 126.844531 
L 100.496875 126.844531 
" style="fill:none;stroke:#d2691e;stroke-linecap:square;stroke-width:1.5;"/>
    </g>
    <g id="line2d_123"/>
    <g id="text_46">
     <!-- CHN -->
     <g transform="translate(108.496875 130.344531)scale(0.1 -0.1)">
      <use xlink:href="#DejaVuSans-43"/>
      <use x="69.824219" xlink:href="#DejaVuSans-48"/>
      <use x="145.019531" xlink:href="#DejaVuSans-4e"/>
     </g>
    </g>
    <g id="line2d_124">
     <path d="M 80.496875 141.522656 
L 100.496875 141.522656 
" style="fill:none;stroke:#ff7f50;stroke-linecap:square;stroke-width:1.5;"/>
    </g>
    <g id="line2d_125"/>
    <g id="text_47">
     <!-- CIN -->
     <g transform="translate(108.496875 145.022656)scale(0.1 -0.1)">
      <use xlink:href="#DejaVuSans-43"/>
      <use x="69.824219" xlink:href="#DejaVuSans-49"/>
      <use x="99.316406" xlink:href="#DejaVuSans-4e"/>
     </g>
    </g>
    <g id="line2d_126">
     <path d="M 80.496875 156.200781 
L 100.496875 156.200781 
" style="fill:none;stroke:#6495ed;stroke-linecap:square;stroke-width:1.5;"/>
    </g>
    <g id="line2d_127"/>
    <g id="text_48">
     <!-- CLE -->
     <g transform="translate(108.496875 159.700781)scale(0.1 -0.1)">
      <defs>
       <path d="M 628 4666 
L 3578 4666 
L 3578 4134 
L 1259 4134 
L 1259 2753 
L 3481 2753 
L 3481 2222 
L 1259 2222 
L 1259 531 
L 3634 531 
L 3634 0 
L 628 0 
L 628 4666 
z
" id="DejaVuSans-45" transform="scale(0.015625)"/>
      </defs>
      <use xlink:href="#DejaVuSans-43"/>
      <use x="69.824219" xlink:href="#DejaVuSans-4c"/>
      <use x="125.537109" xlink:href="#DejaVuSans-45"/>
     </g>
    </g>
    <g id="line2d_128">
     <path d="M 80.496875 170.878906 
L 100.496875 170.878906 
" style="fill:none;stroke:#dc143c;stroke-linecap:square;stroke-width:1.5;"/>
    </g>
    <g id="line2d_129"/>
    <g id="text_49">
     <!-- COL -->
     <g transform="translate(108.496875 174.378906)scale(0.1 -0.1)">
      <use xlink:href="#DejaVuSans-43"/>
      <use x="69.824219" xlink:href="#DejaVuSans-4f"/>
      <use x="148.535156" xlink:href="#DejaVuSans-4c"/>
     </g>
    </g>
    <g id="line2d_130">
     <path d="M 80.496875 185.557031 
L 100.496875 185.557031 
" style="fill:none;stroke:#00ffff;stroke-linecap:square;stroke-width:1.5;"/>
    </g>
    <g id="line2d_131"/>
    <g id="text_50">
     <!-- DET -->
     <g transform="translate(108.496875 189.057031)scale(0.1 -0.1)">
      <defs>
       <path d="M 1259 4147 
L 1259 519 
L 2022 519 
Q 2988 519 3436 956 
Q 3884 1394 3884 2338 
Q 3884 3275 3436 3711 
Q 2988 4147 2022 4147 
L 1259 4147 
z
M 628 4666 
L 1925 4666 
Q 3281 4666 3915 4102 
Q 4550 3538 4550 2338 
Q 4550 1131 3912 565 
Q 3275 0 1925 0 
L 628 0 
L 628 4666 
z
" id="DejaVuSans-44" transform="scale(0.015625)"/>
      </defs>
      <use xlink:href="#DejaVuSans-44"/>
      <use x="77.001953" xlink:href="#DejaVuSans-45"/>
      <use x="140.185547" xlink:href="#DejaVuSans-54"/>
     </g>
    </g>
    <g id="line2d_132">
     <path d="M 80.496875 200.235156 
L 100.496875 200.235156 
" style="fill:none;stroke:#00008b;stroke-linecap:square;stroke-width:1.5;"/>
    </g>
    <g id="line2d_133"/>
    <g id="text_51">
     <!-- FLO -->
     <g transform="translate(108.496875 203.735156)scale(0.1 -0.1)">
      <defs>
       <path d="M 628 4666 
L 3309 4666 
L 3309 4134 
L 1259 4134 
L 1259 2759 
L 3109 2759 
L 3109 2228 
L 1259 2228 
L 1259 0 
L 628 0 
L 628 4666 
z
" id="DejaVuSans-46" transform="scale(0.015625)"/>
      </defs>
      <use xlink:href="#DejaVuSans-46"/>
      <use x="57.519531" xlink:href="#DejaVuSans-4c"/>
      <use x="109.607422" xlink:href="#DejaVuSans-4f"/>
     </g>
    </g>
    <g id="line2d_134">
     <path d="M 80.496875 214.913281 
L 100.496875 214.913281 
" style="fill:none;stroke:#008b8b;stroke-linecap:square;stroke-width:1.5;"/>
    </g>
    <g id="line2d_135"/>
    <g id="text_52">
     <!-- HOU -->
     <g transform="translate(108.496875 218.413281)scale(0.1 -0.1)">
      <defs>
       <path d="M 556 4666 
L 1191 4666 
L 1191 1831 
Q 1191 1081 1462 751 
Q 1734 422 2344 422 
Q 2950 422 3222 751 
Q 3494 1081 3494 1831 
L 3494 4666 
L 4128 4666 
L 4128 1753 
Q 4128 841 3676 375 
Q 3225 -91 2344 -91 
Q 1459 -91 1007 375 
Q 556 841 556 1753 
L 556 4666 
z
" id="DejaVuSans-55" transform="scale(0.015625)"/>
      </defs>
      <use xlink:href="#DejaVuSans-48"/>
      <use x="75.195312" xlink:href="#DejaVuSans-4f"/>
      <use x="153.90625" xlink:href="#DejaVuSans-55"/>
     </g>
    </g>
    <g id="line2d_136">
     <path d="M 80.496875 229.591406 
L 100.496875 229.591406 
" style="fill:none;stroke:#b8860b;stroke-linecap:square;stroke-width:1.5;"/>
    </g>
    <g id="line2d_137"/>
    <g id="text_53">
     <!-- KCA -->
     <g transform="translate(108.496875 233.091406)scale(0.1 -0.1)">
      <defs>
       <path d="M 628 4666 
L 1259 4666 
L 1259 2694 
L 3353 4666 
L 4166 4666 
L 1850 2491 
L 4331 0 
L 3500 0 
L 1259 2247 
L 1259 0 
L 628 0 
L 628 4666 
z
" id="DejaVuSans-4b" transform="scale(0.015625)"/>
      </defs>
      <use xlink:href="#DejaVuSans-4b"/>
      <use x="60.076172" xlink:href="#DejaVuSans-43"/>
      <use x="129.900391" xlink:href="#DejaVuSans-41"/>
     </g>
    </g>
    <g id="line2d_138">
     <path d="M 80.496875 244.269531 
L 100.496875 244.269531 
" style="fill:none;stroke:#a9a9a9;stroke-linecap:square;stroke-width:1.5;"/>
    </g>
    <g id="line2d_139"/>
    <g id="text_54">
     <!-- LAA -->
     <g transform="translate(108.496875 247.769531)scale(0.1 -0.1)">
      <use xlink:href="#DejaVuSans-4c"/>
      <use x="57.962891" xlink:href="#DejaVuSans-41"/>
      <use x="129.121094" xlink:href="#DejaVuSans-41"/>
     </g>
    </g>
    <g id="line2d_140">
     <path d="M 80.496875 258.947656 
L 100.496875 258.947656 
" style="fill:none;stroke:#006400;stroke-linecap:square;stroke-width:1.5;"/>
    </g>
    <g id="line2d_141"/>
    <g id="text_55">
     <!-- LAN -->
     <g transform="translate(108.496875 262.447656)scale(0.1 -0.1)">
      <use xlink:href="#DejaVuSans-4c"/>
      <use x="57.962891" xlink:href="#DejaVuSans-41"/>
      <use x="126.371094" xlink:href="#DejaVuSans-4e"/>
     </g>
    </g>
    <g id="line2d_142">
     <path d="M 80.496875 273.625781 
L 100.496875 273.625781 
" style="fill:none;stroke:#bdb76b;stroke-linecap:square;stroke-width:1.5;"/>
    </g>
    <g id="line2d_143"/>
    <g id="text_56">
     <!-- MIA -->
     <g transform="translate(108.496875 277.125781)scale(0.1 -0.1)">
      <use xlink:href="#DejaVuSans-4d"/>
      <use x="86.279297" xlink:href="#DejaVuSans-49"/>
      <use x="115.771484" xlink:href="#DejaVuSans-41"/>
     </g>
    </g>
    <g id="line2d_144">
     <path d="M 80.496875 288.303906 
L 100.496875 288.303906 
" style="fill:none;stroke:#b22222;stroke-linecap:square;stroke-width:1.5;"/>
    </g>
    <g id="line2d_145"/>
    <g id="text_57">
     <!-- MIL -->
     <g transform="translate(108.496875 291.803906)scale(0.1 -0.1)">
      <use xlink:href="#DejaVuSans-4d"/>
      <use x="86.279297" xlink:href="#DejaVuSans-49"/>
      <use x="115.771484" xlink:href="#DejaVuSans-4c"/>
     </g>
    </g>
    <g id="line2d_146">
     <path d="M 80.496875 302.982031 
L 100.496875 302.982031 
" style="fill:none;stroke:#556b2f;stroke-linecap:square;stroke-width:1.5;"/>
    </g>
    <g id="line2d_147"/>
    <g id="text_58">
     <!-- MIN -->
     <g transform="translate(108.496875 306.482031)scale(0.1 -0.1)">
      <use xlink:href="#DejaVuSans-4d"/>
      <use x="86.279297" xlink:href="#DejaVuSans-49"/>
      <use x="115.771484" xlink:href="#DejaVuSans-4e"/>
     </g>
    </g>
    <g id="line2d_148">
     <path d="M 80.496875 317.660156 
L 100.496875 317.660156 
" style="fill:none;stroke:#ff8c00;stroke-linecap:square;stroke-width:1.5;"/>
    </g>
    <g id="line2d_149"/>
    <g id="text_59">
     <!-- ML4 -->
     <g transform="translate(108.496875 321.160156)scale(0.1 -0.1)">
      <use xlink:href="#DejaVuSans-4d"/>
      <use x="86.279297" xlink:href="#DejaVuSans-4c"/>
      <use x="141.992188" xlink:href="#DejaVuSans-34"/>
     </g>
    </g>
    <g id="line2d_150">
     <path d="M 80.496875 332.338281 
L 100.496875 332.338281 
" style="fill:none;stroke:#ff00ff;stroke-linecap:square;stroke-width:1.5;"/>
    </g>
    <g id="line2d_151"/>
    <g id="text_60">
     <!-- MON -->
     <g transform="translate(108.496875 335.838281)scale(0.1 -0.1)">
      <use xlink:href="#DejaVuSans-4d"/>
      <use x="86.279297" xlink:href="#DejaVuSans-4f"/>
      <use x="164.990234" xlink:href="#DejaVuSans-4e"/>
     </g>
    </g>
    <g id="line2d_152">
     <path d="M 80.496875 347.016406 
L 100.496875 347.016406 
" style="fill:none;stroke:#8b0000;stroke-linecap:square;stroke-width:1.5;"/>
    </g>
    <g id="line2d_153"/>
    <g id="text_61">
     <!-- NYA -->
     <g transform="translate(108.496875 350.516406)scale(0.1 -0.1)">
      <use xlink:href="#DejaVuSans-4e"/>
      <use x="74.804688" xlink:href="#DejaVuSans-59"/>
      <use x="128.138672" xlink:href="#DejaVuSans-41"/>
     </g>
    </g>
    <g id="line2d_154">
     <path d="M 80.496875 361.694531 
L 100.496875 361.694531 
" style="fill:none;stroke:#e9967a;stroke-linecap:square;stroke-width:1.5;"/>
    </g>
    <g id="line2d_155"/>
    <g id="text_62">
     <!-- NYN -->
     <g transform="translate(108.496875 365.194531)scale(0.1 -0.1)">
      <use xlink:href="#DejaVuSans-4e"/>
      <use x="74.804688" xlink:href="#DejaVuSans-59"/>
      <use x="135.888672" xlink:href="#DejaVuSans-4e"/>
     </g>
    </g>
    <g id="line2d_156">
     <path d="M 80.496875 376.372656 
L 100.496875 376.372656 
" style="fill:none;stroke:#8fbc8f;stroke-linecap:square;stroke-width:1.5;"/>
    </g>
    <g id="line2d_157"/>
    <g id="text_63">
     <!-- OAK -->
     <g transform="translate(108.496875 379.872656)scale(0.1 -0.1)">
      <use xlink:href="#DejaVuSans-4f"/>
      <use x="76.960938" xlink:href="#DejaVuSans-41"/>
      <use x="145.369141" xlink:href="#DejaVuSans-4b"/>
     </g>
    </g>
    <g id="line2d_158">
     <path d="M 80.496875 391.050781 
L 100.496875 391.050781 
" style="fill:none;stroke:#483d8b;stroke-linecap:square;stroke-width:1.5;"/>
    </g>
    <g id="line2d_159"/>
    <g id="text_64">
     <!-- PHI -->
     <g transform="translate(108.496875 394.550781)scale(0.1 -0.1)">
      <use xlink:href="#DejaVuSans-50"/>
      <use x="60.302734" xlink:href="#DejaVuSans-48"/>
      <use x="135.498047" xlink:href="#DejaVuSans-49"/>
     </g>
    </g>
    <g id="line2d_160">
     <path d="M 80.496875 405.728906 
L 100.496875 405.728906 
" style="fill:none;stroke:#2f4f4f;stroke-linecap:square;stroke-width:1.5;"/>
    </g>
    <g id="line2d_161"/>
    <g id="text_65">
     <!-- PIT -->
     <g transform="translate(108.496875 409.228906)scale(0.1 -0.1)">
      <use xlink:href="#DejaVuSans-50"/>
      <use x="60.302734" xlink:href="#DejaVuSans-49"/>
      <use x="89.794922" xlink:href="#DejaVuSans-54"/>
     </g>
    </g>
    <g id="line2d_162">
     <path d="M 80.496875 420.407031 
L 100.496875 420.407031 
" style="fill:none;stroke:#00ced1;stroke-linecap:square;stroke-width:1.5;"/>
    </g>
    <g id="line2d_163"/>
    <g id="text_66">
     <!-- SDN -->
     <g transform="translate(108.496875 423.907031)scale(0.1 -0.1)">
      <use xlink:href="#DejaVuSans-53"/>
      <use x="63.476562" xlink:href="#DejaVuSans-44"/>
      <use x="140.478516" xlink:href="#DejaVuSans-4e"/>
     </g>
    </g>
    <g id="line2d_164">
     <path d="M 80.496875 435.085156 
L 100.496875 435.085156 
" style="fill:none;stroke:#9400d3;stroke-linecap:square;stroke-width:1.5;"/>
    </g>
    <g id="line2d_165"/>
    <g id="text_67">
     <!-- SEA -->
     <g transform="translate(108.496875 438.585156)scale(0.1 -0.1)">
      <use xlink:href="#DejaVuSans-53"/>
      <use x="63.476562" xlink:href="#DejaVuSans-45"/>
      <use x="126.660156" xlink:href="#DejaVuSans-41"/>
     </g>
    </g>
    <g id="line2d_166">
     <path d="M 80.496875 449.763281 
L 100.496875 449.763281 
" style="fill:none;stroke:#ff1493;stroke-linecap:square;stroke-width:1.5;"/>
    </g>
    <g id="line2d_167"/>
    <g id="text_68">
     <!-- SFN -->
     <g transform="translate(108.496875 453.263281)scale(0.1 -0.1)">
      <use xlink:href="#DejaVuSans-53"/>
      <use x="63.476562" xlink:href="#DejaVuSans-46"/>
      <use x="120.996094" xlink:href="#DejaVuSans-4e"/>
     </g>
    </g>
    <g id="line2d_168">
     <path d="M 80.496875 464.441406 
L 100.496875 464.441406 
" style="fill:none;stroke:#00bfff;stroke-linecap:square;stroke-width:1.5;"/>
    </g>
    <g id="line2d_169"/>
    <g id="text_69">
     <!-- SLN -->
     <g transform="translate(108.496875 467.941406)scale(0.1 -0.1)">
      <use xlink:href="#DejaVuSans-53"/>
      <use x="63.476562" xlink:href="#DejaVuSans-4c"/>
      <use x="119.189453" xlink:href="#DejaVuSans-4e"/>
     </g>
    </g>
    <g id="line2d_170">
     <path d="M 80.496875 479.119531 
L 100.496875 479.119531 
" style="fill:none;stroke:#696969;stroke-linecap:square;stroke-width:1.5;"/>
    </g>
    <g id="line2d_171"/>
    <g id="text_70">
     <!-- TBA -->
     <g transform="translate(108.496875 482.619531)scale(0.1 -0.1)">
      <use xlink:href="#DejaVuSans-54"/>
      <use x="61.083984" xlink:href="#DejaVuSans-42"/>
      <use x="129.6875" xlink:href="#DejaVuSans-41"/>
     </g>
    </g>
    <g id="line2d_172">
     <path d="M 80.496875 493.797656 
L 100.496875 493.797656 
" style="fill:none;stroke:#1e90ff;stroke-linecap:square;stroke-width:1.5;"/>
    </g>
    <g id="line2d_173"/>
    <g id="text_71">
     <!-- TEX -->
     <g transform="translate(108.496875 497.297656)scale(0.1 -0.1)">
      <defs>
       <path d="M 403 4666 
L 1081 4666 
L 2241 2931 
L 3406 4666 
L 4084 4666 
L 2584 2425 
L 4184 0 
L 3506 0 
L 2194 1984 
L 872 0 
L 191 0 
L 1856 2491 
L 403 4666 
z
" id="DejaVuSans-58" transform="scale(0.015625)"/>
      </defs>
      <use xlink:href="#DejaVuSans-54"/>
      <use x="61.083984" xlink:href="#DejaVuSans-45"/>
      <use x="124.267578" xlink:href="#DejaVuSans-58"/>
     </g>
    </g>
    <g id="line2d_174">
     <path d="M 80.496875 508.475781 
L 100.496875 508.475781 
" style="fill:none;stroke:#ff4500;stroke-linecap:square;stroke-width:1.5;"/>
    </g>
    <g id="line2d_175"/>
    <g id="text_72">
     <!-- TOR -->
     <g transform="translate(108.496875 511.975781)scale(0.1 -0.1)">
      <use xlink:href="#DejaVuSans-54"/>
      <use x="61.083984" xlink:href="#DejaVuSans-4f"/>
      <use x="139.794922" xlink:href="#DejaVuSans-52"/>
     </g>
    </g>
    <g id="line2d_176">
     <path d="M 80.496875 523.153906 
L 100.496875 523.153906 
" style="fill:none;stroke:#00ff00;stroke-linecap:square;stroke-width:1.5;"/>
    </g>
    <g id="line2d_177"/>
    <g id="text_73">
     <!-- WAS -->
     <g transform="translate(108.496875 526.653906)scale(0.1 -0.1)">
      <defs>
       <path d="M 213 4666 
L 850 4666 
L 1831 722 
L 2809 4666 
L 3519 4666 
L 4500 722 
L 5478 4666 
L 6119 4666 
L 4947 0 
L 4153 0 
L 3169 4050 
L 2175 0 
L 1381 0 
L 213 4666 
z
" id="DejaVuSans-57" transform="scale(0.015625)"/>
      </defs>
      <use xlink:href="#DejaVuSans-57"/>
      <use x="93.376953" xlink:href="#DejaVuSans-41"/>
      <use x="161.785156" xlink:href="#DejaVuSans-53"/>
     </g>
    </g>
   </g>
  </g>
 </g>
 <defs>
  <clipPath id="pd8d1aab86a">
   <rect height="543.6" width="837" x="71.496875" y="10.999219"/>
  </clipPath>
 </defs>
</svg>
