<?xml version="1.0" encoding="utf-8" standalone="no"?>
<!DOCTYPE svg PUBLIC "-//W3C//DTD SVG 1.1//EN"
  "http://www.w3.org/Graphics/SVG/1.1/DTD/svg11.dtd">
<svg height="603.474375pt" version="1.1" viewBox="0 0 894.100602 603.474375" width="894.100602pt" xmlns="http://www.w3.org/2000/svg" xmlns:xlink="http://www.w3.org/1999/xlink">
 <metadata>
  <rdf:RDF xmlns:cc="http://creativecommons.org/ns#" xmlns:dc="http://purl.org/dc/elements/1.1/" xmlns:rdf="http://www.w3.org/1999/02/22-rdf-syntax-ns#">
   <cc:Work>
    <dc:type rdf:resource="http://purl.org/dc/dcmitype/StillImage"/>
    <dc:date>2021-07-06T19:28:21.853799</dc:date>
    <dc:format>image/svg+xml</dc:format>
    <dc:creator>
     <cc:Agent>
      <dc:title>Matplotlib v3.4.2, https://matplotlib.org/</dc:title>
     </cc:Agent>
    </dc:creator>
   </cc:Work>
  </rdf:RDF>
 </metadata>
 <defs>
  <style type="text/css">*{stroke-linecap:butt;stroke-linejoin:round;}</style>
 </defs>
 <g id="figure_1">
  <g id="patch_1">
   <path d="M 0 603.474375 
L 894.100602 603.474375 
L 894.100602 0 
L 0 0 
z
" style="fill:none;"/>
  </g>
  <g id="axes_1">
   <g id="patch_2">
    <path d="M 48.982813 565.918125 
L 885.982813 565.918125 
L 885.982813 22.318125 
L 48.982813 22.318125 
z
" style="fill:#ffffff;"/>
   </g>
   <g id="matplotlib.axis_1">
    <g id="xtick_1">
     <g id="line2d_1">
      <path clip-path="url(#pc62a0f0e2a)" d="M 87.028267 565.918125 
L 87.028267 22.318125 
" style="fill:none;stroke:#b0b0b0;stroke-linecap:square;stroke-width:0.8;"/>
     </g>
     <g id="line2d_2">
      <defs>
       <path d="M 0 0 
L 0 3.5 
" id="m146c71b692" style="stroke:#000000;stroke-width:0.8;"/>
      </defs>
      <g>
       <use style="stroke:#000000;stroke-width:0.8;" x="87.028267" xlink:href="#m146c71b692" y="565.918125"/>
      </g>
     </g>
     <g id="text_1">
      <!-- 1985 -->
      <g transform="translate(74.303267 580.516562)scale(0.1 -0.1)">
       <defs>
        <path d="M 794 531 
L 1825 531 
L 1825 4091 
L 703 3866 
L 703 4441 
L 1819 4666 
L 2450 4666 
L 2450 531 
L 3481 531 
L 3481 0 
L 794 0 
L 794 531 
z
" id="DejaVuSans-31" transform="scale(0.015625)"/>
        <path d="M 703 97 
L 703 672 
Q 941 559 1184 500 
Q 1428 441 1663 441 
Q 2288 441 2617 861 
Q 2947 1281 2994 2138 
Q 2813 1869 2534 1725 
Q 2256 1581 1919 1581 
Q 1219 1581 811 2004 
Q 403 2428 403 3163 
Q 403 3881 828 4315 
Q 1253 4750 1959 4750 
Q 2769 4750 3195 4129 
Q 3622 3509 3622 2328 
Q 3622 1225 3098 567 
Q 2575 -91 1691 -91 
Q 1453 -91 1209 -44 
Q 966 3 703 97 
z
M 1959 2075 
Q 2384 2075 2632 2365 
Q 2881 2656 2881 3163 
Q 2881 3666 2632 3958 
Q 2384 4250 1959 4250 
Q 1534 4250 1286 3958 
Q 1038 3666 1038 3163 
Q 1038 2656 1286 2365 
Q 1534 2075 1959 2075 
z
" id="DejaVuSans-39" transform="scale(0.015625)"/>
        <path d="M 2034 2216 
Q 1584 2216 1326 1975 
Q 1069 1734 1069 1313 
Q 1069 891 1326 650 
Q 1584 409 2034 409 
Q 2484 409 2743 651 
Q 3003 894 3003 1313 
Q 3003 1734 2745 1975 
Q 2488 2216 2034 2216 
z
M 1403 2484 
Q 997 2584 770 2862 
Q 544 3141 544 3541 
Q 544 4100 942 4425 
Q 1341 4750 2034 4750 
Q 2731 4750 3128 4425 
Q 3525 4100 3525 3541 
Q 3525 3141 3298 2862 
Q 3072 2584 2669 2484 
Q 3125 2378 3379 2068 
Q 3634 1759 3634 1313 
Q 3634 634 3220 271 
Q 2806 -91 2034 -91 
Q 1263 -91 848 271 
Q 434 634 434 1313 
Q 434 1759 690 2068 
Q 947 2378 1403 2484 
z
M 1172 3481 
Q 1172 3119 1398 2916 
Q 1625 2713 2034 2713 
Q 2441 2713 2670 2916 
Q 2900 3119 2900 3481 
Q 2900 3844 2670 4047 
Q 2441 4250 2034 4250 
Q 1625 4250 1398 4047 
Q 1172 3844 1172 3481 
z
" id="DejaVuSans-38" transform="scale(0.015625)"/>
        <path d="M 691 4666 
L 3169 4666 
L 3169 4134 
L 1269 4134 
L 1269 2991 
Q 1406 3038 1543 3061 
Q 1681 3084 1819 3084 
Q 2600 3084 3056 2656 
Q 3513 2228 3513 1497 
Q 3513 744 3044 326 
Q 2575 -91 1722 -91 
Q 1428 -91 1123 -41 
Q 819 9 494 109 
L 494 744 
Q 775 591 1075 516 
Q 1375 441 1709 441 
Q 2250 441 2565 725 
Q 2881 1009 2881 1497 
Q 2881 1984 2565 2268 
Q 2250 2553 1709 2553 
Q 1456 2553 1204 2497 
Q 953 2441 691 2322 
L 691 4666 
z
" id="DejaVuSans-35" transform="scale(0.015625)"/>
       </defs>
       <use xlink:href="#DejaVuSans-31"/>
       <use x="63.623047" xlink:href="#DejaVuSans-39"/>
       <use x="127.246094" xlink:href="#DejaVuSans-38"/>
       <use x="190.869141" xlink:href="#DejaVuSans-35"/>
      </g>
     </g>
    </g>
    <g id="xtick_2">
     <g id="line2d_3">
      <path clip-path="url(#pc62a0f0e2a)" d="M 218.21949 565.918125 
L 218.21949 22.318125 
" style="fill:none;stroke:#b0b0b0;stroke-linecap:square;stroke-width:0.8;"/>
     </g>
     <g id="line2d_4">
      <g>
       <use style="stroke:#000000;stroke-width:0.8;" x="218.21949" xlink:href="#m146c71b692" y="565.918125"/>
      </g>
     </g>
     <g id="text_2">
      <!-- 1990 -->
      <g transform="translate(205.49449 580.516562)scale(0.1 -0.1)">
       <defs>
        <path d="M 2034 4250 
Q 1547 4250 1301 3770 
Q 1056 3291 1056 2328 
Q 1056 1369 1301 889 
Q 1547 409 2034 409 
Q 2525 409 2770 889 
Q 3016 1369 3016 2328 
Q 3016 3291 2770 3770 
Q 2525 4250 2034 4250 
z
M 2034 4750 
Q 2819 4750 3233 4129 
Q 3647 3509 3647 2328 
Q 3647 1150 3233 529 
Q 2819 -91 2034 -91 
Q 1250 -91 836 529 
Q 422 1150 422 2328 
Q 422 3509 836 4129 
Q 1250 4750 2034 4750 
z
" id="DejaVuSans-30" transform="scale(0.015625)"/>
       </defs>
       <use xlink:href="#DejaVuSans-31"/>
       <use x="63.623047" xlink:href="#DejaVuSans-39"/>
       <use x="127.246094" xlink:href="#DejaVuSans-39"/>
       <use x="190.869141" xlink:href="#DejaVuSans-30"/>
      </g>
     </g>
    </g>
    <g id="xtick_3">
     <g id="line2d_5">
      <path clip-path="url(#pc62a0f0e2a)" d="M 349.410712 565.918125 
L 349.410712 22.318125 
" style="fill:none;stroke:#b0b0b0;stroke-linecap:square;stroke-width:0.8;"/>
     </g>
     <g id="line2d_6">
      <g>
       <use style="stroke:#000000;stroke-width:0.8;" x="349.410712" xlink:href="#m146c71b692" y="565.918125"/>
      </g>
     </g>
     <g id="text_3">
      <!-- 1995 -->
      <g transform="translate(336.685712 580.516562)scale(0.1 -0.1)">
       <use xlink:href="#DejaVuSans-31"/>
       <use x="63.623047" xlink:href="#DejaVuSans-39"/>
       <use x="127.246094" xlink:href="#DejaVuSans-39"/>
       <use x="190.869141" xlink:href="#DejaVuSans-35"/>
      </g>
     </g>
    </g>
    <g id="xtick_4">
     <g id="line2d_7">
      <path clip-path="url(#pc62a0f0e2a)" d="M 480.601935 565.918125 
L 480.601935 22.318125 
" style="fill:none;stroke:#b0b0b0;stroke-linecap:square;stroke-width:0.8;"/>
     </g>
     <g id="line2d_8">
      <g>
       <use style="stroke:#000000;stroke-width:0.8;" x="480.601935" xlink:href="#m146c71b692" y="565.918125"/>
      </g>
     </g>
     <g id="text_4">
      <!-- 2000 -->
      <g transform="translate(467.876935 580.516562)scale(0.1 -0.1)">
       <defs>
        <path d="M 1228 531 
L 3431 531 
L 3431 0 
L 469 0 
L 469 531 
Q 828 903 1448 1529 
Q 2069 2156 2228 2338 
Q 2531 2678 2651 2914 
Q 2772 3150 2772 3378 
Q 2772 3750 2511 3984 
Q 2250 4219 1831 4219 
Q 1534 4219 1204 4116 
Q 875 4013 500 3803 
L 500 4441 
Q 881 4594 1212 4672 
Q 1544 4750 1819 4750 
Q 2544 4750 2975 4387 
Q 3406 4025 3406 3419 
Q 3406 3131 3298 2873 
Q 3191 2616 2906 2266 
Q 2828 2175 2409 1742 
Q 1991 1309 1228 531 
z
" id="DejaVuSans-32" transform="scale(0.015625)"/>
       </defs>
       <use xlink:href="#DejaVuSans-32"/>
       <use x="63.623047" xlink:href="#DejaVuSans-30"/>
       <use x="127.246094" xlink:href="#DejaVuSans-30"/>
       <use x="190.869141" xlink:href="#DejaVuSans-30"/>
      </g>
     </g>
    </g>
    <g id="xtick_5">
     <g id="line2d_9">
      <path clip-path="url(#pc62a0f0e2a)" d="M 611.793157 565.918125 
L 611.793157 22.318125 
" style="fill:none;stroke:#b0b0b0;stroke-linecap:square;stroke-width:0.8;"/>
     </g>
     <g id="line2d_10">
      <g>
       <use style="stroke:#000000;stroke-width:0.8;" x="611.793157" xlink:href="#m146c71b692" y="565.918125"/>
      </g>
     </g>
     <g id="text_5">
      <!-- 2005 -->
      <g transform="translate(599.068157 580.516562)scale(0.1 -0.1)">
       <use xlink:href="#DejaVuSans-32"/>
       <use x="63.623047" xlink:href="#DejaVuSans-30"/>
       <use x="127.246094" xlink:href="#DejaVuSans-30"/>
       <use x="190.869141" xlink:href="#DejaVuSans-35"/>
      </g>
     </g>
    </g>
    <g id="xtick_6">
     <g id="line2d_11">
      <path clip-path="url(#pc62a0f0e2a)" d="M 742.98438 565.918125 
L 742.98438 22.318125 
" style="fill:none;stroke:#b0b0b0;stroke-linecap:square;stroke-width:0.8;"/>
     </g>
     <g id="line2d_12">
      <g>
       <use style="stroke:#000000;stroke-width:0.8;" x="742.98438" xlink:href="#m146c71b692" y="565.918125"/>
      </g>
     </g>
     <g id="text_6">
      <!-- 2010 -->
      <g transform="translate(730.25938 580.516562)scale(0.1 -0.1)">
       <use xlink:href="#DejaVuSans-32"/>
       <use x="63.623047" xlink:href="#DejaVuSans-30"/>
       <use x="127.246094" xlink:href="#DejaVuSans-31"/>
       <use x="190.869141" xlink:href="#DejaVuSans-30"/>
      </g>
     </g>
    </g>
    <g id="xtick_7">
     <g id="line2d_13">
      <path clip-path="url(#pc62a0f0e2a)" d="M 874.175602 565.918125 
L 874.175602 22.318125 
" style="fill:none;stroke:#b0b0b0;stroke-linecap:square;stroke-width:0.8;"/>
     </g>
     <g id="line2d_14">
      <g>
       <use style="stroke:#000000;stroke-width:0.8;" x="874.175602" xlink:href="#m146c71b692" y="565.918125"/>
      </g>
     </g>
     <g id="text_7">
      <!-- 2015 -->
      <g transform="translate(861.450602 580.516562)scale(0.1 -0.1)">
       <use xlink:href="#DejaVuSans-32"/>
       <use x="63.623047" xlink:href="#DejaVuSans-30"/>
       <use x="127.246094" xlink:href="#DejaVuSans-31"/>
       <use x="190.869141" xlink:href="#DejaVuSans-35"/>
      </g>
     </g>
    </g>
    <g id="text_8">
     <!-- Year -->
     <g transform="translate(456.895313 594.194687)scale(0.1 -0.1)">
      <defs>
       <path d="M -13 4666 
L 666 4666 
L 1959 2747 
L 3244 4666 
L 3922 4666 
L 2272 2222 
L 2272 0 
L 1638 0 
L 1638 2222 
L -13 4666 
z
" id="DejaVuSans-59" transform="scale(0.015625)"/>
       <path d="M 3597 1894 
L 3597 1613 
L 953 1613 
Q 991 1019 1311 708 
Q 1631 397 2203 397 
Q 2534 397 2845 478 
Q 3156 559 3463 722 
L 3463 178 
Q 3153 47 2828 -22 
Q 2503 -91 2169 -91 
Q 1331 -91 842 396 
Q 353 884 353 1716 
Q 353 2575 817 3079 
Q 1281 3584 2069 3584 
Q 2775 3584 3186 3129 
Q 3597 2675 3597 1894 
z
M 3022 2063 
Q 3016 2534 2758 2815 
Q 2500 3097 2075 3097 
Q 1594 3097 1305 2825 
Q 1016 2553 972 2059 
L 3022 2063 
z
" id="DejaVuSans-65" transform="scale(0.015625)"/>
       <path d="M 2194 1759 
Q 1497 1759 1228 1600 
Q 959 1441 959 1056 
Q 959 750 1161 570 
Q 1363 391 1709 391 
Q 2188 391 2477 730 
Q 2766 1069 2766 1631 
L 2766 1759 
L 2194 1759 
z
M 3341 1997 
L 3341 0 
L 2766 0 
L 2766 531 
Q 2569 213 2275 61 
Q 1981 -91 1556 -91 
Q 1019 -91 701 211 
Q 384 513 384 1019 
Q 384 1609 779 1909 
Q 1175 2209 1959 2209 
L 2766 2209 
L 2766 2266 
Q 2766 2663 2505 2880 
Q 2244 3097 1772 3097 
Q 1472 3097 1187 3025 
Q 903 2953 641 2809 
L 641 3341 
Q 956 3463 1253 3523 
Q 1550 3584 1831 3584 
Q 2591 3584 2966 3190 
Q 3341 2797 3341 1997 
z
" id="DejaVuSans-61" transform="scale(0.015625)"/>
       <path d="M 2631 2963 
Q 2534 3019 2420 3045 
Q 2306 3072 2169 3072 
Q 1681 3072 1420 2755 
Q 1159 2438 1159 1844 
L 1159 0 
L 581 0 
L 581 3500 
L 1159 3500 
L 1159 2956 
Q 1341 3275 1631 3429 
Q 1922 3584 2338 3584 
Q 2397 3584 2469 3576 
Q 2541 3569 2628 3553 
L 2631 2963 
z
" id="DejaVuSans-72" transform="scale(0.015625)"/>
      </defs>
      <use xlink:href="#DejaVuSans-59"/>
      <use x="47.833984" xlink:href="#DejaVuSans-65"/>
      <use x="109.357422" xlink:href="#DejaVuSans-61"/>
      <use x="170.636719" xlink:href="#DejaVuSans-72"/>
     </g>
    </g>
   </g>
   <g id="matplotlib.axis_2">
    <g id="ytick_1">
     <g id="line2d_15">
      <path clip-path="url(#pc62a0f0e2a)" d="M 48.982813 526.840176 
L 885.982813 526.840176 
" style="fill:none;stroke:#b0b0b0;stroke-linecap:square;stroke-width:0.8;"/>
     </g>
     <g id="line2d_16">
      <defs>
       <path d="M 0 0 
L -3.5 0 
" id="m3ff5a7cd73" style="stroke:#000000;stroke-width:0.8;"/>
      </defs>
      <g>
       <use style="stroke:#000000;stroke-width:0.8;" x="48.982813" xlink:href="#m3ff5a7cd73" y="526.840176"/>
      </g>
     </g>
     <g id="text_9">
      <!-- −15 -->
      <g transform="translate(20.878125 530.639395)scale(0.1 -0.1)">
       <defs>
        <path d="M 678 2272 
L 4684 2272 
L 4684 1741 
L 678 1741 
L 678 2272 
z
" id="DejaVuSans-2212" transform="scale(0.015625)"/>
       </defs>
       <use xlink:href="#DejaVuSans-2212"/>
       <use x="83.789062" xlink:href="#DejaVuSans-31"/>
       <use x="147.412109" xlink:href="#DejaVuSans-35"/>
      </g>
     </g>
    </g>
    <g id="ytick_2">
     <g id="line2d_17">
      <path clip-path="url(#pc62a0f0e2a)" d="M 48.982813 450.468131 
L 885.982813 450.468131 
" style="fill:none;stroke:#b0b0b0;stroke-linecap:square;stroke-width:0.8;"/>
     </g>
     <g id="line2d_18">
      <g>
       <use style="stroke:#000000;stroke-width:0.8;" x="48.982813" xlink:href="#m3ff5a7cd73" y="450.468131"/>
      </g>
     </g>
     <g id="text_10">
      <!-- −10 -->
      <g transform="translate(20.878125 454.26735)scale(0.1 -0.1)">
       <use xlink:href="#DejaVuSans-2212"/>
       <use x="83.789062" xlink:href="#DejaVuSans-31"/>
       <use x="147.412109" xlink:href="#DejaVuSans-30"/>
      </g>
     </g>
    </g>
    <g id="ytick_3">
     <g id="line2d_19">
      <path clip-path="url(#pc62a0f0e2a)" d="M 48.982813 374.096087 
L 885.982813 374.096087 
" style="fill:none;stroke:#b0b0b0;stroke-linecap:square;stroke-width:0.8;"/>
     </g>
     <g id="line2d_20">
      <g>
       <use style="stroke:#000000;stroke-width:0.8;" x="48.982813" xlink:href="#m3ff5a7cd73" y="374.096087"/>
      </g>
     </g>
     <g id="text_11">
      <!-- −5 -->
      <g transform="translate(27.240625 377.895305)scale(0.1 -0.1)">
       <use xlink:href="#DejaVuSans-2212"/>
       <use x="83.789062" xlink:href="#DejaVuSans-35"/>
      </g>
     </g>
    </g>
    <g id="ytick_4">
     <g id="line2d_21">
      <path clip-path="url(#pc62a0f0e2a)" d="M 48.982813 297.724042 
L 885.982813 297.724042 
" style="fill:none;stroke:#b0b0b0;stroke-linecap:square;stroke-width:0.8;"/>
     </g>
     <g id="line2d_22">
      <g>
       <use style="stroke:#000000;stroke-width:0.8;" x="48.982813" xlink:href="#m3ff5a7cd73" y="297.724042"/>
      </g>
     </g>
     <g id="text_12">
      <!-- 0 -->
      <g transform="translate(35.620313 301.523261)scale(0.1 -0.1)">
       <use xlink:href="#DejaVuSans-30"/>
      </g>
     </g>
    </g>
    <g id="ytick_5">
     <g id="line2d_23">
      <path clip-path="url(#pc62a0f0e2a)" d="M 48.982813 221.351997 
L 885.982813 221.351997 
" style="fill:none;stroke:#b0b0b0;stroke-linecap:square;stroke-width:0.8;"/>
     </g>
     <g id="line2d_24">
      <g>
       <use style="stroke:#000000;stroke-width:0.8;" x="48.982813" xlink:href="#m3ff5a7cd73" y="221.351997"/>
      </g>
     </g>
     <g id="text_13">
      <!-- 5 -->
      <g transform="translate(35.620313 225.151216)scale(0.1 -0.1)">
       <use xlink:href="#DejaVuSans-35"/>
      </g>
     </g>
    </g>
    <g id="ytick_6">
     <g id="line2d_25">
      <path clip-path="url(#pc62a0f0e2a)" d="M 48.982813 144.979953 
L 885.982813 144.979953 
" style="fill:none;stroke:#b0b0b0;stroke-linecap:square;stroke-width:0.8;"/>
     </g>
     <g id="line2d_26">
      <g>
       <use style="stroke:#000000;stroke-width:0.8;" x="48.982813" xlink:href="#m3ff5a7cd73" y="144.979953"/>
      </g>
     </g>
     <g id="text_14">
      <!-- 10 -->
      <g transform="translate(29.257813 148.779171)scale(0.1 -0.1)">
       <use xlink:href="#DejaVuSans-31"/>
       <use x="63.623047" xlink:href="#DejaVuSans-30"/>
      </g>
     </g>
    </g>
    <g id="ytick_7">
     <g id="line2d_27">
      <path clip-path="url(#pc62a0f0e2a)" d="M 48.982813 68.607908 
L 885.982813 68.607908 
" style="fill:none;stroke:#b0b0b0;stroke-linecap:square;stroke-width:0.8;"/>
     </g>
     <g id="line2d_28">
      <g>
       <use style="stroke:#000000;stroke-width:0.8;" x="48.982813" xlink:href="#m3ff5a7cd73" y="68.607908"/>
      </g>
     </g>
     <g id="text_15">
      <!-- 15 -->
      <g transform="translate(29.257813 72.407127)scale(0.1 -0.1)">
       <use xlink:href="#DejaVuSans-31"/>
       <use x="63.623047" xlink:href="#DejaVuSans-35"/>
      </g>
     </g>
    </g>
    <g id="text_16">
     <!-- Efficiency  -->
     <g transform="translate(14.798438 319.868125)rotate(-90)scale(0.1 -0.1)">
      <defs>
       <path d="M 628 4666 
L 3578 4666 
L 3578 4134 
L 1259 4134 
L 1259 2753 
L 3481 2753 
L 3481 2222 
L 1259 2222 
L 1259 531 
L 3634 531 
L 3634 0 
L 628 0 
L 628 4666 
z
" id="DejaVuSans-45" transform="scale(0.015625)"/>
       <path d="M 2375 4863 
L 2375 4384 
L 1825 4384 
Q 1516 4384 1395 4259 
Q 1275 4134 1275 3809 
L 1275 3500 
L 2222 3500 
L 2222 3053 
L 1275 3053 
L 1275 0 
L 697 0 
L 697 3053 
L 147 3053 
L 147 3500 
L 697 3500 
L 697 3744 
Q 697 4328 969 4595 
Q 1241 4863 1831 4863 
L 2375 4863 
z
" id="DejaVuSans-66" transform="scale(0.015625)"/>
       <path d="M 603 3500 
L 1178 3500 
L 1178 0 
L 603 0 
L 603 3500 
z
M 603 4863 
L 1178 4863 
L 1178 4134 
L 603 4134 
L 603 4863 
z
" id="DejaVuSans-69" transform="scale(0.015625)"/>
       <path d="M 3122 3366 
L 3122 2828 
Q 2878 2963 2633 3030 
Q 2388 3097 2138 3097 
Q 1578 3097 1268 2742 
Q 959 2388 959 1747 
Q 959 1106 1268 751 
Q 1578 397 2138 397 
Q 2388 397 2633 464 
Q 2878 531 3122 666 
L 3122 134 
Q 2881 22 2623 -34 
Q 2366 -91 2075 -91 
Q 1284 -91 818 406 
Q 353 903 353 1747 
Q 353 2603 823 3093 
Q 1294 3584 2113 3584 
Q 2378 3584 2631 3529 
Q 2884 3475 3122 3366 
z
" id="DejaVuSans-63" transform="scale(0.015625)"/>
       <path d="M 3513 2113 
L 3513 0 
L 2938 0 
L 2938 2094 
Q 2938 2591 2744 2837 
Q 2550 3084 2163 3084 
Q 1697 3084 1428 2787 
Q 1159 2491 1159 1978 
L 1159 0 
L 581 0 
L 581 3500 
L 1159 3500 
L 1159 2956 
Q 1366 3272 1645 3428 
Q 1925 3584 2291 3584 
Q 2894 3584 3203 3211 
Q 3513 2838 3513 2113 
z
" id="DejaVuSans-6e" transform="scale(0.015625)"/>
       <path d="M 2059 -325 
Q 1816 -950 1584 -1140 
Q 1353 -1331 966 -1331 
L 506 -1331 
L 506 -850 
L 844 -850 
Q 1081 -850 1212 -737 
Q 1344 -625 1503 -206 
L 1606 56 
L 191 3500 
L 800 3500 
L 1894 763 
L 2988 3500 
L 3597 3500 
L 2059 -325 
z
" id="DejaVuSans-79" transform="scale(0.015625)"/>
       <path id="DejaVuSans-20" transform="scale(0.015625)"/>
      </defs>
      <use xlink:href="#DejaVuSans-45"/>
      <use x="63.183594" xlink:href="#DejaVuSans-66"/>
      <use x="98.388672" xlink:href="#DejaVuSans-66"/>
      <use x="133.59375" xlink:href="#DejaVuSans-69"/>
      <use x="161.376953" xlink:href="#DejaVuSans-63"/>
      <use x="216.357422" xlink:href="#DejaVuSans-69"/>
      <use x="244.140625" xlink:href="#DejaVuSans-65"/>
      <use x="305.664062" xlink:href="#DejaVuSans-6e"/>
      <use x="369.042969" xlink:href="#DejaVuSans-63"/>
      <use x="424.023438" xlink:href="#DejaVuSans-79"/>
      <use x="483.203125" xlink:href="#DejaVuSans-20"/>
     </g>
    </g>
   </g>
   <g id="line2d_29">
    <path clip-path="url(#pc62a0f0e2a)" d="M 87.028267 318.616252 
L 113.266512 308.153044 
L 139.504756 302.242844 
L 165.743001 70.314423 
L 191.981245 164.256169 
L 218.21949 114.477593 
L 244.457734 351.742129 
L 270.695979 184.520825 
L 296.934223 429.588536 
L 323.172468 376.394044 
L 349.410712 357.841081 
L 375.648957 276.943335 
L 401.887201 395.572839 
L 428.125446 313.366094 
L 454.36369 202.533732 
L 480.601935 158.995582 
L 506.840179 50.464622 
L 533.078424 50.559158 
L 559.316668 132.450123 
L 585.554913 191.041601 
L 611.793157 217.194101 
L 638.031402 173.539141 
L 664.269646 341.508768 
L 690.507891 307.790964 
L 716.746135 325.171757 
L 742.98438 257.399288 
L 769.222624 339.051873 
L 795.460869 124.005701 
L 821.699113 114.277827 
L 847.937358 218.428133 
" style="fill:none;stroke:#0000ff;stroke-linecap:square;stroke-width:1.5;"/>
   </g>
   <g id="line2d_30">
    <path clip-path="url(#pc62a0f0e2a)" d="M 87.028267 229.386573 
L 113.266512 300.736857 
L 139.504756 239.032951 
L 165.743001 319.550039 
L 191.981245 373.421942 
L 218.21949 470.079468 
L 244.457734 404.730745 
L 270.695979 355.704344 
L 296.934223 271.575621 
L 323.172468 179.823799 
L 349.410712 290.086048 
L 375.648957 255.206988 
L 401.887201 237.860193 
L 428.125446 47.027216 
L 454.36369 224.09524 
L 480.601935 299.151718 
L 506.840179 224.504151 
L 533.078424 169.31714 
L 559.316668 222.301242 
L 585.554913 238.661656 
L 611.793157 321.355875 
L 638.031402 278.723905 
L 664.269646 295.094615 
L 690.507891 334.525309 
L 716.746135 222.515558 
L 742.98438 294.972356 
L 769.222624 242.572943 
L 795.460869 270.960105 
L 821.699113 348.581315 
L 847.937358 316.708959 
" style="fill:none;stroke:#008000;stroke-linecap:square;stroke-width:1.5;"/>
   </g>
   <g id="line2d_31">
    <path clip-path="url(#pc62a0f0e2a)" d="M 87.028267 287.286703 
L 113.266512 188.857991 
L 139.504756 401.11258 
L 165.743001 263.956715 
L 191.981245 329.789126 
L 218.21949 274.975605 
L 244.457734 312.654708 
L 270.695979 416.338918 
L 296.934223 335.072424 
L 323.172468 370.22029 
L 349.410712 137.918779 
L 375.648957 276.195225 
L 401.887201 331.501708 
L 428.125446 226.902458 
L 454.36369 207.557416 
L 480.601935 289.265712 
L 506.840179 339.03956 
L 533.078424 237.784631 
L 559.316668 207.733788 
L 585.554913 196.207502 
L 611.793157 217.149448 
L 638.031402 302.25225 
L 664.269646 224.363006 
L 690.507891 213.87145 
L 716.746135 192.540536 
L 742.98438 282.647889 
L 769.222624 282.82062 
L 795.460869 462.731498 
L 821.699113 182.244718 
L 847.937358 397.616314 
" style="fill:none;stroke:#ff0000;stroke-linecap:square;stroke-width:1.5;"/>
   </g>
   <g id="line2d_32">
    <path clip-path="url(#pc62a0f0e2a)" d="M 428.125446 433.413906 
L 454.36369 384.250705 
L 480.601935 408.359682 
L 506.840179 468.744726 
L 533.078424 488.843004 
L 559.316668 400.852641 
L 585.554913 350.461657 
L 611.793157 383.121367 
L 638.031402 436.942593 
L 664.269646 374.813302 
L 690.507891 97.284722 
L 716.746135 237.06769 
L 742.98438 140.317667 
L 769.222624 157.893442 
L 795.460869 175.870293 
L 821.699113 165.857051 
L 847.937358 323.506988 
" style="fill:none;stroke:#000000;stroke-linecap:square;stroke-width:1.5;"/>
   </g>
   <g id="line2d_33">
    <path clip-path="url(#pc62a0f0e2a)" d="M 87.028267 512.806139 
L 113.266512 440.687478 
L 139.504756 432.41209 
L 165.743001 541.209034 
L 191.981245 422.070714 
L 218.21949 429.649062 
L 244.457734 150.398684 
L 270.695979 145.782219 
L 296.934223 116.943177 
L 323.172468 223.392388 
L 349.410712 192.257733 
L 375.648957 224.276528 
L 401.887201 150.279556 
L 428.125446 109.297012 
L 454.36369 149.969452 
L 480.601935 205.613386 
L 506.840179 264.599495 
L 533.078424 143.554586 
L 559.316668 159.846256 
L 585.554913 180.756281 
L 611.793157 236.725273 
L 638.031402 325.366167 
L 664.269646 274.97038 
L 690.507891 390.737883 
L 716.746135 252.288533 
L 742.98438 199.48976 
L 769.222624 223.012612 
L 795.460869 156.052313 
L 821.699113 145.249638 
L 847.937358 317.544378 
" style="fill:none;stroke:#bf00bf;stroke-linecap:square;stroke-width:1.5;"/>
   </g>
   <g id="patch_3">
    <path d="M 48.982813 565.918125 
L 48.982813 22.318125 
" style="fill:none;stroke:#000000;stroke-linecap:square;stroke-linejoin:miter;stroke-width:0.8;"/>
   </g>
   <g id="patch_4">
    <path d="M 885.982813 565.918125 
L 885.982813 22.318125 
" style="fill:none;stroke:#000000;stroke-linecap:square;stroke-linejoin:miter;stroke-width:0.8;"/>
   </g>
   <g id="patch_5">
    <path d="M 48.982813 565.918125 
L 885.982813 565.918125 
" style="fill:none;stroke:#000000;stroke-linecap:square;stroke-linejoin:miter;stroke-width:0.8;"/>
   </g>
   <g id="patch_6">
    <path d="M 48.982813 22.318125 
L 885.982813 22.318125 
" style="fill:none;stroke:#000000;stroke-linecap:square;stroke-linejoin:miter;stroke-width:0.8;"/>
   </g>
   <g id="text_17">
    <!-- Efficiency Vs Year -->
    <g transform="translate(414.740938 16.318125)scale(0.12 -0.12)">
     <defs>
      <path d="M 1831 0 
L 50 4666 
L 709 4666 
L 2188 738 
L 3669 4666 
L 4325 4666 
L 2547 0 
L 1831 0 
z
" id="DejaVuSans-56" transform="scale(0.015625)"/>
      <path d="M 2834 3397 
L 2834 2853 
Q 2591 2978 2328 3040 
Q 2066 3103 1784 3103 
Q 1356 3103 1142 2972 
Q 928 2841 928 2578 
Q 928 2378 1081 2264 
Q 1234 2150 1697 2047 
L 1894 2003 
Q 2506 1872 2764 1633 
Q 3022 1394 3022 966 
Q 3022 478 2636 193 
Q 2250 -91 1575 -91 
Q 1294 -91 989 -36 
Q 684 19 347 128 
L 347 722 
Q 666 556 975 473 
Q 1284 391 1588 391 
Q 1994 391 2212 530 
Q 2431 669 2431 922 
Q 2431 1156 2273 1281 
Q 2116 1406 1581 1522 
L 1381 1569 
Q 847 1681 609 1914 
Q 372 2147 372 2553 
Q 372 3047 722 3315 
Q 1072 3584 1716 3584 
Q 2034 3584 2315 3537 
Q 2597 3491 2834 3397 
z
" id="DejaVuSans-73" transform="scale(0.015625)"/>
     </defs>
     <use xlink:href="#DejaVuSans-45"/>
     <use x="63.183594" xlink:href="#DejaVuSans-66"/>
     <use x="98.388672" xlink:href="#DejaVuSans-66"/>
     <use x="133.59375" xlink:href="#DejaVuSans-69"/>
     <use x="161.376953" xlink:href="#DejaVuSans-63"/>
     <use x="216.357422" xlink:href="#DejaVuSans-69"/>
     <use x="244.140625" xlink:href="#DejaVuSans-65"/>
     <use x="305.664062" xlink:href="#DejaVuSans-6e"/>
     <use x="369.042969" xlink:href="#DejaVuSans-63"/>
     <use x="424.023438" xlink:href="#DejaVuSans-79"/>
     <use x="483.203125" xlink:href="#DejaVuSans-20"/>
     <use x="514.990234" xlink:href="#DejaVuSans-56"/>
     <use x="583.398438" xlink:href="#DejaVuSans-73"/>
     <use x="635.498047" xlink:href="#DejaVuSans-20"/>
     <use x="667.285156" xlink:href="#DejaVuSans-59"/>
     <use x="715.119141" xlink:href="#DejaVuSans-65"/>
     <use x="776.642578" xlink:href="#DejaVuSans-61"/>
     <use x="837.921875" xlink:href="#DejaVuSans-72"/>
    </g>
   </g>
   <g id="legend_1">
    <g id="patch_7">
     <path d="M 757.86875 103.70875 
L 878.982812 103.70875 
Q 880.982812 103.70875 880.982812 101.70875 
L 880.982812 29.318125 
Q 880.982812 27.318125 878.982812 27.318125 
L 757.86875 27.318125 
Q 755.86875 27.318125 755.86875 29.318125 
L 755.86875 101.70875 
Q 755.86875 103.70875 757.86875 103.70875 
z
" style="fill:#ffffff;opacity:0.8;stroke:#cccccc;stroke-linejoin:miter;"/>
    </g>
    <g id="line2d_34">
     <path d="M 759.86875 35.416563 
L 779.86875 35.416563 
" style="fill:none;stroke:#0000ff;stroke-linecap:square;stroke-width:1.5;"/>
    </g>
    <g id="line2d_35"/>
    <g id="text_18">
     <!-- Oakland -->
     <g transform="translate(787.86875 38.916563)scale(0.1 -0.1)">
      <defs>
       <path d="M 2522 4238 
Q 1834 4238 1429 3725 
Q 1025 3213 1025 2328 
Q 1025 1447 1429 934 
Q 1834 422 2522 422 
Q 3209 422 3611 934 
Q 4013 1447 4013 2328 
Q 4013 3213 3611 3725 
Q 3209 4238 2522 4238 
z
M 2522 4750 
Q 3503 4750 4090 4092 
Q 4678 3434 4678 2328 
Q 4678 1225 4090 567 
Q 3503 -91 2522 -91 
Q 1538 -91 948 565 
Q 359 1222 359 2328 
Q 359 3434 948 4092 
Q 1538 4750 2522 4750 
z
" id="DejaVuSans-4f" transform="scale(0.015625)"/>
       <path d="M 581 4863 
L 1159 4863 
L 1159 1991 
L 2875 3500 
L 3609 3500 
L 1753 1863 
L 3688 0 
L 2938 0 
L 1159 1709 
L 1159 0 
L 581 0 
L 581 4863 
z
" id="DejaVuSans-6b" transform="scale(0.015625)"/>
       <path d="M 603 4863 
L 1178 4863 
L 1178 0 
L 603 0 
L 603 4863 
z
" id="DejaVuSans-6c" transform="scale(0.015625)"/>
       <path d="M 2906 2969 
L 2906 4863 
L 3481 4863 
L 3481 0 
L 2906 0 
L 2906 525 
Q 2725 213 2448 61 
Q 2172 -91 1784 -91 
Q 1150 -91 751 415 
Q 353 922 353 1747 
Q 353 2572 751 3078 
Q 1150 3584 1784 3584 
Q 2172 3584 2448 3432 
Q 2725 3281 2906 2969 
z
M 947 1747 
Q 947 1113 1208 752 
Q 1469 391 1925 391 
Q 2381 391 2643 752 
Q 2906 1113 2906 1747 
Q 2906 2381 2643 2742 
Q 2381 3103 1925 3103 
Q 1469 3103 1208 2742 
Q 947 2381 947 1747 
z
" id="DejaVuSans-64" transform="scale(0.015625)"/>
      </defs>
      <use xlink:href="#DejaVuSans-4f"/>
      <use x="78.710938" xlink:href="#DejaVuSans-61"/>
      <use x="139.990234" xlink:href="#DejaVuSans-6b"/>
      <use x="197.900391" xlink:href="#DejaVuSans-6c"/>
      <use x="225.683594" xlink:href="#DejaVuSans-61"/>
      <use x="286.962891" xlink:href="#DejaVuSans-6e"/>
      <use x="350.341797" xlink:href="#DejaVuSans-64"/>
     </g>
    </g>
    <g id="line2d_36">
     <path d="M 759.86875 50.094688 
L 779.86875 50.094688 
" style="fill:none;stroke:#008000;stroke-linecap:square;stroke-width:1.5;"/>
    </g>
    <g id="line2d_37"/>
    <g id="text_19">
     <!-- New York Yankees -->
     <g transform="translate(787.86875 53.594688)scale(0.1 -0.1)">
      <defs>
       <path d="M 628 4666 
L 1478 4666 
L 3547 763 
L 3547 4666 
L 4159 4666 
L 4159 0 
L 3309 0 
L 1241 3903 
L 1241 0 
L 628 0 
L 628 4666 
z
" id="DejaVuSans-4e" transform="scale(0.015625)"/>
       <path d="M 269 3500 
L 844 3500 
L 1563 769 
L 2278 3500 
L 2956 3500 
L 3675 769 
L 4391 3500 
L 4966 3500 
L 4050 0 
L 3372 0 
L 2619 2869 
L 1863 0 
L 1184 0 
L 269 3500 
z
" id="DejaVuSans-77" transform="scale(0.015625)"/>
       <path d="M 1959 3097 
Q 1497 3097 1228 2736 
Q 959 2375 959 1747 
Q 959 1119 1226 758 
Q 1494 397 1959 397 
Q 2419 397 2687 759 
Q 2956 1122 2956 1747 
Q 2956 2369 2687 2733 
Q 2419 3097 1959 3097 
z
M 1959 3584 
Q 2709 3584 3137 3096 
Q 3566 2609 3566 1747 
Q 3566 888 3137 398 
Q 2709 -91 1959 -91 
Q 1206 -91 779 398 
Q 353 888 353 1747 
Q 353 2609 779 3096 
Q 1206 3584 1959 3584 
z
" id="DejaVuSans-6f" transform="scale(0.015625)"/>
      </defs>
      <use xlink:href="#DejaVuSans-4e"/>
      <use x="74.804688" xlink:href="#DejaVuSans-65"/>
      <use x="136.328125" xlink:href="#DejaVuSans-77"/>
      <use x="218.115234" xlink:href="#DejaVuSans-20"/>
      <use x="249.902344" xlink:href="#DejaVuSans-59"/>
      <use x="297.736328" xlink:href="#DejaVuSans-6f"/>
      <use x="358.917969" xlink:href="#DejaVuSans-72"/>
      <use x="400.03125" xlink:href="#DejaVuSans-6b"/>
      <use x="457.941406" xlink:href="#DejaVuSans-20"/>
      <use x="489.728516" xlink:href="#DejaVuSans-59"/>
      <use x="537.0625" xlink:href="#DejaVuSans-61"/>
      <use x="598.341797" xlink:href="#DejaVuSans-6e"/>
      <use x="661.720703" xlink:href="#DejaVuSans-6b"/>
      <use x="716.005859" xlink:href="#DejaVuSans-65"/>
      <use x="777.529297" xlink:href="#DejaVuSans-65"/>
      <use x="839.052734" xlink:href="#DejaVuSans-73"/>
     </g>
    </g>
    <g id="line2d_38">
     <path d="M 759.86875 64.772813 
L 779.86875 64.772813 
" style="fill:none;stroke:#ff0000;stroke-linecap:square;stroke-width:1.5;"/>
    </g>
    <g id="line2d_39"/>
    <g id="text_20">
     <!-- Boston -->
     <g transform="translate(787.86875 68.272813)scale(0.1 -0.1)">
      <defs>
       <path d="M 1259 2228 
L 1259 519 
L 2272 519 
Q 2781 519 3026 730 
Q 3272 941 3272 1375 
Q 3272 1813 3026 2020 
Q 2781 2228 2272 2228 
L 1259 2228 
z
M 1259 4147 
L 1259 2741 
L 2194 2741 
Q 2656 2741 2882 2914 
Q 3109 3088 3109 3444 
Q 3109 3797 2882 3972 
Q 2656 4147 2194 4147 
L 1259 4147 
z
M 628 4666 
L 2241 4666 
Q 2963 4666 3353 4366 
Q 3744 4066 3744 3513 
Q 3744 3084 3544 2831 
Q 3344 2578 2956 2516 
Q 3422 2416 3680 2098 
Q 3938 1781 3938 1306 
Q 3938 681 3513 340 
Q 3088 0 2303 0 
L 628 0 
L 628 4666 
z
" id="DejaVuSans-42" transform="scale(0.015625)"/>
       <path d="M 1172 4494 
L 1172 3500 
L 2356 3500 
L 2356 3053 
L 1172 3053 
L 1172 1153 
Q 1172 725 1289 603 
Q 1406 481 1766 481 
L 2356 481 
L 2356 0 
L 1766 0 
Q 1100 0 847 248 
Q 594 497 594 1153 
L 594 3053 
L 172 3053 
L 172 3500 
L 594 3500 
L 594 4494 
L 1172 4494 
z
" id="DejaVuSans-74" transform="scale(0.015625)"/>
      </defs>
      <use xlink:href="#DejaVuSans-42"/>
      <use x="68.603516" xlink:href="#DejaVuSans-6f"/>
      <use x="129.785156" xlink:href="#DejaVuSans-73"/>
      <use x="181.884766" xlink:href="#DejaVuSans-74"/>
      <use x="221.09375" xlink:href="#DejaVuSans-6f"/>
      <use x="282.275391" xlink:href="#DejaVuSans-6e"/>
     </g>
    </g>
    <g id="line2d_40">
     <path d="M 759.86875 79.450938 
L 779.86875 79.450938 
" style="fill:none;stroke:#000000;stroke-linecap:square;stroke-width:1.5;"/>
    </g>
    <g id="line2d_41"/>
    <g id="text_21">
     <!-- Tampa Bay -->
     <g transform="translate(787.86875 82.950938)scale(0.1 -0.1)">
      <defs>
       <path d="M -19 4666 
L 3928 4666 
L 3928 4134 
L 2272 4134 
L 2272 0 
L 1638 0 
L 1638 4134 
L -19 4134 
L -19 4666 
z
" id="DejaVuSans-54" transform="scale(0.015625)"/>
       <path d="M 3328 2828 
Q 3544 3216 3844 3400 
Q 4144 3584 4550 3584 
Q 5097 3584 5394 3201 
Q 5691 2819 5691 2113 
L 5691 0 
L 5113 0 
L 5113 2094 
Q 5113 2597 4934 2840 
Q 4756 3084 4391 3084 
Q 3944 3084 3684 2787 
Q 3425 2491 3425 1978 
L 3425 0 
L 2847 0 
L 2847 2094 
Q 2847 2600 2669 2842 
Q 2491 3084 2119 3084 
Q 1678 3084 1418 2786 
Q 1159 2488 1159 1978 
L 1159 0 
L 581 0 
L 581 3500 
L 1159 3500 
L 1159 2956 
Q 1356 3278 1631 3431 
Q 1906 3584 2284 3584 
Q 2666 3584 2933 3390 
Q 3200 3197 3328 2828 
z
" id="DejaVuSans-6d" transform="scale(0.015625)"/>
       <path d="M 1159 525 
L 1159 -1331 
L 581 -1331 
L 581 3500 
L 1159 3500 
L 1159 2969 
Q 1341 3281 1617 3432 
Q 1894 3584 2278 3584 
Q 2916 3584 3314 3078 
Q 3713 2572 3713 1747 
Q 3713 922 3314 415 
Q 2916 -91 2278 -91 
Q 1894 -91 1617 61 
Q 1341 213 1159 525 
z
M 3116 1747 
Q 3116 2381 2855 2742 
Q 2594 3103 2138 3103 
Q 1681 3103 1420 2742 
Q 1159 2381 1159 1747 
Q 1159 1113 1420 752 
Q 1681 391 2138 391 
Q 2594 391 2855 752 
Q 3116 1113 3116 1747 
z
" id="DejaVuSans-70" transform="scale(0.015625)"/>
      </defs>
      <use xlink:href="#DejaVuSans-54"/>
      <use x="44.583984" xlink:href="#DejaVuSans-61"/>
      <use x="105.863281" xlink:href="#DejaVuSans-6d"/>
      <use x="203.275391" xlink:href="#DejaVuSans-70"/>
      <use x="266.751953" xlink:href="#DejaVuSans-61"/>
      <use x="328.03125" xlink:href="#DejaVuSans-20"/>
      <use x="359.818359" xlink:href="#DejaVuSans-42"/>
      <use x="428.421875" xlink:href="#DejaVuSans-61"/>
      <use x="489.701172" xlink:href="#DejaVuSans-79"/>
     </g>
    </g>
    <g id="line2d_42">
     <path d="M 759.86875 94.129063 
L 779.86875 94.129063 
" style="fill:none;stroke:#bf00bf;stroke-linecap:square;stroke-width:1.5;"/>
    </g>
    <g id="line2d_43"/>
    <g id="text_22">
     <!-- Atlanta  -->
     <g transform="translate(787.86875 97.629063)scale(0.1 -0.1)">
      <defs>
       <path d="M 2188 4044 
L 1331 1722 
L 3047 1722 
L 2188 4044 
z
M 1831 4666 
L 2547 4666 
L 4325 0 
L 3669 0 
L 3244 1197 
L 1141 1197 
L 716 0 
L 50 0 
L 1831 4666 
z
" id="DejaVuSans-41" transform="scale(0.015625)"/>
      </defs>
      <use xlink:href="#DejaVuSans-41"/>
      <use x="66.658203" xlink:href="#DejaVuSans-74"/>
      <use x="105.867188" xlink:href="#DejaVuSans-6c"/>
      <use x="133.650391" xlink:href="#DejaVuSans-61"/>
      <use x="194.929688" xlink:href="#DejaVuSans-6e"/>
      <use x="258.308594" xlink:href="#DejaVuSans-74"/>
      <use x="297.517578" xlink:href="#DejaVuSans-61"/>
      <use x="358.796875" xlink:href="#DejaVuSans-20"/>
     </g>
    </g>
   </g>
  </g>
 </g>
 <defs>
  <clipPath id="pc62a0f0e2a">
   <rect height="543.6" width="837" x="48.982813" y="22.318125"/>
  </clipPath>
 </defs>
</svg>
